999
autodxfXMIN:0,44737658091241883
999
autodxfXMAX:500,4310076470925
999
autodxfYMIN:1,9750579445998835
999
autodxfYMAX:1012,1562351949153
0
SECTION
2
HEADER
9
$ACADVER
1
AC1015
9
$DWGCODEPAGE
3
ANSI_1251
9
$HANDSEED
5
36D
9
$ANGBASE
50
0.0
9
$ANGDIR
70
0
9
$ATTMODE
70
1
9
$AUNITS
70
0
9
$AUPREC
70
0
9
$CECOLOR
62
256
9
$CELTSCALE
40
1.0
9
$CELTYPE
6
ByLayer
9
$CELWEIGHT
370
-1
9
$CLAYER
8
0
9
$CMLJUST
70
0
9
$CMLSCALE
40
1.0
9
$CMLSTYLE
2
Standard
9
$DIMSTYLE
2
Standard
9
$TEXTSIZE
40
0.2
9
$TEXTSTYLE
7
Standard
9
$LUNITS
70
2
9
$LUPREC
70
4
9
$MIRRTEXT
70
0
9
$EXTNAMES
290
1
9
$INSBASE
10
0.0
20
0.0
30
0.0
9
$INSUNITS
70
4
9
$LTSCALE
40
1.0
9
$LWDISPLAY
290
0
9
$PDMODE
70
0
9
$PDSIZE
40
0.0
9
$PLINEGEN
70
0
9
$PSLTSCALE
70
1
9
$SPLINESEGS
70
6
9
$SURFU
70
6
9
$SURFV
70
6
9
$TDCREATE
40
2461306.78184028
9
$TDUCREATE
40
2461306.7401736
9
$TDUPDATE
40
2461306.78184028
9
$TDUUPDATE
40
2461306.7401736
9
$TDINDWG
40
0.0
9
$UCSORG
10
0.0
20
0.0
30
0.0
9
$UCSXDIR
10
1.0
20
0.0
30
0.0
9
$UCSYDIR
10
0.0
20
1.0
30
0.0
9
$DIMADEC
70
0
9
$DIMALT
70
0
9
$DIMALTD
70
2
9
$DIMALTF
40
25.4
9
$DIMALTRND
40
0.0
9
$DIMALTTD
70
2
9
$DIMALTTZ
70
0
9
$DIMALTU
70
2
9
$DIMALTZ
70
0
9
$DIMAPOST
1

9
$DIMATFIT
70
3
9
$DIMAUNIT
70
0
9
$DIMASZ
40
0.18
9
$DIMAZIN
70
3
9
$DIMSAH
70
0
9
$DIMBLK
1

9
$DIMLDRBLK
1

9
$DIMCEN
40
0.09
9
$DIMCLRD
70
0
9
$DIMCLRE
70
0
9
$DIMCLRT
70
0
9
$DIMDEC
70
4
9
$DIMDLE
40
0.0
9
$DIMDLI
40
0.38
9
$DIMDSEP
70
46
9
$DIMEXE
40
0.18
9
$DIMEXO
40
0.0625
9
$DIMFXLON
70
0
9
$DIMFXL
40
1.0
9
$DIMGAP
40
0.09
9
$DIMJUST
70
0
9
$DIMLFAC
40
1.0
9
$DIMLUNIT
70
2
9
$DIMLWD
70
-2
9
$DIMLWE
70
-2
9
$DIMPOST
1

9
$DIMRND
40
0.0
9
$DIMSCALE
40
1.0
9
$DIMSD1
70
0
9
$DIMSD2
70
0
9
$DIMSE1
70
0
9
$DIMSE2
70
0
9
$DIMSOXD
70
0
9
$DIMTAD
70
0
9
$DIMTDEC
70
4
9
$DIMTFAC
40
1.0
9
$DIMTIH
70
0
9
$DIMTIX
70
0
9
$DIMTM
40
0.0
9
$DIMTMOVE
70
0
9
$DIMTOFL
70
0
9
$DIMTOH
70
0
9
$DIMTOL
70
0
9
$DIMLIM
70
0
9
$DIMTOLJ
70
1
9
$DIMTP
40
0.0
9
$DIMTXT
40
0.18
9
$DIMTXTDIRECTION
70
0
9
$DIMTZIN
70
0
9
$DIMZIN
70
0
9
$DIMFRAC
70
0
9
$DIMLTYPE
6
ByBlock
9
$DIMLTEX1
6
ByBlock
9
$DIMLTEX2
6
ByBlock
9
$EXTMIN
10
0.0
20
0.0
30
0.0
9
$EXTMAX
10
325509.589588026
20
136570.320135884
30
0.0
9
$LIMMIN
10
0.0
20
0.0
9
$LIMMAX
10
325509.589588026
20
136570.320135884
9
$ORTHOMODE
70
0
9
$REGENMODE
70
1
9
$FILLMODE
70
1
9
$QTEXTMODE
70
0
9
$TRACEWID
40
0.05
9
$DISPSILH
70
0
9
$SKETCHINC
40
0.1
9
$FILLETRAD
40
0.0
9
$MENU
1
.
9
$ELEVATION
40
0.0
9
$PELEVATION
40
0.0
9
$THICKNESS
40
0.0
9
$LIMCHECK
70
0
9
$CHAMFERA
40
0.0
9
$CHAMFERB
40
0.0
9
$CHAMFERC
40
0.0
9
$CHAMFERD
40
0.0
9
$SKPOLY
70
0
9
$TDUSRTIMER
40
0.0
9
$USRTIMER
70
1
9
$PLINEWID
40
0.0
9
$SPLFRAME
70
0
9
$SPLINETYPE
70
6
9
$SURFTAB1
70
6
9
$SURFTAB2
70
6
9
$SURFTYPE
70
6
9
$UCSBASE
2

9
$UCSNAME
2

9
$UCSORTHOREF
2

9
$UCSORTHOVIEW
70
0
9
$UCSORGTOP
10
0.0
20
0.0
30
0.0
9
$UCSORGBOTTOM
10
0.0
20
0.0
30
0.0
9
$UCSORGLEFT
10
0.0
20
0.0
30
0.0
9
$UCSORGRIGHT
10
0.0
20
0.0
30
0.0
9
$UCSORGFRONT
10
0.0
20
0.0
30
0.0
9
$UCSORGBACK
10
0.0
20
0.0
30
0.0
9
$PUCSBASE
2

9
$PUCSNAME
2

9
$PUCSORG
10
0.0
20
0.0
30
0.0
9
$PUCSXDIR
10
1.0
20
0.0
30
0.0
9
$PUCSYDIR
10
0.0
20
1.0
30
0.0
9
$PUCSORTHOREF
2

9
$PUCSORTHOVIEW
70
0
9
$PUCSORGTOP
10
0.0
20
0.0
30
0.0
9
$PUCSORGBOTTOM
10
0.0
20
0.0
30
0.0
9
$PUCSORGLEFT
10
0.0
20
0.0
30
0.0
9
$PUCSORGRIGHT
10
0.0
20
0.0
30
0.0
9
$PUCSORGFRONT
10
0.0
20
0.0
30
0.0
9
$PUCSORGBACK
10
0.0
20
0.0
30
0.0
9
$USERI1
70
0
9
$USERI2
70
0
9
$USERI3
70
0
9
$USERI4
70
0
9
$USERI5
70
0
9
$USERR1
40
0.0
9
$USERR2
40
0.0
9
$USERR3
40
0.0
9
$USERR4
40
0.0
9
$USERR5
40
0.0
9
$WORLDVIEW
70
1
9
$SHADEDGE
70
3
9
$SHADEDIF
70
70
9
$TILEMODE
70
1
9
$MAXACTVP
70
64
9
$PINSBASE
10
0.0
20
0.0
30
0.0
9
$PLIMCHECK
70
0
9
$PEXTMIN
10
0.0
20
0.0
30
0.0
9
$PEXTMAX
10
325509.589588026
20
136570.320135884
30
0.0
9
$PLIMMIN
10
0.0
20
0.0
9
$PLIMMAX
10
325509.589588026
20
136570.320135884
9
$UNITMODE
70
0
9
$VISRETAIN
70
1
9
$TREEDEPTH
70
3020
9
$PROXYGRAPHICS
70
1
9
$MEASUREMENT
70
1
9
$ENDCAPS
280
0
9
$JOINSTYLE
280
0
9
$HYPERLINKBASE
1

9
$STYLESHEET
1

9
$XEDIT
290
1
9
$CEPSNTYPE
380
0
9
$PSTYLEMODE
290
1
9
$FINGERPRINTGUID
2
{1F335FBA-1E07-0146-88E6-9F159EF04334}
9
$VERSIONGUID
2
{748E6A09-1B02-D84A-A0CE-81E09DABA019}
9
$PSVPSCALE
40
0.0
9
$OLESTARTUP
290
0
0
ENDSEC
0
SECTION
2
CLASSES
0
CLASS
1
RASTERVARIABLES
2
AcDbRasterVariables
3
ISM
90
0
280
0
281
0
0
ENDSEC
0
SECTION
2
TABLES
0
TABLE
2
APPID
5
9
330
0
100
AcDbSymbolTable
70
7
0
APPID
5
56
330
9
100
AcDbSymbolTableRecord
100
AcDbRegAppTableRecord
2
ACAD
70
0
0
APPID
5
5E
330
9
100
AcDbSymbolTableRecord
100
AcDbRegAppTableRecord
2
AcadAnnotative
70
0
0
APPID
5
34C
330
9
100
AcDbSymbolTableRecord
100
AcDbRegAppTableRecord
2
ACAD_MLEADERVER
70
0
0
APPID
5
367
330
9
100
AcDbSymbolTableRecord
100
AcDbRegAppTableRecord
2
AcCmTransparency
70
0
0
APPID
5
368
330
9
100
AcDbSymbolTableRecord
100
AcDbRegAppTableRecord
2
AcAecLayerStandard
70
0
0
APPID
5
369
330
9
100
AcDbSymbolTableRecord
100
AcDbRegAppTableRecord
2
GradientColor1ACI
70
0
0
APPID
5
36A
330
9
100
AcDbSymbolTableRecord
100
AcDbRegAppTableRecord
2
GradientColor2ACI
70
0
0
ENDTAB
0
TABLE
2
VPORT
5
8
330
0
100
AcDbSymbolTable
70
1
0
VPORT
5
35D
330
8
100
AcDbSymbolTableRecord
100
AcDbViewportTableRecord
2
*Active
70
0
10
0.0
20
0.0
11
1.0
21
1.0
12
250.439192114002
22
507.065646569758
13
0.0
23
0.0
14
0.5
24
0.5
15
10.0
25
10.0
16
0.0
26
0.0
36
1.0
17
0.0
27
0.0
37
0.0
40
1111.198
41
1.0
75
0
76
1
0
ENDTAB
0
TABLE
2
LTYPE
5
5
330
0
100
AcDbSymbolTable
70
48
0
LTYPE
5
5B
330
5
100
AcDbSymbolTableRecord
100
AcDbLinetypeTableRecord
2
ByBlock
70
0
3

72
65
73
0
40
0.0
0
LTYPE
5
5C
330
5
100
AcDbSymbolTableRecord
100
AcDbLinetypeTableRecord
2
ByLayer
70
0
3

72
65
73
0
40
0.0
0
LTYPE
5
5D
330
5
100
AcDbSymbolTableRecord
100
AcDbLinetypeTableRecord
2
Continuous
70
0
3
Solid line
72
65
73
0
40
0.0
0
LTYPE
5
78
330
5
100
AcDbSymbolTableRecord
100
AcDbLinetypeTableRecord
2
BORDER
70
0
3
Border __ __ . __ __ . __ __ . __ __ . __ __ .
72
65
73
6
40
1.75
49
0.5
74
0
49
-0.25
74
0
49
0.5
74
0
49
-0.25
74
0
49
0.0
74
0
49
-0.25
74
0
0
LTYPE
5
79
330
5
100
AcDbSymbolTableRecord
100
AcDbLinetypeTableRecord
2
BORDER2
70
0
3
Border (.5x) __.__.__.__.__.__.__.__.__.__.__.
72
65
73
6
40
0.875
49
0.25
74
0
49
-0.125
74
0
49
0.25
74
0
49
-0.125
74
0
49
0.0
74
0
49
-0.125
74
0
0
LTYPE
5
7A
330
5
100
AcDbSymbolTableRecord
100
AcDbLinetypeTableRecord
2
BORDERX2
70
0
3
Border (2x) ____  ____  .  ____  ____  .  ___
72
65
73
6
40
3.5
49
1.0
74
0
49
-0.5
74
0
49
1.0
74
0
49
-0.5
74
0
49
0.0
74
0
49
-0.5
74
0
0
LTYPE
5
7B
330
5
100
AcDbSymbolTableRecord
100
AcDbLinetypeTableRecord
2
CENTER
70
0
3
Center ____ _ ____ _ ____ _ ____ _ ____ _ ____
72
65
73
4
40
2.0
49
1.25
74
0
49
-0.25
74
0
49
0.25
74
0
49
-0.25
74
0
0
LTYPE
5
7C
330
5
100
AcDbSymbolTableRecord
100
AcDbLinetypeTableRecord
2
CENTER2
70
0
3
Center (.5x) ___ _ ___ _ ___ _ ___ _ ___ _ ___
72
65
73
4
40
1.125
49
0.75
74
0
49
-0.125
74
0
49
0.125
74
0
49
-0.125
74
0
0
LTYPE
5
7D
330
5
100
AcDbSymbolTableRecord
100
AcDbLinetypeTableRecord
2
CENTERX2
70
0
3
Center (2x) ________  __  ________  __  _____
72
65
73
4
40
4.0
49
2.5
74
0
49
-0.5
74
0
49
0.5
74
0
49
-0.5
74
0
0
LTYPE
5
7E
330
5
100
AcDbSymbolTableRecord
100
AcDbLinetypeTableRecord
2
DASHDOT
70
0
3
Dash dot __ . __ . __ . __ . __ . __ . __ . __
72
65
73
4
40
1.0
49
0.5
74
0
49
-0.25
74
0
49
0.0
74
0
49
-0.25
74
0
0
LTYPE
5
7F
330
5
100
AcDbSymbolTableRecord
100
AcDbLinetypeTableRecord
2
DASHDOT2
70
0
3
Dash dot (.5x) _._._._._._._._._._._._._._._.
72
65
73
4
40
0.5
49
0.25
74
0
49
-0.125
74
0
49
0.0
74
0
49
-0.125
74
0
0
LTYPE
5
80
330
5
100
AcDbSymbolTableRecord
100
AcDbLinetypeTableRecord
2
DASHDOTX2
70
0
3
Dash dot (2x) ____  .  ____  .  ____  .  ___
72
65
73
4
40
2.0
49
1.0
74
0
49
-0.5
74
0
49
0.0
74
0
49
-0.5
74
0
0
LTYPE
5
81
330
5
100
AcDbSymbolTableRecord
100
AcDbLinetypeTableRecord
2
DASHED
70
0
3
Dashed __ __ __ __ __ __ __ __ __ __ __ __ __ _
72
65
73
2
40
0.75
49
0.5
74
0
49
-0.25
74
0
0
LTYPE
5
82
330
5
100
AcDbSymbolTableRecord
100
AcDbLinetypeTableRecord
2
DASHED2
70
0
3
Dashed (.5x) _ _ _ _ _ _ _ _ _ _ _ _ _ _ _ _ _
72
65
73
2
40
0.375
49
0.25
74
0
49
-0.125
74
0
0
LTYPE
5
83
330
5
100
AcDbSymbolTableRecord
100
AcDbLinetypeTableRecord
2
DASHEDX2
70
0
3
Dashed (2x) ____  ____  ____  ____  ____  ___
72
65
73
2
40
1.5
49
1.0
74
0
49
-0.5
74
0
0
LTYPE
5
84
330
5
100
AcDbSymbolTableRecord
100
AcDbLinetypeTableRecord
2
DIVIDE
70
0
3
Divide ____ . . ____ . . ____ . . ____ . . ____
72
65
73
6
40
1.25
49
0.5
74
0
49
-0.25
74
0
49
0.0
74
0
49
-0.25
74
0
49
0.0
74
0
49
-0.25
74
0
0
LTYPE
5
85
330
5
100
AcDbSymbolTableRecord
100
AcDbLinetypeTableRecord
2
DIVIDE2
70
0
3
Divide (.5x) __..__..__..__..__..__..__..__.._
72
65
73
6
40
0.625
49
0.25
74
0
49
-0.125
74
0
49
0.0
74
0
49
-0.125
74
0
49
0.0
74
0
49
-0.125
74
0
0
LTYPE
5
86
330
5
100
AcDbSymbolTableRecord
100
AcDbLinetypeTableRecord
2
DIVIDEX2
70
0
3
Divide (2x) ________  .  .  ________  .  .  _
72
65
73
6
40
2.5
49
1.0
74
0
49
-0.5
74
0
49
0.0
74
0
49
-0.5
74
0
49
0.0
74
0
49
-0.5
74
0
0
LTYPE
5
87
330
5
100
AcDbSymbolTableRecord
100
AcDbLinetypeTableRecord
2
DOT
70
0
3
Dot . . . . . . . . . . . . . . . . . . . . . .
72
65
73
2
40
0.25
49
0.0
74
0
49
-0.25
74
0
0
LTYPE
5
88
330
5
100
AcDbSymbolTableRecord
100
AcDbLinetypeTableRecord
2
DOT2
70
0
3
Dot (.5x) .....................................
72
65
73
2
40
0.125
49
0.0
74
0
49
-0.125
74
0
0
LTYPE
5
89
330
5
100
AcDbSymbolTableRecord
100
AcDbLinetypeTableRecord
2
DOTX2
70
0
3
Dot (2x) .  .  .  .  .  .  .  .  .  .  .  .  . 
72
65
73
2
40
0.5
49
0.0
74
0
49
-0.5
74
0
0
LTYPE
5
8A
330
5
100
AcDbSymbolTableRecord
100
AcDbLinetypeTableRecord
2
HIDDEN
70
0
3
Hidden __ __ __ __ __ __ __ __ __ __ __ __ __ _
72
65
73
2
40
0.375
49
0.25
74
0
49
-0.125
74
0
0
LTYPE
5
8B
330
5
100
AcDbSymbolTableRecord
100
AcDbLinetypeTableRecord
2
HIDDEN2
70
0
3
Hidden (.5x) _ _ _ _ _ _ _ _ _ _ _ _ _ _ _ _ _
72
65
73
2
40
0.1875
49
0.125
74
0
49
-0.0625
74
0
0
LTYPE
5
8C
330
5
100
AcDbSymbolTableRecord
100
AcDbLinetypeTableRecord
2
HIDDENX2
70
0
3
Hidden (2x) ____ ____ ____ ____ ____ ____ ____
72
65
73
2
40
0.75
49
0.5
74
0
49
-0.25
74
0
0
LTYPE
5
8D
330
5
100
AcDbSymbolTableRecord
100
AcDbLinetypeTableRecord
2
PHANTOM
70
0
3
Phantom ______  __  __  ______  __  __  ______
72
65
73
6
40
2.5
49
1.25
74
0
49
-0.25
74
0
49
0.25
74
0
49
-0.25
74
0
49
0.25
74
0
49
-0.25
74
0
0
LTYPE
5
8E
330
5
100
AcDbSymbolTableRecord
100
AcDbLinetypeTableRecord
2
PHANTOM2
70
0
3
Phantom (.5x) ___ _ _ ___ _ _ ___ _ _ ___ _ _
72
65
73
6
40
1.25
49
0.625
74
0
49
-0.125
74
0
49
0.125
74
0
49
-0.125
74
0
49
0.125
74
0
49
-0.125
74
0
0
LTYPE
5
8F
330
5
100
AcDbSymbolTableRecord
100
AcDbLinetypeTableRecord
2
PHANTOMX2
70
0
3
Phantom (2x) ____________    ____    ____   _
72
65
73
6
40
5.0
49
2.5
74
0
49
-0.5
74
0
49
0.5
74
0
49
-0.5
74
0
49
0.5
74
0
49
-0.5
74
0
0
LTYPE
5
90
330
5
100
AcDbSymbolTableRecord
100
AcDbLinetypeTableRecord
2
ACAD_ISO02W100
70
0
3
ISO dash __ __ __ __ __ __ __ __ __ __ __ __ __
72
65
73
2
40
15.0
49
12.0
74
0
49
-3.0
74
0
0
LTYPE
5
91
330
5
100
AcDbSymbolTableRecord
100
AcDbLinetypeTableRecord
2
ACAD_ISO03W100
70
0
3
ISO dash space __    __    __    __    __    __
72
65
73
2
40
30.0
49
12.0
74
0
49
-18.0
74
0
0
LTYPE
5
92
330
5
100
AcDbSymbolTableRecord
100
AcDbLinetypeTableRecord
2
ACAD_ISO04W100
70
0
3
ISO long-dash dot ____ . ____ . ____ . ____ . _
72
65
73
4
40
30.0
49
24.0
74
0
49
-3.0
74
0
49
0.0
74
0
49
-3.0
74
0
0
LTYPE
5
93
330
5
100
AcDbSymbolTableRecord
100
AcDbLinetypeTableRecord
2
ACAD_ISO05W100
70
0
3
ISO long-dash double-dot ____ .. ____ .. ____ .
72
65
73
6
40
33.0
49
24.0
74
0
49
-3.0
74
0
49
0.0
74
0
49
-3.0
74
0
49
0.0
74
0
49
-3.0
74
0
0
LTYPE
5
94
330
5
100
AcDbSymbolTableRecord
100
AcDbLinetypeTableRecord
2
ACAD_ISO06W100
70
0
3
ISO long-dash triple-dot ____ ... ____ ... ____
72
65
73
8
40
36.0
49
24.0
74
0
49
-3.0
74
0
49
0.0
74
0
49
-3.0
74
0
49
0.0
74
0
49
-3.0
74
0
49
0.0
74
0
49
-3.0
74
0
0
LTYPE
5
95
330
5
100
AcDbSymbolTableRecord
100
AcDbLinetypeTableRecord
2
ACAD_ISO07W100
70
0
3
ISO dot . . . . . . . . . . . . . . . . . . . .
72
65
73
2
40
3.0
49
0.0
74
0
49
-3.0
74
0
0
LTYPE
5
96
330
5
100
AcDbSymbolTableRecord
100
AcDbLinetypeTableRecord
2
ACAD_ISO08W100
70
0
3
ISO long-dash short-dash ____ __ ____ __ ____ _
72
65
73
4
40
36.0
49
24.0
74
0
49
-3.0
74
0
49
6.0
74
0
49
-3.0
74
0
0
LTYPE
5
97
330
5
100
AcDbSymbolTableRecord
100
AcDbLinetypeTableRecord
2
ACAD_ISO09W100
70
0
3
ISO long-dash double-short-dash ____ __ __ ____
72
65
73
6
40
45.0
49
24.0
74
0
49
-3.0
74
0
49
6.0
74
0
49
-3.0
74
0
49
6.0
74
0
49
-3.0
74
0
0
LTYPE
5
98
330
5
100
AcDbSymbolTableRecord
100
AcDbLinetypeTableRecord
2
ACAD_ISO10W100
70
0
3
ISO dash dot __ . __ . __ . __ . __ . __ . __ .
72
65
73
4
40
18.0
49
12.0
74
0
49
-3.0
74
0
49
0.0
74
0
49
-3.0
74
0
0
LTYPE
5
99
330
5
100
AcDbSymbolTableRecord
100
AcDbLinetypeTableRecord
2
ACAD_ISO11W100
70
0
3
ISO double-dash dot __ __ . __ __ . __ __ . __ 
72
65
73
6
40
33.0
49
12.0
74
0
49
-3.0
74
0
49
12.0
74
0
49
-3.0
74
0
49
0.0
74
0
49
-3.0
74
0
0
LTYPE
5
9A
330
5
100
AcDbSymbolTableRecord
100
AcDbLinetypeTableRecord
2
ACAD_ISO12W100
70
0
3
ISO dash double-dot __ . . __ . . __ . . __ . .
72
65
73
6
40
21.0
49
12.0
74
0
49
-3.0
74
0
49
0.0
74
0
49
-3.0
74
0
49
0.0
74
0
49
-3.0
74
0
0
LTYPE
5
9B
330
5
100
AcDbSymbolTableRecord
100
AcDbLinetypeTableRecord
2
ACAD_ISO13W100
70
0
3
ISO double-dash double-dot __ __ . . __ __ . . 
72
65
73
8
40
36.0
49
12.0
74
0
49
-3.0
74
0
49
12.0
74
0
49
-3.0
74
0
49
0.0
74
0
49
-3.0
74
0
49
0.0
74
0
49
-3.0
74
0
0
LTYPE
5
9C
330
5
100
AcDbSymbolTableRecord
100
AcDbLinetypeTableRecord
2
ACAD_ISO14W100
70
0
3
ISO dash triple-dot __ . . . __ . . . __ . . . 
72
65
73
8
40
24.0
49
12.0
74
0
49
-3.0
74
0
49
0.0
74
0
49
-3.0
74
0
49
0.0
74
0
49
-3.0
74
0
49
0.0
74
0
49
-3.0
74
0
0
LTYPE
5
9D
330
5
100
AcDbSymbolTableRecord
100
AcDbLinetypeTableRecord
2
ACAD_ISO15W100
70
0
3
ISO double-dash triple-dot __ __ . . . __ __ . 
72
65
73
10
40
39.0
49
12.0
74
0
49
-3.0
74
0
49
12.0
74
0
49
-3.0
74
0
49
0.0
74
0
49
-3.0
74
0
49
0.0
74
0
49
-3.0
74
0
49
0.0
74
0
49
-3.0
74
0
0
LTYPE
5
A0
330
5
100
AcDbSymbolTableRecord
100
AcDbLinetypeTableRecord
2
FENCELINE1
70
0
3
Fenceline circle ----0-----0----0-----0----0---
72
65
73
3
40
1.35
49
0.25
74
0
49
-0.1
74
0
49
1.0
74
0
0
LTYPE
5
A1
330
5
100
AcDbSymbolTableRecord
100
AcDbLinetypeTableRecord
2
FENCELINE2
70
0
3
Fenceline square ----[]-----[]----[]-----[]----
72
65
73
3
40
1.35
49
0.25
74
0
49
-0.1
74
0
49
1.0
74
0
0
LTYPE
5
A2
330
5
100
AcDbSymbolTableRecord
100
AcDbLinetypeTableRecord
2
TRACKS
70
0
3
Tracks -|-|-|-|-|-|-|-|-|-|-|-|-|-|-|-|-|-|-|-|
72
65
73
1
40
0.15
49
0.15
74
0
0
LTYPE
5
A3
330
5
100
AcDbSymbolTableRecord
100
AcDbLinetypeTableRecord
2
BATTING
70
0
3
Batting SSSSSSSSSSSSSSSSSSSSSSSSSSSSSSSSSSSSSSS
72
65
73
2
40
0.1001
49
0.0001
74
0
49
-0.1
74
0
0
LTYPE
5
A4
330
5
100
AcDbSymbolTableRecord
100
AcDbLinetypeTableRecord
2
HOT_WATER_SUPPLY
70
0
3
Hot water supply ---- HW ---- HW ---- HW ----
72
65
73
3
40
0.9
49
0.5
74
0
49
-0.2
74
2
75
0
340
55
46
0.1
50
0.0
44
-0.1
45
-0.05
9
HW
49
-0.2
74
0
0
LTYPE
5
A5
330
5
100
AcDbSymbolTableRecord
100
AcDbLinetypeTableRecord
2
GAS_LINE
70
0
3
Gas line ----GAS----GAS----GAS----GAS----GAS---
72
65
73
3
40
0.95
49
0.5
74
0
49
-0.2
74
2
75
0
340
55
46
0.1
50
0.0
44
-0.1
45
-0.05
9
GAS
49
-0.25
74
0
0
LTYPE
5
A6
330
5
100
AcDbSymbolTableRecord
100
AcDbLinetypeTableRecord
2
ZIGZAG
70
0
3
Zig zag /\/\/\/\/\/\/\/\/\/\/\/\/\/\/\/\/\/\/\/
72
65
73
2
40
0.2001
49
0.0001
74
0
49
-0.2
74
0
0
ENDTAB
0
TABLE
2
LAYER
5
2
102
{ACAD_XDICTIONARY
360
35E
102
}
330
0
100
AcDbSymbolTable
70
3
0
LAYER
5
54
330
2
100
AcDbSymbolTableRecord
100
AcDbLayerTableRecord
2
0
70
0
62
7
6
Continuous
290
1
370
-3
390
0
0
LAYER
5
A7
330
2
100
AcDbSymbolTableRecord
100
AcDbLayerTableRecord
2
IV_OUTER_PROFILE
70
0
62
7
6
Continuous
290
1
370
50
390
0
0
LAYER
5
A8
330
2
100
AcDbSymbolTableRecord
100
AcDbLayerTableRecord
2
IV_BEND_DOWN
70
0
62
30
6
Continuous
290
1
370
50
390
0
0
ENDTAB
0
TABLE
2
STYLE
5
3
330
0
100
AcDbSymbolTable
70
2
0
STYLE
5
55
330
3
100
AcDbSymbolTableRecord
100
AcDbTextStyleTableRecord
2
Standard
3
txt.SHX
70
0
71
0
40
0.0
41
1.0
42
0.0
50
0.0
0
STYLE
5
5A
330
3
100
AcDbSymbolTableRecord
100
AcDbTextStyleTableRecord
2
Annotative
3
txt.SHX
70
0
71
0
40
0.0
41
1.0
42
0.0
50
0.0
1001
AcadAnnotative
1000
AnnotativeData
1002
{
1070
1
1070
1
1002
}
0
STYLE
5
9F
330
35F
100
AcDbSymbolTableRecord
100
AcDbTextStyleTableRecord
2

3
ltypeshp.shx
70
1
40
0.0
41
1.0
42
0.0
50
0.0
0
ENDTAB
0
TABLE
2
DIMSTYLE
5
A
330
0
100
AcDbSymbolTable
70
2
100
AcDbDimStyleTable
0
DIMSTYLE
105
58
330
A
100
AcDbSymbolTableRecord
100
AcDbDimStyleTableRecord
2
Standard
3

4

40
1.0
41
0.18
42
0.0625
43
0.38
44
0.18
45
0.0
46
0.0
47
0.0
48
0.0
49
1.0
70
0
71
0
72
0
73
0
74
0
75
0
76
0
77
0
78
0
79
3
140
0.18
141
0.09
143
25.4
144
1.0
146
1.0
147
0.09
148
0.0
170
0
171
2
172
0
174
0
175
0
176
0
177
0
178
0
179
0
271
4
272
4
273
2
274
2
275
0
276
0
277
2
278
46
279
0
280
0
281
0
282
0
283
1
284
0
285
0
286
0
289
3
290
0
294
0
340
55
173
0
345
5B
346
5B
347
5B
371
-2
372
-2
0
DIMSTYLE
105
59
330
A
100
AcDbSymbolTableRecord
100
AcDbDimStyleTableRecord
2
Annotative
3

4

40
1.0
41
0.18
42
0.0625
43
0.38
44
0.18
45
0.0
46
0.0
47
0.0
48
0.0
49
1.0
70
0
71
0
72
0
73
0
74
0
75
0
76
0
77
0
78
0
79
3
140
0.18
141
0.09
143
25.4
144
1.0
146
1.0
147
0.09
148
0.0
170
0
171
2
172
0
174
0
175
0
176
0
177
0
178
0
179
0
271
4
272
4
273
2
274
2
275
0
276
0
277
2
278
46
279
0
280
0
281
0
282
0
283
1
284
0
285
0
286
0
289
3
290
0
294
0
340
55
173
0
345
5B
346
5B
347
5B
371
-2
372
-2
1001
AcadAnnotative
1000
AnnotativeData
1002
{
1070
1
1070
1
1002
}
0
ENDTAB
0
TABLE
2
VIEW
5
6
330
0
100
AcDbSymbolTable
70
0
0
ENDTAB
0
TABLE
2
UCS
5
7
330
0
100
AcDbSymbolTable
70
0
0
ENDTAB
0
TABLE
2
BLOCK_RECORD
5
1
330
0
100
AcDbSymbolTable
70
3
0
BLOCK_RECORD
5
70
330
1
100
AcDbSymbolTableRecord
100
AcDbBlockTableRecord
2
*Model_Space
340
73
0
BLOCK_RECORD
5
6C
330
1
100
AcDbSymbolTableRecord
100
AcDbBlockTableRecord
2
*Paper_Space
340
6F
0
BLOCK_RECORD
5
74
330
1
100
AcDbSymbolTableRecord
100
AcDbBlockTableRecord
2
*Paper_Space0
340
77
0
ENDTAB
0
ENDSEC
0
SECTION
2
BLOCKS
0
BLOCK
5
71
330
70
100
AcDbEntity
67
0
8
0
100
AcDbBlockBegin
2
*Model_Space
70
0
10
0.0
20
0.0
30
0.0
3
*Model_Space
4

0
ENDBLK
5
72
330
70
100
AcDbEntity
8
0
100
AcDbBlockEnd
0
BLOCK
5
6D
330
6C
100
AcDbEntity
67
1
8
0
100
AcDbBlockBegin
2
*Paper_Space
70
0
10
0.0
20
0.0
30
0.0
3
*Paper_Space
4

0
ENDBLK
5
6E
330
6C
100
AcDbEntity
8
0
100
AcDbBlockEnd
0
BLOCK
5
75
330
74
100
AcDbEntity
67
1
8
0
100
AcDbBlockBegin
2
*Paper_Space0
70
0
10
0.0
20
0.0
30
0.0
3
*Paper_Space0
4

0
VIEWPORT
5
366
330
74
100
AcDbEntity
67
1
8
0
62
256
6
ByLayer
370
-1
48
1.0
60
0
100
AcDbViewport
10
0.0
20
0.0
30
0.0
40
297.0
41
210.0
68
1
69
1
12
50.0
22
100.0
13
0.0
23
0.0
14
10.0
24
10.0
15
10.0
25
10.0
16
0.0
26
0.0
36
1.0
17
0.0
27
0.0
37
0.0
42
50.0
43
0.0
44
0.0
45
250.0
50
0.0
51
0.0
72
1000
90
819232
110
0.0
120
0.0
130
0.0
111
1.0
121
0.0
131
0.0
112
0.0
122
1.0
132
0.0
0
ENDBLK
5
76
330
74
100
AcDbEntity
8
0
100
AcDbBlockEnd
0
ENDSEC
0
SECTION
2
ENTITIES
0
VIEWPORT
5
365
330
6C
100
AcDbEntity
67
1
8
0
62
256
6
ByLayer
370
-1
48
1.0
60
0
100
AcDbViewport
10
0.0
20
0.0
30
0.0
40
297.0
41
210.0
68
1
69
1
12
50.0
22
100.0
13
0.0
23
0.0
14
10.0
24
10.0
15
10.0
25
10.0
16
0.0
26
0.0
36
1.0
17
0.0
27
0.0
37
0.0
42
50.0
43
0.0
44
0.0
45
250.0
50
0.0
51
0.0
72
1000
90
819232
110
0.0
120
0.0
130
0.0
111
1.0
121
0.0
131
0.0
112
0.0
122
1.0
132
0.0
0
LINE
5
A9
330
70
100
AcDbEntity
67
0
8
IV_BEND_DOWN
62
256
6
ByLayer
370
-1
48
1.0
60
0
100
AcDbLine
10
0.4473914172757
20
507.065646569758
30
0.0
11
500.43097179717
21
507.065646569758
31
0.0
39
0.0
210
0.0
220
0.0
230
1.0
0
ARC
5
AB
330
70
100
AcDbEntity
67
0
8
IV_OUTER_PROFILE
62
256
6
ByLayer
370
-1
48
1.0
60
0
100
AcDbCircle
39
0.0
10
-162138.560037408
20
68286.6807901206
30
0.0
40
176232.680659407
210
0.0
220
0.0
230
1.0
100
AcDbArc
50
337.291853862666
51
337.29281037078
0
ARC
5
AC
330
70
100
AcDbEntity
67
0
8
IV_OUTER_PROFILE
62
256
6
ByLayer
370
-1
48
1.0
60
0
100
AcDbCircle
39
0.0
10
-22788.4143573552
20
9973.79400252323
30
0.0
40
25173.566860842
210
0.0
220
0.0
230
1.0
100
AcDbArc
50
337.29472370427
51
337.301419653438
0
ARC
5
AD
330
70
100
AcDbEntity
67
0
8
IV_OUTER_PROFILE
62
256
6
ByLayer
370
-1
48
1.0
60
0
100
AcDbCircle
39
0.0
10
-12067.2691989823
20
5488.86319831062
30
0.0
40
13552.1402081149
210
0.0
220
0.0
230
1.0
100
AcDbArc
50
337.303333789493
51
337.315770703256
0
ARC
5
AE
330
70
100
AcDbEntity
67
0
8
IV_OUTER_PROFILE
62
256
6
ByLayer
370
-1
48
1.0
60
0
100
AcDbCircle
39
0.0
10
-8115.94764489612
20
3836.93146784699
30
0.0
40
9269.4050627337
210
0.0
220
0.0
230
1.0
100
AcDbArc
50
337.317686282073
51
337.335867127894
0
ARC
5
AF
330
70
100
AcDbEntity
67
0
8
IV_OUTER_PROFILE
62
256
6
ByLayer
370
-1
48
1.0
60
0
100
AcDbCircle
39
0.0
10
-6060.17594694281
20
2978.23984423111
30
0.0
40
7041.50279704579
210
0.0
220
0.0
230
1.0
100
AcDbArc
50
337.337784789244
51
337.361713973088
0
ARC
5
B0
330
70
100
AcDbEntity
67
0
8
IV_OUTER_PROFILE
62
256
6
ByLayer
370
-1
48
1.0
60
0
100
AcDbCircle
39
0.0
10
-4799.31338221552
20
2452.19852389059
30
0.0
40
5675.30594704846
210
0.0
220
0.0
230
1.0
100
AcDbArc
50
337.363634356018
51
337.393317723401
0
ARC
5
B1
330
70
100
AcDbEntity
67
0
8
IV_OUTER_PROFILE
62
256
6
ByLayer
370
-1
48
1.0
60
0
100
AcDbCircle
39
0.0
10
-3946.64967307294
20
2096.97938089666
30
0.0
40
4751.60902162444
210
0.0
220
0.0
230
1.0
100
AcDbArc
50
337.395241464831
51
337.430686295912
0
ARC
5
B2
330
70
100
AcDbEntity
67
0
8
IV_OUTER_PROFILE
62
256
6
ByLayer
370
-1
48
1.0
60
0
100
AcDbCircle
39
0.0
10
-3331.31335339625
20
1841.07732344988
30
0.0
40
4085.18226094841
210
0.0
220
0.0
230
1.0
100
AcDbArc
50
337.432614031
51
337.473829036319
0
ARC
5
B3
330
70
100
AcDbEntity
67
0
8
IV_OUTER_PROFILE
62
256
6
ByLayer
370
-1
48
1.0
60
0
100
AcDbCircle
39
0.0
10
-2866.12544891749
20
1648.01042959234
30
0.0
40
3581.52106993312
210
0.0
220
0.0
230
1.0
100
AcDbArc
50
337.475761397575
51
337.522756713897
0
ARC
5
B4
330
70
100
AcDbEntity
67
0
8
IV_OUTER_PROFILE
62
256
6
ByLayer
370
-1
48
1.0
60
0
100
AcDbCircle
39
0.0
10
-2501.94916673537
20
1497.21645551116
30
0.0
40
3187.35971456221
210
0.0
220
0.0
230
1.0
100
AcDbArc
50
337.524694330809
51
337.577481513934
0
ARC
5
B5
330
70
100
AcDbEntity
67
0
8
IV_OUTER_PROFILE
62
256
6
ByLayer
370
-1
48
1.0
60
0
100
AcDbCircle
39
0.0
10
-2208.98050870257
20
1376.22343440299
30
0.0
40
2870.38978662007
210
0.0
220
0.0
230
1.0
100
AcDbArc
50
337.57942501284
51
337.638017031069
0
ARC
5
B6
330
70
100
AcDbEntity
67
0
8
IV_OUTER_PROFILE
62
256
6
ByLayer
370
-1
48
1.0
60
0
100
AcDbCircle
39
0.0
10
-1968.09182353598
20
1277.02717314558
30
0.0
40
2609.8763546988
210
0.0
220
0.0
230
1.0
100
AcDbArc
50
337.639967034399
51
337.704378260573
0
ARC
5
B7
330
70
100
AcDbEntity
67
0
8
IV_OUTER_PROFILE
62
256
6
ByLayer
370
-1
48
1.0
60
0
100
AcDbCircle
39
0.0
10
-1766.44426670915
20
1194.25517811206
30
0.0
40
2391.90173908426
210
0.0
220
0.0
230
1.0
100
AcDbArc
50
337.706335386288
51
337.776581588762
0
ARC
5
B8
330
70
100
AcDbEntity
67
0
8
IV_OUTER_PROFILE
62
256
6
ByLayer
370
-1
48
1.0
60
0
100
AcDbCircle
39
0.0
10
-1595.09965427561
20
1124.16727625422
30
0.0
40
2206.77668948458
210
0.0
220
0.0
230
1.0
100
AcDbArc
50
337.77854644994
51
337.854644782135
0
ARC
5
B9
330
70
100
AcDbEntity
67
0
8
IV_OUTER_PROFILE
62
256
6
ByLayer
370
-1
48
1.0
60
0
100
AcDbCircle
39
0.0
10
-1447.64374857884
20
1064.07949481906
30
0.0
40
2047.54798527721
210
0.0
220
0.0
230
1.0
100
AcDbArc
50
337.856617986526
51
337.938586975633
0
ARC
5
BA
330
70
100
AcDbEntity
67
0
8
IV_OUTER_PROFILE
62
256
6
ByLayer
370
-1
48
1.0
60
0
100
AcDbCircle
39
0.0
10
-1319.35418463267
20
1012.01585925445
30
0.0
40
1909.09644253612
210
0.0
220
0.0
230
1.0
100
AcDbArc
50
337.94056912493
51
338.028428659597
0
ARC
5
BB
330
70
100
AcDbEntity
67
0
8
IV_OUTER_PROFILE
62
256
6
ByLayer
370
-1
48
1.0
60
0
100
AcDbCircle
39
0.0
10
-1206.67721919226
20
966.489425362055
30
0.0
40
1787.56969403973
210
0.0
220
0.0
230
1.0
100
AcDbArc
50
338.030420348781
51
338.124191665101
0
ARC
5
BC
330
70
100
AcDbEntity
67
0
8
IV_OUTER_PROFILE
62
256
6
ByLayer
370
-1
48
1.0
60
0
100
AcDbCircle
39
0.0
10
-1106.88735487666
20
926.359840103322
30
0.0
40
1680.0132113561
210
0.0
220
0.0
230
1.0
100
AcDbArc
50
338.126193481954
51
338.225899148058
0
ARC
5
BD
330
70
100
AcDbEntity
67
0
8
IV_OUTER_PROFILE
62
256
6
ByLayer
370
-1
48
1.0
60
0
100
AcDbCircle
39
0.0
10
-1017.85937409621
20
890.737943204054
30
0.0
40
1584.12318258858
210
0.0
220
0.0
230
1.0
100
AcDbArc
50
338.227911672401
51
338.33357557216
0
ARC
5
BE
330
70
100
AcDbEntity
67
0
8
IV_OUTER_PROFILE
62
256
6
ByLayer
370
-1
48
1.0
60
0
100
AcDbCircle
39
0.0
10
-937.911752612653
20
858.920239003952
30
0.0
40
1498.07676766844
210
0.0
220
0.0
230
1.0
100
AcDbArc
50
338.335599375033
51
338.447246689683
0
ARC
5
BF
330
70
100
AcDbEntity
67
0
8
IV_OUTER_PROFILE
62
256
6
ByLayer
370
-1
48
1.0
60
0
100
AcDbCircle
39
0.0
10
-865.696650982188
20
830.342860148772
30
0.0
40
1420.41284554416
210
0.0
220
0.0
230
1.0
100
AcDbArc
50
338.449282332697
51
338.56693952095
0
ARC
5
C0
330
70
100
AcDbEntity
67
0
8
IV_OUTER_PROFILE
62
256
6
ByLayer
370
-1
48
1.0
60
0
100
AcDbCircle
39
0.0
10
162063.735149765
20
-66134.7666720205
30
0.0
40
174733.975421354
210
0.0
220
0.0
230
1.0
100
AcDbArc
50
157.669803453355
51
157.670784448382
0
ARC
5
C1
330
70
100
AcDbEntity
67
0
8
IV_OUTER_PROFILE
62
256
6
ByLayer
370
-1
48
1.0
60
0
100
AcDbCircle
39
0.0
10
23520.1862759012
20
-9230.44763353518
30
0.0
40
24959.4233282742
210
0.0
220
0.0
230
1.0
100
AcDbArc
50
157.672746771023
51
157.679614154402
0
ARC
5
C2
330
70
100
AcDbEntity
67
0
8
IV_OUTER_PROFILE
62
256
6
ByLayer
370
-1
48
1.0
60
0
100
AcDbCircle
39
0.0
10
12861.1081273562
20
-4853.91233803422
30
0.0
40
13436.836475669
210
0.0
220
0.0
230
1.0
100
AcDbArc
50
157.681577304489
51
157.694332648393
0
ARC
5
C3
330
70
100
AcDbEntity
67
0
8
IV_OUTER_PROFILE
62
256
6
ByLayer
370
-1
48
1.0
60
0
100
AcDbCircle
39
0.0
10
8932.65336447655
20
-3241.94103554018
30
0.0
40
9190.51946455699
210
0.0
220
0.0
230
1.0
100
AcDbArc
50
157.696297287886
51
157.714943654553
0
ARC
5
C4
330
70
100
AcDbEntity
67
0
8
IV_OUTER_PROFILE
62
256
6
ByLayer
370
-1
48
1.0
60
0
100
AcDbCircle
39
0.0
10
6888.77121761989
20
-2404.04755351958
30
0.0
40
6981.55598775506
210
0.0
220
0.0
230
1.0
100
AcDbArc
50
157.716910443929
51
157.741452383037
0
ARC
5
C5
330
70
100
AcDbEntity
67
0
8
IV_OUTER_PROFILE
62
256
6
ByLayer
370
-1
48
1.0
60
0
100
AcDbCircle
39
0.0
10
5635.19545666794
20
-1890.76883478494
30
0.0
40
5626.96852836798
210
0.0
220
0.0
230
1.0
100
AcDbArc
50
157.74342198158
51
157.773865526715
0
ARC
5
C6
330
70
100
AcDbEntity
67
0
8
IV_OUTER_PROFILE
62
256
6
ByLayer
370
-1
48
1.0
60
0
100
AcDbCircle
39
0.0
10
4787.45492960645
20
-1544.18591382724
30
0.0
40
4711.11718077633
210
0.0
220
0.0
230
1.0
100
AcDbArc
50
157.775838591973
51
157.812191257751
0
ARC
5
C7
330
70
100
AcDbEntity
67
0
8
IV_OUTER_PROFILE
62
256
6
ByLayer
370
-1
48
1.0
60
0
100
AcDbCircle
39
0.0
10
4175.66764338962
20
-1294.52103887863
30
0.0
40
4050.34777270978
210
0.0
220
0.0
230
1.0
100
AcDbArc
50
157.81416844467
51
157.856439221918
0
ARC
5
C8
330
70
100
AcDbEntity
67
0
8
IV_OUTER_PROFILE
62
256
6
ByLayer
370
-1
48
1.0
60
0
100
AcDbCircle
39
0.0
10
3713.15961921775
20
-1106.17364969048
30
0.0
40
3550.95975300239
210
0.0
220
0.0
230
1.0
100
AcDbArc
50
157.858421182807
51
157.90662053198
0
ARC
5
C9
330
70
100
AcDbEntity
67
0
8
IV_OUTER_PROFILE
62
256
6
ByLayer
370
-1
48
1.0
60
0
100
AcDbCircle
39
0.0
10
3351.078539364
20
-959.078203764013
30
0.0
40
3160.14040202393
210
0.0
220
0.0
230
1.0
100
AcDbArc
50
157.908607915792
51
157.962747761476
0
ARC
5
CA
330
70
100
AcDbEntity
67
0
8
IV_OUTER_PROFILE
62
256
6
ByLayer
370
-1
48
1.0
60
0
100
AcDbCircle
39
0.0
10
3059.79308138761
20
-841.064062448625
30
0.0
40
2845.85622378313
210
0.0
220
0.0
230
1.0
100
AcDbArc
50
157.964741213337
51
158.024834934985
0
ARC
5
CB
330
70
100
AcDbEntity
67
0
8
IV_OUTER_PROFILE
62
256
6
ByLayer
370
-1
48
1.0
60
0
100
AcDbCircle
39
0.0
10
2820.28637600318
20
-744.320405250197
30
0.0
40
2587.54867809731
210
0.0
220
0.0
230
1.0
100
AcDbArc
50
158.026835095807
51
158.092897519869
0
ARC
5
CC
330
70
100
AcDbEntity
67
0
8
IV_OUTER_PROFILE
62
256
6
ByLayer
370
-1
48
1.0
60
0
100
AcDbCircle
39
0.0
10
2619.79397667702
20
-663.604550742715
30
0.0
40
2371.41852327507
210
0.0
220
0.0
230
1.0
100
AcDbArc
50
158.094905025553
51
158.166952414643
0
ARC
5
CD
330
70
100
AcDbEntity
67
0
8
IV_OUTER_PROFILE
62
256
6
ByLayer
370
-1
48
1.0
60
0
100
AcDbCircle
39
0.0
10
2449.42948968072
20
-595.266697927406
30
0.0
40
2187.85895763806
210
0.0
220
0.0
230
1.0
100
AcDbArc
50
158.168967895738
51
158.247017937427
0
ARC
5
CE
330
70
100
AcDbEntity
67
0
8
IV_OUTER_PROFILE
62
256
6
ByLayer
370
-1
48
1.0
60
0
100
AcDbCircle
39
0.0
10
2302.81585273543
20
-536.687731486866
30
0.0
40
2029.97593668623
210
0.0
220
0.0
230
1.0
100
AcDbArc
50
158.249042018356
51
158.333113812616
0
ARC
5
CF
330
70
100
AcDbEntity
67
0
8
IV_OUTER_PROFILE
62
256
6
ByLayer
370
-1
48
1.0
60
0
100
AcDbCircle
39
0.0
10
2175.25809078777
20
-485.939435453391
30
0.0
40
1892.69386449652
210
0.0
220
0.0
230
1.0
100
AcDbArc
50
158.335147111076
51
158.425261156002
0
ARC
5
D0
330
70
100
AcDbEntity
67
0
8
IV_OUTER_PROFILE
62
256
6
ByLayer
370
-1
48
1.0
60
0
100
AcDbCircle
39
0.0
10
2063.22307386003
20
-441.570806372575
30
0.0
40
1772.19317570455
210
0.0
220
0.0
230
1.0
100
AcDbArc
50
158.427304282293
51
158.523482458824
0
ARC
5
D1
330
70
100
AcDbEntity
67
0
8
IV_OUTER_PROFILE
62
256
6
ByLayer
370
-1
48
1.0
60
0
100
AcDbCircle
39
0.0
10
1964.00112032458
20
-402.469058199484
30
0.0
40
1665.54450491174
210
0.0
220
0.0
230
1.0
100
AcDbArc
50
158.525536015051
51
158.627801569925
0
ARC
5
D2
330
70
100
AcDbEntity
67
0
8
IV_OUTER_PROFILE
62
256
6
ByLayer
370
-1
48
1.0
60
0
100
AcDbCircle
39
0.0
10
1875.47936224406
20
-367.766532808079
30
0.0
40
1570.46367863254
210
0.0
220
0.0
230
1.0
100
AcDbArc
50
158.629866149387
51
158.738243676295
0
ARC
5
D3
330
70
100
AcDbEntity
67
0
8
IV_OUTER_PROFILE
62
256
6
ByLayer
370
-1
48
1.0
60
0
100
AcDbCircle
39
0.0
10
1795.98604563454
20
-336.77674684518
30
0.0
40
1485.1433929025
210
0.0
220
0.0
230
1.0
100
AcDbArc
50
158.740319862582
51
158.854835282303
0
ARC
5
D4
330
70
100
AcDbEntity
67
0
8
IV_OUTER_PROFILE
62
256
6
ByLayer
370
-1
48
1.0
60
0
100
AcDbCircle
39
0.0
10
1724.18117265601
20
-308.949472862941
30
0.0
40
1408.13498957899
210
0.0
220
0.0
230
1.0
100
AcDbArc
50
158.856923648376
51
158.977604186408
0
ARC
5
D5
330
70
100
AcDbEntity
67
0
8
IV_OUTER_PROFILE
62
256
6
ByLayer
370
-1
48
1.0
60
0
100
AcDbCircle
39
0.0
10
-759.178399557305
20
788.436974565271
30
0.0
40
1305.94785813533
210
0.0
220
0.0
230
1.0
100
AcDbArc
50
338.570652643217
51
338.858490534731
0
ARC
5
D6
330
70
100
AcDbEntity
67
0
8
IV_OUTER_PROFILE
62
256
6
ByLayer
370
-1
48
1.0
60
0
100
AcDbCircle
39
0.0
10
-657.530100339285
20
748.933538801126
30
0.0
40
1196.89346019188
210
0.0
220
0.0
230
1.0
100
AcDbArc
50
338.867241217954
51
339.180650661112
0
ARC
5
D7
330
70
100
AcDbEntity
67
0
8
IV_OUTER_PROFILE
62
256
6
ByLayer
370
-1
48
1.0
60
0
100
AcDbCircle
39
0.0
10
-569.996431136517
20
715.465793193111
30
0.0
40
1103.18005934311
210
0.0
220
0.0
230
1.0
100
AcDbArc
50
339.189534193216
51
339.528812118084
0
ARC
5
D8
330
70
100
AcDbEntity
67
0
8
IV_OUTER_PROFILE
62
256
6
ByLayer
370
-1
48
1.0
60
0
100
AcDbCircle
39
0.0
10
-493.751001027931
20
686.830714594521
30
0.0
40
1021.73495281423
210
0.0
220
0.0
230
1.0
100
AcDbArc
50
339.537836322292
51
339.903297993841
0
ARC
5
D9
330
70
100
AcDbEntity
67
0
8
IV_OUTER_PROFILE
62
256
6
ByLayer
370
-1
48
1.0
60
0
100
AcDbCircle
39
0.0
10
-426.683027864391
20
662.129717061941
30
0.0
40
950.263088262209
210
0.0
220
0.0
230
1.0
100
AcDbArc
50
339.912469992534
51
340.304447573803
0
ARC
5
DA
330
70
100
AcDbEntity
67
0
8
IV_OUTER_PROFILE
62
256
6
ByLayer
370
-1
48
1.0
60
0
100
AcDbCircle
39
0.0
10
-367.184869900014
20
640.678150379937
30
0.0
40
887.016126421426
210
0.0
220
0.0
230
1.0
100
AcDbArc
50
340.313773682552
51
340.732614579851
0
ARC
5
DB
330
70
100
AcDbEntity
67
0
8
IV_OUTER_PROFILE
62
256
6
ByLayer
370
-1
48
1.0
60
0
100
AcDbCircle
39
0.0
10
-314.011013920309
20
621.945228280388
30
0.0
40
830.639170705272
210
0.0
220
0.0
230
1.0
100
AcDbArc
50
340.742100189665
51
341.188165155423
0
ARC
5
DC
330
70
100
AcDbEntity
67
0
8
IV_OUTER_PROFILE
62
256
6
ByLayer
370
-1
48
1.0
60
0
100
AcDbCircle
39
0.0
10
-266.181970827623
20
605.513080460499
30
0.0
40
780.066307755727
210
0.0
220
0.0
230
1.0
100
AcDbArc
50
341.197814602554
51
341.671475569905
0
ARC
5
DD
330
70
100
AcDbEntity
67
0
8
IV_OUTER_PROFILE
62
256
6
ByLayer
370
-1
48
1.0
60
0
100
AcDbCircle
39
0.0
10
-222.917234580625
20
591.048181200915
30
0.0
40
734.447738116675
210
0.0
220
0.0
230
1.0
100
AcDbArc
50
341.681291992733
51
342.182929614739
0
ARC
5
DE
330
70
100
AcDbEntity
67
0
8
IV_OUTER_PROFILE
62
256
6
ByLayer
370
-1
48
1.0
60
0
100
AcDbCircle
39
0.0
10
-183.587542276836
20
578.280997376547
30
0.0
40
693.09788661679
210
0.0
220
0.0
230
1.0
100
AcDbArc
50
342.192914797307
51
342.722915663034
0
ARC
5
DF
330
70
100
AcDbEntity
67
0
8
IV_OUTER_PROFILE
62
256
6
ByLayer
370
-1
48
1.0
60
0
100
AcDbCircle
39
0.0
10
-147.680249745521
20
566.991221655515
30
0.0
40
655.457769400977
210
0.0
220
0.0
230
1.0
100
AcDbArc
50
342.733069865239
51
343.291823364069
0
ARC
5
E0
330
70
100
AcDbEntity
67
0
8
IV_OUTER_PROFILE
62
256
6
ByLayer
370
-1
48
1.0
60
0
100
AcDbCircle
39
0.0
10
-114.773802347203
20
556.996878925524
30
0.0
40
621.067248095762
210
0.0
220
0.0
230
1.0
100
AcDbArc
50
343.30214513863
51
343.890039944989
0
ARC
5
E1
330
70
100
AcDbEntity
67
0
8
IV_OUTER_PROFILE
62
256
6
ByLayer
370
-1
48
1.0
60
0
100
AcDbCircle
39
0.0
10
-86.9282829068695
20
548.863070774255
30
0.0
40
592.05822010293
210
0.0
220
0.0
230
1.0
100
AcDbArc
50
343.898534751642
51
344.206172255308
0
ARC
5
E2
330
70
100
AcDbEntity
67
0
8
IV_OUTER_PROFILE
62
256
6
ByLayer
370
-1
48
1.0
60
0
100
AcDbCircle
39
0.0
10
-72.6066543373529
20
544.784417790814
30
0.0
40
577.167158156213
210
0.0
220
0.0
230
1.0
100
AcDbArc
50
344.208818899394
51
344.523904832051
0
ARC
5
E3
330
70
100
AcDbEntity
67
0
8
IV_OUTER_PROFILE
62
256
6
ByLayer
370
-1
48
1.0
60
0
100
AcDbCircle
39
0.0
10
-58.8472836906051
20
540.947609481652
30
0.0
40
562.882877456596
210
0.0
220
0.0
230
1.0
100
AcDbArc
50
344.526571026962
51
344.849151470458
0
ARC
5
E4
330
70
100
AcDbEntity
67
0
8
IV_OUTER_PROFILE
62
256
6
ByLayer
370
-1
48
1.0
60
0
100
AcDbCircle
39
0.0
10
-45.6617392452115
20
537.350199478789
30
0.0
40
549.215425655728
210
0.0
220
0.0
230
1.0
100
AcDbArc
50
344.85188239756
51
345.181976780943
0
ARC
5
E5
330
70
100
AcDbEntity
67
0
8
IV_OUTER_PROFILE
62
256
6
ByLayer
370
-1
48
1.0
60
0
100
AcDbCircle
39
0.0
10
-33.651507529565
20
534.14785788851
30
0.0
40
536.785620466845
210
0.0
220
0.0
230
1.0
100
AcDbArc
50
345.184562634962
51
345.52177688334
0
ARC
5
E6
330
70
100
AcDbEntity
67
0
8
IV_OUTER_PROFILE
62
256
6
ByLayer
370
-1
48
1.0
60
0
100
AcDbCircle
39
0.0
10
-25.9172691045013
20
532.134591349196
30
0.0
40
528.793659715319
210
0.0
220
0.0
230
1.0
100
AcDbArc
50
345.523475642675
51
345.865260536181
0
ARC
5
E7
330
70
100
AcDbEntity
67
0
8
IV_OUTER_PROFILE
62
256
6
ByLayer
370
-1
48
1.0
60
0
100
AcDbCircle
39
0.0
10
-18.3666417758149
20
530.217164428064
30
0.0
40
521.003392996336
210
0.0
220
0.0
230
1.0
100
AcDbArc
50
345.866963911057
51
346.213332605157
0
ARC
5
E8
330
70
100
AcDbEntity
67
0
8
IV_OUTER_PROFILE
62
256
6
ByLayer
370
-1
48
1.0
60
0
100
AcDbCircle
39
0.0
10
-10.9960334221959
20
528.392835073253
30
0.0
40
513.410382553988
210
0.0
220
0.0
230
1.0
100
AcDbArc
50
346.215039944345
51
346.566004276286
0
ARC
5
E9
330
70
100
AcDbEntity
67
0
8
IV_OUTER_PROFILE
62
256
6
ByLayer
370
-1
48
1.0
60
0
100
AcDbCircle
39
0.0
10
-3.8020159734144
20
526.658934594136
30
0.0
40
506.010378070647
210
0.0
220
0.0
230
1.0
100
AcDbArc
50
346.567714894326
51
346.923285311205
0
ARC
5
EA
330
70
100
AcDbEntity
67
0
8
IV_OUTER_PROFILE
62
256
6
ByLayer
370
-1
48
1.0
60
0
100
AcDbCircle
39
0.0
10
3.21868309245112
20
525.012862778662
30
0.0
40
498.799307266634
210
0.0
220
0.0
230
1.0
100
AcDbArc
50
346.924998487863
51
347.285183973708
0
ARC
5
EB
330
70
100
AcDbEntity
67
0
8
IV_OUTER_PROFILE
62
256
6
ByLayer
370
-1
48
1.0
60
0
100
AcDbCircle
39
0.0
10
10.0691880217033
20
523.452083464063
30
0.0
40
491.773267835554
210
0.0
220
0.0
230
1.0
100
AcDbArc
50
347.286898953392
51
347.651706954821
0
ARC
5
EC
330
70
100
AcDbEntity
67
0
8
IV_OUTER_PROFILE
62
256
6
ByLayer
370
-1
48
1.0
60
0
100
AcDbCircle
39
0.0
10
16.7524821522195
20
521.974120227751
30
0.0
40
484.928519348238
210
0.0
220
0.0
230
1.0
100
AcDbArc
50
347.653422946198
51
348.022859297146
0
ARC
5
ED
330
70
100
AcDbEntity
67
0
8
IV_OUTER_PROFILE
62
256
6
ByLayer
370
-1
48
1.0
60
0
100
AcDbCircle
39
0.0
10
23.2714147434876
20
520.576552345694
30
0.0
40
478.26147577265
210
0.0
220
0.0
230
1.0
100
AcDbArc
50
348.024575472702
51
348.398644318254
0
ARC
5
EE
330
70
100
AcDbEntity
67
0
8
IV_OUTER_PROFILE
62
256
6
ByLayer
370
-1
48
1.0
60
0
100
AcDbCircle
39
0.0
10
29.6287072440361
20
519.257011007459
30
0.0
40
471.768698630917
210
0.0
220
0.0
230
1.0
100
AcDbArc
50
348.400359813947
51
348.779063533271
0
ARC
5
EF
330
70
100
AcDbEntity
67
0
8
IV_OUTER_PROFILE
62
256
6
ByLayer
370
-1
48
1.0
60
0
100
AcDbCircle
39
0.0
10
35.8269594113789
20
518.013175688804
30
0.0
40
465.446890365596
210
0.0
220
0.0
230
1.0
100
AcDbArc
50
348.780777448288
51
349.164116576976
0
ARC
5
F0
330
70
100
AcDbEntity
67
0
8
IV_OUTER_PROFILE
62
256
6
ByLayer
370
-1
48
1.0
60
0
100
AcDbCircle
39
0.0
10
41.8686549602366
20
516.842770744691
30
0.0
40
459.29288824424
210
0.0
220
0.0
230
1.0
100
AcDbArc
50
349.165827973523
51
349.553801125397
0
ARC
5
F1
330
70
100
AcDbEntity
67
0
8
IV_OUTER_PROFILE
62
256
6
ByLayer
370
-1
48
1.0
60
0
100
AcDbCircle
39
0.0
10
47.7561669448585
20
515.74356217
30
0.0
40
453.303658588879
210
0.0
220
0.0
230
1.0
100
AcDbArc
50
349.555509028613
51
349.948112817184
0
ARC
5
F2
330
70
100
AcDbEntity
67
0
8
IV_OUTER_PROFILE
62
256
6
ByLayer
370
-1
48
1.0
60
0
100
AcDbCircle
39
0.0
10
53.4917628990805
20
514.71335451875
30
0.0
40
447.476291304346
210
0.0
220
0.0
230
1.0
100
AcDbArc
50
349.949816215104
51
350.347045174938
0
ARC
5
F3
330
70
100
AcDbEntity
67
0
8
IV_OUTER_PROFILE
62
256
6
ByLayer
370
-1
48
1.0
60
0
100
AcDbCircle
39
0.0
10
59.07760951814
20
513.749988012912
30
0.0
40
441.807994922307
210
0.0
220
0.0
230
1.0
100
AcDbArc
50
350.348743018564
51
350.750589526563
0
ARC
5
F4
330
70
100
AcDbEntity
67
0
8
IV_OUTER_PROFILE
62
256
6
ByLayer
370
-1
48
1.0
60
0
100
AcDbCircle
39
0.0
10
64.5157772872815
20
512.85133575985
30
0.0
40
436.296091746954
210
0.0
220
0.0
230
1.0
100
AcDbArc
50
350.75228073008
51
351.158734927083
0
ARC
5
F5
330
70
100
AcDbEntity
67
0
8
IV_OUTER_PROFILE
62
256
6
ByLayer
370
-1
48
1.0
60
0
100
AcDbCircle
39
0.0
10
69.8082447731029
20
512.015301125512
30
0.0
40
430.938013389206
210
0.0
220
0.0
230
1.0
100
AcDbArc
50
351.160418368134
51
351.57146808096
0
ARC
5
F6
330
70
100
AcDbEntity
67
0
8
IV_OUTER_PROFILE
62
256
6
ByLayer
370
-1
48
1.0
60
0
100
AcDbCircle
39
0.0
10
74.9569026625882
20
511.239815240047
30
0.0
40
425.731296600726
210
0.0
220
0.0
230
1.0
100
AcDbArc
50
351.573142601036
51
351.988773265185
0
ARC
5
F7
330
70
100
AcDbEntity
67
0
8
IV_OUTER_PROFILE
62
256
6
ByLayer
370
-1
48
1.0
60
0
100
AcDbCircle
39
0.0
10
79.9635576460381
20
510.522834615013
30
0.0
40
420.673579308412
210
0.0
220
0.0
230
1.0
100
AcDbArc
50
351.990437670174
51
352.410632253481
0
ARC
5
F8
330
70
100
AcDbEntity
67
0
8
IV_OUTER_PROFILE
62
256
6
ByLayer
370
-1
48
1.0
60
0
100
AcDbCircle
39
0.0
10
84.8299360925332
20
509.862338876658
30
0.0
40
415.762596899795
210
0.0
220
0.0
230
1.0
100
AcDbArc
50
352.412285314284
51
352.837024241769
0
ARC
5
F9
330
70
100
AcDbEntity
67
0
8
IV_OUTER_PROFILE
62
256
6
ByLayer
370
-1
48
1.0
60
0
100
AcDbCircle
39
0.0
10
89.5576874597288
20
509.256328616273
30
0.0
40
410.996178816046
210
0.0
220
0.0
230
1.0
100
AcDbArc
50
352.838664695084
51
353.267925775202
0
ARC
5
FA
330
70
100
AcDbEntity
67
0
8
IV_OUTER_PROFILE
62
256
6
ByLayer
370
-1
48
1.0
60
0
100
AcDbCircle
39
0.0
10
94.1483875700076
20
508.702823333703
30
0.0
40
406.372245317552
210
0.0
220
0.0
230
1.0
100
AcDbArc
50
353.269552324463
51
353.703310677051
0
ARC
5
FB
330
70
100
AcDbEntity
67
0
8
IV_OUTER_PROFILE
62
256
6
ByLayer
370
-1
48
1.0
60
0
100
AcDbCircle
39
0.0
10
98.6035418173775
20
508.199859464164
30
0.0
40
401.888804355916
210
0.0
220
0.0
230
1.0
100
AcDbArc
50
353.704921993502
51
354.143149979835
0
ARC
5
FC
330
70
100
AcDbEntity
67
0
8
IV_OUTER_PROFILE
62
256
6
ByLayer
370
-1
48
1.0
60
0
100
AcDbCircle
39
0.0
10
102.924588122614
20
507.745488507721
30
0.0
40
397.543948734878
210
0.0
220
0.0
230
1.0
100
AcDbArc
50
354.144744703665
51
354.58741185881
0
ARC
5
FD
330
70
100
AcDbEntity
67
0
8
IV_OUTER_PROFILE
62
256
6
ByLayer
370
-1
48
1.0
60
0
100
AcDbCircle
39
0.0
10
107.141266140484
20
507.335193295049
30
0.0
40
393.307369981673
210
0.0
220
0.0
230
1.0
100
AcDbArc
50
354.588973377246
51
355.036078721702
0
ARC
5
FE
330
70
100
AcDbEntity
67
0
8
IV_OUTER_PROFILE
62
256
6
ByLayer
370
-1
48
1.0
60
0
100
AcDbCircle
39
0.0
10
110.107163369324
20
507.069487073039
30
0.0
40
390.329605642168
210
0.0
220
0.0
230
1.0
100
AcDbArc
50
355.037264070322
51
355.48747330387
0
ARC
5
FF
330
70
100
AcDbEntity
67
0
8
IV_OUTER_PROFILE
62
256
6
ByLayer
370
-1
48
1.0
60
0
100
AcDbCircle
39
0.0
10
110.707986073191
20
507.020501272701
30
0.0
40
389.726791339591
210
0.0
220
0.0
230
1.0
100
AcDbArc
50
355.487703087655
51
355.938328892913
0
ARC
5
100
330
70
100
AcDbEntity
67
0
8
IV_OUTER_PROFILE
62
256
6
ByLayer
370
-1
48
1.0
60
0
100
AcDbCircle
39
0.0
10
111.23630721907
20
506.981609622106
30
0.0
40
389.197042430886
210
0.0
220
0.0
230
1.0
100
AcDbArc
50
355.938531003495
51
356.389518033406
0
ARC
5
101
330
70
100
AcDbEntity
67
0
8
IV_OUTER_PROFILE
62
256
6
ByLayer
370
-1
48
1.0
60
0
100
AcDbCircle
39
0.0
10
111.692136024408
20
506.951662606055
30
0.0
40
388.740232488674
210
0.0
220
0.0
230
1.0
100
AcDbArc
50
356.389692338393
51
356.840984977866
0
ARC
5
102
330
70
100
AcDbEntity
67
0
8
IV_OUTER_PROFILE
62
256
6
ByLayer
370
-1
48
1.0
60
0
100
AcDbCircle
39
0.0
10
112.075481710035
20
506.929511579194
30
0.0
40
388.356248638505
210
0.0
220
0.0
230
1.0
100
AcDbArc
50
356.841131365264
51
357.292673771954
0
ARC
5
103
330
70
100
AcDbEntity
67
0
8
IV_OUTER_PROFILE
62
256
6
ByLayer
370
-1
48
1.0
60
0
100
AcDbCircle
39
0.0
10
112.386353417398
20
506.91400876986
30
0.0
40
388.044991651052
210
0.0
220
0.0
230
1.0
100
AcDbArc
50
357.29279215037
51
357.744528295779
0
ARC
5
104
330
70
100
AcDbEntity
67
0
8
IV_OUTER_PROFILE
62
256
6
ByLayer
370
-1
48
1.0
60
0
100
AcDbCircle
39
0.0
10
112.624760292481
20
506.904007273887
30
0.0
40
387.806375863167
210
0.0
220
0.0
230
1.0
100
AcDbArc
50
357.744618594625
51
358.196492305652
0
ARC
5
105
330
70
100
AcDbEntity
67
0
8
IV_OUTER_PROFILE
62
256
6
ByLayer
370
-1
48
1.0
60
0
100
AcDbCircle
39
0.0
10
112.790711491223
20
506.898361054614
30
0.0
40
387.640329173457
210
0.0
220
0.0
230
1.0
100
AcDbArc
50
358.19655447524
51
358.648509476004
0
ARC
5
106
330
70
100
AcDbEntity
67
0
8
IV_OUTER_PROFILE
62
256
6
ByLayer
370
-1
48
1.0
60
0
100
AcDbCircle
39
0.0
10
112.88421612994
20
506.895924944321
30
0.0
40
387.546793088669
210
0.0
220
0.0
230
1.0
100
AcDbArc
50
358.648543487626
51
359.100523441421
0
ARC
5
107
330
70
100
AcDbEntity
67
0
8
IV_OUTER_PROFILE
62
256
6
ByLayer
370
-1
48
1.0
60
0
100
AcDbCircle
39
0.0
10
112.905283283315
20
506.895554642693
30
0.0
40
387.525722718213
210
0.0
220
0.0
230
1.0
100
AcDbArc
50
359.100529287417
51
359.552477838783
0
ARC
5
108
330
70
100
AcDbEntity
67
0
8
IV_OUTER_PROFILE
62
256
6
ByLayer
370
-1
48
1.0
60
0
100
AcDbCircle
39
0.0
10
112.853922055163
20
506.896106714802
30
0.0
40
387.577086691735
210
0.0
220
0.0
230
1.0
100
AcDbArc
50
359.552455532555
51
0.0043163494623322
0
ARC
5
109
330
70
100
AcDbEntity
67
0
8
IV_OUTER_PROFILE
62
256
6
ByLayer
370
-1
48
1.0
60
0
100
AcDbCircle
39
0.0
10
112.730141474461
20
506.896438591954
30
0.0
40
387.700867247235
210
0.0
220
0.0
230
1.0
100
AcDbArc
50
0.0042659254320315
51
0.455982741305993
0
ARC
5
10A
330
70
100
AcDbEntity
67
0
8
IV_OUTER_PROFILE
62
256
6
ByLayer
370
-1
48
1.0
60
0
100
AcDbCircle
39
0.0
10
112.533950576824
20
506.895408569666
30
0.0
40
387.897060129524
210
0.0
220
0.0
230
1.0
100
AcDbArc
50
0.455904254869434
51
0.907420910580095
0
ARC
5
10B
330
70
100
AcDbEntity
67
0
8
IV_OUTER_PROFILE
62
256
6
ByLayer
370
-1
48
1.0
60
0
100
AcDbCircle
39
0.0
10
112.26535841208
20
506.891875808065
30
0.0
40
388.165674558425
210
0.0
220
0.0
230
1.0
100
AcDbArc
50
0.907314437969107
51
1.35857492363625
0
ARC
5
10C
330
70
100
AcDbEntity
67
0
8
IV_OUTER_PROFILE
62
256
6
ByLayer
370
-1
48
1.0
60
0
100
AcDbCircle
39
0.0
10
111.92437395799
20
506.884700330091
30
0.0
40
388.506733286644
210
0.0
220
0.0
230
1.0
100
AcDbArc
50
1.35844056177942
51
1.80938905819612
0
ARC
5
10D
330
70
100
AcDbEntity
67
0
8
IV_OUTER_PROFILE
62
256
6
ByLayer
370
-1
48
1.0
60
0
100
AcDbCircle
39
0.0
10
111.511006186378
20
506.872743021012
30
0.0
40
388.920272501131
210
0.0
220
0.0
230
1.0
100
AcDbArc
50
1.80922692455781
51
2.25980784433738
0
ARC
5
10E
330
70
100
AcDbEntity
67
0
8
IV_OUTER_PROFILE
62
256
6
ByLayer
370
-1
48
1.0
60
0
100
AcDbCircle
39
0.0
10
111.025264062426
20
506.854865628138
30
0.0
40
389.40634178714
210
0.0
220
0.0
230
1.0
100
AcDbArc
50
2.25961807668486
51
2.70977610497741
0
ARC
5
10F
330
70
100
AcDbEntity
67
0
8
IV_OUTER_PROFILE
62
256
6
ByLayer
370
-1
48
1.0
60
0
100
AcDbCircle
39
0.0
10
110.467156517548
20
506.829930759215
30
0.0
40
389.965004114681
210
0.0
220
0.0
230
1.0
100
AcDbArc
50
2.70955886111765
51
3.15923899579195
0
ARC
5
110
330
70
100
AcDbEntity
67
0
8
IV_OUTER_PROFILE
62
256
6
ByLayer
370
-1
48
1.0
60
0
100
AcDbCircle
39
0.0
10
109.836692490935
20
506.796801883506
30
0.0
40
390.596335752215
210
0.0
220
0.0
230
1.0
100
AcDbArc
50
3.15899445327763
51
3.60814204457551
0
ARC
5
111
330
70
100
AcDbEntity
67
0
8
IV_OUTER_PROFILE
62
256
6
ByLayer
370
-1
48
1.0
60
0
100
AcDbCircle
39
0.0
10
109.133880887519
20
506.754343329358
30
0.0
40
391.300426260022
210
0.0
220
0.0
230
1.0
100
AcDbArc
50
3.60787040035914
51
4.05643118985597
0
ARC
5
112
330
70
100
AcDbEntity
67
0
8
IV_OUTER_PROFILE
62
256
6
ByLayer
370
-1
48
1.0
60
0
100
AcDbCircle
39
0.0
10
108.358730552049
20
506.701420280864
30
0.0
40
392.077378463613
210
0.0
220
0.0
230
1.0
100
AcDbArc
50
4.05613265996705
51
4.50405281878942
0
ARC
5
113
330
70
100
AcDbEntity
67
0
8
IV_OUTER_PROFILE
62
256
6
ByLayer
370
-1
48
1.0
60
0
100
AcDbCircle
39
0.0
10
107.511250387681
20
506.636898785316
30
0.0
40
392.927308278374
210
0.0
220
0.0
230
1.0
100
AcDbArc
50
4.50372763791785
51
4.9509538043186
0
ARC
5
114
330
70
100
AcDbEntity
67
0
8
IV_OUTER_PROFILE
62
256
6
ByLayer
370
-1
48
1.0
60
0
100
AcDbCircle
39
0.0
10
106.591449203998
20
506.559645741802
30
0.0
40
393.850344801624
210
0.0
220
0.0
230
1.0
100
AcDbArc
50
4.95060222537784
51
5.39708154129516
0
ARC
5
115
330
70
100
AcDbEntity
67
0
8
IV_OUTER_PROFILE
62
256
6
ByLayer
370
-1
48
1.0
60
0
100
AcDbCircle
39
0.0
10
105.599335828734
20
506.468528908462
30
0.0
40
394.846630136567
210
0.0
220
0.0
230
1.0
100
AcDbArc
50
5.39670383499725
51
5.8423839818401
0
ARC
5
116
330
70
100
AcDbEntity
67
0
8
IV_OUTER_PROFILE
62
256
6
ByLayer
370
-1
48
1.0
60
0
100
AcDbCircle
39
0.0
10
104.692076122425
20
506.37990819816
30
0.0
40
395.758198168026
210
0.0
220
0.0
230
1.0
100
AcDbArc
50
5.84177714475352
51
6.28678401165077
0
ARC
5
117
330
70
100
AcDbEntity
67
0
8
IV_OUTER_PROFILE
62
256
6
ByLayer
370
-1
48
1.0
60
0
100
AcDbCircle
39
0.0
10
100.780549179508
20
505.95856834842
30
0.0
40
399.692341079084
210
0.0
220
0.0
230
1.0
100
AcDbArc
50
6.28541847729248
51
6.7264193832119
0
ARC
5
118
330
70
100
AcDbEntity
67
0
8
IV_OUTER_PROFILE
62
256
6
ByLayer
370
-1
48
1.0
60
0
100
AcDbCircle
39
0.0
10
95.9783377868095
20
505.404691227153
30
0.0
40
404.526372720255
210
0.0
220
0.0
230
1.0
100
AcDbArc
50
6.72466138271531
51
7.16078420525348
0
ARC
5
119
330
70
100
AcDbEntity
67
0
8
IV_OUTER_PROFILE
62
256
6
ByLayer
370
-1
48
1.0
60
0
100
AcDbCircle
39
0.0
10
91.0272242658673
20
504.795428276692
30
0.0
40
409.514816161456
210
0.0
220
0.0
230
1.0
100
AcDbArc
50
7.15901208408643
51
7.59023038472194
0
ARC
5
11A
330
70
100
AcDbEntity
67
0
8
IV_OUTER_PROFILE
62
256
6
ByLayer
370
-1
48
1.0
60
0
100
AcDbCircle
39
0.0
10
85.9251744842729
20
504.128586014121
30
0.0
40
414.660243821102
210
0.0
220
0.0
230
1.0
100
AcDbArc
50
7.58844558662115
51
8.01473595806777
0
ARC
5
11B
330
70
100
AcDbEntity
67
0
8
IV_OUTER_PROFILE
62
256
6
ByLayer
370
-1
48
1.0
60
0
100
AcDbCircle
39
0.0
10
80.6700539582231
20
503.401943342535
30
0.0
40
419.965347985261
210
0.0
220
0.0
230
1.0
100
AcDbArc
50
8.01293988597708
51
8.43428186521159
0
ARC
5
11C
330
70
100
AcDbEntity
67
0
8
IV_OUTER_PROFILE
62
256
6
ByLayer
370
-1
48
1.0
60
0
100
AcDbCircle
39
0.0
10
75.2596228202223
20
502.613248693835
30
0.0
40
425.432945888913
210
0.0
220
0.0
230
1.0
100
AcDbArc
50
8.43247588034215
51
8.84885185959357
0
ARC
5
11D
330
70
100
AcDbEntity
67
0
8
IV_OUTER_PROFILE
62
256
6
ByLayer
370
-1
48
1.0
60
0
100
AcDbCircle
39
0.0
10
69.691530758499
20
501.760217053977
30
0.0
40
431.06598487726
210
0.0
220
0.0
230
1.0
100
AcDbArc
50
8.8470372806446
51
9.25843241696003
0
ARC
5
11E
330
70
100
AcDbEntity
67
0
8
IV_OUTER_PROFILE
62
256
6
ByLayer
370
-1
48
1.0
60
0
100
AcDbCircle
39
0.0
10
63.9633113550226
20
500.840526781401
30
0.0
40
436.86754822855
210
0.0
220
0.0
230
1.0
100
AcDbArc
50
9.25661051950505
51
9.66301264292773
0
ARC
5
11F
330
70
100
AcDbEntity
67
0
8
IV_OUTER_PROFILE
62
256
6
ByLayer
370
-1
48
1.0
60
0
100
AcDbCircle
39
0.0
10
58.0723763781351
20
499.851816292793
30
0.0
40
442.840861078967
210
0.0
220
0.0
230
1.0
100
AcDbArc
50
9.66118465893955
51
10.0625841798985
0
ARC
5
120
330
70
100
AcDbEntity
67
0
8
IV_OUTER_PROFILE
62
256
6
ByLayer
370
-1
48
1.0
60
0
100
AcDbCircle
39
0.0
10
52.0160094603855
20
498.791680519268
30
0.0
40
448.989297028647
210
0.0
220
0.0
230
1.0
100
AcDbArc
50
10.0607512974201
51
10.4571411133777
0
ARC
5
121
330
70
100
AcDbEntity
67
0
8
IV_OUTER_PROFILE
62
256
6
ByLayer
370
-1
48
1.0
60
0
100
AcDbCircle
39
0.0
10
45.7913595282653
20
497.657667180426
30
0.0
40
455.316385060797
210
0.0
220
0.0
230
1.0
100
AcDbArc
50
10.4553044763567
51
10.8466798781297
0
ARC
5
122
330
70
100
AcDbEntity
67
0
8
IV_OUTER_PROFILE
62
256
6
ByLayer
370
-1
48
1.0
60
0
100
AcDbCircle
39
0.0
10
39.3954339339847
20
496.447272863748
30
0.0
40
461.825816826714
210
0.0
220
0.0
230
1.0
100
AcDbArc
50
10.8448405863341
51
11.2311991644459
0
ARC
5
123
330
70
100
AcDbEntity
67
0
8
IV_OUTER_PROFILE
62
256
6
ByLayer
370
-1
48
1.0
60
0
100
AcDbCircle
39
0.0
10
32.8250907821239
20
495.157938802887
30
0.0
40
468.521454816251
210
0.0
220
0.0
230
1.0
100
AcDbArc
50
11.2293582735115
51
11.6106998245028
0
ARC
5
124
330
70
100
AcDbEntity
67
0
8
IV_OUTER_PROFILE
62
256
6
ByLayer
370
-1
48
1.0
60
0
100
AcDbCircle
39
0.0
10
26.07703118143
20
493.787046478741
30
0.0
40
475.40734067477
210
0.0
220
0.0
230
1.0
100
AcDbArc
50
11.6088583461469
51
11.9851847794302
0
ARC
5
125
330
70
100
AcDbEntity
67
0
8
IV_OUTER_PROFILE
62
256
6
ByLayer
370
-1
48
1.0
60
0
100
AcDbCircle
39
0.0
10
19.1477908353439
20
492.331912925345
30
0.0
40
482.487704266355
210
0.0
220
0.0
230
1.0
100
AcDbArc
50
11.9833436816752
51
12.3546589270046
0
ARC
5
126
330
70
100
AcDbEntity
67
0
8
IV_OUTER_PROFILE
62
256
6
ByLayer
370
-1
48
1.0
60
0
100
AcDbCircle
39
0.0
10
12.033730873858
20
490.789785699539
30
0.0
40
489.766973588562
210
0.0
220
0.0
230
1.0
100
AcDbArc
50
12.3528191345735
51
12.7191290501655
0
ARC
5
127
330
70
100
AcDbEntity
67
0
8
IV_OUTER_PROFILE
62
256
6
ByLayer
370
-1
48
1.0
60
0
100
AcDbCircle
39
0.0
10
4.73102852997044
20
489.157837630237
30
0.0
40
497.249784926245
210
0.0
220
0.0
230
1.0
100
AcDbArc
50
12.7172914449376
51
13.0786037267734
0
ARC
5
128
330
70
100
AcDbEntity
67
0
8
IV_OUTER_PROFILE
62
256
6
ByLayer
370
-1
48
1.0
60
0
100
AcDbCircle
39
0.0
10
-2.76433324707313
20
487.433161140071
30
0.0
40
504.940994177354
210
0.0
220
0.0
230
1.0
100
AcDbArc
50
13.0767691483132
51
13.4330932404482
0
ARC
5
129
330
70
100
AcDbEntity
67
0
8
IV_OUTER_PROFILE
62
256
6
ByLayer
370
-1
48
1.0
60
0
100
AcDbCircle
39
0.0
10
-10.4565765358861
20
485.612762276436
30
0.0
40
512.845688633742
210
0.0
220
0.0
230
1.0
100
AcDbArc
50
13.4312624866129
51
13.7826094928994
0
ARC
5
12A
330
70
100
AcDbEntity
67
0
8
IV_OUTER_PROFILE
62
256
6
ByLayer
370
-1
48
1.0
60
0
100
AcDbCircle
39
0.0
10
-18.3501402546365
20
483.693554275263
30
0.0
40
520.969199950701
210
0.0
220
0.0
230
1.0
100
AcDbArc
50
13.7807833205104
51
14.1271659176284
0
ARC
5
12B
330
70
100
AcDbEntity
67
0
8
IV_OUTER_PROFILE
62
256
6
ByLayer
370
-1
48
1.0
60
0
100
AcDbCircle
39
0.0
10
-26.4496924068411
20
481.672350787488
30
0.0
40
529.317117660768
210
0.0
220
0.0
230
1.0
100
AcDbArc
50
14.1253450432325
51
14.4667773954148
0
ARC
5
12C
330
70
100
AcDbEntity
67
0
8
IV_OUTER_PROFILE
62
256
6
ByLayer
370
-1
48
1.0
60
0
100
AcDbCircle
39
0.0
10
-34.7601434096297
20
479.545858598358
30
0.0
40
537.895303904044
210
0.0
220
0.0
230
1.0
100
AcDbArc
50
14.4649624960262
51
14.8014601714251
0
ARC
5
12D
330
70
100
AcDbEntity
67
0
8
IV_OUTER_PROFILE
62
256
6
ByLayer
370
-1
48
1.0
60
0
100
AcDbCircle
39
0.0
10
-43.2866605227122
20
477.310669806325
30
0.0
40
546.709909402835
210
0.0
220
0.0
230
1.0
100
AcDbArc
50
14.7996518853793
51
15.1312317740691
0
ARC
5
12E
330
70
100
AcDbEntity
67
0
8
IV_OUTER_PROFILE
62
256
6
ByLayer
370
-1
48
1.0
60
0
100
AcDbCircle
39
0.0
10
-52.0346828211663
20
474.963253586546
30
0.0
40
555.767390112404
210
0.0
220
0.0
230
1.0
100
AcDbArc
50
15.1294307019156
51
15.4561109359235
0
ARC
5
12F
330
70
100
AcDbEntity
67
0
8
IV_OUTER_PROFILE
62
256
6
ByLayer
370
-1
48
1.0
60
0
100
AcDbCircle
39
0.0
10
-61.0099376513333
20
472.49994727581
30
0.0
40
565.074525525463
210
0.0
220
0.0
230
1.0
100
AcDbArc
50
15.4543176412857
51
15.7761175164644
0
ARC
5
130
330
70
100
AcDbEntity
67
0
8
IV_OUTER_PROFILE
62
256
6
ByLayer
370
-1
48
1.0
60
0
100
AcDbCircle
39
0.0
10
-69.5021107070446
20
470.122090488535
30
0.0
40
573.893300380992
210
0.0
220
0.0
230
1.0
100
AcDbArc
50
15.7740650196301
51
16.0914163347243
0
ARC
5
131
330
70
100
AcDbEntity
67
0
8
IV_OUTER_PROFILE
62
256
6
ByLayer
370
-1
48
1.0
60
0
100
AcDbCircle
39
0.0
10
-89.7523987530557
20
464.332393718636
30
0.0
40
594.954932564548
210
0.0
220
0.0
230
1.0
100
AcDbArc
50
16.0866082929219
51
16.7002727975876
0
ARC
5
132
330
70
100
AcDbEntity
67
0
8
IV_OUTER_PROFILE
62
256
6
ByLayer
370
-1
48
1.0
60
0
100
AcDbCircle
39
0.0
10
-121.093190653786
20
455.051273856347
30
0.0
40
627.640885757011
210
0.0
220
0.0
230
1.0
100
AcDbArc
50
16.6896289925964
51
17.2731273044347
0
ARC
5
133
330
70
100
AcDbEntity
67
0
8
IV_OUTER_PROFILE
62
256
6
ByLayer
370
-1
48
1.0
60
0
100
AcDbCircle
39
0.0
10
-155.265550950629
20
444.55232331248
30
0.0
40
663.389511770589
210
0.0
220
0.0
230
1.0
100
AcDbArc
50
17.2626553090508
51
17.8163833896202
0
ARC
5
134
330
70
100
AcDbEntity
67
0
8
IV_OUTER_PROFILE
62
256
6
ByLayer
370
-1
48
1.0
60
0
100
AcDbCircle
39
0.0
10
-192.658690251421
20
432.667549290611
30
0.0
40
702.625715247327
210
0.0
220
0.0
230
1.0
100
AcDbArc
50
17.8060855463513
51
18.3304436866743
0
ARC
5
135
330
70
100
AcDbEntity
67
0
8
IV_OUTER_PROFILE
62
256
6
ByLayer
370
-1
48
1.0
60
0
100
AcDbCircle
39
0.0
10
-233.744841296609
20
419.194207704868
30
0.0
40
745.864429166523
210
0.0
220
0.0
230
1.0
100
AcDbArc
50
18.320320441241
51
18.8157091577182
0
ARC
5
136
330
70
100
AcDbEntity
67
0
8
IV_OUTER_PROFILE
62
256
6
ByLayer
370
-1
48
1.0
60
0
100
AcDbCircle
39
0.0
10
-279.102165736146
20
403.88505726415
30
0.0
40
793.735496773763
210
0.0
220
0.0
230
1.0
100
AcDbArc
50
18.8057592610302
51
19.2725756237619
0
ARC
5
137
330
70
100
AcDbEntity
67
0
8
IV_OUTER_PROFILE
62
256
6
ByLayer
370
-1
48
1.0
60
0
100
AcDbCircle
39
0.0
10
-329.445688257975
20
386.435206342195
30
0.0
40
847.017275755161
210
0.0
220
0.0
230
1.0
100
AcDbArc
50
19.2627963198143
51
19.7014306837128
0
ARC
5
138
330
70
100
AcDbEntity
67
0
8
IV_OUTER_PROFILE
62
256
6
ByLayer
370
-1
48
1.0
60
0
100
AcDbCircle
39
0.0
10
-385.669743328417
20
366.464073294562
30
0.0
40
906.682750750602
210
0.0
220
0.0
230
1.0
100
AcDbArc
50
19.6918178830427
51
20.1026509913131
0
ARC
5
139
330
70
100
AcDbEntity
67
0
8
IV_OUTER_PROFILE
62
256
6
ByLayer
370
-1
48
1.0
60
0
100
AcDbCircle
39
0.0
10
-448.907264167397
20
343.490198077494
30
0.0
40
973.96394391779
210
0.0
220
0.0
230
1.0
100
AcDbArc
50
20.0931994299346
51
20.4765998592249
0
ARC
5
13A
330
70
100
AcDbEntity
67
0
8
IV_OUTER_PROFILE
62
256
6
ByLayer
370
-1
48
1.0
60
0
100
AcDbCircle
39
0.0
10
-520.614262244367
20
316.895361708496
30
0.0
40
1050.44369260662
210
0.0
220
0.0
230
1.0
100
AcDbArc
50
20.4673032433878
51
20.8236251605506
0
ARC
5
13B
330
70
100
AcDbEntity
67
0
8
IV_OUTER_PROFILE
62
256
6
ByLayer
370
-1
48
1.0
60
0
100
AcDbCircle
39
0.0
10
-602.692935684029
20
285.872309630036
30
0.0
40
1138.18939284073
210
0.0
220
0.0
230
1.0
100
AcDbArc
50
20.8144762977323
51
21.1440574991058
0
ARC
5
13C
330
70
100
AcDbEntity
67
0
8
IV_OUTER_PROFILE
62
256
6
ByLayer
370
-1
48
1.0
60
0
100
AcDbCircle
39
0.0
10
-697.675714440924
20
249.346610391871
30
0.0
40
1239.95294266301
210
0.0
220
0.0
230
1.0
100
AcDbArc
50
21.1350484160116
51
21.4382086213378
0
LINE
5
13D
330
70
100
AcDbEntity
67
0
8
IV_OUTER_PROFILE
62
256
6
ByLayer
370
-1
48
1.0
60
0
100
AcDbLine
10
367.062525655732
20
1.97505794459988
30
0.0
11
365.819886861262
21
1.97505794459988
31
0.0
39
0.0
210
0.0
220
0.0
230
1.0
0
ARC
5
13E
330
70
100
AcDbEntity
67
0
8
IV_OUTER_PROFILE
62
256
6
ByLayer
370
-1
48
1.0
60
0
100
AcDbCircle
39
0.0
10
1626.65190288914
20
-271.412043139583
30
0.0
40
1303.63133332192
210
0.0
220
0.0
230
1.0
100
AcDbArc
50
158.979889491503
51
159.146063839662
0
ARC
5
13F
330
70
100
AcDbEntity
67
0
8
IV_OUTER_PROFILE
62
256
6
ByLayer
370
-1
48
1.0
60
0
100
AcDbCircle
39
0.0
10
1567.01755252848
20
-248.62873974793
30
0.0
40
1239.79301687242
210
0.0
220
0.0
230
1.0
100
AcDbArc
50
159.14891750537
51
159.323447295344
0
ARC
5
140
330
70
100
AcDbEntity
67
0
8
IV_OUTER_PROFILE
62
256
6
ByLayer
370
-1
48
1.0
60
0
100
AcDbCircle
39
0.0
10
1512.39846068282
20
-227.952028156719
30
0.0
40
1181.39123691636
210
0.0
220
0.0
230
1.0
100
AcDbArc
50
159.326324782575
51
159.509263484263
0
ARC
5
141
330
70
100
AcDbEntity
67
0
8
IV_OUTER_PROFILE
62
256
6
ByLayer
370
-1
48
1.0
60
0
100
AcDbCircle
39
0.0
10
1462.16961540093
20
-209.120506705714
30
0.0
40
1127.7483466114
210
0.0
220
0.0
230
1.0
100
AcDbArc
50
159.512165642158
51
159.703568693447
0
ARC
5
142
330
70
100
AcDbEntity
67
0
8
IV_OUTER_PROFILE
62
256
6
ByLayer
370
-1
48
1.0
60
0
100
AcDbCircle
39
0.0
10
1415.80675193265
20
-191.914900475833
30
0.0
40
1078.29589652301
210
0.0
220
0.0
230
1.0
100
AcDbArc
50
159.706496332335
51
159.906421057927
0
ARC
5
143
330
70
100
AcDbEntity
67
0
8
IV_OUTER_PROFILE
62
256
6
ByLayer
370
-1
48
1.0
60
0
100
AcDbCircle
39
0.0
10
1372.8668794296
20
-176.149911472617
30
0.0
40
1032.55352481449
210
0.0
220
0.0
230
1.0
100
AcDbArc
50
159.909374945974
51
160.117880469772
0
ARC
5
144
330
70
100
AcDbEntity
67
0
8
IV_OUTER_PROFILE
62
256
6
ByLayer
370
-1
48
1.0
60
0
100
AcDbCircle
39
0.0
10
1332.97316006126
20
-161.667889852391
30
0.0
40
990.112565493517
210
0.0
220
0.0
230
1.0
100
AcDbArc
50
160.12086132938
51
160.338008479125
0
ARC
5
145
330
70
100
AcDbEntity
67
0
8
IV_OUTER_PROFILE
62
256
6
ByLayer
370
-1
48
1.0
60
0
100
AcDbCircle
39
0.0
10
1295.80304066007
20
-148.333866308968
30
0.0
40
950.623182552196
210
0.0
220
0.0
230
1.0
100
AcDbArc
50
160.341016983228
51
160.566868187468
0
ARC
5
146
330
70
100
AcDbEntity
67
0
8
IV_OUTER_PROFILE
62
256
6
ByLayer
370
-1
48
1.0
60
0
100
AcDbCircle
39
0.0
10
1261.07885160304
20
-136.031616831689
30
0.0
40
913.784178661706
210
0.0
220
0.0
230
1.0
100
AcDbArc
50
160.569904955537
51
160.804524132302
0
ARC
5
147
330
70
100
AcDbEntity
67
0
8
IV_OUTER_PROFILE
62
256
6
ByLayer
370
-1
48
1.0
60
0
100
AcDbCircle
39
0.0
10
1228.5602941692
20
-124.660517683943
30
0.0
40
879.334851046795
210
0.0
220
0.0
230
1.0
100
AcDbArc
50
160.807589726128
51
161.051042162753
0
ARC
5
148
330
70
100
AcDbEntity
67
0
8
IV_OUTER_PROFILE
62
256
6
ByLayer
370
-1
48
1.0
60
0
100
AcDbCircle
39
0.0
10
1198.03838754607
20
-114.13301120475
30
0.0
40
847.04842970129
210
0.0
220
0.0
230
1.0
100
AcDbArc
50
161.054137081989
51
161.306489305733
0
ARC
5
149
330
70
100
AcDbEntity
67
0
8
IV_OUTER_PROFILE
62
256
6
ByLayer
370
-1
48
1.0
60
0
100
AcDbCircle
39
0.0
10
1169.33055583155
20
-104.372548606086
30
0.0
40
816.726751410991
210
0.0
220
0.0
230
1.0
100
AcDbArc
50
161.309613983162
51
161.57093362194
0
ARC
5
14A
330
70
100
AcDbEntity
67
0
8
IV_OUTER_PROFILE
62
256
6
ByLayer
370
-1
48
1.0
60
0
100
AcDbCircle
39
0.0
10
1142.27661159888
20
-95.3119079516183
30
0.0
40
788.195905718399
210
0.0
220
0.0
230
1.0
100
AcDbArc
50
161.57408841853
51
161.844444051313
0
ARC
5
14B
330
70
100
AcDbEntity
67
0
8
IV_OUTER_PROFILE
62
256
6
ByLayer
370
-1
48
1.0
60
0
100
AcDbCircle
39
0.0
10
1116.73545088137
20
-86.8918098343657
30
0.0
40
761.302652128828
210
0.0
220
0.0
230
1.0
100
AcDbArc
50
161.847629250985
51
162.127090247331
0
ARC
5
14C
330
70
100
AcDbEntity
67
0
8
IV_OUTER_PROFILE
62
256
6
ByLayer
370
-1
48
1.0
60
0
100
AcDbCircle
39
0.0
10
1092.58231690512
20
-79.0597710397079
30
0.0
40
735.911453896587
210
0.0
220
0.0
230
1.0
100
AcDbArc
50
162.130306051469
51
162.418942399624
0
ARC
5
14D
330
70
100
AcDbEntity
67
0
8
IV_OUTER_PROFILE
62
256
6
ByLayer
370
-1
48
1.0
60
0
100
AcDbCircle
39
0.0
10
1069.70652162483
20
-71.7691497630095
30
0.0
40
711.902008124919
210
0.0
220
0.0
230
1.0
100
AcDbArc
50
162.422188921344
51
162.720071044316
0
ARC
5
14E
330
70
100
AcDbEntity
67
0
8
IV_OUTER_PROFILE
62
256
6
ByLayer
370
-1
48
1.0
60
0
100
AcDbCircle
39
0.0
10
1048.00953759589
20
-64.9783458399878
30
0.0
40
689.167177386514
210
0.0
220
0.0
230
1.0
100
AcDbArc
50
162.723348302438
51
163.03054686168
0
ARC
5
14F
330
70
100
AcDbEntity
67
0
8
IV_OUTER_PROFILE
62
256
6
ByLayer
370
-1
48
1.0
60
0
100
AcDbCircle
39
0.0
10
1027.40339303242
20
-58.6501277482781
30
0.0
40
667.611250025565
210
0.0
220
0.0
230
1.0
100
AcDbArc
50
163.033854774519
51
163.350440460291
0
ARC
5
150
330
70
100
AcDbEntity
67
0
8
IV_OUTER_PROFILE
62
256
6
ByLayer
370
-1
48
1.0
60
0
100
AcDbCircle
39
0.0
10
1007.80931338141
20
-52.7510629020734
30
0.0
40
647.148467793219
210
0.0
220
0.0
230
1.0
100
AcDbArc
50
163.353778839171
51
163.679822147635
0
ARC
5
151
330
70
100
AcDbEntity
67
0
8
IV_OUTER_PROFILE
62
256
6
ByLayer
370
-1
48
1.0
60
0
100
AcDbCircle
39
0.0
10
989.156568405588
20
-47.2510338139029
30
0.0
40
627.701776274864
210
0.0
220
0.0
230
1.0
100
AcDbArc
50
163.683190690123
51
164.018761686117
0
ARC
5
152
330
70
100
AcDbEntity
67
0
8
IV_OUTER_PROFILE
62
256
6
ByLayer
370
-1
48
1.0
60
0
100
AcDbCircle
39
0.0
10
971.381487810812
20
-42.1228248707175
30
0.0
40
609.20175811511
210
0.0
220
0.0
230
1.0
100
AcDbArc
50
164.022159969081
51
164.367328034471
0
ARC
5
153
330
70
100
AcDbEntity
67
0
8
IV_OUTER_PROFILE
62
256
6
ByLayer
370
-1
48
1.0
60
0
100
AcDbCircle
39
0.0
10
954.42661838761
20
-37.3417682669493
30
0.0
40
591.58571969191
210
0.0
220
0.0
230
1.0
100
AcDbArc
50
164.3707555069
51
164.725589073789
0
ARC
5
154
330
70
100
AcDbEntity
67
0
8
IV_OUTER_PROFILE
62
256
6
ByLayer
370
-1
48
1.0
60
0
100
AcDbCircle
39
0.0
10
938.239998875918
20
-32.8854392302064
30
0.0
40
574.796905483237
210
0.0
220
0.0
230
1.0
100
AcDbArc
50
164.729045049473
51
165.093611317995
0
ARC
5
155
330
70
100
AcDbEntity
67
0
8
IV_OUTER_PROFILE
62
256
6
ByLayer
370
-1
48
1.0
60
0
100
AcDbCircle
39
0.0
10
922.774533969109
20
-28.7333927378982
30
0.0
40
558.783819974843
210
0.0
220
0.0
230
1.0
100
AcDbArc
50
165.097094968006
51
165.471459608366
0
ARC
5
156
330
70
100
AcDbEntity
67
0
8
IV_OUTER_PROFILE
62
256
6
ByLayer
370
-1
48
1.0
60
0
100
AcDbCircle
39
0.0
10
907.52325339525
20
-24.7497818080675
30
0.0
40
543.020895969839
210
0.0
220
0.0
230
1.0
100
AcDbArc
50
165.474652004871
51
165.85921784571
0
ARC
5
157
330
70
100
AcDbEntity
67
0
8
IV_OUTER_PROFILE
62
256
6
ByLayer
370
-1
48
1.0
60
0
100
AcDbCircle
39
0.0
10
898.549960153554
20
-22.4675232423723
30
0.0
40
533.761940723705
210
0.0
220
0.0
230
1.0
100
AcDbArc
50
165.861459111519
51
166.252025986415
0
ARC
5
158
330
70
100
AcDbEntity
67
0
8
IV_OUTER_PROFILE
62
256
6
ByLayer
370
-1
48
1.0
60
0
100
AcDbCircle
39
0.0
10
889.966946477673
20
-20.34691587624
30
0.0
40
524.920861089494
210
0.0
220
0.0
230
1.0
100
AcDbArc
50
166.254218454052
51
166.650693167335
0
ARC
5
159
330
70
100
AcDbEntity
67
0
8
IV_OUTER_PROFILE
62
256
6
ByLayer
370
-1
48
1.0
60
0
100
AcDbCircle
39
0.0
10
881.617375779794
20
-18.3452211742355
30
0.0
40
516.33472610927
210
0.0
220
0.0
230
1.0
100
AcDbArc
50
166.652890469299
51
167.055288404471
0
ARC
5
15A
330
70
100
AcDbEntity
67
0
8
IV_OUTER_PROFILE
62
256
6
ByLayer
370
-1
48
1.0
60
0
100
AcDbCircle
39
0.0
10
873.496286009828
20
-16.4585493060687
30
0.0
40
507.997385841602
210
0.0
220
0.0
230
1.0
100
AcDbArc
50
167.057489355509
51
167.465823491758
0
ARC
5
15B
330
70
100
AcDbEntity
67
0
8
IV_OUTER_PROFILE
62
256
6
ByLayer
370
-1
48
1.0
60
0
100
AcDbCircle
39
0.0
10
865.598969880238
20
-14.6831201278674
30
0.0
40
499.902981894004
210
0.0
220
0.0
230
1.0
100
AcDbArc
50
167.468026840578
51
167.882307613958
0
ARC
5
15C
330
70
100
AcDbEntity
67
0
8
IV_OUTER_PROFILE
62
256
6
ByLayer
370
-1
48
1.0
60
0
100
AcDbCircle
39
0.0
10
857.920960803475
20
-13.0152549152044
30
0.0
40
492.045931961879
210
0.0
220
0.0
230
1.0
100
AcDbArc
50
167.884512042243
51
168.304747204641
0
ARC
5
15D
330
70
100
AcDbEntity
67
0
8
IV_OUTER_PROFILE
62
256
6
ByLayer
370
-1
48
1.0
60
0
100
AcDbCircle
39
0.0
10
850.458019790046
20
-11.4513686211036
30
0.0
40
484.420915491663
210
0.0
220
0.0
230
1.0
100
AcDbArc
50
168.306951326223
51
168.733145802379
0
ARC
5
15E
330
70
100
AcDbEntity
67
0
8
IV_OUTER_PROFILE
62
256
6
ByLayer
370
-1
48
1.0
60
0
100
AcDbCircle
39
0.0
10
843.206123180218
20
-9.98796260649213
30
0.0
40
477.022860329685
210
0.0
220
0.0
230
1.0
100
AcDbArc
50
168.735348162592
51
169.167503905502
0
ARC
5
15F
330
70
100
AcDbEntity
67
0
8
IV_OUTER_PROFILE
62
256
6
ByLayer
370
-1
48
1.0
60
0
100
AcDbCircle
39
0.0
10
836.161451083642
20
-8.62161779679049
30
0.0
40
469.846930221143
210
0.0
220
0.0
230
1.0
100
AcDbArc
50
169.169702980692
51
169.607818825812
0
ARC
5
160
330
70
100
AcDbEntity
67
0
8
IV_OUTER_PROFILE
62
256
6
ByLayer
370
-1
48
1.0
60
0
100
AcDbCircle
39
0.0
10
829.320376673442
20
-7.34898827302267
30
0.0
40
462.888513301416
210
0.0
220
0.0
230
1.0
100
AcDbArc
50
169.610013023035
51
170.054084541572
0
ARC
5
161
330
70
100
AcDbEntity
67
0
8
IV_OUTER_PROFILE
62
256
6
ByLayer
370
-1
48
1.0
60
0
100
AcDbCircle
39
0.0
10
822.679456049413
20
-6.16679522073284
30
0.0
40
456.143211282099
210
0.0
220
0.0
230
1.0
100
AcDbArc
50
170.05627219852
51
170.506291550319
0
ARC
5
162
330
70
100
AcDbEntity
67
0
8
IV_OUTER_PROFILE
62
256
6
ByLayer
370
-1
48
1.0
60
0
100
AcDbCircle
39
0.0
10
816.235418838862
20
-5.07182125088786
30
0.0
40
449.606829497138
210
0.0
220
0.0
230
1.0
100
AcDbArc
50
170.508470935469
51
170.964426721849
0
ARC
5
163
330
70
100
AcDbEntity
67
0
8
IV_OUTER_PROFILE
62
256
6
ByLayer
370
-1
48
1.0
60
0
100
AcDbCircle
39
0.0
10
809.985159246786
20
-4.06090502324504
30
0.0
40
443.27536751031
210
0.0
220
0.0
230
1.0
100
AcDbArc
50
170.966596034875
51
171.428473152032
0
ARC
5
164
330
70
100
AcDbEntity
67
0
8
IV_OUTER_PROFILE
62
256
6
ByLayer
370
-1
48
1.0
60
0
100
AcDbCircle
39
0.0
10
803.92572773362
20
-3.13093618912364
30
0.0
40
437.145010459824
210
0.0
220
0.0
230
1.0
100
AcDbArc
50
171.430630524433
51
171.898410017847
0
ARC
5
165
330
70
100
AcDbEntity
67
0
8
IV_OUTER_PROFILE
62
256
6
ByLayer
370
-1
48
1.0
60
0
100
AcDbCircle
39
0.0
10
798.054323182331
20
-2.2788506131071
30
0.0
40
431.212120994448
210
0.0
220
0.0
230
1.0
100
AcDbArc
50
171.900553513885
51
172.374212434308
0
ARC
5
166
330
70
100
AcDbEntity
67
0
8
IV_OUTER_PROFILE
62
256
6
ByLayer
370
-1
48
1.0
60
0
100
AcDbCircle
39
0.0
10
792.368285507148
20
-1.50162585334297
30
0.0
40
425.473231748287
210
0.0
220
0.0
230
1.0
100
AcDbArc
50
172.376340052223
51
172.855851313857
0
ARC
5
167
330
70
100
AcDbEntity
67
0
8
IV_OUTER_PROFILE
62
256
6
ByLayer
370
-1
48
1.0
60
0
100
AcDbCircle
39
0.0
10
786.865088753648
20
-0.796276893783464
30
0.0
40
419.925038399841
210
0.0
220
0.0
230
1.0
100
AcDbArc
50
172.857960987404
51
173.343293228839
0
ARC
5
168
330
70
100
AcDbEntity
67
0
8
IV_OUTER_PROFILE
62
256
6
ByLayer
370
-1
48
1.0
60
0
100
AcDbCircle
39
0.0
10
781.542334522319
20
-0.159852092772704
30
0.0
40
414.564393141629
210
0.0
220
0.0
230
1.0
100
AcDbArc
50
173.345382829142
51
173.836500277797
0
ARC
5
169
330
70
100
AcDbEntity
67
0
8
IV_OUTER_PROFILE
62
256
6
ByLayer
370
-1
48
1.0
60
0
100
AcDbCircle
39
0.0
10
776.39774585088
20
0.410570645562655
30
0.0
40
409.38829869281
210
0.0
220
0.0
230
1.0
100
AcDbArc
50
173.838567615542
51
174.335429956196
0
ARC
5
16A
330
70
100
AcDbEntity
67
0
8
IV_OUTER_PROFILE
62
256
6
ByLayer
370
-1
48
1.0
60
0
100
AcDbCircle
39
0.0
10
771.429161348134
20
0.917887513407782
30
0.0
40
404.393902642158
210
0.0
220
0.0
230
1.0
100
AcDbArc
50
174.337472784147
51
174.8400350324
0
ARC
5
16B
330
70
100
AcDbEntity
67
0
8
IV_OUTER_PROFILE
62
256
6
ByLayer
370
-1
48
1.0
60
0
100
AcDbCircle
39
0.0
10
765.94071484157
20
1.42148707325405
30
0.0
40
398.882406152021
210
0.0
220
0.0
230
1.0
100
AcDbArc
50
174.841176401833
51
175.350275994464
0
ARC
5
16C
330
70
100
AcDbEntity
67
0
8
IV_OUTER_PROFILE
62
256
6
ByLayer
370
-1
48
1.0
60
0
100
AcDbCircle
39
0.0
10
768.97031577354
20
1.16843785474039
30
0.0
40
401.922549595236
210
0.0
220
0.0
230
1.0
100
AcDbArc
50
175.34933157208
51
175.854217375534
0
ARC
5
16D
330
70
100
AcDbEntity
67
0
8
IV_OUTER_PROFILE
62
256
6
ByLayer
370
-1
48
1.0
60
0
100
AcDbCircle
39
0.0
10
767.243591856071
20
1.29867501436031
30
0.0
40
400.190928547942
210
0.0
220
0.0
230
1.0
100
AcDbArc
50
175.854942371727
51
176.361688049012
0
ARC
5
16E
330
70
100
AcDbEntity
67
0
8
IV_OUTER_PROFILE
62
256
6
ByLayer
370
-1
48
1.0
60
0
100
AcDbCircle
39
0.0
10
765.616504449257
20
1.40692939572373
30
0.0
40
398.560250942376
210
0.0
220
0.0
230
1.0
100
AcDbArc
50
176.362375885292
51
176.870907983688
0
ARC
5
16F
330
70
100
AcDbEntity
67
0
8
IV_OUTER_PROFILE
62
256
6
ByLayer
370
-1
48
1.0
60
0
100
AcDbCircle
39
0.0
10
764.08908912965
20
1.49493919920737
30
0.0
40
397.030308810951
210
0.0
220
0.0
230
1.0
100
AcDbArc
50
176.87155787011
51
177.381801283305
0
ARC
5
170
330
70
100
AcDbEntity
67
0
8
IV_OUTER_PROFILE
62
256
6
ByLayer
370
-1
48
1.0
60
0
100
AcDbCircle
39
0.0
10
762.66138289989
20
1.56444966649713
30
0.0
40
395.600917712666
210
0.0
220
0.0
230
1.0
100
AcDbArc
50
177.382412457621
51
177.894290479357
0
ARC
5
171
330
70
100
AcDbEntity
67
0
8
IV_OUTER_PROFILE
62
256
6
ByLayer
370
-1
48
1.0
60
0
100
AcDbCircle
39
0.0
10
761.333424055624
20
1.61721314125201
30
0.0
40
394.271916905403
210
0.0
220
0.0
230
1.0
100
AcDbArc
50
177.894862208819
51
178.408296590277
0
ARC
5
172
330
70
100
AcDbEntity
67
0
8
IV_OUTER_PROFILE
62
256
6
ByLayer
370
-1
48
1.0
60
0
100
AcDbCircle
39
0.0
10
760.105252227251
20
1.65498911887108
30
0.0
40
393.043169687627
210
0.0
220
0.0
230
1.0
100
AcDbArc
50
178.408828173351
51
178.923739183995
0
ARC
5
173
330
70
100
AcDbEntity
67
0
8
IV_OUTER_PROFILE
62
256
6
ByLayer
370
-1
48
1.0
60
0
100
AcDbCircle
39
0.0
10
758.976908300127
20
1.67954430064087
30
0.0
40
391.914563612305
210
0.0
220
0.0
230
1.0
100
AcDbArc
50
178.924229952013
51
179.440536443943
0
ARC
5
174
330
70
100
AcDbEntity
67
0
8
IV_OUTER_PROFILE
62
256
6
ByLayer
370
-1
48
1.0
60
0
100
AcDbCircle
39
0.0
10
757.948434489848
20
1.69265264325671
30
0.0
40
390.88601084949
210
0.0
220
0.0
230
1.0
100
AcDbArc
50
179.44098576274
51
179.95860523826
0
ARC
5
175
330
70
100
AcDbEntity
67
0
8
IV_OUTER_PROFILE
62
256
6
ByLayer
370
-1
48
1.0
60
0
100
AcDbCircle
39
0.0
10
1680.03702103657
20
1305.78155155252
30
0.0
40
1360.82395558975
210
0.0
220
0.0
230
1.0
100
AcDbArc
50
201.020297995121
51
201.145174170094
0
ARC
5
176
330
70
100
AcDbEntity
67
0
8
IV_OUTER_PROFILE
62
256
6
ByLayer
370
-1
48
1.0
60
0
100
AcDbCircle
39
0.0
10
1747.33299769278
20
1331.75371599635
30
0.0
40
1432.95785326438
210
0.0
220
0.0
230
1.0
100
AcDbArc
50
201.143079502468
51
201.261765352646
0
ARC
5
177
330
70
100
AcDbEntity
67
0
8
IV_OUTER_PROFILE
62
256
6
ByLayer
370
-1
48
1.0
60
0
100
AcDbCircle
39
0.0
10
1821.56873057762
20
1360.58097963092
30
0.0
40
1512.59422876594
210
0.0
220
0.0
230
1.0
100
AcDbArc
50
201.259683147134
51
201.372207027187
0
ARC
5
178
330
70
100
AcDbEntity
67
0
8
IV_OUTER_PROFILE
62
256
6
ByLayer
370
-1
48
1.0
60
0
100
AcDbCircle
39
0.0
10
1903.90805296486
20
1392.74121892126
30
0.0
40
1600.99129795141
210
0.0
220
0.0
230
1.0
100
AcDbArc
50
201.370136716373
51
201.476525698649
0
ARC
5
179
330
70
100
AcDbEntity
67
0
8
IV_OUTER_PROFILE
62
256
6
ByLayer
370
-1
48
1.0
60
0
100
AcDbCircle
39
0.0
10
1995.79155080732
20
1428.82597355977
30
0.0
40
1699.70645980041
210
0.0
220
0.0
230
1.0
100
AcDbArc
50
201.474466704145
51
201.574746554739
0
ARC
5
17A
330
70
100
AcDbEntity
67
0
8
IV_OUTER_PROFILE
62
256
6
ByLayer
370
-1
48
1.0
60
0
100
AcDbCircle
39
0.0
10
2099.02395602127
20
1469.57634337179
30
0.0
40
1810.69077487634
210
0.0
220
0.0
230
1.0
100
AcDbArc
50
201.57269828803
51
201.666893444891
0
ARC
5
17B
330
70
100
AcDbEntity
67
0
8
IV_OUTER_PROFILE
62
256
6
ByLayer
370
-1
48
1.0
60
0
100
AcDbCircle
39
0.0
10
2215.89689430932
20
1515.93340681858
30
0.0
40
1936.42166447287
210
0.0
220
0.0
230
1.0
100
AcDbArc
50
201.664855308163
51
201.752988860864
0
ARC
5
17C
330
70
100
AcDbEntity
67
0
8
IV_OUTER_PROFILE
62
256
6
ByLayer
370
-1
48
1.0
60
0
100
AcDbCircle
39
0.0
10
2349.36486871096
20
1569.11050581492
30
0.0
40
2080.09316129527
210
0.0
220
0.0
230
1.0
100
AcDbArc
50
201.750960247767
51
201.833053919067
0
ARC
5
17D
330
70
100
AcDbEntity
67
0
8
IV_OUTER_PROFILE
62
256
6
ByLayer
370
-1
48
1.0
60
0
100
AcDbCircle
39
0.0
10
2503.30353038308
20
1630.69932943879
30
0.0
40
2245.89511830355
210
0.0
220
0.0
230
1.0
100
AcDbArc
50
201.83103421554
51
201.907108344266
0
ARC
5
17E
330
70
100
AcDbEntity
67
0
8
IV_OUTER_PROFILE
62
256
6
ByLayer
370
-1
48
1.0
60
0
100
AcDbCircle
39
0.0
10
2682.89888131103
20
1702.82977735848
30
0.0
40
2439.43396412
210
0.0
220
0.0
230
1.0
100
AcDbArc
50
201.905096929176
51
201.975170455146
0
ARC
5
17F
330
70
100
AcDbEntity
67
0
8
IV_OUTER_PROFILE
62
256
6
ByLayer
370
-1
48
1.0
60
0
100
AcDbCircle
39
0.0
10
2895.2520691424
20
1788.41837615292
30
0.0
40
2668.38652834344
210
0.0
220
0.0
230
1.0
100
AcDbArc
50
201.973166700939
51
202.037257150738
0
ARC
5
180
330
70
100
AcDbEntity
67
0
8
IV_OUTER_PROFILE
62
256
6
ByLayer
370
-1
48
1.0
60
0
100
AcDbCircle
39
0.0
10
3150.35317355816
20
1891.5682569656
30
0.0
40
2943.55277236076
210
0.0
220
0.0
230
1.0
100
AcDbArc
50
202.035260424087
51
202.093383898645
0
ARC
5
181
330
70
100
AcDbEntity
67
0
8
IV_OUTER_PROFILE
62
256
6
ByLayer
370
-1
48
1.0
60
0
100
AcDbCircle
39
0.0
10
3462.71647318131
20
2018.24083210978
30
0.0
40
3280.62362632495
210
0.0
220
0.0
230
1.0
100
AcDbArc
50
202.091393561114
51
202.143564724098
0
ARC
5
182
330
70
100
AcDbEntity
67
0
8
IV_OUTER_PROFILE
62
256
6
ByLayer
370
-1
48
1.0
60
0
100
AcDbCircle
39
0.0
10
3854.26818348398
20
2177.44191698344
30
0.0
40
3703.30283410522
210
0.0
220
0.0
230
1.0
100
AcDbArc
50
202.1415801326
51
202.187812200812
0
ARC
5
183
330
70
100
AcDbEntity
67
0
8
IV_OUTER_PROFILE
62
256
6
ByLayer
370
-1
48
1.0
60
0
100
AcDbCircle
39
0.0
10
4359.76988935873
20
2383.44937300072
30
0.0
40
4249.17005953132
210
0.0
220
0.0
230
1.0
100
AcDbArc
50
202.185832708138
51
202.226137442139
0
ARC
5
184
330
70
100
AcDbEntity
67
0
8
IV_OUTER_PROFILE
62
256
6
ByLayer
370
-1
48
1.0
60
0
100
AcDbCircle
39
0.0
10
5037.82023390628
20
2660.33198638202
30
0.0
40
4981.57447389645
210
0.0
220
0.0
230
1.0
100
AcDbArc
50
202.224162397621
51
202.258550094085
0
ARC
5
185
330
70
100
AcDbEntity
67
0
8
IV_OUTER_PROFILE
62
256
6
ByLayer
370
-1
48
1.0
60
0
100
AcDbCircle
39
0.0
10
5995.51394692025
20
3052.07801754725
30
0.0
40
6016.29287298108
210
0.0
220
0.0
230
1.0
100
AcDbArc
50
202.256578844037
51
202.285058328995
0
ARC
5
186
330
70
100
AcDbEntity
67
0
8
IV_OUTER_PROFILE
62
256
6
ByLayer
370
-1
48
1.0
60
0
100
AcDbCircle
39
0.0
10
7451.69756235074
20
3648.5771102959
30
0.0
40
7589.91348660404
210
0.0
220
0.0
230
1.0
100
AcDbArc
50
202.283090217218
51
202.305668840342
0
ARC
5
187
330
70
100
AcDbEntity
67
0
8
IV_OUTER_PROFILE
62
256
6
ByLayer
370
-1
48
1.0
60
0
100
AcDbCircle
39
0.0
10
9934.17814781445
20
4666.62260161055
30
0.0
40
10273.0322666474
210
0.0
220
0.0
230
1.0
100
AcDbArc
50
202.303703208502
51
202.320386838615
0
ARC
5
188
330
70
100
AcDbEntity
67
0
8
IV_OUTER_PROFILE
62
256
6
ByLayer
370
-1
48
1.0
60
0
100
AcDbCircle
39
0.0
10
15122.3405308394
20
6796.0115211491
30
0.0
40
15881.1804361974
210
0.0
220
0.0
230
1.0
100
AcDbArc
50
202.318423026312
51
202.329216048264
0
ARC
5
189
330
70
100
AcDbEntity
67
0
8
IV_OUTER_PROFILE
62
256
6
ByLayer
370
-1
48
1.0
60
0
100
AcDbCircle
39
0.0
10
32756.5985201682
20
14037.5604604275
30
0.0
40
34944.4195424718
210
0.0
220
0.0
230
1.0
100
AcDbArc
50
202.327253394841
51
202.332158703422
0
ARC
5
18A
330
70
100
AcDbEntity
67
0
8
IV_OUTER_PROFILE
62
256
6
ByLayer
370
-1
48
1.0
60
0
100
AcDbCircle
39
0.0
10
-821.300302311244
20
200.988676320974
30
0.0
40
1372.69894707714
210
0.0
220
0.0
230
1.0
100
AcDbArc
50
21.4310156442284
51
21.552762502123
0
ARC
5
18B
330
70
100
AcDbEntity
67
0
8
IV_OUTER_PROFILE
62
256
6
ByLayer
370
-1
48
1.0
60
0
100
AcDbCircle
39
0.0
10
-888.980737377101
20
174.312003238528
30
0.0
40
1445.44703061043
210
0.0
220
0.0
230
1.0
100
AcDbArc
50
21.550720731243
51
21.6664332040421
0
ARC
5
18C
330
70
100
AcDbEntity
67
0
8
IV_OUTER_PROFILE
62
256
6
ByLayer
370
-1
48
1.0
60
0
100
AcDbCircle
39
0.0
10
-963.64061800659
20
144.710040425733
30
0.0
40
1525.76123365374
210
0.0
220
0.0
230
1.0
100
AcDbArc
50
21.6644035503804
51
21.774109205059
0
ARC
5
18D
330
70
100
AcDbEntity
67
0
8
IV_OUTER_PROFILE
62
256
6
ByLayer
370
-1
48
1.0
60
0
100
AcDbCircle
39
0.0
10
-1046.45059586258
20
111.693062029573
30
0.0
40
1614.91060402777
210
0.0
220
0.0
230
1.0
100
AcDbArc
50
21.7720911120375
51
21.8758162579514
0
ARC
5
18E
330
70
100
AcDbEntity
67
0
8
IV_OUTER_PROFILE
62
256
6
ByLayer
370
-1
48
1.0
60
0
100
AcDbCircle
39
0.0
10
-1138.85968062938
20
74.6548669744185
30
0.0
40
1714.46593257828
210
0.0
220
0.0
230
1.0
100
AcDbArc
50
21.873809159109
51
21.9715788270086
0
ARC
5
18F
330
70
100
AcDbEntity
67
0
8
IV_OUTER_PROFILE
62
256
6
ByLayer
370
-1
48
1.0
60
0
100
AcDbCircle
39
0.0
10
-1242.68315561867
20
32.835988175989
30
0.0
40
1826.39505649196
210
0.0
220
0.0
230
1.0
100
AcDbArc
50
21.969582146775
51
22.0614200686978
0
ARC
5
190
330
70
100
AcDbEntity
67
0
8
IV_OUTER_PROFILE
62
256
6
ByLayer
370
-1
48
1.0
60
0
100
AcDbCircle
39
0.0
10
-1360.22602944203
20
-14.7279695678744
30
0.0
40
1953.1966849249
210
0.0
220
0.0
230
1.0
100
AcDbArc
50
22.0594332232072
51
22.1453618146353
0
ARC
5
191
330
70
100
AcDbEntity
67
0
8
IV_OUTER_PROFILE
62
256
6
ByLayer
370
-1
48
1.0
60
0
100
AcDbCircle
39
0.0
10
-1494.46005597007
20
-69.2804083428599
30
0.0
40
2098.09229414812
210
0.0
220
0.0
230
1.0
100
AcDbArc
50
22.143384212453
51
22.2234245554714
0
ARC
5
192
330
70
100
AcDbEntity
67
0
8
IV_OUTER_PROFILE
62
256
6
ByLayer
370
-1
48
1.0
60
0
100
AcDbCircle
39
0.0
10
-1649.28348603175
20
-132.452437342552
30
0.0
40
2265.30770650956
210
0.0
220
0.0
230
1.0
100
AcDbArc
50
22.2214555981445
51
22.2956274268057
0
ARC
5
193
330
70
100
AcDbEntity
67
0
8
IV_OUTER_PROFILE
62
256
6
ByLayer
370
-1
48
1.0
60
0
100
AcDbCircle
39
0.0
10
-1829.91257538971
20
-206.426709248413
30
0.0
40
2460.49749696398
210
0.0
220
0.0
230
1.0
100
AcDbArc
50
22.2936665095383
51
22.3619881954916
0
ARC
5
194
330
70
100
AcDbEntity
67
0
8
IV_OUTER_PROFILE
62
256
6
ByLayer
370
-1
48
1.0
60
0
100
AcDbCircle
39
0.0
10
-2043.48986195991
20
-294.191969563859
30
0.0
40
2691.40438416946
210
0.0
220
0.0
230
1.0
100
AcDbArc
50
22.3600347078231
51
22.4225232482664
0
ARC
5
195
330
70
100
AcDbEntity
67
0
8
IV_OUTER_PROFILE
62
256
6
ByLayer
370
-1
48
1.0
60
0
100
AcDbCircle
39
0.0
10
-2300.06365623713
20
-399.952948757632
30
0.0
40
2968.92102764485
210
0.0
220
0.0
230
1.0
100
AcDbArc
50
22.4205765745493
51
22.4772475807085
0
ARC
5
196
330
70
100
AcDbEntity
67
0
8
IV_OUTER_PROFILE
62
256
6
ByLayer
370
-1
48
1.0
60
0
100
AcDbCircle
39
0.0
10
-2614.23280744563
20
-529.818655577493
30
0.0
40
3308.8730038279
210
0.0
220
0.0
230
1.0
100
AcDbArc
50
22.4753071007464
51
22.526174787783
0
ARC
5
197
330
70
100
AcDbEntity
67
0
8
IV_OUTER_PROFILE
62
256
6
ByLayer
370
-1
48
1.0
60
0
100
AcDbCircle
39
0.0
10
-3008.05127931382
20
-693.017868561445
30
0.0
40
3735.16745348463
210
0.0
220
0.0
230
1.0
100
AcDbArc
50
22.5242398771828
51
22.569317055495
0
ARC
5
198
330
70
100
AcDbEntity
67
0
8
IV_OUTER_PROFILE
62
256
6
ByLayer
370
-1
48
1.0
60
0
100
AcDbCircle
39
0.0
10
-3516.483161689
20
-904.181919637401
30
0.0
40
4285.70647782292
210
0.0
220
0.0
230
1.0
100
AcDbArc
50
22.5673870861948
51
22.606685153064
0
ARC
5
199
330
70
100
AcDbEntity
67
0
8
IV_OUTER_PROFILE
62
256
6
ByLayer
370
-1
48
1.0
60
0
100
AcDbCircle
39
0.0
10
-4198.46846840901
20
-1187.97544891861
30
0.0
40
5024.3827949746
210
0.0
220
0.0
230
1.0
100
AcDbArc
50
22.6047594940032
51
22.6382884265773
0
ARC
5
19A
330
70
100
AcDbEntity
67
0
8
IV_OUTER_PROFILE
62
256
6
ByLayer
370
-1
48
1.0
60
0
100
AcDbCircle
39
0.0
10
-5161.72574409306
20
-1589.47566364089
30
0.0
40
6067.96650856617
210
0.0
220
0.0
230
1.0
100
AcDbArc
50
22.6363664440317
51
22.6641347936363
0
ARC
5
19B
330
70
100
AcDbEntity
67
0
8
IV_OUTER_PROFILE
62
256
6
ByLayer
370
-1
48
1.0
60
0
100
AcDbCircle
39
0.0
10
-6626.37600160148
20
-2200.79733371569
30
0.0
40
7655.07536085655
210
0.0
220
0.0
230
1.0
100
AcDbArc
50
22.6622158511515
51
22.6842307388806
0
ARC
5
19C
330
70
100
AcDbEntity
67
0
8
IV_OUTER_PROFILE
62
256
6
ByLayer
370
-1
48
1.0
60
0
100
AcDbCircle
39
0.0
10
-9123.30105450048
20
-3244.10069402478
30
0.0
40
10361.2011030719
210
0.0
220
0.0
230
1.0
100
AcDbArc
50
22.682314198566
51
22.6985813086852
0
ARC
5
19D
330
70
100
AcDbEntity
67
0
8
IV_OUTER_PROFILE
62
256
6
ByLayer
370
-1
48
1.0
60
0
100
AcDbCircle
39
0.0
10
-14341.6673629685
20
-5426.25855731203
30
0.0
40
16017.4507160496
210
0.0
220
0.0
230
1.0
100
AcDbArc
50
22.6966665311393
51
22.7071901111522
0
ARC
5
19E
330
70
100
AcDbEntity
67
0
8
IV_OUTER_PROFILE
62
256
6
ByLayer
370
-1
48
1.0
60
0
100
AcDbCircle
39
0.0
10
-32078.6029127245
20
-12847.1188160093
30
0.0
40
35244.2041873344
210
0.0
220
0.0
230
1.0
100
AcDbArc
50
22.7052764547712
51
22.7100593117845
0
ARC
5
19F
330
70
100
AcDbEntity
67
0
8
IV_OUTER_PROFILE
62
256
6
ByLayer
370
-1
48
1.0
60
0
100
AcDbCircle
39
0.0
10
-250.970719088111
20
1.7006974691535
30
0.0
40
384.786675472607
210
0.0
220
0.0
230
1.0
100
AcDbArc
50
0.0408530223167105
51
0.566677623539139
0
ARC
5
1A0
330
70
100
AcDbEntity
67
0
8
IV_OUTER_PROFILE
62
256
6
ByLayer
370
-1
48
1.0
60
0
100
AcDbCircle
39
0.0
10
-253.002238733397
20
1.6868430841144
30
0.0
40
386.818232830607
210
0.0
220
0.0
230
1.0
100
AcDbArc
50
0.565753574568147
51
1.08886372251763
0
ARC
5
1A1
330
70
100
AcDbEntity
67
0
8
IV_OUTER_PROFILE
62
256
6
ByLayer
370
-1
48
1.0
60
0
100
AcDbCircle
39
0.0
10
-255.150954567716
20
1.65256783258893
30
0.0
40
388.967212051435
210
0.0
220
0.0
230
1.0
100
AcDbArc
50
1.08789694371162
51
1.60820675151537
0
ARC
5
1A2
330
70
100
AcDbEntity
67
0
8
IV_OUTER_PROFILE
62
256
6
ByLayer
370
-1
48
1.0
60
0
100
AcDbCircle
39
0.0
10
-257.417020622611
20
1.59583298069884
30
0.0
40
391.233977829054
210
0.0
220
0.0
230
1.0
100
AcDbArc
50
1.60719856433326
51
2.12462492208401
0
ARC
5
1A3
330
70
100
AcDbEntity
67
0
8
IV_OUTER_PROFILE
62
256
6
ByLayer
370
-1
48
1.0
60
0
100
AcDbCircle
39
0.0
10
-259.800602560391
20
1.51461156773121
30
0.0
40
393.618932383243
210
0.0
220
0.0
230
1.0
100
AcDbArc
50
2.12357666955522
51
2.63803928647843
0
ARC
5
1A4
330
70
100
AcDbEntity
67
0
8
IV_OUTER_PROFILE
62
256
6
ByLayer
370
-1
48
1.0
60
0
100
AcDbCircle
39
0.0
10
-262.301878031399
20
1.40688801537498
30
0.0
40
396.122515261814
210
0.0
220
0.0
230
1.0
100
AcDbArc
50
2.63695232998541
51
3.14837377000237
0
ARC
5
1A5
330
70
100
AcDbEntity
67
0
8
IV_OUTER_PROFILE
62
256
6
ByLayer
370
-1
48
1.0
60
0
100
AcDbCircle
39
0.0
10
-264.921036986798
20
1.27065772861982
30
0.0
40
398.745203101939
210
0.0
220
0.0
230
1.0
100
AcDbArc
50
3.14724948614353
51
3.6555551969963
0
ARC
5
1A6
330
70
100
AcDbEntity
67
0
8
IV_OUTER_PROFILE
62
256
6
ByLayer
370
-1
48
1.0
60
0
100
AcDbCircle
39
0.0
10
-267.658281975558
20
1.10392668946638
30
0.0
40
401.487509379952
210
0.0
220
0.0
230
1.0
100
AcDbArc
50
3.6543949744875
51
4.15951331057326
0
ARC
5
1A7
330
70
100
AcDbEntity
67
0
8
IV_OUTER_PROFILE
62
256
6
ByLayer
370
-1
48
1.0
60
0
100
AcDbCircle
39
0.0
10
-270.513828499501
20
0.904711039032765
30
0.0
40
404.349984224383
210
0.0
220
0.0
230
1.0
100
AcDbArc
50
4.15831854721293
51
4.66018078620181
0
ARC
5
1A8
330
70
100
AcDbEntity
67
0
8
IV_OUTER_PROFILE
62
256
6
ByLayer
370
-1
48
1.0
60
0
100
AcDbCircle
39
0.0
10
-273.487905365155
20
0.671036650044549
30
0.0
40
407.333214231691
210
0.0
220
0.0
230
1.0
100
AcDbArc
50
4.65895288593084
51
5.15749323934201
0
ARC
5
1A9
330
70
100
AcDbEntity
67
0
8
IV_OUTER_PROFILE
62
256
6
ByLayer
370
-1
48
1.0
60
0
100
AcDbCircle
39
0.0
10
-276.580754992192
20
0.400938694054326
30
0.0
40
410.437822245008
210
0.0
220
0.0
230
1.0
100
AcDbArc
50
5.15623360936415
51
5.65138922734053
0
ARC
5
1AA
330
70
100
AcDbEntity
67
0
8
IV_OUTER_PROFILE
62
256
6
ByLayer
370
-1
48
1.0
60
0
100
AcDbCircle
39
0.0
10
-279.792633826478
20
0.0924611910832898
30
0.0
40
413.66446724512
210
0.0
220
0.0
230
1.0
100
AcDbArc
50
5.65009927533614
51
6.14181024569139
0
ARC
5
1AB
330
70
100
AcDbEntity
67
0
8
IV_OUTER_PROFILE
62
256
6
ByLayer
370
-1
48
1.0
60
0
100
AcDbCircle
39
0.0
10
-283.123812699771
20
-0.256343446655288
30
0.0
40
417.013844195991
210
0.0
220
0.0
230
1.0
100
AcDbArc
50
6.14049137714847
51
6.62870071897194
0
ARC
5
1AC
330
70
100
AcDbEntity
67
0
8
IV_OUTER_PROFILE
62
256
6
ByLayer
370
-1
48
1.0
60
0
100
AcDbCircle
39
0.0
10
-286.574577244166
20
-0.647414886365555
30
0.0
40
420.48668395403
210
0.0
220
0.0
230
1.0
100
AcDbArc
50
6.62735433462564
51
7.11200798661092
0
ARC
5
1AD
330
70
100
AcDbEntity
67
0
8
IV_OUTER_PROFILE
62
256
6
ByLayer
370
-1
48
1.0
60
0
100
AcDbCircle
39
0.0
10
-290.14522825252
20
-1.08268535050193
30
0.0
40
424.08375313241
210
0.0
220
0.0
230
1.0
100
AcDbArc
50
7.11063547998317
51
7.59168228378687
0
ARC
5
1AE
330
70
100
AcDbEntity
67
0
8
IV_OUTER_PROFILE
62
256
6
ByLayer
370
-1
48
1.0
60
0
100
AcDbCircle
39
0.0
10
-293.836082130151
20
-1.56408011318479
30
0.0
40
427.805854067277
210
0.0
220
0.0
230
1.0
100
AcDbArc
50
7.59028503883704
51
8.06767671761253
0
ARC
5
1AF
330
70
100
AcDbEntity
67
0
8
IV_OUTER_PROFILE
62
256
6
ByLayer
370
-1
48
1.0
60
0
100
AcDbCircle
39
0.0
10
-297.647471283945
20
-2.09351799978884
30
0.0
40
431.6538247316
210
0.0
220
0.0
230
1.0
100
AcDbArc
50
8.06625610650506
51
8.53994723894403
0
ARC
5
1B0
330
70
100
AcDbEntity
67
0
8
IV_OUTER_PROFILE
62
256
6
ByLayer
370
-1
48
1.0
60
0
100
AcDbCircle
39
0.0
10
-301.579744606292
20
-2.67291190987778
30
0.0
40
435.628538755959
210
0.0
220
0.0
230
1.0
100
AcDbArc
50
8.53850461993778
51
9.008452609978
0
ARC
5
1B1
330
70
100
AcDbEntity
67
0
8
IV_OUTER_PROFILE
62
256
6
ByLayer
370
-1
48
1.0
60
0
100
AcDbCircle
39
0.0
10
-305.633267974755
20
-3.30416935578107
30
0.0
40
439.730905477454
210
0.0
220
0.0
230
1.0
100
AcDbArc
50
9.00698932548375
51
9.47315436794108
0
ARC
5
1B2
330
70
100
AcDbEntity
67
0
8
IV_OUTER_PROFILE
62
256
6
ByLayer
370
-1
48
1.0
60
0
100
AcDbCircle
39
0.0
10
-309.808424583341
20
-3.98919298577148
30
0.0
40
443.961869830579
210
0.0
220
0.0
230
1.0
100
AcDbArc
50
9.47167174264827
51
9.93401678522922
0
ARC
5
1B3
330
70
100
AcDbEntity
67
0
8
IV_OUTER_PROFILE
62
256
6
ByLayer
370
-1
48
1.0
60
0
100
AcDbCircle
39
0.0
10
-314.105615586511
20
-4.72988116786075
30
0.0
40
448.322412567675
210
0.0
220
0.0
230
1.0
100
AcDbArc
50
9.93251612436428
51
10.391006825995
0
ARC
5
1B4
330
70
100
AcDbEntity
67
0
8
IV_OUTER_PROFILE
62
256
6
ByLayer
370
-1
48
1.0
60
0
100
AcDbCircle
39
0.0
10
-318.327420987776
20
-5.49021325838786
30
0.0
40
452.612116807059
210
0.0
220
0.0
230
1.0
100
AcDbArc
50
10.3892849052979
51
10.8440917587082
0
ARC
5
1B5
330
70
100
AcDbEntity
67
0
8
IV_OUTER_PROFILE
62
256
6
ByLayer
370
-1
48
1.0
60
0
100
AcDbCircle
39
0.0
10
-326.288546948006
20
-6.99447566758824
30
0.0
40
460.714087170964
210
0.0
220
0.0
230
1.0
100
AcDbArc
50
10.8415568295882
51
11.2890360086175
0
ARC
5
1B6
330
70
100
AcDbEntity
67
0
8
IV_OUTER_PROFILE
62
256
6
ByLayer
370
-1
48
1.0
60
0
100
AcDbCircle
39
0.0
10
-335.870130109914
20
-8.88123303978617
30
0.0
40
470.479636634539
210
0.0
220
0.0
230
1.0
100
AcDbArc
50
11.2859398777375
51
11.7248030193363
0
ARC
5
1B7
330
70
100
AcDbEntity
67
0
8
IV_OUTER_PROFILE
62
256
6
ByLayer
370
-1
48
1.0
60
0
100
AcDbCircle
39
0.0
10
-345.812133977459
20
-10.9181490950205
30
0.0
40
480.628124735392
210
0.0
220
0.0
230
1.0
100
AcDbArc
50
11.7217142070706
51
12.1519824299426
0
ARC
5
1B8
330
70
100
AcDbEntity
67
0
8
IV_OUTER_PROFILE
62
256
6
ByLayer
370
-1
48
1.0
60
0
100
AcDbCircle
39
0.0
10
-356.128286152632
20
-13.1125275656284
30
0.0
40
491.175048960581
210
0.0
220
0.0
230
1.0
100
AcDbArc
50
12.1489029322083
51
12.5706015310752
0
ARC
5
1B9
330
70
100
AcDbEntity
67
0
8
IV_OUTER_PROFILE
62
256
6
ByLayer
370
-1
48
1.0
60
0
100
AcDbCircle
39
0.0
10
-366.833351121104
20
-15.4720754069624
30
0.0
40
502.137036675932
210
0.0
220
0.0
230
1.0
100
AcDbArc
50
12.5675331992545
51
12.9806913372792
0
ARC
5
1BA
330
70
100
AcDbEntity
67
0
8
IV_OUTER_PROFILE
62
256
6
ByLayer
370
-1
48
1.0
60
0
100
AcDbCircle
39
0.0
10
-377.943222122807
20
-18.0049442839167
30
0.0
40
513.531944534167
210
0.0
220
0.0
230
1.0
100
AcDbArc
50
12.9776358821072
51
13.3822862915193
0
ARC
5
1BB
330
70
100
AcDbEntity
67
0
8
IV_OUTER_PROFILE
62
256
6
ByLayer
370
-1
48
1.0
60
0
100
AcDbCircle
39
0.0
10
-389.475022950405
20
-20.719776444996
30
0.0
40
525.378968800342
210
0.0
220
0.0
230
1.0
100
AcDbArc
50
13.3792452872216
51
13.7754239786571
0
ARC
5
1BC
330
70
100
AcDbEntity
67
0
8
IV_OUTER_PROFILE
62
256
6
ByLayer
370
-1
48
1.0
60
0
100
AcDbCircle
39
0.0
10
-401.447220855891
20
-23.6257555233356
30
0.0
40
537.698767889382
210
0.0
220
0.0
230
1.0
100
AcDbArc
50
13.7723988672458
51
14.1601448482878
0
ARC
5
1BD
330
70
100
AcDbEntity
67
0
8
IV_OUTER_PROFILE
62
256
6
ByLayer
370
-1
48
1.0
60
0
100
AcDbCircle
39
0.0
10
-413.879752272624
20
-26.7326629689793
30
0.0
40
550.513598964831
210
0.0
220
0.0
230
1.0
100
AcDbArc
50
14.1571369439892
51
14.5364919471199
0
ARC
5
1BE
330
70
100
AcDbEntity
67
0
8
IV_OUTER_PROFILE
62
256
6
ByLayer
370
-1
48
1.0
60
0
100
AcDbCircle
39
0.0
10
-426.794163029775
20
-30.0509408624086
30
0.0
40
563.847470433038
210
0.0
220
0.0
230
1.0
100
AcDbArc
50
14.5335024409838
51
14.9045106611171
0
ARC
5
1BF
330
70
100
AcDbEntity
67
0
8
IV_OUTER_PROFILE
62
256
6
ByLayer
370
-1
48
1.0
60
0
100
AcDbCircle
39
0.0
10
-440.213764520112
20
-33.5917618451135
30
0.0
40
577.726311958225
210
0.0
220
0.0
230
1.0
100
AcDbArc
50
14.9015406256734
51
15.2642484677107
0
ARC
5
1C0
330
70
100
AcDbEntity
67
0
8
IV_OUTER_PROFILE
62
256
6
ByLayer
370
-1
48
1.0
60
0
100
AcDbCircle
39
0.0
10
-454.163808779513
20
-37.3671073409602
30
0.0
40
592.178165187669
210
0.0
220
0.0
230
1.0
100
AcDbArc
50
15.2612988616185
51
15.6157546978937
0
ARC
5
1C1
330
70
100
AcDbEntity
67
0
8
IV_OUTER_PROFILE
62
256
6
ByLayer
370
-1
48
1.0
60
0
100
AcDbCircle
39
0.0
10
-468.671684866624
20
-41.3898551768801
30
0.0
40
607.233397813419
210
0.0
220
0.0
230
1.0
100
AcDbArc
50
15.6128263706847
51
15.9590803083148
0
ARC
5
1C2
330
70
100
AcDbEntity
67
0
8
IV_OUTER_PROFILE
62
256
6
ByLayer
370
-1
48
1.0
60
0
100
AcDbCircle
39
0.0
10
-483.76713928101
20
-45.6738778651734
30
0.0
40
622.92494398047
210
0.0
220
0.0
230
1.0
100
AcDbArc
50
15.9561740051311
51
16.2942776634323
0
ARC
5
1C3
330
70
100
AcDbEntity
67
0
8
IV_OUTER_PROFILE
62
256
6
ByLayer
370
-1
48
1.0
60
0
100
AcDbCircle
39
0.0
10
-499.482524335261
20
-50.2341532162666
30
0.0
40
639.288575300205
210
0.0
220
0.0
230
1.0
100
AcDbArc
50
16.2913940296742
51
16.621400327525
0
ARC
5
1C4
330
70
100
AcDbEntity
67
0
8
IV_OUTER_PROFILE
62
256
6
ByLayer
370
-1
48
1.0
60
0
100
AcDbCircle
39
0.0
10
-515.853078893756
20
-55.0868892044298
30
0.0
40
656.363207281927
210
0.0
220
0.0
230
1.0
100
AcDbArc
50
16.618539913495
51
16.9405028663927
0
ARC
5
1C5
330
70
100
AcDbEntity
67
0
8
IV_OUTER_PROFILE
62
256
6
ByLayer
370
-1
48
1.0
60
0
100
AcDbCircle
39
0.0
10
-532.917245650822
20
-60.2496650441254
30
0.0
40
674.19124578198
210
0.0
220
0.0
230
1.0
100
AcDbArc
50
16.9376661318501
51
17.2516406587908
0
ARC
5
1C6
330
70
100
AcDbEntity
67
0
8
IV_OUTER_PROFILE
62
256
6
ByLayer
370
-1
48
1.0
60
0
100
AcDbCircle
39
0.0
10
-550.717031868397
20
-65.7415913726762
30
0.0
40
692.818980978502
210
0.0
220
0.0
230
1.0
100
AcDbArc
50
17.2488279774285
51
17.5548697171219
0
ARC
5
1C7
330
70
100
AcDbEntity
67
0
8
IV_OUTER_PROFILE
62
256
6
ByLayer
370
-1
48
1.0
60
0
100
AcDbCircle
39
0.0
10
-569.298419367033
20
-71.5834922586135
30
0.0
40
712.297035259514
210
0.0
220
0.0
230
1.0
100
AcDbArc
50
17.552081380964
51
17.8502465174507
0
ARC
5
1C8
330
70
100
AcDbEntity
67
0
8
IV_OUTER_PROFILE
62
256
6
ByLayer
370
-1
48
1.0
60
0
100
AcDbCircle
39
0.0
10
-588.711832797971
20
-77.7981129055186
30
0.0
40
732.680874851113
210
0.0
220
0.0
230
1.0
100
AcDbArc
50
17.8474827411101
51
18.1378278384016
0
ARC
5
1C9
330
70
100
AcDbEntity
67
0
8
IV_OUTER_PROFILE
62
256
6
ByLayer
370
-1
48
1.0
60
0
100
AcDbCircle
39
0.0
10
-609.012675641987
20
-84.4103572732506
30
0.0
40
754.031395527497
210
0.0
220
0.0
230
1.0
100
AcDbArc
50
18.1350887632395
51
18.4176706087626
0
ARC
5
1CA
330
70
100
AcDbEntity
67
0
8
IV_OUTER_PROFILE
62
256
6
ByLayer
370
-1
48
1.0
60
0
100
AcDbCircle
39
0.0
10
-630.261945566355
20
-91.4475607615199
30
0.0
40
776.415595119554
210
0.0
220
0.0
230
1.0
100
AcDbArc
50
18.4149563069038
51
18.6898317635459
0
ARC
5
1CB
330
70
100
AcDbEntity
67
0
8
IV_OUTER_PROFILE
62
256
6
ByLayer
370
-1
48
1.0
60
0
100
AcDbCircle
39
0.0
10
-652.526943893671
20
-98.9398044007209
30
0.0
40
799.907348923463
210
0.0
220
0.0
230
1.0
100
AcDbArc
50
18.687142241807
51
18.9543681080955
0
ARC
5
1CC
330
70
100
AcDbEntity
67
0
8
IV_OUTER_PROFILE
62
256
6
ByLayer
370
-1
48
1.0
60
0
100
AcDbCircle
39
0.0
10
-688.484025460428
20
-111.238968830023
30
0.0
40
837.909704643941
210
0.0
220
0.0
230
1.0
100
AcDbArc
50
18.9511456472888
51
19.2066467322281
0
ARC
5
1CD
330
70
100
AcDbEntity
67
0
8
IV_OUTER_PROFILE
62
256
6
ByLayer
370
-1
48
1.0
60
0
100
AcDbCircle
39
0.0
10
-729.195755311692
20
-125.348382673936
30
0.0
40
880.997010907788
210
0.0
220
0.0
230
1.0
100
AcDbArc
50
19.2021507547484
51
19.4455179784338
0
ARC
5
1CE
330
70
100
AcDbEntity
67
0
8
IV_OUTER_PROFILE
62
256
6
ByLayer
370
-1
48
1.0
60
0
100
AcDbCircle
39
0.0
10
-764.961383202022
20
-137.918503164411
30
0.0
40
918.907237870123
210
0.0
220
0.0
230
1.0
100
AcDbArc
50
19.4421730172687
51
19.6758382056227
0
ARC
5
1CF
330
70
100
AcDbEntity
67
0
8
IV_OUTER_PROFILE
62
256
6
ByLayer
370
-1
48
1.0
60
0
100
AcDbCircle
39
0.0
10
-803.439208796332
20
-151.618320635183
30
0.0
40
959.751149444266
210
0.0
220
0.0
230
1.0
100
AcDbArc
50
19.6725252953323
51
19.8965614861725
0
ARC
5
1D0
330
70
100
AcDbEntity
67
0
8
IV_OUTER_PROFILE
62
256
6
ByLayer
370
-1
48
1.0
60
0
100
AcDbCircle
39
0.0
10
-844.961675255614
20
-166.585277080164
30
0.0
40
1003.88868273968
210
0.0
220
0.0
230
1.0
100
AcDbArc
50
19.8932798448613
51
20.1077582684968
0
ARC
5
1D1
330
70
100
AcDbEntity
67
0
8
IV_OUTER_PROFILE
62
256
6
ByLayer
370
-1
48
1.0
60
0
100
AcDbCircle
39
0.0
10
-889.919320535739
20
-182.980787727189
30
0.0
40
1051.74261924227
210
0.0
220
0.0
230
1.0
100
AcDbArc
50
20.1045070480001
51
20.3094969840033
0
ARC
5
1D2
330
70
100
AcDbEntity
67
0
8
IV_OUTER_PROFILE
62
256
6
ByLayer
370
-1
48
1.0
60
0
100
AcDbCircle
39
0.0
10
-938.773980509769
20
-200.995700512145
30
0.0
40
1103.81287191372
210
0.0
220
0.0
230
1.0
100
AcDbArc
50
20.3062752751188
51
20.5018439206306
0
ARC
5
1D3
330
70
100
AcDbEntity
67
0
8
IV_OUTER_PROFILE
62
256
6
ByLayer
370
-1
48
1.0
60
0
100
AcDbCircle
39
0.0
10
-992.075768367038
20
-220.857316390168
30
0.0
40
1160.69485847128
210
0.0
220
0.0
230
1.0
100
AcDbArc
50
20.4986507579886
51
20.6848631061864
0
ARC
5
1D4
330
70
100
AcDbEntity
67
0
8
IV_OUTER_PROFILE
62
256
6
ByLayer
370
-1
48
1.0
60
0
100
AcDbCircle
39
0.0
10
-1050.48514531996
20
-242.838514352989
30
0.0
40
1223.1033839003
210
0.0
220
0.0
230
1.0
100
AcDbArc
50
20.6816974728265
51
20.8586162014892
0
ARC
5
1D5
330
70
100
AcDbEntity
67
0
8
IV_OUTER_PROFILE
62
256
6
ByLayer
370
-1
48
1.0
60
0
100
AcDbCircle
39
0.0
10
-1114.80196568005
20
-267.269759292678
30
0.0
40
1291.90406970553
210
0.0
220
0.0
230
1.0
100
AcDbArc
50
20.855477033175
51
21.0231624021342
0
LINE
5
1D6
330
70
100
AcDbEntity
67
0
8
IV_OUTER_PROFILE
62
256
6
ByLayer
370
-1
48
1.0
60
0
100
AcDbLine
10
135.058497366743
20
1.97505794459988
30
0.0
11
133.815858572273
21
1.97505794459988
31
0.0
39
0.0
210
0.0
220
0.0
230
1.0
0
LINE
5
1D7
330
70
100
AcDbEntity
67
0
8
IV_OUTER_PROFILE
62
256
6
ByLayer
370
-1
48
1.0
60
0
100
AcDbLine
10
133.815959198139
20
1012.15623519491
30
0.0
11
135.058599885259
21
1012.15623519491
31
0.0
39
0.0
210
0.0
220
0.0
230
1.0
0
ARC
5
1D8
330
70
100
AcDbEntity
67
0
8
IV_OUTER_PROFILE
62
256
6
ByLayer
370
-1
48
1.0
60
0
100
AcDbCircle
39
0.0
10
-1125.77099075617
20
1285.2616303237
30
0.0
40
1303.62860701284
210
0.0
220
0.0
230
1.0
100
AcDbArc
50
338.979891572155
51
339.146306285664
0
ARC
5
1D9
330
70
100
AcDbEntity
67
0
8
IV_OUTER_PROFILE
62
256
6
ByLayer
370
-1
48
1.0
60
0
100
AcDbCircle
39
0.0
10
-1066.0529869447
20
1262.44656090809
30
0.0
40
1239.70080915295
210
0.0
220
0.0
230
1.0
100
AcDbArc
50
339.149168300039
51
339.323962875314
0
ARC
5
1DA
330
70
100
AcDbEntity
67
0
8
IV_OUTER_PROFILE
62
256
6
ByLayer
370
-1
48
1.0
60
0
100
AcDbCircle
39
0.0
10
-1011.36401709915
20
1241.7438623851
30
0.0
40
1181.22447690026
210
0.0
220
0.0
230
1.0
100
AcDbArc
50
339.326848816687
51
339.510076959977
0
ARC
5
1DB
330
70
100
AcDbEntity
67
0
8
IV_OUTER_PROFILE
62
256
6
ByLayer
370
-1
48
1.0
60
0
100
AcDbCircle
39
0.0
10
-961.076548388678
20
1222.89107979989
30
0.0
40
1127.51923057134
210
0.0
220
0.0
230
1.0
100
AcDbArc
50
339.512987682397
51
339.70470507921
0
ARC
5
1DC
330
70
100
AcDbEntity
67
0
8
IV_OUTER_PROFILE
62
256
6
ByLayer
370
-1
48
1.0
60
0
100
AcDbCircle
39
0.0
10
-914.664325125617
20
1205.66810640103
30
0.0
40
1078.01446222954
210
0.0
220
0.0
230
1.0
100
AcDbArc
50
339.707641397583
51
339.907905631155
0
ARC
5
1DD
330
70
100
AcDbEntity
67
0
8
IV_OUTER_PROFILE
62
256
6
ByLayer
370
-1
48
1.0
60
0
100
AcDbCircle
39
0.0
10
-871.682772458792
20
1189.88898224363
30
0.0
40
1032.22809249405
210
0.0
220
0.0
230
1.0
100
AcDbArc
50
339.910868317869
51
340.119738780608
0
ARC
5
1DE
330
70
100
AcDbEntity
67
0
8
IV_OUTER_PROFILE
62
256
6
ByLayer
370
-1
48
1.0
60
0
100
AcDbCircle
39
0.0
10
-831.753780532763
20
1175.39552579341
30
0.0
40
989.75007589433
210
0.0
220
0.0
230
1.0
100
AcDbArc
50
340.12272856199
51
340.340266359486
0
ARC
5
1DF
330
70
100
AcDbEntity
67
0
8
IV_OUTER_PROFILE
62
256
6
ByLayer
370
-1
48
1.0
60
0
100
AcDbCircle
39
0.0
10
-794.553767633541
20
1162.0523376284
30
0.0
40
950.229460749277
210
0.0
220
0.0
230
1.0
100
AcDbArc
50
340.343283912008
51
340.569551759182
0
ARC
5
1E0
330
70
100
AcDbEntity
67
0
8
IV_OUTER_PROFILE
62
256
6
ByLayer
370
-1
48
1.0
60
0
100
AcDbCircle
39
0.0
10
-759.804226696495
20
1149.74284329824
30
0.0
40
913.364141095897
210
0.0
220
0.0
230
1.0
100
AcDbArc
50
340.572597705416
51
340.807659814333
0
ARC
5
1E1
330
70
100
AcDbEntity
67
0
8
IV_OUTER_PROFILE
62
256
6
ByLayer
370
-1
48
1.0
60
0
100
AcDbCircle
39
0.0
10
-727.264173048064
20
1138.36613172074
30
0.0
40
878.892669620087
210
0.0
220
0.0
230
1.0
100
AcDbArc
50
340.810734718687
51
341.054656677414
0
ARC
5
1E2
330
70
100
AcDbEntity
67
0
8
IV_OUTER_PROFILE
62
256
6
ByLayer
370
-1
48
1.0
60
0
100
AcDbCircle
39
0.0
10
-696.724060962682
20
1127.83440823223
30
0.0
40
846.587662863417
210
0.0
220
0.0
230
1.0
100
AcDbArc
50
341.057761041654
51
341.310609683774
0
ARC
5
1E3
330
70
100
AcDbEntity
67
0
8
IV_OUTER_PROFILE
62
256
6
ByLayer
370
-1
48
1.0
60
0
100
AcDbCircle
39
0.0
10
-668.000846623177
20
1118.07092734668
30
0.0
40
816.250449195343
210
0.0
220
0.0
230
1.0
100
AcDbArc
50
341.313743942243
51
341.575587206501
0
ARC
5
1E4
330
70
100
AcDbEntity
67
0
8
IV_OUTER_PROFILE
62
256
6
ByLayer
370
-1
48
1.0
60
0
100
AcDbCircle
39
0.0
10
-640.933953525603
20
1109.00830310305
30
0.0
40
787.706695083832
210
0.0
220
0.0
230
1.0
100
AcDbArc
50
341.578751721121
51
341.849658500507
0
ARC
5
1E5
330
70
100
AcDbEntity
67
0
8
IV_OUTER_PROFILE
62
256
6
ByLayer
370
-1
48
1.0
60
0
100
AcDbCircle
39
0.0
10
-615.381952481186
20
1100.5871184983
30
0.0
40
760.80280607237
210
0.0
220
0.0
230
1.0
100
AcDbArc
50
341.852853555523
51
342.132893535502
0
ARC
5
1E6
330
70
100
AcDbEntity
67
0
8
IV_OUTER_PROFILE
62
256
6
ByLayer
370
-1
48
1.0
60
0
100
AcDbCircle
39
0.0
10
-591.219814015564
20
1092.75477438129
30
0.0
40
735.402948275132
210
0.0
220
0.0
230
1.0
100
AcDbArc
50
342.136119331917
51
342.425362817041
0
ARC
5
1E7
330
70
100
AcDbEntity
67
0
8
IV_OUTER_PROFILE
62
256
6
ByLayer
370
-1
48
1.0
60
0
100
AcDbCircle
39
0.0
10
-568.336620332493
20
1085.46453068861
30
0.0
40
711.386568113346
210
0.0
220
0.0
230
1.0
100
AcDbArc
50
342.428619466809
51
342.727137195298
0
ARC
5
1E8
330
70
100
AcDbEntity
67
0
8
IV_OUTER_PROFILE
62
256
6
ByLayer
370
-1
48
1.0
60
0
100
AcDbCircle
39
0.0
10
-546.633650371772
20
1078.67470375339
30
0.0
40
688.646316529906
210
0.0
220
0.0
230
1.0
100
AcDbArc
50
342.730424715285
51
343.038287660841
0
ARC
5
1E9
330
70
100
AcDbEntity
67
0
8
IV_OUTER_PROFILE
62
256
6
ByLayer
370
-1
48
1.0
60
0
100
AcDbCircle
39
0.0
10
-526.02276796496
20
1072.34799050181
30
0.0
40
667.086301843317
210
0.0
220
0.0
230
1.0
100
AcDbArc
50
343.041605966542
51
343.358885127089
0
ARC
5
1EA
330
70
100
AcDbEntity
67
0
8
IV_OUTER_PROFILE
62
256
6
ByLayer
370
-1
48
1.0
60
0
100
AcDbCircle
39
0.0
10
-506.425059232616
20
1066.45089691837
30
0.0
40
646.62061283334
210
0.0
220
0.0
230
1.0
100
AcDbArc
50
343.362234026034
51
343.68900019875
0
ARC
5
1EB
330
70
100
AcDbEntity
67
0
8
IV_OUTER_PROFILE
62
256
6
ByLayer
370
-1
48
1.0
60
0
100
AcDbCircle
39
0.0
10
-487.769675321077
20
1060.95325241795
30
0.0
40
627.172064473526
210
0.0
220
0.0
230
1.0
100
AcDbArc
50
343.692379383708
51
344.028702925759
0
ARC
5
1EC
330
70
100
AcDbEntity
67
0
8
IV_OUTER_PROFILE
62
256
6
ByLayer
370
-1
48
1.0
60
0
100
AcDbCircle
39
0.0
10
-469.992845004112
20
1055.82779531537
30
0.0
40
608.671127869849
210
0.0
220
0.0
230
1.0
100
AcDbArc
50
344.032111967753
51
344.378062542322
0
ARC
5
1ED
330
70
100
AcDbEntity
67
0
8
IV_OUTER_PROFILE
62
256
6
ByLayer
370
-1
48
1.0
60
0
100
AcDbCircle
39
0.0
10
-453.037028764095
20
1051.04981751353
30
0.0
40
591.055013637049
210
0.0
220
0.0
230
1.0
100
AcDbArc
50
344.381500883378
51
344.737147190599
0
ARC
5
1EE
330
70
100
AcDbEntity
67
0
8
IV_OUTER_PROFILE
62
256
6
ByLayer
370
-1
48
1.0
60
0
100
AcDbCircle
39
0.0
10
-436.850191606274
20
1046.59685883924
30
0.0
40
574.266884040232
210
0.0
220
0.0
230
1.0
100
AcDbArc
50
344.740614136311
51
345.106023628546
0
ARC
5
1EF
330
70
100
AcDbEntity
67
0
8
IV_OUTER_PROFILE
62
256
6
ByLayer
370
-1
48
1.0
60
0
100
AcDbCircle
39
0.0
10
-421.387470863385
20
1042.44904533527
30
0.0
40
558.257546252379
210
0.0
220
0.0
230
1.0
100
AcDbArc
50
345.109519139457
51
345.484756125364
0
ARC
5
1F0
330
70
100
AcDbEntity
67
0
8
IV_OUTER_PROFILE
62
256
6
ByLayer
370
-1
48
1.0
60
0
100
AcDbCircle
39
0.0
10
-406.191950059891
20
1038.48373312097
30
0.0
40
542.553196008955
210
0.0
220
0.0
230
1.0
100
AcDbArc
50
345.487942711947
51
345.873372737889
0
ARC
5
1F1
330
70
100
AcDbEntity
67
0
8
IV_OUTER_PROFILE
62
256
6
ByLayer
370
-1
48
1.0
60
0
100
AcDbCircle
39
0.0
10
-397.364800601741
20
1036.24108743942
30
0.0
40
533.445638537834
210
0.0
220
0.0
230
1.0
100
AcDbArc
50
345.875566050885
51
346.266904725144
0
ARC
5
1F2
330
70
100
AcDbEntity
67
0
8
IV_OUTER_PROFILE
62
256
6
ByLayer
370
-1
48
1.0
60
0
100
AcDbCircle
39
0.0
10
-388.776881367023
20
1034.12159330581
30
0.0
40
524.600063381127
210
0.0
220
0.0
230
1.0
100
AcDbArc
50
346.269103982763
51
346.666368962465
0
ARC
5
1F3
330
70
100
AcDbEntity
67
0
8
IV_OUTER_PROFILE
62
256
6
ByLayer
370
-1
48
1.0
60
0
100
AcDbCircle
39
0.0
10
-380.422944941879
20
1032.12122820626
30
0.0
40
516.009992732799
210
0.0
220
0.0
230
1.0
100
AcDbArc
50
346.668573035486
51
347.071779691607
0
ARC
5
1F4
330
70
100
AcDbEntity
67
0
8
IV_OUTER_PROFILE
62
256
6
ByLayer
370
-1
48
1.0
60
0
100
AcDbCircle
39
0.0
10
-372.298014855469
20
1030.23608855773
30
0.0
40
507.669258264326
210
0.0
220
0.0
230
1.0
100
AcDbArc
50
347.073987385308
51
347.483148665239
0
ARC
5
1F5
330
70
100
AcDbEntity
67
0
8
IV_OUTER_PROFILE
62
256
6
ByLayer
370
-1
48
1.0
60
0
100
AcDbCircle
39
0.0
10
-364.397370621873
20
1028.46238087523
30
0.0
40
499.571984593306
210
0.0
220
0.0
230
1.0
100
AcDbArc
50
347.485358718318
51
347.9004850058
0
ARC
5
1F6
330
70
100
AcDbEntity
67
0
8
IV_OUTER_PROFILE
62
256
6
ByLayer
370
-1
48
1.0
60
0
100
AcDbCircle
39
0.0
10
-356.716533380905
20
1026.79641340859
30
0.0
40
491.712573515098
210
0.0
220
0.0
230
1.0
100
AcDbArc
50
347.902696089413
51
348.323795062436
0
ARC
5
1F7
330
70
100
AcDbEntity
67
0
8
IV_OUTER_PROFILE
62
256
6
ByLayer
370
-1
48
1.0
60
0
100
AcDbCircle
39
0.0
10
-349.251252813597
20
1025.23458838014
30
0.0
40
484.08568968223
210
0.0
220
0.0
230
1.0
100
AcDbArc
50
348.326005779325
51
348.753082265996
0
ARC
5
1F8
330
70
100
AcDbEntity
67
0
8
IV_OUTER_PROFILE
62
256
6
ByLayer
370
-1
48
1.0
60
0
100
AcDbCircle
39
0.0
10
-341.997494828296
20
1023.77339468053
30
0.0
40
476.686247205415
210
0.0
220
0.0
230
1.0
100
AcDbArc
50
348.755291149857
51
349.188346982637
0
ARC
5
1F9
330
70
100
AcDbEntity
67
0
8
IV_OUTER_PROFILE
62
256
6
ByLayer
370
-1
48
1.0
60
0
100
AcDbCircle
39
0.0
10
-334.951429983125
20
1022.40940099685
30
0.0
40
469.509397134311
210
0.0
220
0.0
230
1.0
100
AcDbArc
50
349.190552497666
51
349.629586366371
0
ARC
5
1FA
330
70
100
AcDbEntity
67
0
8
IV_OUTER_PROFILE
62
256
6
ByLayer
370
-1
48
1.0
60
0
100
AcDbCircle
39
0.0
10
-328.109422506499
20
1021.13924932898
30
0.0
40
462.550515670647
210
0.0
220
0.0
230
1.0
100
AcDbArc
50
349.631786906938
51
350.076794211037
0
ARC
5
1FB
330
70
100
AcDbEntity
67
0
8
IV_OUTER_PROFILE
62
256
6
ByLayer
370
-1
48
1.0
60
0
100
AcDbCircle
39
0.0
10
-321.468020449842
20
1019.95964897228
30
0.0
40
455.805193649976
210
0.0
220
0.0
230
1.0
100
AcDbArc
50
350.078988101618
51
350.529960801827
0
ARC
5
1FC
330
70
100
AcDbEntity
67
0
8
IV_OUTER_PROFILE
62
256
6
ByLayer
370
-1
48
1.0
60
0
100
AcDbCircle
39
0.0
10
-315.023945894385
20
1018.86737074576
30
0.0
40
449.269226188885
210
0.0
220
0.0
230
1.0
100
AcDbArc
50
350.532146297191
51
350.989072767364
0
ARC
5
1FD
330
70
100
AcDbEntity
67
0
8
IV_OUTER_PROFILE
62
256
6
ByLayer
370
-1
48
1.0
60
0
100
AcDbCircle
39
0.0
10
-308.77408621058
20
1017.85924163448
30
0.0
40
442.938603507528
210
0.0
220
0.0
230
1.0
100
AcDbArc
50
350.991248052956
51
351.454112932331
0
ARC
5
1FE
330
70
100
AcDbEntity
67
0
8
IV_OUTER_PROFILE
62
256
6
ByLayer
370
-1
48
1.0
60
0
100
AcDbCircle
39
0.0
10
-302.715485581211
20
1016.93213968691
30
0.0
40
436.809502120214
210
0.0
220
0.0
230
1.0
100
AcDbArc
50
351.456276124959
51
351.925060171557
0
ARC
5
1FF
330
70
100
AcDbEntity
67
0
8
IV_OUTER_PROFILE
62
256
6
ByLayer
370
-1
48
1.0
60
0
100
AcDbCircle
39
0.0
10
-296.845337160849
20
1016.08298921837
30
0.0
40
430.878276767448
210
0.0
220
0.0
230
1.0
100
AcDbArc
50
351.927209320338
51
352.40188926595
0
ARC
5
200
330
70
100
AcDbEntity
67
0
8
IV_OUTER_PROFILE
62
256
6
ByLayer
370
-1
48
1.0
60
0
100
AcDbCircle
39
0.0
10
-291.160975654878
20
1015.30875626995
30
0.0
40
425.141452864758
210
0.0
220
0.0
230
1.0
100
AcDbArc
50
352.404022353565
51
352.884570760981
0
ARC
5
201
330
70
100
AcDbEntity
67
0
8
IV_OUTER_PROFILE
62
256
6
ByLayer
370
-1
48
1.0
60
0
100
AcDbCircle
39
0.0
10
-285.659870321796
20
1014.60644431176
30
0.0
40
419.595719467788
210
0.0
220
0.0
230
1.0
100
AcDbArc
50
352.88668570522
51
353.373070828348
0
ARC
5
202
330
70
100
AcDbEntity
67
0
8
IV_OUTER_PROFILE
62
256
6
ByLayer
370
-1
48
1.0
60
0
100
AcDbCircle
39
0.0
10
-280.339618493946
20
1013.97309018899
30
0.0
40
414.23792284508
210
0.0
220
0.0
230
1.0
100
AcDbArc
50
353.375165484007
51
353.867351131422
0
ARC
5
203
330
70
100
AcDbEntity
67
0
8
IV_OUTER_PROFILE
62
256
6
ByLayer
370
-1
48
1.0
60
0
100
AcDbCircle
39
0.0
10
-275.19793931746
20
1013.4057602603
30
0.0
40
409.065060352804
210
0.0
220
0.0
230
1.0
100
AcDbArc
50
353.869423292549
51
354.367368695337
0
ARC
5
204
330
70
100
AcDbEntity
67
0
8
IV_OUTER_PROFILE
62
256
6
ByLayer
370
-1
48
1.0
60
0
100
AcDbCircle
39
0.0
10
-270.232667930873
20
1012.90154674719
30
0.0
40
404.074274828964
210
0.0
220
0.0
230
1.0
100
AcDbArc
50
354.369416097793
51
354.873075782327
0
ARC
5
205
330
70
100
AcDbEntity
67
0
8
IV_OUTER_PROFILE
62
256
6
ByLayer
370
-1
48
1.0
60
0
100
AcDbCircle
39
0.0
10
-264.924811861057
20
1012.41794538663
30
0.0
40
398.744438839274
210
0.0
220
0.0
230
1.0
100
AcDbArc
50
354.874131060374
51
355.384117387203
0
ARC
5
206
330
70
100
AcDbEntity
67
0
8
IV_OUTER_PROFILE
62
256
6
ByLayer
370
-1
48
1.0
60
0
100
AcDbCircle
39
0.0
10
-267.956235351828
20
1012.67123035278
30
0.0
40
401.786413494056
210
0.0
220
0.0
230
1.0
100
AcDbArc
50
355.38290398833
51
355.88866776537
0
ARC
5
207
330
70
100
AcDbEntity
67
0
8
IV_OUTER_PROFILE
62
256
6
ByLayer
370
-1
48
1.0
60
0
100
AcDbCircle
39
0.0
10
-266.241137530746
20
1012.54289861244
30
0.0
40
400.066528590767
210
0.0
220
0.0
230
1.0
100
AcDbArc
50
355.889389290515
51
356.397004186408
0
ARC
5
208
330
70
100
AcDbEntity
67
0
8
IV_OUTER_PROFILE
62
256
6
ByLayer
370
-1
48
1.0
60
0
100
AcDbCircle
39
0.0
10
-264.625892197875
20
1012.43642417667
30
0.0
40
398.447784767885
210
0.0
220
0.0
230
1.0
100
AcDbArc
50
356.39768831724
51
356.907080404103
0
ARC
5
209
330
70
100
AcDbEntity
67
0
8
IV_OUTER_PROFILE
62
256
6
ByLayer
370
-1
48
1.0
60
0
100
AcDbCircle
39
0.0
10
-263.110535454279
20
1012.35006171575
30
0.0
40
396.92997567804
210
0.0
220
0.0
230
1.0
100
AcDbArc
50
356.907726351965
51
357.418820050725
0
ARC
5
20A
330
70
100
AcDbEntity
67
0
8
IV_OUTER_PROFILE
62
256
6
ByLayer
370
-1
48
1.0
60
0
100
AcDbCircle
39
0.0
10
-261.695104774374
20
1012.28205885715
30
0.0
40
395.512918594466
210
0.0
220
0.0
230
1.0
100
AcDbArc
50
357.419427055106
51
357.932145190027
0
ARC
5
20B
330
70
100
AcDbEntity
67
0
8
IV_OUTER_PROFILE
62
256
6
ByLayer
370
-1
48
1.0
60
0
100
AcDbCircle
39
0.0
10
-260.379638873849
20
1012.2306561271
30
0.0
40
394.196454584368
210
0.0
220
0.0
230
1.0
100
AcDbArc
50
357.932712520316
51
358.446976377286
0
ARC
5
20C
330
70
100
AcDbEntity
67
0
8
IV_OUTER_PROFILE
62
256
6
ByLayer
370
-1
48
1.0
60
0
100
AcDbCircle
39
0.0
10
-259.164177828539
20
1012.19408690454
30
0.0
40
392.980448927658
210
0.0
220
0.0
230
1.0
100
AcDbArc
50
358.447503334498
51
358.963232722668
0
ARC
5
20D
330
70
100
AcDbEntity
67
0
8
IV_OUTER_PROFILE
62
256
6
ByLayer
370
-1
48
1.0
60
0
100
AcDbCircle
39
0.0
10
-258.048762958872
20
1012.17057736511
30
0.0
40
391.864791294793
210
0.0
220
0.0
230
1.0
100
AcDbArc
50
358.963718641138
51
359.480831958131
0
ARC
5
20E
330
70
100
AcDbEntity
67
0
8
IV_OUTER_PROFILE
62
256
6
ByLayer
370
-1
48
1.0
60
0
100
AcDbCircle
39
0.0
10
-257.033436850972
20
1012.1583464316
30
0.0
40
390.849396054814
210
0.0
220
0.0
230
1.0
100
AcDbArc
50
359.481276207114
51
359.999690507513
0
ARC
5
20F
330
70
100
AcDbEntity
67
0
8
IV_OUTER_PROFILE
62
256
6
ByLayer
370
-1
48
1.0
60
0
100
AcDbCircle
39
0.0
10
1322.17868694506
20
812.861933128023
30
0.0
40
1372.69894751328
210
0.0
220
0.0
230
1.0
100
AcDbArc
50
201.431015644248
51
201.552762502104
0
ARC
5
210
330
70
100
AcDbEntity
67
0
8
IV_OUTER_PROFILE
62
256
6
ByLayer
370
-1
48
1.0
60
0
100
AcDbCircle
39
0.0
10
1389.8591215924
20
839.538606045661
30
0.0
40
1445.44703059677
210
0.0
220
0.0
230
1.0
100
AcDbArc
50
201.550720731243
51
201.666433204043
0
ARC
5
211
330
70
100
AcDbEntity
67
0
8
IV_OUTER_PROFILE
62
256
6
ByLayer
370
-1
48
1.0
60
0
100
AcDbCircle
39
0.0
10
1464.51900243859
20
869.14056894472
30
0.0
40
1525.76123387332
210
0.0
220
0.0
230
1.0
100
AcDbArc
50
201.664403550388
51
201.774109205051
0
ARC
5
212
330
70
100
AcDbEntity
67
0
8
IV_OUTER_PROFILE
62
256
6
ByLayer
370
-1
48
1.0
60
0
100
AcDbCircle
39
0.0
10
1547.32897888708
20
902.157546777669
30
0.0
40
1614.91060273135
210
0.0
220
0.0
230
1.0
100
AcDbArc
50
201.772091111995
51
201.875816257993
0
ARC
5
213
330
70
100
AcDbEntity
67
0
8
IV_OUTER_PROFILE
62
256
6
ByLayer
370
-1
48
1.0
60
0
100
AcDbCircle
39
0.0
10
1639.73806456363
20
939.195742196593
30
0.0
40
1714.46593226164
210
0.0
220
0.0
230
1.0
100
AcDbArc
50
201.873809159101
51
201.971578827018
0
ARC
5
214
330
70
100
AcDbEntity
67
0
8
IV_OUTER_PROFILE
62
256
6
ByLayer
370
-1
48
1.0
60
0
100
AcDbCircle
39
0.0
10
1743.56153934204
20
981.014620909157
30
0.0
40
1826.39505594762
210
0.0
220
0.0
230
1.0
100
AcDbArc
50
201.969582146761
51
202.061420068711
0
ARC
5
215
330
70
100
AcDbEntity
67
0
8
IV_OUTER_PROFILE
62
256
6
ByLayer
370
-1
48
1.0
60
0
100
AcDbCircle
39
0.0
10
1861.10441417691
20
1028.57857906293
30
0.0
40
1953.19668547198
210
0.0
220
0.0
230
1.0
100
AcDbArc
50
202.059433223219
51
202.145361814623
0
ARC
5
216
330
70
100
AcDbEntity
67
0
8
IV_OUTER_PROFILE
62
256
6
ByLayer
370
-1
48
1.0
60
0
100
AcDbCircle
39
0.0
10
1995.33843958494
20
1083.13101738206
30
0.0
40
2098.09229348597
210
0.0
220
0.0
230
1.0
100
AcDbArc
50
202.14338421244
51
202.223424555484
0
ARC
5
217
330
70
100
AcDbEntity
67
0
8
IV_OUTER_PROFILE
62
256
6
ByLayer
370
-1
48
1.0
60
0
100
AcDbCircle
39
0.0
10
2150.16186955331
20
1146.30304634263
30
0.0
40
2265.30770574624
210
0.0
220
0.0
230
1.0
100
AcDbArc
50
202.221455598132
51
202.295627426818
0
ARC
5
218
330
70
100
AcDbEntity
67
0
8
IV_OUTER_PROFILE
62
256
6
ByLayer
370
-1
48
1.0
60
0
100
AcDbCircle
39
0.0
10
2330.79095885572
20
1220.27731822464
30
0.0
40
2460.49749614021
210
0.0
220
0.0
230
1.0
100
AcDbArc
50
202.293666509526
51
202.361988195502
0
ARC
5
219
330
70
100
AcDbEntity
67
0
8
IV_OUTER_PROFILE
62
256
6
ByLayer
370
-1
48
1.0
60
0
100
AcDbCircle
39
0.0
10
2544.36824689527
20
1308.04257914453
30
0.0
40
2691.40438493451
210
0.0
220
0.0
230
1.0
100
AcDbArc
50
202.360034707833
51
202.422523248258
0
ARC
5
21A
330
70
100
AcDbEntity
67
0
8
IV_OUTER_PROFILE
62
256
6
ByLayer
370
-1
48
1.0
60
0
100
AcDbCircle
39
0.0
10
2800.94203881561
20
1413.8035573653
30
0.0
40
2968.92102586008
210
0.0
220
0.0
230
1.0
100
AcDbArc
50
202.420576574532
51
202.477247580725
0
ARC
5
21B
330
70
100
AcDbEntity
67
0
8
IV_OUTER_PROFILE
62
256
6
ByLayer
370
-1
48
1.0
60
0
100
AcDbCircle
39
0.0
10
3115.11118391136
20
1543.66926165129
30
0.0
40
3308.87299542601
210
0.0
220
0.0
230
1.0
100
AcDbArc
50
202.475307100681
51
202.526174787847
0
ARC
5
21C
330
70
100
AcDbEntity
67
0
8
IV_OUTER_PROFILE
62
256
6
ByLayer
370
-1
48
1.0
60
0
100
AcDbCircle
39
0.0
10
3508.92966309668
20
1706.86847766592
30
0.0
40
3735.16745300267
210
0.0
220
0.0
230
1.0
100
AcDbArc
50
202.524239877181
51
202.569317055499
0
ARC
5
21D
330
70
100
AcDbEntity
67
0
8
IV_OUTER_PROFILE
62
256
6
ByLayer
370
-1
48
1.0
60
0
100
AcDbCircle
39
0.0
10
4017.36155511844
20
1918.0325327543
30
0.0
40
4285.70648778874
210
0.0
220
0.0
230
1.0
100
AcDbArc
50
202.56738708624
51
202.606685153018
0
ARC
5
21E
330
70
100
AcDbEntity
67
0
8
IV_OUTER_PROFILE
62
256
6
ByLayer
370
-1
48
1.0
60
0
100
AcDbCircle
39
0.0
10
4699.34684969054
20
2201.82605698001
30
0.0
40
5024.38279178256
210
0.0
220
0.0
230
1.0
100
AcDbArc
50
202.604759493993
51
202.638288426588
0
ARC
5
21F
330
70
100
AcDbEntity
67
0
8
IV_OUTER_PROFILE
62
256
6
ByLayer
370
-1
48
1.0
60
0
100
AcDbCircle
39
0.0
10
5662.60403452707
20
2603.32623379091
30
0.0
40
6067.96640693355
210
0.0
220
0.0
230
1.0
100
AcDbArc
50
202.636366443799
51
202.664134793869
0
ARC
5
220
330
70
100
AcDbEntity
67
0
8
IV_OUTER_PROFILE
62
256
6
ByLayer
370
-1
48
1.0
60
0
100
AcDbCircle
39
0.0
10
7127.25457291852
20
3214.64802116322
30
0.0
40
7655.0755636151
210
0.0
220
0.0
230
1.0
100
AcDbArc
50
202.662215851443
51
202.684230738589
0
ARC
5
221
330
70
100
AcDbEntity
67
0
8
IV_OUTER_PROFILE
62
256
6
ByLayer
370
-1
48
1.0
60
0
100
AcDbCircle
39
0.0
10
9624.1797269368
20
4257.95142381757
30
0.0
40
10361.2014154581
210
0.0
220
0.0
230
1.0
100
AcDbArc
50
202.682314198811
51
202.698581308439
0
ARC
5
222
330
70
100
AcDbEntity
67
0
8
IV_OUTER_PROFILE
62
256
6
ByLayer
370
-1
48
1.0
60
0
100
AcDbCircle
39
0.0
10
14842.5463883988
20
6440.10943484748
30
0.0
40
16017.451411101
210
0.0
220
0.0
230
1.0
100
AcDbArc
50
202.696666531368
51
202.707190110924
0
ARC
5
223
330
70
100
AcDbEntity
67
0
8
IV_OUTER_PROFILE
62
256
6
ByLayer
370
-1
48
1.0
60
0
100
AcDbCircle
39
0.0
10
32579.4924625845
20
13860.974097739
30
0.0
40
35244.2162911784
210
0.0
220
0.0
230
1.0
100
AcDbArc
50
202.705276455592
51
202.710059310963
0
ARC
5
224
330
70
100
AcDbEntity
67
0
8
IV_OUTER_PROFILE
62
256
6
ByLayer
370
-1
48
1.0
60
0
100
AcDbCircle
39
0.0
10
-1179.15863642118
20
-291.930942113962
30
0.0
40
1360.82395517456
210
0.0
220
0.0
230
1.0
100
AcDbArc
50
21.0202979951016
51
21.1451741701134
0
ARC
5
225
330
70
100
AcDbEntity
67
0
8
IV_OUTER_PROFILE
62
256
6
ByLayer
370
-1
48
1.0
60
0
100
AcDbCircle
39
0.0
10
-1246.45461355592
20
-317.903106742499
30
0.0
40
1432.95785336215
210
0.0
220
0.0
230
1.0
100
AcDbArc
50
21.1430795024725
51
21.2617653526424
0
ARC
5
226
330
70
100
AcDbEntity
67
0
8
IV_OUTER_PROFILE
62
256
6
ByLayer
370
-1
48
1.0
60
0
100
AcDbCircle
39
0.0
10
-1320.69034618608
20
-346.730370277872
30
0.0
40
1512.59422859038
210
0.0
220
0.0
230
1.0
100
AcDbArc
50
21.2596831471263
51
21.3722070271925
0
ARC
5
227
330
70
100
AcDbEntity
67
0
8
IV_OUTER_PROFILE
62
256
6
ByLayer
370
-1
48
1.0
60
0
100
AcDbCircle
39
0.0
10
-1403.02966918841
20
-378.890609809241
30
0.0
40
1600.99129843648
210
0.0
220
0.0
230
1.0
100
AcDbArc
50
21.3701367163898
51
21.4765256986339
0
ARC
5
228
330
70
100
AcDbEntity
67
0
8
IV_OUTER_PROFILE
62
256
6
ByLayer
370
-1
48
1.0
60
0
100
AcDbCircle
39
0.0
10
-1494.91316544808
20
-414.975363824388
30
0.0
40
1699.70645858437
210
0.0
220
0.0
230
1.0
100
AcDbArc
50
21.4744667041087
51
21.5747465547747
0
ARC
5
229
330
70
100
AcDbEntity
67
0
8
IV_OUTER_PROFILE
62
256
6
ByLayer
370
-1
48
1.0
60
0
100
AcDbCircle
39
0.0
10
-1598.14557087109
20
-455.725733717097
30
0.0
40
1810.69077388438
210
0.0
220
0.0
230
1.0
100
AcDbArc
50
21.5726982880047
51
21.666893444917
0
ARC
5
22A
330
70
100
AcDbEntity
67
0
8
IV_OUTER_PROFILE
62
256
6
ByLayer
370
-1
48
1.0
60
0
100
AcDbCircle
39
0.0
10
-1715.01850901139
20
-502.082797103404
30
0.0
40
1936.42166332128
210
0.0
220
0.0
230
1.0
100
AcDbArc
50
21.6648553081371
51
21.7529888608902
0
ARC
5
22B
330
70
100
AcDbEntity
67
0
8
IV_OUTER_PROFILE
62
256
6
ByLayer
370
-1
48
1.0
60
0
100
AcDbCircle
39
0.0
10
-1848.48648496056
20
-555.25989671666
30
0.0
40
2080.09316180964
210
0.0
220
0.0
230
1.0
100
AcDbArc
50
21.7509602477771
51
21.8330539190573
0
ARC
5
22C
330
70
100
AcDbEntity
67
0
8
IV_OUTER_PROFILE
62
256
6
ByLayer
370
-1
48
1.0
60
0
100
AcDbCircle
39
0.0
10
-2002.42514655467
20
-616.848720309943
30
0.0
40
2245.89511873413
210
0.0
220
0.0
230
1.0
100
AcDbArc
50
21.8310342155464
51
21.9071083442584
0
ARC
5
22D
330
70
100
AcDbEntity
67
0
8
IV_OUTER_PROFILE
62
256
6
ByLayer
370
-1
48
1.0
60
0
100
AcDbCircle
39
0.0
10
-2182.02049884756
20
-688.979168780077
30
0.0
40
2439.43396602232
210
0.0
220
0.0
230
1.0
100
AcDbArc
50
21.9050969292041
51
21.9751704551195
0
ARC
5
22E
330
70
100
AcDbEntity
67
0
8
IV_OUTER_PROFILE
62
256
6
ByLayer
370
-1
48
1.0
60
0
100
AcDbCircle
39
0.0
10
-2394.3736860016
20
-774.567767303073
30
0.0
40
2668.38652951607
210
0.0
220
0.0
230
1.0
100
AcDbArc
50
21.973166700953
51
22.0372571507238
0
ARC
5
22F
330
70
100
AcDbEntity
67
0
8
IV_OUTER_PROFILE
62
256
6
ByLayer
370
-1
48
1.0
60
0
100
AcDbCircle
39
0.0
10
-2649.47479671623
20
-877.717650670223
30
0.0
40
2943.55278033052
210
0.0
220
0.0
230
1.0
100
AcDbArc
50
22.0352604241656
51
22.0933838985669
0
ARC
5
230
330
70
100
AcDbEntity
67
0
8
IV_OUTER_PROFILE
62
256
6
ByLayer
370
-1
48
1.0
60
0
100
AcDbCircle
39
0.0
10
-2961.8380866271
20
-1004.39022187519
30
0.0
40
3280.62362381399
210
0.0
220
0.0
230
1.0
100
AcDbArc
50
22.0913935610942
51
22.143564724118
0
ARC
5
231
330
70
100
AcDbEntity
67
0
8
IV_OUTER_PROFILE
62
256
6
ByLayer
370
-1
48
1.0
60
0
100
AcDbCircle
39
0.0
10
-3353.38979732907
20
-1163.59130690927
30
0.0
40
3703.30283202457
210
0.0
220
0.0
230
1.0
100
AcDbArc
50
22.1415801325872
51
22.1878122008251
0
ARC
5
232
330
70
100
AcDbEntity
67
0
8
IV_OUTER_PROFILE
62
256
6
ByLayer
370
-1
48
1.0
60
0
100
AcDbCircle
39
0.0
10
-3858.89149102597
20
-1369.59875795366
30
0.0
40
4249.1700442966
210
0.0
220
0.0
230
1.0
100
AcDbArc
50
22.1858327080648
51
22.2261374422102
0
ARC
5
233
330
70
100
AcDbEntity
67
0
8
IV_OUTER_PROFILE
62
256
6
ByLayer
370
-1
48
1.0
60
0
100
AcDbCircle
39
0.0
10
-4536.94184165346
20
-1646.48137381119
30
0.0
40
4981.57446522657
210
0.0
220
0.0
230
1.0
100
AcDbArc
50
22.2241623975909
51
22.2585500941146
0
ARC
5
234
330
70
100
AcDbEntity
67
0
8
IV_OUTER_PROFILE
62
256
6
ByLayer
370
-1
48
1.0
60
0
100
AcDbCircle
39
0.0
10
-5494.63557880926
20
-2038.22741485857
30
0.0
40
6016.29289039731
210
0.0
220
0.0
230
1.0
100
AcDbArc
50
22.2565788440783
51
22.2850583289546
0
ARC
5
235
330
70
100
AcDbEntity
67
0
8
IV_OUTER_PROFILE
62
256
6
ByLayer
370
-1
48
1.0
60
0
100
AcDbCircle
39
0.0
10
-6950.81907702299
20
-2634.72645955425
30
0.0
40
7589.91337733619
210
0.0
220
0.0
230
1.0
100
AcDbArc
50
22.283090217056
51
22.3056688405044
0
ARC
5
236
330
70
100
AcDbEntity
67
0
8
IV_OUTER_PROFILE
62
256
6
ByLayer
370
-1
48
1.0
60
0
100
AcDbCircle
39
0.0
10
-9433.29981775706
20
-3652.77201455169
30
0.0
40
10273.0323252021
210
0.0
220
0.0
230
1.0
100
AcDbArc
50
22.3037032085499
51
22.3203868385681
0
ARC
5
237
330
70
100
AcDbEntity
67
0
8
IV_OUTER_PROFILE
62
256
6
ByLayer
370
-1
48
1.0
60
0
100
AcDbCircle
39
0.0
10
-14621.4631939004
20
-5782.16134189326
30
0.0
40
15881.1815683382
210
0.0
220
0.0
230
1.0
100
AcDbArc
50
22.3184230266975
51
22.3292160478795
0
ARC
5
238
330
70
100
AcDbEntity
67
0
8
IV_OUTER_PROFILE
62
256
6
ByLayer
370
-1
48
1.0
60
0
100
AcDbCircle
39
0.0
10
-32255.7094793505
20
-13023.7054740958
30
0.0
40
34944.4080219941
210
0.0
220
0.0
230
1.0
100
AcDbArc
50
22.3272533940318
51
22.3321587042301
0
ARC
5
239
330
70
100
AcDbEntity
67
0
8
IV_OUTER_PROFILE
62
256
6
ByLayer
370
-1
48
1.0
60
0
100
AcDbCircle
39
0.0
10
-161562.846736119
20
67148.6131618673
30
0.0
40
174733.964578889
210
0.0
220
0.0
230
1.0
100
AcDbArc
50
337.669803453325
51
337.670784448413
0
ARC
5
23A
330
70
100
AcDbEntity
67
0
8
IV_OUTER_PROFILE
62
256
6
ByLayer
370
-1
48
1.0
60
0
100
AcDbCircle
39
0.0
10
-23019.3094438403
20
10244.298880169
30
0.0
40
24959.4250061987
210
0.0
220
0.0
230
1.0
100
AcDbArc
50
337.672746771252
51
337.67961415417
0
ARC
5
23B
330
70
100
AcDbEntity
67
0
8
IV_OUTER_PROFILE
62
256
6
ByLayer
370
-1
48
1.0
60
0
100
AcDbCircle
39
0.0
10
-12360.2297839593
20
5867.76296407931
30
0.0
40
13436.8365198044
210
0.0
220
0.0
230
1.0
100
AcDbArc
50
337.68157730451
51
337.694332648372
0
ARC
5
23C
330
70
100
AcDbEntity
67
0
8
IV_OUTER_PROFILE
62
256
6
ByLayer
370
-1
48
1.0
60
0
100
AcDbCircle
39
0.0
10
-8431.77491023588
20
4255.7916161232
30
0.0
40
9190.51938888785
210
0.0
220
0.0
230
1.0
100
AcDbArc
50
337.696297287809
51
337.71494365463
0
ARC
5
23D
330
70
100
AcDbEntity
67
0
8
IV_OUTER_PROFILE
62
256
6
ByLayer
370
-1
48
1.0
60
0
100
AcDbCircle
39
0.0
10
-6387.89283928702
20
3417.89816522293
30
0.0
40
6981.55599412536
210
0.0
220
0.0
230
1.0
100
AcDbArc
50
337.716910443942
51
337.741452383027
0
ARC
5
23E
330
70
100
AcDbEntity
67
0
8
IV_OUTER_PROFILE
62
256
6
ByLayer
370
-1
48
1.0
60
0
100
AcDbCircle
39
0.0
10
-5134.31708651249
20
2904.61944982889
30
0.0
40
5626.96854357173
210
0.0
220
0.0
230
1.0
100
AcDbArc
50
337.743421981622
51
337.773865526674
0
ARC
5
23F
330
70
100
AcDbEntity
67
0
8
IV_OUTER_PROFILE
62
256
6
ByLayer
370
-1
48
1.0
60
0
100
AcDbCircle
39
0.0
10
-4286.57654379983
20
2558.03652247209
30
0.0
40
4711.11717907127
210
0.0
220
0.0
230
1.0
100
AcDbArc
50
337.775838591966
51
337.812191257757
0
ARC
5
240
330
70
100
AcDbEntity
67
0
8
IV_OUTER_PROFILE
62
256
6
ByLayer
370
-1
48
1.0
60
0
100
AcDbCircle
39
0.0
10
-3674.78927670821
20
2308.37165531582
30
0.0
40
4050.34779165647
210
0.0
220
0.0
230
1.0
100
AcDbArc
50
337.81416844477
51
337.856439221819
0
ARC
5
241
330
70
100
AcDbEntity
67
0
8
IV_OUTER_PROFILE
62
256
6
ByLayer
370
-1
48
1.0
60
0
100
AcDbCircle
39
0.0
10
-3212.28122676989
20
2120.02425563904
30
0.0
40
3550.95974412963
210
0.0
220
0.0
230
1.0
100
AcDbArc
50
337.858421182747
51
337.90662053204
0
ARC
5
242
330
70
100
AcDbEntity
67
0
8
IV_OUTER_PROFILE
62
256
6
ByLayer
370
-1
48
1.0
60
0
100
AcDbCircle
39
0.0
10
-2850.20015875296
20
1972.9288145193
30
0.0
40
3160.14040592672
210
0.0
220
0.0
230
1.0
100
AcDbArc
50
337.908607915825
51
337.962747761443
0
ARC
5
243
330
70
100
AcDbEntity
67
0
8
IV_OUTER_PROFILE
62
256
6
ByLayer
370
-1
48
1.0
60
0
100
AcDbCircle
39
0.0
10
-2558.91469355219
20
1854.91467027991
30
0.0
40
2845.85621989225
210
0.0
220
0.0
230
1.0
100
AcDbArc
50
337.964741213297
51
338.024834935027
0
ARC
5
244
330
70
100
AcDbEntity
67
0
8
IV_OUTER_PROFILE
62
256
6
ByLayer
370
-1
48
1.0
60
0
100
AcDbCircle
39
0.0
10
-2319.40799136337
20
1758.17101437355
30
0.0
40
2587.54867765336
210
0.0
220
0.0
230
1.0
100
AcDbArc
50
338.026835095801
51
338.092897519874
0
ARC
5
245
330
70
100
AcDbEntity
67
0
8
IV_OUTER_PROFILE
62
256
6
ByLayer
370
-1
48
1.0
60
0
100
AcDbCircle
39
0.0
10
-2118.91559338925
20
1677.45516040931
30
0.0
40
2371.41852428822
210
0.0
220
0.0
230
1.0
100
AcDbArc
50
338.094905025568
51
338.166952414628
0
ARC
5
246
330
70
100
AcDbEntity
67
0
8
IV_OUTER_PROFILE
62
256
6
ByLayer
370
-1
48
1.0
60
0
100
AcDbCircle
39
0.0
10
-1948.55110525423
20
1609.11730713728
30
0.0
40
2187.85895742431
210
0.0
220
0.0
230
1.0
100
AcDbArc
50
338.168967895733
51
338.247017937431
0
ARC
5
247
330
70
100
AcDbEntity
67
0
8
IV_OUTER_PROFILE
62
256
6
ByLayer
370
-1
48
1.0
60
0
100
AcDbCircle
39
0.0
10
-1801.93746897105
20
1550.53834096063
30
0.0
40
2029.97593718524
210
0.0
220
0.0
230
1.0
100
AcDbArc
50
338.249042018367
51
338.333113812606
0
ARC
5
248
330
70
100
AcDbEntity
67
0
8
IV_OUTER_PROFILE
62
256
6
ByLayer
370
-1
48
1.0
60
0
100
AcDbCircle
39
0.0
10
-1674.37970577113
20
1499.79004443006
30
0.0
40
1892.69386364821
210
0.0
220
0.0
230
1.0
100
AcDbArc
50
338.335147111055
51
338.425261156022
0
ARC
5
249
330
70
100
AcDbEntity
67
0
8
IV_OUTER_PROFILE
62
256
6
ByLayer
370
-1
48
1.0
60
0
100
AcDbCircle
39
0.0
10
-1562.34468875684
20
1455.4214153166
30
0.0
40
1772.19317476375
210
0.0
220
0.0
230
1.0
100
AcDbArc
50
338.427304282268
51
338.52348245885
0
ARC
5
24A
330
70
100
AcDbEntity
67
0
8
IV_OUTER_PROFILE
62
256
6
ByLayer
370
-1
48
1.0
60
0
100
AcDbCircle
39
0.0
10
-1463.12273674224
20
1416.31966774201
30
0.0
40
1665.54450560533
210
0.0
220
0.0
230
1.0
100
AcDbArc
50
338.525536015073
51
338.627801569904
0
ARC
5
24B
330
70
100
AcDbEntity
67
0
8
IV_OUTER_PROFILE
62
256
6
ByLayer
370
-1
48
1.0
60
0
100
AcDbCircle
39
0.0
10
-1374.60097711159
20
1381.61714174438
30
0.0
40
1570.46367766166
210
0.0
220
0.0
230
1.0
100
AcDbArc
50
338.629866149353
51
338.738243676327
0
ARC
5
24C
330
70
100
AcDbEntity
67
0
8
IV_OUTER_PROFILE
62
256
6
ByLayer
370
-1
48
1.0
60
0
100
AcDbCircle
39
0.0
10
-1295.10766087354
20
1350.62735592762
30
0.0
40
1485.1433923308
210
0.0
220
0.0
230
1.0
100
AcDbArc
50
338.74031986256
51
338.854835282325
0
ARC
5
24D
330
70
100
AcDbEntity
67
0
8
IV_OUTER_PROFILE
62
256
6
ByLayer
370
-1
48
1.0
60
0
100
AcDbCircle
39
0.0
10
-1223.30278832948
20
1322.80008211417
30
0.0
40
1408.1349894734
210
0.0
220
0.0
230
1.0
100
AcDbArc
50
338.856923648371
51
338.977604186412
0
ARC
5
24E
330
70
100
AcDbEntity
67
0
8
IV_OUTER_PROFILE
62
256
6
ByLayer
370
-1
48
1.0
60
0
100
AcDbCircle
39
0.0
10
162639.671834339
20
-67272.9278561858
30
0.0
40
176232.933685028
210
0.0
220
0.0
230
1.0
100
AcDbArc
50
157.291853863352
51
157.292810370094
0
ARC
5
24F
330
70
100
AcDbEntity
67
0
8
IV_OUTER_PROFILE
62
256
6
ByLayer
370
-1
48
1.0
60
0
100
AcDbCircle
39
0.0
10
23289.2943423726
20
-8959.94406292204
30
0.0
40
25173.5685960678
210
0.0
220
0.0
230
1.0
100
AcDbArc
50
157.294723704501
51
157.301419653207
0
ARC
5
250
330
70
100
AcDbEntity
67
0
8
IV_OUTER_PROFILE
62
256
6
ByLayer
370
-1
48
1.0
60
0
100
AcDbCircle
39
0.0
10
12568.1470290255
20
-4475.01235730953
30
0.0
40
13552.1396074393
210
0.0
220
0.0
230
1.0
100
AcDbArc
50
157.303333789217
51
157.315770703532
0
ARC
5
251
330
70
100
AcDbEntity
67
0
8
IV_OUTER_PROFILE
62
256
6
ByLayer
370
-1
48
1.0
60
0
100
AcDbCircle
39
0.0
10
8616.82623204979
20
-2823.08094333201
30
0.0
40
9269.40528265527
210
0.0
220
0.0
230
1.0
100
AcDbArc
50
157.317686282289
51
157.335867127679
0
ARC
5
252
330
70
100
AcDbEntity
67
0
8
IV_OUTER_PROFILE
62
256
6
ByLayer
370
-1
48
1.0
60
0
100
AcDbCircle
39
0.0
10
6561.05429200529
20
-1964.38921859856
30
0.0
40
7041.50275460709
210
0.0
220
0.0
230
1.0
100
AcDbArc
50
157.337784789171
51
157.36171397316
0
ARC
5
253
330
70
100
AcDbEntity
67
0
8
IV_OUTER_PROFILE
62
256
6
ByLayer
370
-1
48
1.0
60
0
100
AcDbCircle
39
0.0
10
5300.19176125473
20
-1438.34791243918
30
0.0
40
5675.30594142719
210
0.0
220
0.0
230
1.0
100
AcDbArc
50
157.363634356004
51
157.393317723416
0
ARC
5
254
330
70
100
AcDbEntity
67
0
8
IV_OUTER_PROFILE
62
256
6
ByLayer
370
-1
48
1.0
60
0
100
AcDbCircle
39
0.0
10
4447.52806584665
20
-1083.12877516244
30
0.0
40
4751.60903088008
210
0.0
220
0.0
230
1.0
100
AcDbArc
50
157.395241464866
51
157.430686295877
0
ARC
5
255
330
70
100
AcDbEntity
67
0
8
IV_OUTER_PROFILE
62
256
6
ByLayer
370
-1
48
1.0
60
0
100
AcDbCircle
39
0.0
10
3832.19172726334
20
-827.22670985908
30
0.0
40
4085.18224973002
210
0.0
220
0.0
230
1.0
100
AcDbArc
50
157.432614030944
51
157.473829036376
0
ARC
5
256
330
70
100
AcDbEntity
67
0
8
IV_OUTER_PROFILE
62
256
6
ByLayer
370
-1
48
1.0
60
0
100
AcDbCircle
39
0.0
10
3367.00383739867
20
-634.159822064976
30
0.0
40
3581.52107453676
210
0.0
220
0.0
230
1.0
100
AcDbArc
50
157.475761397604
51
157.522756713865
0
ARC
5
257
330
70
100
AcDbEntity
67
0
8
IV_OUTER_PROFILE
62
256
6
ByLayer
370
-1
48
1.0
60
0
100
AcDbCircle
39
0.0
10
3002.82755320828
20
-483.365847149478
30
0.0
40
3187.35971699119
210
0.0
220
0.0
230
1.0
100
AcDbArc
50
157.524694330829
51
157.577481513914
0
ARC
5
258
330
70
100
AcDbEntity
67
0
8
IV_OUTER_PROFILE
62
256
6
ByLayer
370
-1
48
1.0
60
0
100
AcDbCircle
39
0.0
10
2709.8588901917
20
-362.372823985366
30
0.0
40
2870.38978365786
210
0.0
220
0.0
230
1.0
100
AcDbArc
50
157.57942501281
51
157.638017031099
0
ARC
5
259
330
70
100
AcDbEntity
67
0
8
IV_OUTER_PROFILE
62
256
6
ByLayer
370
-1
48
1.0
60
0
100
AcDbCircle
39
0.0
10
2468.97020577277
20
-263.176563038598
30
0.0
40
2609.8763525462
210
0.0
220
0.0
230
1.0
100
AcDbArc
50
157.639967034372
51
157.704378260599
0
ARC
5
25A
330
70
100
AcDbEntity
67
0
8
IV_OUTER_PROFILE
62
256
6
ByLayer
370
-1
48
1.0
60
0
100
AcDbCircle
39
0.0
10
2267.32264898282
20
-180.40456802296
30
0.0
40
2391.90173697257
210
0.0
220
0.0
230
1.0
100
AcDbArc
50
157.706335386257
51
157.776581588794
0
ARC
5
25B
330
70
100
AcDbEntity
67
0
8
IV_OUTER_PROFILE
62
256
6
ByLayer
370
-1
48
1.0
60
0
100
AcDbCircle
39
0.0
10
2095.97803935703
20
-110.316667313042
30
0.0
40
2206.77669040623
210
0.0
220
0.0
230
1.0
100
AcDbArc
50
157.778546449955
51
157.854644782118
0
ARC
5
25C
330
70
100
AcDbEntity
67
0
8
IV_OUTER_PROFILE
62
256
6
ByLayer
370
-1
48
1.0
60
0
100
AcDbCircle
39
0.0
10
1948.52213135611
20
-50.228884940703
30
0.0
40
2047.54798371141
210
0.0
220
0.0
230
1.0
100
AcDbArc
50
157.856617986494
51
157.938586975664
0
ARC
5
25D
330
70
100
AcDbEntity
67
0
8
IV_OUTER_PROFILE
62
256
6
ByLayer
370
-1
48
1.0
60
0
100
AcDbCircle
39
0.0
10
1820.23256854901
20
1.83475016080439
30
0.0
40
1909.09644219993
210
0.0
220
0.0
230
1.0
100
AcDbArc
50
157.940569124923
51
158.028428659606
0
ARC
5
25E
330
70
100
AcDbEntity
67
0
8
IV_OUTER_PROFILE
62
256
6
ByLayer
370
-1
48
1.0
60
0
100
AcDbCircle
39
0.0
10
1707.55560487852
20
47.3611833402548
30
0.0
40
1787.56969561167
210
0.0
220
0.0
230
1.0
100
AcDbArc
50
158.030420348822
51
158.124191665059
0
ARC
5
25F
330
70
100
AcDbEntity
67
0
8
IV_OUTER_PROFILE
62
256
6
ByLayer
370
-1
48
1.0
60
0
100
AcDbCircle
39
0.0
10
1607.76573886606
20
87.4907692814382
30
0.0
40
1680.01321109907
210
0.0
220
0.0
230
1.0
100
AcDbArc
50
158.126193481946
51
158.225899148066
0
ARC
5
260
330
70
100
AcDbEntity
67
0
8
IV_OUTER_PROFILE
62
256
6
ByLayer
370
-1
48
1.0
60
0
100
AcDbCircle
39
0.0
10
1518.73775750594
20
123.112666411121
30
0.0
40
1584.12318170778
210
0.0
220
0.0
230
1.0
100
AcDbArc
50
158.227911672372
51
158.33357557219
0
ARC
5
261
330
70
100
AcDbEntity
67
0
8
IV_OUTER_PROFILE
62
256
6
ByLayer
370
-1
48
1.0
60
0
100
AcDbCircle
39
0.0
10
1438.7901377141
20
154.930369939267
30
0.0
40
1498.07676860792
210
0.0
220
0.0
230
1.0
100
AcDbArc
50
158.335599375067
51
158.447246689647
0
ARC
5
262
330
70
100
AcDbEntity
67
0
8
IV_OUTER_PROFILE
62
256
6
ByLayer
370
-1
48
1.0
60
0
100
AcDbCircle
39
0.0
10
1366.575035332
20
183.507749092474
30
0.0
40
1420.41284567507
210
0.0
220
0.0
230
1.0
100
AcDbArc
50
158.449282332702
51
158.566939520944
0
ARC
5
263
330
70
100
AcDbEntity
67
0
8
IV_OUTER_PROFILE
62
256
6
ByLayer
370
-1
48
1.0
60
0
100
AcDbCircle
39
0.0
10
1260.05678377209
20
225.413634729108
30
0.0
40
1305.94785812114
210
0.0
220
0.0
230
1.0
100
AcDbArc
50
158.570652643217
51
158.858490534734
0
ARC
5
264
330
70
100
AcDbEntity
67
0
8
IV_OUTER_PROFILE
62
256
6
ByLayer
370
-1
48
1.0
60
0
100
AcDbCircle
39
0.0
10
1158.40848451766
20
264.917070507111
30
0.0
40
1196.89346013873
210
0.0
220
0.0
230
1.0
100
AcDbArc
50
158.867241217947
51
159.180650661119
0
ARC
5
265
330
70
100
AcDbEntity
67
0
8
IV_OUTER_PROFILE
62
256
6
ByLayer
370
-1
48
1.0
60
0
100
AcDbCircle
39
0.0
10
1070.87481532892
20
298.384816109509
30
0.0
40
1103.18005930506
210
0.0
220
0.0
230
1.0
100
AcDbArc
50
159.18953419321
51
159.52881211809
0
ARC
5
266
330
70
100
AcDbEntity
67
0
8
IV_OUTER_PROFILE
62
256
6
ByLayer
370
-1
48
1.0
60
0
100
AcDbCircle
39
0.0
10
994.629385212996
20
327.019894710546
30
0.0
40
1021.73495276846
210
0.0
220
0.0
230
1.0
100
AcDbArc
50
159.537836322284
51
159.903297993849
0
ARC
5
267
330
70
100
AcDbEntity
67
0
8
IV_OUTER_PROFILE
62
256
6
ByLayer
370
-1
48
1.0
60
0
100
AcDbCircle
39
0.0
10
927.561412085405
20
351.720892229798
30
0.0
40
950.263088254774
210
0.0
220
0.0
230
1.0
100
AcDbArc
50
159.912469992533
51
160.304447573804
0
ARC
5
268
330
70
100
AcDbEntity
67
0
8
IV_OUTER_PROFILE
62
256
6
ByLayer
370
-1
48
1.0
60
0
100
AcDbCircle
39
0.0
10
868.063254114527
20
373.172458914045
30
0.0
40
887.016126407115
210
0.0
220
0.0
230
1.0
100
AcDbArc
50
160.313773682549
51
160.732614579855
0
ARC
5
269
330
70
100
AcDbEntity
67
0
8
IV_OUTER_PROFILE
62
256
6
ByLayer
370
-1
48
1.0
60
0
100
AcDbCircle
39
0.0
10
814.889398150359
20
391.905381008113
30
0.0
40
830.639170707436
210
0.0
220
0.0
230
1.0
100
AcDbArc
50
160.742100189666
51
161.188165155422
0
ARC
5
26A
330
70
100
AcDbEntity
67
0
8
IV_OUTER_PROFILE
62
256
6
ByLayer
370
-1
48
1.0
60
0
100
AcDbCircle
39
0.0
10
767.060355054112
20
408.337528829222
30
0.0
40
780.066307754128
210
0.0
220
0.0
230
1.0
100
AcDbArc
50
161.197814602554
51
161.671475569906
0
ARC
5
26B
330
70
100
AcDbEntity
67
0
8
IV_OUTER_PROFILE
62
256
6
ByLayer
370
-1
48
1.0
60
0
100
AcDbCircle
39
0.0
10
723.795618780194
20
422.802428097568
30
0.0
40
734.447738086765
210
0.0
220
0.0
230
1.0
100
AcDbArc
50
161.681291992722
51
162.182929614749
0
ARC
5
26C
330
70
100
AcDbEntity
67
0
8
IV_OUTER_PROFILE
62
256
6
ByLayer
370
-1
48
1.0
60
0
100
AcDbCircle
39
0.0
10
684.465926521847
20
435.569611907293
30
0.0
40
693.097886634623
210
0.0
220
0.0
230
1.0
100
AcDbArc
50
162.192914797315
51
162.722915663028
0
ARC
5
26D
330
70
100
AcDbEntity
67
0
8
IV_OUTER_PROFILE
62
256
6
ByLayer
370
-1
48
1.0
60
0
100
AcDbCircle
39
0.0
10
648.558633984589
20
446.859387630311
30
0.0
40
655.457769412545
210
0.0
220
0.0
230
1.0
100
AcDbArc
50
162.733069865244
51
163.291823364063
0
ARC
5
26E
330
70
100
AcDbEntity
67
0
8
IV_OUTER_PROFILE
62
256
6
ByLayer
370
-1
48
1.0
60
0
100
AcDbCircle
39
0.0
10
615.652186574603
20
456.853730363865
30
0.0
40
621.067248095131
210
0.0
220
0.0
230
1.0
100
AcDbArc
50
163.30214513863
51
163.89003994499
0
ARC
5
26F
330
70
100
AcDbEntity
67
0
8
IV_OUTER_PROFILE
62
256
6
ByLayer
370
-1
48
1.0
60
0
100
AcDbCircle
39
0.0
10
587.806667129972
20
464.987538516348
30
0.0
40
592.058220097834
210
0.0
220
0.0
230
1.0
100
AcDbArc
50
163.89853475164
51
164.206172255309
0
ARC
5
270
330
70
100
AcDbEntity
67
0
8
IV_OUTER_PROFILE
62
256
6
ByLayer
370
-1
48
1.0
60
0
100
AcDbCircle
39
0.0
10
573.485038552561
20
469.066191501977
30
0.0
40
577.167158142924
210
0.0
220
0.0
230
1.0
100
AcDbArc
50
164.20881889939
51
164.523904832054
0
ARC
5
271
330
70
100
AcDbEntity
67
0
8
IV_OUTER_PROFILE
62
256
6
ByLayer
370
-1
48
1.0
60
0
100
AcDbCircle
39
0.0
10
559.725667904059
20
472.902999811544
30
0.0
40
562.882877441509
210
0.0
220
0.0
230
1.0
100
AcDbArc
50
164.526571026958
51
164.849151470463
0
ARC
5
272
330
70
100
AcDbEntity
67
0
8
IV_OUTER_PROFILE
62
256
6
ByLayer
370
-1
48
1.0
60
0
100
AcDbCircle
39
0.0
10
546.540123474991
20
476.500409809929
30
0.0
40
549.215425657569
210
0.0
220
0.0
230
1.0
100
AcDbArc
50
164.851882397559
51
165.181976780941
0
ARC
5
273
330
70
100
AcDbEntity
67
0
8
IV_OUTER_PROFILE
62
256
6
ByLayer
370
-1
48
1.0
60
0
100
AcDbCircle
39
0.0
10
534.529891732435
20
479.70275140729
30
0.0
40
536.785620440861
210
0.0
220
0.0
230
1.0
100
AcDbArc
50
165.184562634956
51
165.521776883351
0
ARC
5
274
330
70
100
AcDbEntity
67
0
8
IV_OUTER_PROFILE
62
256
6
ByLayer
370
-1
48
1.0
60
0
100
AcDbCircle
39
0.0
10
526.795653345629
20
481.716017936664
30
0.0
40
528.793659728862
210
0.0
220
0.0
230
1.0
100
AcDbArc
50
165.523475642679
51
165.865260536176
0
ARC
5
275
330
70
100
AcDbEntity
67
0
8
IV_OUTER_PROFILE
62
256
6
ByLayer
370
-1
48
1.0
60
0
100
AcDbCircle
39
0.0
10
519.245026012924
20
483.633444858886
30
0.0
40
521.003393005716
210
0.0
220
0.0
230
1.0
100
AcDbArc
50
165.866963911061
51
166.213332605154
0
ARC
5
276
330
70
100
AcDbEntity
67
0
8
IV_OUTER_PROFILE
62
256
6
ByLayer
370
-1
48
1.0
60
0
100
AcDbCircle
39
0.0
10
511.87441770552
20
485.457774202543
30
0.0
40
513.41038261091
210
0.0
220
0.0
230
1.0
100
AcDbArc
50
166.215039944362
51
166.566004276264
0
ARC
5
277
330
70
100
AcDbEntity
67
0
8
IV_OUTER_PROFILE
62
256
6
ByLayer
370
-1
48
1.0
60
0
100
AcDbCircle
39
0.0
10
504.680400184044
20
487.191674699184
30
0.0
40
506.010378052792
210
0.0
220
0.0
230
1.0
100
AcDbArc
50
166.567714894322
51
166.923285311213
0
ARC
5
278
330
70
100
AcDbEntity
67
0
8
IV_OUTER_PROFILE
62
256
6
ByLayer
370
-1
48
1.0
60
0
100
AcDbCircle
39
0.0
10
497.659701123416
20
488.83774651333
30
0.0
40
498.799307254182
210
0.0
220
0.0
230
1.0
100
AcDbArc
50
166.924998487859
51
167.285183973713
0
ARC
5
279
330
70
100
AcDbEntity
67
0
8
IV_OUTER_PROFILE
62
256
6
ByLayer
370
-1
48
1.0
60
0
100
AcDbCircle
39
0.0
10
490.809196206103
20
490.39852582519
30
0.0
40
491.773267835351
210
0.0
220
0.0
230
1.0
100
AcDbArc
50
167.286898953391
51
167.651706954821
0
ARC
5
27A
330
70
100
AcDbEntity
67
0
8
IV_OUTER_PROFILE
62
256
6
ByLayer
370
-1
48
1.0
60
0
100
AcDbCircle
39
0.0
10
484.125902059728
20
491.876489064924
30
0.0
40
484.928519331811
210
0.0
220
0.0
230
1.0
100
AcDbArc
50
167.653422946192
51
168.022859297153
0
ARC
5
27B
330
70
100
AcDbEntity
67
0
8
IV_OUTER_PROFILE
62
256
6
ByLayer
370
-1
48
1.0
60
0
100
AcDbCircle
39
0.0
10
477.606969484518
20
493.274056943509
30
0.0
40
478.261475772652
210
0.0
220
0.0
230
1.0
100
AcDbArc
50
168.024575472702
51
168.398644318254
0
ARC
5
27C
330
70
100
AcDbEntity
67
0
8
IV_OUTER_PROFILE
62
256
6
ByLayer
370
-1
48
1.0
60
0
100
AcDbCircle
39
0.0
10
471.249676984264
20
494.593598281692
30
0.0
40
471.768698631218
210
0.0
220
0.0
230
1.0
100
AcDbArc
50
168.400359813947
51
168.77906353327
0
ARC
5
27D
330
70
100
AcDbEntity
67
0
8
IV_OUTER_PROFILE
62
256
6
ByLayer
370
-1
48
1.0
60
0
100
AcDbCircle
39
0.0
10
465.05142480745
20
495.837433602188
30
0.0
40
465.446890356249
210
0.0
220
0.0
230
1.0
100
AcDbArc
50
168.780777448283
51
169.164116576979
0
ARC
5
27E
330
70
100
AcDbEntity
67
0
8
IV_OUTER_PROFILE
62
256
6
ByLayer
370
-1
48
1.0
60
0
100
AcDbCircle
39
0.0
10
459.009729259515
20
497.007838546069
30
0.0
40
459.292888235842
210
0.0
220
0.0
230
1.0
100
AcDbArc
50
169.16582797352
51
169.5538011254
0
ARC
5
27F
330
70
100
AcDbEntity
67
0
8
IV_OUTER_PROFILE
62
256
6
ByLayer
370
-1
48
1.0
60
0
100
AcDbCircle
39
0.0
10
453.122217253859
20
498.107047124515
30
0.0
40
453.303658559115
210
0.0
220
0.0
230
1.0
100
AcDbArc
50
169.555509028601
51
169.948112817198
0
ARC
5
280
330
70
100
AcDbEntity
67
0
8
IV_OUTER_PROFILE
62
256
6
ByLayer
370
-1
48
1.0
60
0
100
AcDbCircle
39
0.0
10
447.386621327084
20
499.137254770775
30
0.0
40
447.476291302478
210
0.0
220
0.0
230
1.0
100
AcDbArc
50
169.949816215102
51
170.347045174938
0
ARC
5
281
330
70
100
AcDbEntity
67
0
8
IV_OUTER_PROFILE
62
256
6
ByLayer
370
-1
48
1.0
60
0
100
AcDbCircle
39
0.0
10
441.800774707053
20
500.10062127676
30
0.0
40
441.807994919457
210
0.0
220
0.0
230
1.0
100
AcDbArc
50
170.348743018562
51
170.750589526564
0
ARC
5
282
330
70
100
AcDbEntity
67
0
8
IV_OUTER_PROFILE
62
256
6
ByLayer
370
-1
48
1.0
60
0
100
AcDbCircle
39
0.0
10
436.362606935213
20
500.999273530246
30
0.0
40
436.296091741372
210
0.0
220
0.0
230
1.0
100
AcDbArc
50
170.752280730079
51
171.158734927087
0
ARC
5
283
330
70
100
AcDbEntity
67
0
8
IV_OUTER_PROFILE
62
256
6
ByLayer
370
-1
48
1.0
60
0
100
AcDbCircle
39
0.0
10
431.070139452208
20
501.835308164101
30
0.0
40
430.938013386481
210
0.0
220
0.0
230
1.0
100
AcDbArc
50
171.160418368132
51
171.57146808096
0
ARC
5
284
330
70
100
AcDbEntity
67
0
8
IV_OUTER_PROFILE
62
256
6
ByLayer
370
-1
48
1.0
60
0
100
AcDbCircle
39
0.0
10
425.921481575411
20
502.61079404772
30
0.0
40
425.731296610824
210
0.0
220
0.0
230
1.0
100
AcDbArc
50
171.573142601041
51
171.98877326518
0
ARC
5
285
330
70
100
AcDbEntity
67
0
8
IV_OUTER_PROFILE
62
256
6
ByLayer
370
-1
48
1.0
60
0
100
AcDbCircle
39
0.0
10
420.914826569037
20
503.327774675967
30
0.0
40
420.673579295361
210
0.0
220
0.0
230
1.0
100
AcDbArc
50
171.990437670168
51
172.410632253488
0
ARC
5
286
330
70
100
AcDbEntity
67
0
8
IV_OUTER_PROFILE
62
256
6
ByLayer
370
-1
48
1.0
60
0
100
AcDbCircle
39
0.0
10
416.048448113879
20
503.988270415346
30
0.0
40
415.762596878022
210
0.0
220
0.0
230
1.0
100
AcDbArc
50
172.412285314272
51
172.83702424178
0
ARC
5
287
330
70
100
AcDbEntity
67
0
8
IV_OUTER_PROFILE
62
256
6
ByLayer
370
-1
48
1.0
60
0
100
AcDbCircle
39
0.0
10
411.320696777704
20
504.594280671772
30
0.0
40
410.996178825546
210
0.0
220
0.0
230
1.0
100
AcDbArc
50
172.838664695087
51
173.267925775195
0
ARC
5
288
330
70
100
AcDbEntity
67
0
8
IV_OUTER_PROFILE
62
256
6
ByLayer
370
-1
48
1.0
60
0
100
AcDbCircle
39
0.0
10
406.729996667785
20
505.147785954388
30
0.0
40
406.372245327403
210
0.0
220
0.0
230
1.0
100
AcDbArc
50
173.269552324468
51
173.703310677046
0
ARC
5
289
330
70
100
AcDbEntity
67
0
8
IV_OUTER_PROFILE
62
256
6
ByLayer
370
-1
48
1.0
60
0
100
AcDbCircle
39
0.0
10
402.274842397415
20
505.650749826458
30
0.0
40
401.888804342629
210
0.0
220
0.0
230
1.0
100
AcDbArc
50
173.704921993496
51
174.143149979843
0
ARC
5
28A
330
70
100
AcDbEntity
67
0
8
IV_OUTER_PROFILE
62
256
6
ByLayer
370
-1
48
1.0
60
0
100
AcDbCircle
39
0.0
10
397.953796100677
20
506.105120781948
30
0.0
40
397.543948730141
210
0.0
220
0.0
230
1.0
100
AcDbArc
50
174.144744703661
51
174.587411858812
0
ARC
5
28B
330
70
100
AcDbEntity
67
0
8
IV_OUTER_PROFILE
62
256
6
ByLayer
370
-1
48
1.0
60
0
100
AcDbCircle
39
0.0
10
393.737118098291
20
506.515415993182
30
0.0
40
393.307369992488
210
0.0
220
0.0
230
1.0
100
AcDbArc
50
174.588973377252
51
175.036078721696
0
ARC
5
28C
330
70
100
AcDbEntity
67
0
8
IV_OUTER_PROFILE
62
256
6
ByLayer
370
-1
48
1.0
60
0
100
AcDbCircle
39
0.0
10
390.771220842713
20
506.781122217498
30
0.0
40
390.329605626146
210
0.0
220
0.0
230
1.0
100
AcDbArc
50
175.037264070313
51
175.48747330388
0
ARC
5
28D
330
70
100
AcDbEntity
67
0
8
IV_OUTER_PROFILE
62
256
6
ByLayer
370
-1
48
1.0
60
0
100
AcDbCircle
39
0.0
10
390.170398154059
20
506.830108016569
30
0.0
40
389.726791338834
210
0.0
220
0.0
230
1.0
100
AcDbArc
50
175.487703087655
51
175.938328892914
0
ARC
5
28E
330
70
100
AcDbEntity
67
0
8
IV_OUTER_PROFILE
62
256
6
ByLayer
370
-1
48
1.0
60
0
100
AcDbCircle
39
0.0
10
389.642077000043
20
506.868999667694
30
0.0
40
389.197042421975
210
0.0
220
0.0
230
1.0
100
AcDbArc
50
175.938531003489
51
176.38951803341
0
ARC
5
28F
330
70
100
AcDbEntity
67
0
8
IV_OUTER_PROFILE
62
256
6
ByLayer
370
-1
48
1.0
60
0
100
AcDbCircle
39
0.0
10
389.186248190835
20
506.898946683922
30
0.0
40
388.74023247589
210
0.0
220
0.0
230
1.0
100
AcDbArc
50
176.389692338387
51
176.840984977875
0
ARC
5
290
330
70
100
AcDbEntity
67
0
8
IV_OUTER_PROFILE
62
256
6
ByLayer
370
-1
48
1.0
60
0
100
AcDbCircle
39
0.0
10
388.802902519111
20
506.921097709955
30
0.0
40
388.356248639648
210
0.0
220
0.0
230
1.0
100
AcDbArc
50
176.841131365264
51
177.292673771953
0
ARC
5
291
330
70
100
AcDbEntity
67
0
8
IV_OUTER_PROFILE
62
256
6
ByLayer
370
-1
48
1.0
60
0
100
AcDbCircle
39
0.0
10
388.492030816311
20
506.936600519095
30
0.0
40
388.044991656763
210
0.0
220
0.0
230
1.0
100
AcDbArc
50
177.292792150372
51
177.744528295775
0
ARC
5
292
330
70
100
AcDbEntity
67
0
8
IV_OUTER_PROFILE
62
256
6
ByLayer
370
-1
48
1.0
60
0
100
AcDbCircle
39
0.0
10
388.253623941229
20
506.946602015127
30
0.0
40
387.806375868875
210
0.0
220
0.0
230
1.0
100
AcDbArc
50
177.744618594629
51
178.19649230565
0
ARC
5
293
330
70
100
AcDbEntity
67
0
8
IV_OUTER_PROFILE
62
256
6
ByLayer
370
-1
48
1.0
60
0
100
AcDbCircle
39
0.0
10
388.087672738022
20
506.952248234563
30
0.0
40
387.640329174697
210
0.0
220
0.0
230
1.0
100
AcDbArc
50
178.196554475241
51
178.648509476004
0
ARC
5
294
330
70
100
AcDbEntity
67
0
8
IV_OUTER_PROFILE
62
256
6
ByLayer
370
-1
48
1.0
60
0
100
AcDbCircle
39
0.0
10
387.994168092395
20
506.954684344993
30
0.0
40
387.546793082997
210
0.0
220
0.0
230
1.0
100
AcDbArc
50
178.648543487622
51
179.100523441423
0
ARC
5
295
330
70
100
AcDbEntity
67
0
8
IV_OUTER_PROFILE
62
256
6
ByLayer
370
-1
48
1.0
60
0
100
AcDbCircle
39
0.0
10
387.973100945824
20
506.955054646505
30
0.0
40
387.525722719347
210
0.0
220
0.0
230
1.0
100
AcDbArc
50
179.100529287418
51
179.552477838782
0
ARC
5
296
330
70
100
AcDbEntity
67
0
8
IV_OUTER_PROFILE
62
256
6
ByLayer
370
-1
48
1.0
60
0
100
AcDbCircle
39
0.0
10
388.024462176206
20
506.954502574396
30
0.0
40
387.5770866951
210
0.0
220
0.0
230
1.0
100
AcDbArc
50
179.552455532557
51
180.004316349461
0
ARC
5
297
330
70
100
AcDbEntity
67
0
8
IV_OUTER_PROFILE
62
256
6
ByLayer
370
-1
48
1.0
60
0
100
AcDbCircle
39
0.0
10
388.148242752356
20
506.954170697248
30
0.0
40
387.700867246046
210
0.0
220
0.0
230
1.0
100
AcDbArc
50
180.004265925431
51
180.455982741306
0
ARC
5
298
330
70
100
AcDbEntity
67
0
8
IV_OUTER_PROFILE
62
256
6
ByLayer
370
-1
48
1.0
60
0
100
AcDbCircle
39
0.0
10
388.344433641983
20
506.955200719433
30
0.0
40
387.897060120326
210
0.0
220
0.0
230
1.0
100
AcDbArc
50
180.455904254864
51
180.907420910585
0
ARC
5
299
330
70
100
AcDbEntity
67
0
8
IV_OUTER_PROFILE
62
256
6
ByLayer
370
-1
48
1.0
60
0
100
AcDbCircle
39
0.0
10
388.613025810236
20
506.958733481034
30
0.0
40
388.165674552735
210
0.0
220
0.0
230
1.0
100
AcDbArc
50
180.907314437966
51
181.35857492364
0
ARC
5
29A
330
70
100
AcDbEntity
67
0
8
IV_OUTER_PROFILE
62
256
6
ByLayer
370
-1
48
1.0
60
0
100
AcDbCircle
39
0.0
10
388.954010274717
20
506.965908959244
30
0.0
40
388.506733291348
210
0.0
220
0.0
230
1.0
100
AcDbArc
50
181.358440561781
51
181.809389058193
0
ARC
5
29B
330
70
100
AcDbEntity
67
0
8
IV_OUTER_PROFILE
62
256
6
ByLayer
370
-1
48
1.0
60
0
100
AcDbCircle
39
0.0
10
389.367378048511
20
506.977866268442
30
0.0
40
388.92027250802
210
0.0
220
0.0
230
1.0
100
AcDbArc
50
181.809226924562
51
182.259807844333
0
ARC
5
29C
330
70
100
AcDbEntity
67
0
8
IV_OUTER_PROFILE
62
256
6
ByLayer
370
-1
48
1.0
60
0
100
AcDbCircle
39
0.0
10
389.85312016443
20
506.995743661019
30
0.0
40
389.40634178599
210
0.0
220
0.0
230
1.0
100
AcDbArc
50
182.259618076684
51
182.709776104978
0
ARC
5
29D
330
70
100
AcDbEntity
67
0
8
IV_OUTER_PROFILE
62
256
6
ByLayer
370
-1
48
1.0
60
0
100
AcDbCircle
39
0.0
10
390.41122769435
20
507.020678529173
30
0.0
40
389.965004098554
210
0.0
220
0.0
230
1.0
100
AcDbArc
50
182.709558861109
51
183.159238995802
0
ARC
5
29E
330
70
100
AcDbEntity
67
0
8
IV_OUTER_PROFILE
62
256
6
ByLayer
370
-1
48
1.0
60
0
100
AcDbCircle
39
0.0
10
391.04169173707
20
507.053807405703
30
0.0
40
390.596335752215
210
0.0
220
0.0
230
1.0
100
AcDbArc
50
183.158994453278
51
183.608142044575
0
ARC
5
29F
330
70
100
AcDbEntity
67
0
8
IV_OUTER_PROFILE
62
256
6
ByLayer
370
-1
48
1.0
60
0
100
AcDbCircle
39
0.0
10
391.744503349719
20
507.096265960469
30
0.0
40
391.300426269275
210
0.0
220
0.0
230
1.0
100
AcDbArc
50
183.607870400364
51
184.056431189851
0
ARC
5
2A0
330
70
100
AcDbEntity
67
0
8
IV_OUTER_PROFILE
62
256
6
ByLayer
370
-1
48
1.0
60
0
100
AcDbCircle
39
0.0
10
392.51965366902
20
507.149189007831
30
0.0
40
392.077378456658
210
0.0
220
0.0
230
1.0
100
AcDbArc
50
184.056132659964
51
184.504052818794
0
ARC
5
2A1
330
70
100
AcDbEntity
67
0
8
IV_OUTER_PROFILE
62
256
6
ByLayer
370
-1
48
1.0
60
0
100
AcDbCircle
39
0.0
10
393.367133841894
20
507.21371050402
30
0.0
40
392.927308279949
210
0.0
220
0.0
230
1.0
100
AcDbArc
50
184.503727637918
51
184.950953804317
0
ARC
5
2A2
330
70
100
AcDbEntity
67
0
8
IV_OUTER_PROFILE
62
256
6
ByLayer
370
-1
48
1.0
60
0
100
AcDbCircle
39
0.0
10
394.286935036006
20
507.290963548495
30
0.0
40
393.850344813671
210
0.0
220
0.0
230
1.0
100
AcDbArc
50
184.950602225385
51
185.397081541288
0
ARC
5
2A3
330
70
100
AcDbEntity
67
0
8
IV_OUTER_PROFILE
62
256
6
ByLayer
370
-1
48
1.0
60
0
100
AcDbCircle
39
0.0
10
395.279048403924
20
507.382080381201
30
0.0
40
394.846630141242
210
0.0
220
0.0
230
1.0
100
AcDbArc
50
185.396703834999
51
185.842383981837
0
ARC
5
2A4
330
70
100
AcDbEntity
67
0
8
IV_OUTER_PROFILE
62
256
6
ByLayer
370
-1
48
1.0
60
0
100
AcDbCircle
39
0.0
10
396.186308109073
20
507.470701091409
30
0.0
40
395.758198171537
210
0.0
220
0.0
230
1.0
100
AcDbArc
50
185.841777144754
51
186.286784011647
0
ARC
5
2A5
330
70
100
AcDbEntity
67
0
8
IV_OUTER_PROFILE
62
256
6
ByLayer
370
-1
48
1.0
60
0
100
AcDbCircle
39
0.0
10
400.097835046131
20
507.892040940533
30
0.0
40
399.692341076705
210
0.0
220
0.0
230
1.0
100
AcDbArc
50
186.285418477293
51
186.726419383215
0
ARC
5
2A6
330
70
100
AcDbEntity
67
0
8
IV_OUTER_PROFILE
62
256
6
ByLayer
370
-1
48
1.0
60
0
100
AcDbCircle
39
0.0
10
404.900046435155
20
508.445918061323
30
0.0
40
404.52637271417
210
0.0
220
0.0
230
1.0
100
AcDbArc
50
186.724661382712
51
187.160784205257
0
ARC
5
2A7
330
70
100
AcDbEntity
67
0
8
IV_OUTER_PROFILE
62
256
6
ByLayer
370
-1
48
1.0
60
0
100
AcDbCircle
39
0.0
10
409.851159960901
20
509.055181012355
30
0.0
40
409.514816160209
210
0.0
220
0.0
230
1.0
100
AcDbArc
50
187.159012084085
51
187.590230384722
0
ARC
5
2A8
330
70
100
AcDbEntity
67
0
8
IV_OUTER_PROFILE
62
256
6
ByLayer
370
-1
48
1.0
60
0
100
AcDbCircle
39
0.0
10
414.953209743731
20
509.722023275088
30
0.0
40
414.6602438211
210
0.0
220
0.0
230
1.0
100
AcDbArc
50
187.588445586621
51
188.014735958068
0
ARC
5
2A9
330
70
100
AcDbEntity
67
0
8
IV_OUTER_PROFILE
62
256
6
ByLayer
370
-1
48
1.0
60
0
100
AcDbCircle
39
0.0
10
420.208330281548
20
510.448665948375
30
0.0
40
419.965347997149
210
0.0
220
0.0
230
1.0
100
AcDbArc
50
188.012939885983
51
188.434281865206
0
ARC
5
2AA
330
70
100
AcDbEntity
67
0
8
IV_OUTER_PROFILE
62
256
6
ByLayer
370
-1
48
1.0
60
0
100
AcDbCircle
39
0.0
10
425.618761405152
20
511.23736059497
30
0.0
40
425.432945886252
210
0.0
220
0.0
230
1.0
100
AcDbArc
50
188.43247588034
51
188.848851859594
0
ARC
5
2AB
330
70
100
AcDbEntity
67
0
8
IV_OUTER_PROFILE
62
256
6
ByLayer
370
-1
48
1.0
60
0
100
AcDbCircle
39
0.0
10
431.186853481972
20
512.090392237218
30
0.0
40
431.065984889883
210
0.0
220
0.0
230
1.0
100
AcDbArc
50
188.847037280651
51
189.258432416954
0
ARC
5
2AC
330
70
100
AcDbEntity
67
0
8
IV_OUTER_PROFILE
62
256
6
ByLayer
370
-1
48
1.0
60
0
100
AcDbCircle
39
0.0
10
436.915072862896
20
513.01008250613
30
0.0
40
436.867548218326
210
0.0
220
0.0
230
1.0
100
AcDbArc
50
189.2566105195
51
189.663012642933
0
ARC
5
2AD
330
70
100
AcDbEntity
67
0
8
IV_OUTER_PROFILE
62
256
6
ByLayer
370
-1
48
1.0
60
0
100
AcDbCircle
39
0.0
10
442.80600784049
20
513.998792994789
30
0.0
40
442.840861069448
210
0.0
220
0.0
230
1.0
100
AcDbArc
50
189.661184658936
51
190.062584179903
0
ARC
5
2AE
330
70
100
AcDbEntity
67
0
8
IV_OUTER_PROFILE
62
256
6
ByLayer
370
-1
48
1.0
60
0
100
AcDbCircle
39
0.0
10
448.862374766184
20
515.058928769674
30
0.0
40
448.989297027187
210
0.0
220
0.0
230
1.0
100
AcDbArc
50
190.060751297419
51
190.457141113377
0
ARC
5
2AF
330
70
100
AcDbEntity
67
0
8
IV_OUTER_PROFILE
62
256
6
ByLayer
370
-1
48
1.0
60
0
100
AcDbCircle
39
0.0
10
455.087024684291
20
516.192942105886
30
0.0
40
455.31638504508
210
0.0
220
0.0
230
1.0
100
AcDbArc
50
190.455304476351
51
190.846679878138
0
ARC
5
2B0
330
70
100
AcDbEntity
67
0
8
IV_OUTER_PROFILE
62
256
6
ByLayer
370
-1
48
1.0
60
0
100
AcDbCircle
39
0.0
10
461.482950277462
20
517.403336422229
30
0.0
40
461.825816809843
210
0.0
220
0.0
230
1.0
100
AcDbArc
50
190.844840586327
51
191.231199164453
0
ARC
5
2B1
330
70
100
AcDbEntity
67
0
8
IV_OUTER_PROFILE
62
256
6
ByLayer
370
-1
48
1.0
60
0
100
AcDbCircle
39
0.0
10
468.053293432271
20
518.692670483571
30
0.0
40
468.521454802366
210
0.0
220
0.0
230
1.0
100
AcDbArc
50
191.229358273505
51
191.610699824508
0
ARC
5
2B2
330
70
100
AcDbEntity
67
0
8
IV_OUTER_PROFILE
62
256
6
ByLayer
370
-1
48
1.0
60
0
100
AcDbCircle
39
0.0
10
474.801353032875
20
520.063562807609
30
0.0
40
475.407340660775
210
0.0
220
0.0
230
1.0
100
AcDbArc
50
191.608858346142
51
191.985184779436
0
ARC
5
2B3
330
70
100
AcDbEntity
67
0
8
IV_OUTER_PROFILE
62
256
6
ByLayer
370
-1
48
1.0
60
0
100
AcDbCircle
39
0.0
10
481.730593389241
20
521.518696363132
30
0.0
40
482.487704262858
210
0.0
220
0.0
230
1.0
100
AcDbArc
50
191.983343681675
51
192.354658927007
0
ARC
5
2B4
330
70
100
AcDbEntity
67
0
8
IV_OUTER_PROFILE
62
256
6
ByLayer
370
-1
48
1.0
60
0
100
AcDbCircle
39
0.0
10
488.844653349176
20
523.060823588556
30
0.0
40
489.766973583468
210
0.0
220
0.0
230
1.0
100
AcDbArc
50
192.352819134571
51
192.719129050166
0
ARC
5
2B5
330
70
100
AcDbEntity
67
0
8
IV_OUTER_PROFILE
62
256
6
ByLayer
370
-1
48
1.0
60
0
100
AcDbCircle
39
0.0
10
496.147355701256
20
524.692771659709
30
0.0
40
497.24978492955
210
0.0
220
0.0
230
1.0
100
AcDbArc
50
192.717291444939
51
193.078603726772
0
ARC
5
2B6
330
70
100
AcDbEntity
67
0
8
IV_OUTER_PROFILE
62
256
6
ByLayer
370
-1
48
1.0
60
0
100
AcDbCircle
39
0.0
10
503.642717469744
20
526.417448147896
30
0.0
40
504.940994171877
210
0.0
220
0.0
230
1.0
100
AcDbArc
50
193.076769148313
51
193.433093240452
0
ARC
5
2B7
330
70
100
AcDbEntity
67
0
8
IV_OUTER_PROFILE
62
256
6
ByLayer
370
-1
48
1.0
60
0
100
AcDbCircle
39
0.0
10
511.33496077465
20
528.237847015371
30
0.0
40
512.845688644811
210
0.0
220
0.0
230
1.0
100
AcDbArc
50
193.431262486616
51
193.782609492895
0
ARC
5
2B8
330
70
100
AcDbEntity
67
0
8
IV_OUTER_PROFILE
62
256
6
ByLayer
370
-1
48
1.0
60
0
100
AcDbCircle
39
0.0
10
519.228524504606
20
530.157055019392
30
0.0
40
520.969199973331
210
0.0
220
0.0
230
1.0
100
AcDbArc
50
193.780783320517
51
194.127165917619
0
ARC
5
2B9
330
70
100
AcDbEntity
67
0
8
IV_OUTER_PROFILE
62
256
6
ByLayer
370
-1
48
1.0
60
0
100
AcDbCircle
39
0.0
10
527.328076617939
20
532.178258497422
30
0.0
40
529.317117643323
210
0.0
220
0.0
230
1.0
100
AcDbArc
50
194.125345043228
51
194.466777395421
0
ARC
5
2BA
330
70
100
AcDbEntity
67
0
8
IV_OUTER_PROFILE
62
256
6
ByLayer
370
-1
48
1.0
60
0
100
AcDbCircle
39
0.0
10
535.638527662823
20
534.304750697425
30
0.0
40
537.895303930076
210
0.0
220
0.0
230
1.0
100
AcDbArc
50
194.464962496034
51
194.801460171417
0
ARC
5
2BB
330
70
100
AcDbEntity
67
0
8
IV_OUTER_PROFILE
62
256
6
ByLayer
370
-1
48
1.0
60
0
100
AcDbCircle
39
0.0
10
544.16504475099
20
536.539939482951
30
0.0
40
546.709909403115
210
0.0
220
0.0
230
1.0
100
AcDbArc
50
194.799651885379
51
195.131231774068
0
ARC
5
2BC
330
70
100
AcDbEntity
67
0
8
IV_OUTER_PROFILE
62
256
6
ByLayer
370
-1
48
1.0
60
0
100
AcDbCircle
39
0.0
10
552.913067030865
20
538.887355697661
30
0.0
40
555.767390093427
210
0.0
220
0.0
230
1.0
100
AcDbArc
50
195.12943070191
51
195.456110935929
0
ARC
5
2BD
330
70
100
AcDbEntity
67
0
8
IV_OUTER_PROFILE
62
256
6
ByLayer
370
-1
48
1.0
60
0
100
AcDbCircle
39
0.0
10
561.888321854274
20
541.3506620064
30
0.0
40
565.07452549944
210
0.0
220
0.0
230
1.0
100
AcDbArc
50
195.454317641279
51
195.776117516472
0
ARC
5
2BE
330
70
100
AcDbEntity
67
0
8
IV_OUTER_PROFILE
62
256
6
ByLayer
370
-1
48
1.0
60
0
100
AcDbCircle
39
0.0
10
570.380494943322
20
543.72851880303
30
0.0
40
573.893300389593
210
0.0
220
0.0
230
1.0
100
AcDbArc
50
195.774065019632
51
196.091416334721
0
ARC
5
2BF
330
70
100
AcDbEntity
67
0
8
IV_OUTER_PROFILE
62
256
6
ByLayer
370
-1
48
1.0
60
0
100
AcDbCircle
39
0.0
10
590.630782982704
20
549.518215571062
30
0.0
40
594.954932566263
210
0.0
220
0.0
230
1.0
100
AcDbArc
50
196.086608292923
51
196.700272797587
0
ARC
5
2C0
330
70
100
AcDbEntity
67
0
8
IV_OUTER_PROFILE
62
256
6
ByLayer
370
-1
48
1.0
60
0
100
AcDbCircle
39
0.0
10
621.971574878305
20
558.799335431798
30
0.0
40
627.640885753366
210
0.0
220
0.0
230
1.0
100
AcDbArc
50
196.689628992595
51
197.273127304436
0
ARC
5
2C1
330
70
100
AcDbEntity
67
0
8
IV_OUTER_PROFILE
62
256
6
ByLayer
370
-1
48
1.0
60
0
100
AcDbCircle
39
0.0
10
656.143935191447
20
569.298285980779
30
0.0
40
663.389511784026
210
0.0
220
0.0
230
1.0
100
AcDbArc
50
197.262655309056
51
197.816383389614
0
ARC
5
2C2
330
70
100
AcDbEntity
67
0
8
IV_OUTER_PROFILE
62
256
6
ByLayer
370
-1
48
1.0
60
0
100
AcDbCircle
39
0.0
10
693.537074483951
20
581.183060000073
30
0.0
40
702.625715252085
210
0.0
220
0.0
230
1.0
100
AcDbArc
50
197.806085546353
51
198.330443686672
0
ARC
5
2C3
330
70
100
AcDbEntity
67
0
8
IV_OUTER_PROFILE
62
256
6
ByLayer
370
-1
48
1.0
60
0
100
AcDbCircle
39
0.0
10
734.623225526337
20
594.656401584924
30
0.0
40
745.864429168342
210
0.0
220
0.0
230
1.0
100
AcDbArc
50
198.320320441242
51
198.815709157718
0
ARC
5
2C4
330
70
100
AcDbEntity
67
0
8
IV_OUTER_PROFILE
62
256
6
ByLayer
370
-1
48
1.0
60
0
100
AcDbCircle
39
0.0
10
779.980549937282
20
609.965552015784
30
0.0
40
793.735496745339
210
0.0
220
0.0
230
1.0
100
AcDbArc
50
198.805759261022
51
199.27257562377
0
ARC
5
2C5
330
70
100
AcDbEntity
67
0
8
IV_OUTER_PROFILE
62
256
6
ByLayer
370
-1
48
1.0
60
0
100
AcDbCircle
39
0.0
10
830.324072466101
20
627.415402939988
30
0.0
40
847.017275734077
210
0.0
220
0.0
230
1.0
100
AcDbArc
50
199.262796319809
51
199.701430683719
0
ARC
5
2C6
330
70
100
AcDbEntity
67
0
8
IV_OUTER_PROFILE
62
256
6
ByLayer
370
-1
48
1.0
60
0
100
AcDbCircle
39
0.0
10
886.548127549641
20
647.386535992182
30
0.0
40
906.682750743387
210
0.0
220
0.0
230
1.0
100
AcDbArc
50
199.69181788304
51
200.102650991314
0
ARC
5
2C7
330
70
100
AcDbEntity
67
0
8
IV_OUTER_PROFILE
62
256
6
ByLayer
370
-1
48
1.0
60
0
100
AcDbCircle
39
0.0
10
949.785648430989
20
670.360411224875
30
0.0
40
973.963943955732
210
0.0
220
0.0
230
1.0
100
AcDbArc
50
200.093199429942
51
200.476599859218
0
ARC
5
2C8
330
70
100
AcDbEntity
67
0
8
IV_OUTER_PROFILE
62
256
6
ByLayer
370
-1
48
1.0
60
0
100
AcDbCircle
39
0.0
10
1021.49264648764
20
696.955247586459
30
0.0
40
1050.44369262294
210
0.0
220
0.0
230
1.0
100
AcDbArc
50
200.46730324339
51
200.823625160547
0
ARC
5
2C9
330
70
100
AcDbEntity
67
0
8
IV_OUTER_PROFILE
62
256
6
ByLayer
370
-1
48
1.0
60
0
100
AcDbCircle
39
0.0
10
1103.57131988703
20
727.978299649595
30
0.0
40
1138.18939281395
210
0.0
220
0.0
230
1.0
100
AcDbArc
50
200.814476297729
51
201.14405749911
0
ARC
5
2CA
330
70
100
AcDbEntity
67
0
8
IV_OUTER_PROFILE
62
256
6
ByLayer
370
-1
48
1.0
60
0
100
AcDbCircle
39
0.0
10
1198.55409870984
20
764.503998913255
30
0.0
40
1239.95294270691
210
0.0
220
0.0
230
1.0
100
AcDbArc
50
201.135048416016
51
201.438208621331
0
ARC
5
2CB
330
70
100
AcDbEntity
67
0
8
IV_OUTER_PROFILE
62
256
6
ByLayer
370
-1
48
1.0
60
0
100
AcDbCircle
39
0.0
10
751.844034738382
20
1012.15471403628
30
0.0
40
384.781609711524
210
0.0
220
0.0
230
1.0
100
AcDbArc
50
179.999773492372
51
180.526363096328
0
ARC
5
2CC
330
70
100
AcDbEntity
67
0
8
IV_OUTER_PROFILE
62
256
6
ByLayer
370
-1
48
1.0
60
0
100
AcDbCircle
39
0.0
10
753.856583545836
20
1012.16701360403
30
0.0
40
386.794186634531
210
0.0
220
0.0
230
1.0
100
AcDbArc
50
180.525446244553
51
181.049339814454
0
ARC
5
2CD
330
70
100
AcDbEntity
67
0
8
IV_OUTER_PROFILE
62
256
6
ByLayer
370
-1
48
1.0
60
0
100
AcDbCircle
39
0.0
10
755.986348838004
20
1012.19950700198
30
0.0
40
388.924189874844
210
0.0
220
0.0
230
1.0
100
AcDbArc
50
181.048379986677
51
181.569491133474
0
ARC
5
2CE
330
70
100
AcDbEntity
67
0
8
IV_OUTER_PROFILE
62
256
6
ByLayer
370
-1
48
1.0
60
0
100
AcDbCircle
39
0.0
10
758.233479200565
20
1012.25423761486
30
0.0
40
391.171976302667
210
0.0
220
0.0
230
1.0
100
AcDbArc
50
181.568489647027
51
182.086734749952
0
ARC
5
2CF
330
70
100
AcDbEntity
67
0
8
IV_OUTER_PROFILE
62
256
6
ByLayer
370
-1
48
1.0
60
0
100
AcDbCircle
39
0.0
10
760.598134604455
20
1012.33323696588
30
0.0
40
393.537940203648
210
0.0
220
0.0
230
1.0
100
AcDbArc
50
182.085692944328
51
182.600991194358
0
ARC
5
2D0
330
70
100
AcDbEntity
67
0
8
IV_OUTER_PROFILE
62
256
6
ByLayer
370
-1
48
1.0
60
0
100
AcDbCircle
39
0.0
10
763.080486899208
20
1012.43852510718
30
0.0
40
396.022513216258
210
0.0
220
0.0
230
1.0
100
AcDbArc
50
182.599910428027
51
183.11218386454
0
ARC
5
2D1
330
70
100
AcDbEntity
67
0
8
IV_OUTER_PROFILE
62
256
6
ByLayer
370
-1
48
1.0
60
0
100
AcDbCircle
39
0.0
10
765.680719879931
20
1012.57211100386
30
0.0
40
398.626163845862
210
0.0
220
0.0
230
1.0
100
AcDbArc
50
183.111065511784
51
183.620239053073
0
ARC
5
2D2
330
70
100
AcDbEntity
67
0
8
IV_OUTER_PROFILE
62
256
6
ByLayer
370
-1
48
1.0
60
0
100
AcDbCircle
39
0.0
10
768.399029784829
20
1012.73599294244
30
0.0
40
401.34939741374
210
0.0
220
0.0
230
1.0
100
AcDbArc
50
183.619084500837
51
184.125085968032
0
ARC
5
2D3
330
70
100
AcDbEntity
67
0
8
IV_OUTER_PROFILE
62
256
6
ByLayer
370
-1
48
1.0
60
0
100
AcDbCircle
39
0.0
10
771.235625583901
20
1012.93215894127
30
0.0
40
404.192755802076
210
0.0
220
0.0
230
1.0
100
AcDbArc
50
184.123896612932
51
184.626656747764
0
ARC
5
2D4
330
70
100
AcDbEntity
67
0
8
IV_OUTER_PROFILE
62
256
6
ByLayer
370
-1
48
1.0
60
0
100
AcDbCircle
39
0.0
10
774.190729228652
20
1013.16258716444
30
0.0
40
407.156817165338
210
0.0
220
0.0
230
1.0
100
AcDbArc
50
184.6254339931
51
185.124886469705
0
ARC
5
2D5
330
70
100
AcDbEntity
67
0
8
IV_OUTER_PROFILE
62
256
6
ByLayer
370
-1
48
1.0
60
0
100
AcDbCircle
39
0.0
10
777.264576129421
20
1013.4292463611
30
0.0
40
410.242195876253
210
0.0
220
0.0
230
1.0
100
AcDbArc
50
185.12363172257
51
185.619713153236
0
ARC
5
2D6
330
70
100
AcDbEntity
67
0
8
IV_OUTER_PROFILE
62
256
6
ByLayer
370
-1
48
1.0
60
0
100
AcDbCircle
39
0.0
10
780.457415377116
20
1013.73409629452
30
0.0
40
413.449542222504
210
0.0
220
0.0
230
1.0
100
AcDbArc
50
185.618427821729
51
186.111077757107
0
ARC
5
2D7
330
70
100
AcDbEntity
67
0
8
IV_OUTER_PROFILE
62
256
6
ByLayer
370
-1
48
1.0
60
0
100
AcDbCircle
39
0.0
10
783.769510243775
20
1014.07908820435
30
0.0
40
416.779542391093
210
0.0
220
0.0
230
1.0
100
AcDbArc
50
186.109763247633
51
186.59892417128
0
ARC
5
2D8
330
70
100
AcDbEntity
67
0
8
IV_OUTER_PROFILE
62
256
6
ByLayer
370
-1
48
1.0
60
0
100
AcDbCircle
39
0.0
10
787.201138446644
20
1014.46616525681
30
0.0
40
420.232918223705
210
0.0
220
0.0
230
1.0
100
AcDbArc
50
186.597581885966
51
187.083199203744
0
ARC
5
2D9
330
70
100
AcDbEntity
67
0
8
IV_OUTER_PROFILE
62
256
6
ByLayer
370
-1
48
1.0
60
0
100
AcDbCircle
39
0.0
10
790.752592628549
20
1014.89726302638
30
0.0
40
423.810427198619
210
0.0
220
0.0
230
1.0
100
AcDbArc
50
187.081830537949
51
187.563852562248
0
ARC
5
2DA
330
70
100
AcDbEntity
67
0
8
IV_OUTER_PROFILE
62
256
6
ByLayer
370
-1
48
1.0
60
0
100
AcDbCircle
39
0.0
10
794.424180700165
20
1015.37430997306
30
0.0
40
427.512862283577
210
0.0
220
0.0
230
1.0
100
AcDbArc
50
187.562458902203
51
188.040836831418
0
ARC
5
2DB
330
70
100
AcDbEntity
67
0
8
IV_OUTER_PROFILE
62
256
6
ByLayer
370
-1
48
1.0
60
0
100
AcDbCircle
39
0.0
10
798.216226284323
20
1015.89922794147
30
0.0
40
431.341051901793
210
0.0
220
0.0
230
1.0
100
AcDbArc
50
188.039419551959
51
188.514107445344
0
ARC
5
2DC
330
70
100
AcDbEntity
67
0
8
IV_OUTER_PROFILE
62
256
6
ByLayer
370
-1
48
1.0
60
0
100
AcDbCircle
39
0.0
10
802.129069189114
20
1016.47393267623
30
0.0
40
435.295859938322
210
0.0
220
0.0
230
1.0
100
AcDbArc
50
188.512667907807
51
188.983622655958
0
ARC
5
2DD
330
70
100
AcDbEntity
67
0
8
IV_OUTER_PROFILE
62
256
6
ByLayer
370
-1
48
1.0
60
0
100
AcDbCircle
39
0.0
10
806.1630657925
20
1017.10033433578
30
0.0
40
439.378185668784
210
0.0
220
0.0
230
1.0
100
AcDbArc
50
188.982162206184
51
189.449343497501
0
ARC
5
2DE
330
70
100
AcDbEntity
67
0
8
IV_OUTER_PROFILE
62
256
6
ByLayer
370
-1
48
1.0
60
0
100
AcDbCircle
39
0.0
10
810.318589522157
20
1017.78033803048
30
0.0
40
443.588963796461
210
0.0
220
0.0
230
1.0
100
AcDbArc
50
189.447863463946
51
189.911233747255
0
ARC
5
2DF
330
70
100
AcDbEntity
67
0
8
IV_OUTER_PROFILE
62
256
6
ByLayer
370
-1
48
1.0
60
0
100
AcDbCircle
39
0.0
10
814.596031351119
20
1018.51584437569
30
0.0
40
447.929164518395
210
0.0
220
0.0
230
1.0
100
AcDbArc
50
189.909735439234
51
190.369259882827
0
ARC
5
2E0
330
70
100
AcDbEntity
67
0
8
IV_OUTER_PROFILE
62
256
6
ByLayer
370
-1
48
1.0
60
0
100
AcDbCircle
39
0.0
10
818.802067200773
20
1019.27150710097
30
0.0
40
452.202521163865
210
0.0
220
0.0
230
1.0
100
AcDbArc
50
190.367520369444
51
190.823365406779
0
ARC
5
2E1
330
70
100
AcDbEntity
67
0
8
IV_OUTER_PROFILE
62
256
6
ByLayer
370
-1
48
1.0
60
0
100
AcDbCircle
39
0.0
10
826.892290463808
20
1020.79699977368
30
0.0
40
460.435285809939
210
0.0
220
0.0
230
1.0
100
AcDbArc
50
190.820771861864
51
191.269137982514
0
ARC
5
2E2
330
70
100
AcDbEntity
67
0
8
IV_OUTER_PROFILE
62
256
6
ByLayer
370
-1
48
1.0
60
0
100
AcDbCircle
39
0.0
10
836.461330222861
20
1022.67778398054
30
0.0
40
470.187374684814
210
0.0
220
0.0
230
1.0
100
AcDbArc
50
191.266038055766
51
191.705778245742
0
ARC
5
2E3
330
70
100
AcDbEntity
67
0
8
IV_OUTER_PROFILE
62
256
6
ByLayer
370
-1
48
1.0
60
0
100
AcDbCircle
39
0.0
10
846.390382218099
20
1024.70855855578
30
0.0
40
480.321942306562
210
0.0
220
0.0
230
1.0
100
AcDbArc
50
191.70268552703
51
192.13382068612
0
ARC
5
2E4
330
70
100
AcDbEntity
67
0
8
IV_OUTER_PROFILE
62
256
6
ByLayer
370
-1
48
1.0
60
0
100
AcDbCircle
39
0.0
10
856.693122798187
20
1026.89661651221
30
0.0
40
490.854433855435
210
0.0
220
0.0
230
1.0
100
AcDbArc
50
192.130737185391
51
192.553292419058
0
ARC
5
2E5
330
70
100
AcDbEntity
67
0
8
IV_OUTER_PROFILE
62
256
6
ByLayer
370
-1
48
1.0
60
0
100
AcDbCircle
39
0.0
10
867.384260687651
20
1029.24965221685
30
0.0
40
501.801419656424
210
0.0
220
0.0
230
1.0
100
AcDbArc
50
192.550220001086
51
192.964224311535
0
ARC
5
2E6
330
70
100
AcDbEntity
67
0
8
IV_OUTER_PROFILE
62
256
6
ByLayer
370
-1
48
1.0
60
0
100
AcDbCircle
39
0.0
10
878.479628401447
20
1031.77580270033
30
0.0
40
513.180694090343
210
0.0
220
0.0
230
1.0
100
AcDbArc
50
192.961164699817
51
193.366650685218
0
ARC
5
2E7
330
70
100
AcDbEntity
67
0
8
IV_OUTER_PROFILE
62
256
6
ByLayer
370
-1
48
1.0
60
0
100
AcDbCircle
39
0.0
10
889.996283332083
20
1034.48369328454
30
0.0
40
525.011385157497
210
0.0
220
0.0
230
1.0
100
AcDbArc
50
193.363605466076
51
193.760609028629
0
ARC
5
2E8
330
70
100
AcDbEntity
67
0
8
IV_OUTER_PROFILE
62
256
6
ByLayer
370
-1
48
1.0
60
0
100
AcDbCircle
39
0.0
10
901.952620259658
20
1037.38248819822
30
0.0
40
537.31407657346
210
0.0
220
0.0
230
1.0
100
AcDbArc
50
193.757579655515
51
194.146139718519
0
ARC
5
2E9
330
70
100
AcDbEntity
67
0
8
IV_OUTER_PROFILE
62
256
6
ByLayer
370
-1
48
1.0
60
0
100
AcDbCircle
39
0.0
10
914.368496183281
20
1040.48194669613
30
0.0
40
550.110943415385
210
0.0
220
0.0
230
1.0
100
AcDbArc
50
194.143127516482
51
194.523285750974
0
ARC
5
2EA
330
70
100
AcDbEntity
67
0
8
IV_OUTER_PROFILE
62
256
6
ByLayer
370
-1
48
1.0
60
0
100
AcDbCircle
39
0.0
10
927.265369707715
20
1043.79248555591
30
0.0
40
563.425903723344
210
0.0
220
0.0
230
1.0
100
AcDbArc
50
194.520291921246
51
194.892092482239
0
ARC
5
2EB
330
70
100
AcDbEntity
67
0
8
IV_OUTER_PROFILE
62
256
6
ByLayer
370
-1
48
1.0
60
0
100
AcDbCircle
39
0.0
10
940.666456367983
20
1047.3252486732
30
0.0
40
577.2847876025
210
0.0
220
0.0
230
1.0
100
AcDbArc
50
194.889118106912
51
195.252607379606
0
ARC
5
2EC
330
70
100
AcDbEntity
67
0
8
IV_OUTER_PROFILE
62
256
6
ByLayer
370
-1
48
1.0
60
0
100
AcDbCircle
39
0.0
10
954.596902644135
20
1051.09218487427
30
0.0
40
591.715526801831
210
0.0
220
0.0
230
1.0
100
AcDbArc
50
195.249653426329
51
195.604879782249
0
ARC
5
2ED
330
70
100
AcDbEntity
67
0
8
IV_OUTER_PROFILE
62
256
6
ByLayer
370
-1
48
1.0
60
0
100
AcDbCircle
39
0.0
10
969.083980863658
20
1055.10613499385
30
0.0
40
606.748367195578
210
0.0
220
0.0
230
1.0
100
AcDbArc
50
195.601947108946
51
195.948960672175
0
ARC
5
2EE
330
70
100
AcDbEntity
67
0
8
IV_OUTER_PROFILE
62
256
6
ByLayer
370
-1
48
1.0
60
0
100
AcDbCircle
39
0.0
10
984.157308590681
20
1059.38092971469
30
0.0
40
622.416108069205
210
0.0
220
0.0
230
1.0
100
AcDbArc
50
195.946050031802
51
196.284902455064
0
ARC
5
2EF
330
70
100
AcDbEntity
67
0
8
IV_OUTER_PROFILE
62
256
6
ByLayer
370
-1
48
1.0
60
0
100
AcDbCircle
39
0.0
10
999.849095060762
20
1063.93149946215
30
0.0
40
638.754371060784
210
0.0
220
0.0
230
1.0
100
AcDbArc
50
196.282014500314
51
196.612758751245
0
ARC
5
2F0
330
70
100
AcDbEntity
67
0
8
IV_OUTER_PROFILE
62
256
6
ByLayer
370
-1
48
1.0
60
0
100
AcDbCircle
39
0.0
10
1016.19442006213
20
1068.77399853904
30
0.0
40
655.801904592807
210
0.0
220
0.0
230
1.0
100
AcDbArc
50
196.609894039146
51
196.932584196268
0
ARC
5
2F1
330
70
100
AcDbEntity
67
0
8
IV_OUTER_PROFILE
62
256
6
ByLayer
370
-1
48
1.0
60
0
100
AcDbCircle
39
0.0
10
1033.23154938872
20
1073.92594545468
30
0.0
40
673.600928347022
210
0.0
220
0.0
230
1.0
100
AcDbArc
50
196.92974319281
51
197.244434251191
0
ARC
5
2F2
330
70
100
AcDbEntity
67
0
8
IV_OUTER_PROFILE
62
256
6
ByLayer
370
-1
48
1.0
60
0
100
AcDbCircle
39
0.0
10
1051.00229252257
20
1079.40638195641
30
0.0
40
692.197523969597
210
0.0
220
0.0
230
1.0
100
AcDbArc
50
197.241617335838
51
197.548365022396
0
ARC
5
2F3
330
70
100
AcDbEntity
67
0
8
IV_OUTER_PROFILE
62
256
6
ByLayer
370
-1
48
1.0
60
0
100
AcDbCircle
39
0.0
10
1069.55241005303
20
1085.23605398746
30
0.0
40
711.642080180332
210
0.0
220
0.0
230
1.0
100
AcDbArc
50
197.545572492458
51
197.844433090525
0
ARC
5
2F4
330
70
100
AcDbEntity
67
0
8
IV_OUTER_PROFILE
62
256
6
ByLayer
370
-1
48
1.0
60
0
100
AcDbCircle
39
0.0
10
1088.93207826021
20
1091.43761795201
30
0.0
40
731.989800438787
210
0.0
220
0.0
230
1.0
100
AcDbArc
50
197.841665165459
51
198.132695348517
0
ARC
5
2F5
330
70
100
AcDbEntity
67
0
8
IV_OUTER_PROFILE
62
256
6
ByLayer
370
-1
48
1.0
60
0
100
AcDbCircle
39
0.0
10
1109.19642116006
20
1098.0358767575
30
0.0
40
753.301284396065
210
0.0
220
0.0
230
1.0
100
AcDbArc
50
198.129952174074
51
198.413208848289
0
ARC
5
2F6
330
70
100
AcDbEntity
67
0
8
IV_OUTER_PROFILE
62
256
6
ByLayer
370
-1
48
1.0
60
0
100
AcDbCircle
39
0.0
10
1130.40612128674
20
1105.05805066458
30
0.0
40
775.643195474437
210
0.0
220
0.0
230
1.0
100
AcDbArc
50
198.410490500605
51
198.686030655931
0
ARC
5
2F7
330
70
100
AcDbEntity
67
0
8
IV_OUTER_PROFILE
62
256
6
ByLayer
370
-1
48
1.0
60
0
100
AcDbCircle
39
0.0
10
1152.62812291313
20
1112.53408902336
30
0.0
40
799.089029561757
210
0.0
220
0.0
230
1.0
100
AcDbArc
50
198.683337145435
51
198.95121771513
0
ARC
5
2F8
330
70
100
AcDbEntity
67
0
8
IV_OUTER_PROFILE
62
256
6
ByLayer
370
-1
48
1.0
60
0
100
AcDbCircle
39
0.0
10
1192.62878063797
20
1126.22199158974
30
0.0
40
841.366794293755
210
0.0
220
0.0
230
1.0
100
AcDbArc
50
198.948168373729
51
199.202982251785
0
ARC
5
2F9
330
70
100
AcDbEntity
67
0
8
IV_OUTER_PROFILE
62
256
6
ByLayer
370
-1
48
1.0
60
0
100
AcDbCircle
39
0.0
10
1229.72073560262
20
1139.07633070446
30
0.0
40
880.622922480082
210
0.0
220
0.0
230
1.0
100
AcDbArc
50
199.199012379543
51
199.442830500422
0
ARC
5
2FA
330
70
100
AcDbEntity
67
0
8
IV_OUTER_PROFILE
62
256
6
ByLayer
370
-1
48
1.0
60
0
100
AcDbCircle
39
0.0
10
1265.49715264087
20
1151.64825243101
30
0.0
40
918.543925381793
210
0.0
220
0.0
230
1.0
100
AcDbArc
50
199.43947706592
51
199.673568896701
0
ARC
5
2FB
330
70
100
AcDbEntity
67
0
8
IV_OUTER_PROFILE
62
256
6
ByLayer
370
-1
48
1.0
60
0
100
AcDbCircle
39
0.0
10
1303.98817188918
20
1165.35094213853
30
0.0
40
959.401229586171
210
0.0
220
0.0
230
1.0
100
AcDbArc
50
199.670247640699
51
199.89468651092
0
ARC
5
2FC
330
70
100
AcDbEntity
67
0
8
IV_OUTER_PROFILE
62
256
6
ByLayer
370
-1
48
1.0
60
0
100
AcDbCircle
39
0.0
10
1345.52672895618
20
1180.32205274007
30
0.0
40
1003.5553086902
210
0.0
220
0.0
230
1.0
100
AcDbArc
50
199.891396648742
51
200.106254073808
0
ARC
5
2FD
330
70
100
AcDbEntity
67
0
8
IV_OUTER_PROFILE
62
256
6
ByLayer
370
-1
48
1.0
60
0
100
AcDbCircle
39
0.0
10
1390.50397928499
20
1196.72326303235
30
0.0
40
1051.42961632664
210
0.0
220
0.0
230
1.0
100
AcDbArc
50
200.102994754037
51
200.308340291102
0
ARC
5
2FE
330
70
100
AcDbEntity
67
0
8
IV_OUTER_PROFILE
62
256
6
ByLayer
370
-1
48
1.0
60
0
100
AcDbCircle
39
0.0
10
1439.38254010204
20
1214.74575344186
30
0.0
40
1103.52491536021
210
0.0
220
0.0
230
1.0
100
AcDbArc
50
200.305110600852
51
200.50101171607
0
ARC
5
2FF
330
70
100
AcDbEntity
67
0
8
IV_OUTER_PROFILE
62
256
6
ByLayer
370
-1
48
1.0
60
0
100
AcDbCircle
39
0.0
10
1492.71352002183
20
1234.61724749543
30
0.0
40
1160.43770564578
210
0.0
220
0.0
230
1.0
100
AcDbArc
50
200.497810685908
51
200.68433263218
0
ARC
5
300
330
70
100
AcDbEntity
67
0
8
IV_OUTER_PROFILE
62
256
6
ByLayer
370
-1
48
1.0
60
0
100
AcDbCircle
39
0.0
10
1551.15866143045
20
1256.61116687566
30
0.0
40
1222.88418425564
210
0.0
220
0.0
230
1.0
100
AcDbArc
50
200.681159240718
51
200.858364945409
0
ARC
5
301
330
70
100
AcDbEntity
67
0
8
IV_OUTER_PROFILE
62
256
6
ByLayer
370
-1
48
1.0
60
0
100
AcDbCircle
39
0.0
10
1615.51948322177
20
1281.05868028752
30
0.0
40
1291.73178064611
210
0.0
220
0.0
230
1.0
100
AcDbArc
50
200.855218123657
51
201.023168085439
0
LINE
5
302
330
70
100
AcDbEntity
67
0
8
IV_OUTER_PROFILE
62
256
6
ByLayer
370
-1
48
1.0
60
0
100
AcDbLine
10
365.819784342746
20
1012.15623519491
30
0.0
11
367.062425029865
21
1012.15623519491
31
0.0
39
0.0
210
0.0
220
0.0
230
1.0
0
LINE
5
303
330
70
100
AcDbEntity
67
0
8
IV_OUTER_PROFILE
62
256
6
ByLayer
370
-1
48
1.0
60
0
100
AcDbLine
10
365.819886861262
20
1.97505794459988
30
0.0
11
135.058497366743
21
1.97505794459988
31
0.0
39
0.0
210
0.0
220
0.0
230
1.0
0
LINE
5
304
330
70
100
AcDbEntity
67
0
8
IV_OUTER_PROFILE
62
256
6
ByLayer
370
-1
48
1.0
60
0
100
AcDbLine
10
135.058599885259
20
1012.15623519491
30
0.0
11
365.819784342746
21
1012.15623519491
31
0.0
39
0.0
210
0.0
220
0.0
230
1.0
0
ENDSEC
0
SECTION
2
OBJECTS
0
DICTIONARY
5
36B
330
0
100
AcDbDictionary
280
1
281
1
3
ACAD_GROUP
350
D
3
ACAD_LAYOUT
350
62
3
ACAD_DGNDEFINITIONS
350
361
3
ACAD_DWFDEFINITIONS
350
362
3
ACAD_PDFDEFINITIONS
350
363
3
ACAD_MLINESTYLE
350
5F
3
ACAD_IMAGE_DICT
350
360
3
ACAD_IMAGE_VARS
350
364
0
DICTIONARY
5
D
330
36B
100
AcDbDictionary
280
1
281
1
0
DICTIONARY
5
62
330
36B
100
AcDbDictionary
280
1
281
1
3
Layout1
350
6F
3
Layout2
350
77
3
Model
350
73
0
DICTIONARY
5
361
330
36B
100
AcDbDictionary
280
1
281
1
0
DICTIONARY
5
362
330
36B
100
AcDbDictionary
280
1
281
1
0
DICTIONARY
5
363
330
36B
100
AcDbDictionary
280
1
281
1
0
DICTIONARY
5
5F
330
36B
100
AcDbDictionary
280
1
281
1
3
STANDARD
350
60
0
DICTIONARY
5
360
330
36B
100
AcDbDictionary
280
1
281
1
0
DICTIONARY
5
35E
330
2
100
AcDbDictionary
280
1
281
1
3
ACAD_LAYERSTATES
360
36C
0
DICTIONARY
5
36C
330
35E
100
AcDbDictionary
280
1
281
1
0
LAYOUT
5
6F
330
62
100
AcDbPlotSettings
1

2

4

6

40
0.0
41
0.0
42
0.0
43
0.0
44
0.0
45
0.0
46
0.0
47
0.0
48
0.0
49
0.0
140
0.0
141
0.0
142
1.0
143
1.0
70
688
72
0
73
0
74
5
7

75
16
76
0
77
2
78
300
147
1.0
148
0.0
149
0.0
100
AcDbLayout
1
Layout1
71
1
10
0.0
20
0.0
11
12.0
21
9.0
12
0.0
22
0.0
32
0.0
14
0.0
24
0.0
34
0.0
15
0.0
25
0.0
35
0.0
146
0.0
13
0.0
23
0.0
33
0.0
16
1.0
26
0.0
36
0.0
17
0.0
27
1.0
37
0.0
76
0
330
6C
0
LAYOUT
5
77
330
62
100
AcDbPlotSettings
1

2

4

6

40
0.0
41
0.0
42
0.0
43
0.0
44
0.0
45
0.0
46
0.0
47
0.0
48
0.0
49
0.0
140
0.0
141
0.0
142
1.0
143
1.0
70
688
72
0
73
0
74
5
7

75
16
76
0
77
2
78
300
147
1.0
148
0.0
149
0.0
100
AcDbLayout
1
Layout2
71
2
10
0.0
20
0.0
11
12.0
21
9.0
12
0.0
22
0.0
32
0.0
14
0.0
24
0.0
34
0.0
15
0.0
25
0.0
35
0.0
146
0.0
13
0.0
23
0.0
33
0.0
16
1.0
26
0.0
36
0.0
17
0.0
27
1.0
37
0.0
76
0
330
74
0
LAYOUT
5
73
330
62
100
AcDbPlotSettings
1

2

4

6

40
0.0
41
0.0
42
0.0
43
0.0
44
0.0
45
0.0
46
0.0
47
0.0
48
0.0
49
0.0
140
0.0
141
0.0
142
1.0
143
1.0
70
1712
72
0
73
0
74
0
7

75
0
76
0
77
2
78
300
147
1.0
148
0.0
149
0.0
100
AcDbLayout
1
Model
71
3
10
0.0
20
0.0
11
12.0
21
9.0
12
0.0
22
0.0
32
0.0
14
0.0
24
0.0
34
0.0
15
0.0
25
0.0
35
0.0
146
0.0
13
0.0
23
0.0
33
0.0
16
1.0
26
0.0
36
0.0
17
0.0
27
1.0
37
0.0
76
0
330
70
0
MLINESTYLE
5
60
330
5F
100
AcDbMlineStyle
2
STANDARD
70
0
3

62
256
51
90.0
52
90.0
71
2
49
0.5
62
256
6
ByLayer
49
-0.5
62
256
6
ByLayer
0
RASTERVARIABLES
5
364
330
360
100
AcDbRasterVariables
90
0
70
1
71
1
72
0
0
ENDSEC
0
EOF
