999
autodxfXMIN:1,974991732204392
999
autodxfXMAX:1012,15616898252
999
autodxfYMIN:1,000000083E-07
999
autodxfYMAX:233,36858271722676
0
SECTION
2
HEADER
9
$ACADVER
1
AC1015
9
$DWGCODEPAGE
3
ANSI_1251
9
$HANDSEED
5
242
9
$ANGBASE
50
0.0
9
$ANGDIR
70
0
9
$ATTMODE
70
1
9
$AUNITS
70
0
9
$AUPREC
70
0
9
$CECOLOR
62
256
9
$CELTSCALE
40
1.0
9
$CELTYPE
6
ByLayer
9
$CELWEIGHT
370
-1
9
$CLAYER
8
0
9
$CMLJUST
70
0
9
$CMLSCALE
40
1.0
9
$CMLSTYLE
2
Standard
9
$DIMSTYLE
2
Standard
9
$TEXTSIZE
40
0.2
9
$TEXTSTYLE
7
Standard
9
$LUNITS
70
2
9
$LUPREC
70
4
9
$MIRRTEXT
70
0
9
$EXTNAMES
290
1
9
$INSBASE
10
0.0
20
0.0
30
0.0
9
$INSUNITS
70
4
9
$LTSCALE
40
1.0
9
$LWDISPLAY
290
0
9
$PDMODE
70
0
9
$PDSIZE
40
0.0
9
$PLINEGEN
70
0
9
$PSLTSCALE
70
1
9
$SPLINESEGS
70
6
9
$SURFU
70
6
9
$SURFV
70
6
9
$TDCREATE
40
2461306.78181713
9
$TDUCREATE
40
2461306.74015045
9
$TDUPDATE
40
2461306.78181713
9
$TDUUPDATE
40
2461306.74015045
9
$TDINDWG
40
0.0
9
$UCSORG
10
0.0
20
0.0
30
0.0
9
$UCSXDIR
10
1.0
20
0.0
30
0.0
9
$UCSYDIR
10
0.0
20
1.0
30
0.0
9
$DIMADEC
70
0
9
$DIMALT
70
0
9
$DIMALTD
70
2
9
$DIMALTF
40
25.4
9
$DIMALTRND
40
0.0
9
$DIMALTTD
70
2
9
$DIMALTTZ
70
0
9
$DIMALTU
70
2
9
$DIMALTZ
70
0
9
$DIMAPOST
1

9
$DIMATFIT
70
3
9
$DIMAUNIT
70
0
9
$DIMASZ
40
0.18
9
$DIMAZIN
70
3
9
$DIMSAH
70
0
9
$DIMBLK
1

9
$DIMLDRBLK
1

9
$DIMCEN
40
0.09
9
$DIMCLRD
70
0
9
$DIMCLRE
70
0
9
$DIMCLRT
70
0
9
$DIMDEC
70
4
9
$DIMDLE
40
0.0
9
$DIMDLI
40
0.38
9
$DIMDSEP
70
46
9
$DIMEXE
40
0.18
9
$DIMEXO
40
0.0625
9
$DIMFXLON
70
0
9
$DIMFXL
40
1.0
9
$DIMGAP
40
0.09
9
$DIMJUST
70
0
9
$DIMLFAC
40
1.0
9
$DIMLUNIT
70
2
9
$DIMLWD
70
-2
9
$DIMLWE
70
-2
9
$DIMPOST
1

9
$DIMRND
40
0.0
9
$DIMSCALE
40
1.0
9
$DIMSD1
70
0
9
$DIMSD2
70
0
9
$DIMSE1
70
0
9
$DIMSE2
70
0
9
$DIMSOXD
70
0
9
$DIMTAD
70
0
9
$DIMTDEC
70
4
9
$DIMTFAC
40
1.0
9
$DIMTIH
70
0
9
$DIMTIX
70
0
9
$DIMTM
40
0.0
9
$DIMTMOVE
70
0
9
$DIMTOFL
70
0
9
$DIMTOH
70
0
9
$DIMTOL
70
0
9
$DIMLIM
70
0
9
$DIMTOLJ
70
1
9
$DIMTP
40
0.0
9
$DIMTXT
40
0.18
9
$DIMTXTDIRECTION
70
0
9
$DIMTZIN
70
0
9
$DIMZIN
70
0
9
$DIMFRAC
70
0
9
$DIMLTYPE
6
ByBlock
9
$DIMLTEX1
6
ByBlock
9
$DIMLTEX2
6
ByBlock
9
$EXTMIN
10
0.0
20
0.0
30
0.0
9
$EXTMAX
10
134926.622835516
20
325143.462119064
30
0.0
9
$LIMMIN
10
0.0
20
0.0
9
$LIMMAX
10
134926.622835516
20
325143.462119064
9
$ORTHOMODE
70
0
9
$REGENMODE
70
1
9
$FILLMODE
70
1
9
$QTEXTMODE
70
0
9
$TRACEWID
40
0.05
9
$DISPSILH
70
0
9
$SKETCHINC
40
0.1
9
$FILLETRAD
40
0.0
9
$MENU
1
.
9
$ELEVATION
40
0.0
9
$PELEVATION
40
0.0
9
$THICKNESS
40
0.0
9
$LIMCHECK
70
0
9
$CHAMFERA
40
0.0
9
$CHAMFERB
40
0.0
9
$CHAMFERC
40
0.0
9
$CHAMFERD
40
0.0
9
$SKPOLY
70
0
9
$TDUSRTIMER
40
0.0
9
$USRTIMER
70
1
9
$PLINEWID
40
0.0
9
$SPLFRAME
70
0
9
$SPLINETYPE
70
6
9
$SURFTAB1
70
6
9
$SURFTAB2
70
6
9
$SURFTYPE
70
6
9
$UCSBASE
2

9
$UCSNAME
2

9
$UCSORTHOREF
2

9
$UCSORTHOVIEW
70
0
9
$UCSORGTOP
10
0.0
20
0.0
30
0.0
9
$UCSORGBOTTOM
10
0.0
20
0.0
30
0.0
9
$UCSORGLEFT
10
0.0
20
0.0
30
0.0
9
$UCSORGRIGHT
10
0.0
20
0.0
30
0.0
9
$UCSORGFRONT
10
0.0
20
0.0
30
0.0
9
$UCSORGBACK
10
0.0
20
0.0
30
0.0
9
$PUCSBASE
2

9
$PUCSNAME
2

9
$PUCSORG
10
0.0
20
0.0
30
0.0
9
$PUCSXDIR
10
1.0
20
0.0
30
0.0
9
$PUCSYDIR
10
0.0
20
1.0
30
0.0
9
$PUCSORTHOREF
2

9
$PUCSORTHOVIEW
70
0
9
$PUCSORGTOP
10
0.0
20
0.0
30
0.0
9
$PUCSORGBOTTOM
10
0.0
20
0.0
30
0.0
9
$PUCSORGLEFT
10
0.0
20
0.0
30
0.0
9
$PUCSORGRIGHT
10
0.0
20
0.0
30
0.0
9
$PUCSORGFRONT
10
0.0
20
0.0
30
0.0
9
$PUCSORGBACK
10
0.0
20
0.0
30
0.0
9
$USERI1
70
0
9
$USERI2
70
0
9
$USERI3
70
0
9
$USERI4
70
0
9
$USERI5
70
0
9
$USERR1
40
0.0
9
$USERR2
40
0.0
9
$USERR3
40
0.0
9
$USERR4
40
0.0
9
$USERR5
40
0.0
9
$WORLDVIEW
70
1
9
$SHADEDGE
70
3
9
$SHADEDIF
70
70
9
$TILEMODE
70
1
9
$MAXACTVP
70
64
9
$PINSBASE
10
0.0
20
0.0
30
0.0
9
$PLIMCHECK
70
0
9
$PEXTMIN
10
0.0
20
0.0
30
0.0
9
$PEXTMAX
10
134926.622835516
20
325143.462119064
30
0.0
9
$PLIMMIN
10
0.0
20
0.0
9
$PLIMMAX
10
134926.622835516
20
325143.462119064
9
$UNITMODE
70
0
9
$VISRETAIN
70
1
9
$TREEDEPTH
70
3020
9
$PROXYGRAPHICS
70
1
9
$MEASUREMENT
70
1
9
$ENDCAPS
280
0
9
$JOINSTYLE
280
0
9
$HYPERLINKBASE
1

9
$STYLESHEET
1

9
$XEDIT
290
1
9
$CEPSNTYPE
380
0
9
$PSTYLEMODE
290
1
9
$FINGERPRINTGUID
2
{B8FEA230-FA30-4440-AAC6-15784ADC77E5}
9
$VERSIONGUID
2
{DAB721F6-9A46-2341-854A-6B9ED4B89183}
9
$PSVPSCALE
40
0.0
9
$OLESTARTUP
290
0
0
ENDSEC
0
SECTION
2
CLASSES
0
CLASS
1
RASTERVARIABLES
2
AcDbRasterVariables
3
ISM
90
0
280
0
281
0
0
ENDSEC
0
SECTION
2
TABLES
0
TABLE
2
APPID
5
9
330
0
100
AcDbSymbolTable
70
7
0
APPID
5
56
330
9
100
AcDbSymbolTableRecord
100
AcDbRegAppTableRecord
2
ACAD
70
0
0
APPID
5
5E
330
9
100
AcDbSymbolTableRecord
100
AcDbRegAppTableRecord
2
AcadAnnotative
70
0
0
APPID
5
221
330
9
100
AcDbSymbolTableRecord
100
AcDbRegAppTableRecord
2
ACAD_MLEADERVER
70
0
0
APPID
5
23C
330
9
100
AcDbSymbolTableRecord
100
AcDbRegAppTableRecord
2
AcCmTransparency
70
0
0
APPID
5
23D
330
9
100
AcDbSymbolTableRecord
100
AcDbRegAppTableRecord
2
AcAecLayerStandard
70
0
0
APPID
5
23E
330
9
100
AcDbSymbolTableRecord
100
AcDbRegAppTableRecord
2
GradientColor1ACI
70
0
0
APPID
5
23F
330
9
100
AcDbSymbolTableRecord
100
AcDbRegAppTableRecord
2
GradientColor2ACI
70
0
0
ENDTAB
0
TABLE
2
VPORT
5
8
330
0
100
AcDbSymbolTable
70
1
0
VPORT
5
232
330
8
100
AcDbSymbolTableRecord
100
AcDbViewportTableRecord
2
*Active
70
0
10
0.0
20
0.0
11
1.0
21
1.0
12
507.065580357362
22
116.684291408613
13
0.0
23
0.0
14
0.5
24
0.5
15
10.0
25
10.0
16
0.0
26
0.0
36
1.0
17
0.0
27
0.0
37
0.0
40
1111.198
41
1.0
75
0
76
1
0
ENDTAB
0
TABLE
2
LTYPE
5
5
330
0
100
AcDbSymbolTable
70
48
0
LTYPE
5
5B
330
5
100
AcDbSymbolTableRecord
100
AcDbLinetypeTableRecord
2
ByBlock
70
0
3

72
65
73
0
40
0.0
0
LTYPE
5
5C
330
5
100
AcDbSymbolTableRecord
100
AcDbLinetypeTableRecord
2
ByLayer
70
0
3

72
65
73
0
40
0.0
0
LTYPE
5
5D
330
5
100
AcDbSymbolTableRecord
100
AcDbLinetypeTableRecord
2
Continuous
70
0
3
Solid line
72
65
73
0
40
0.0
0
LTYPE
5
78
330
5
100
AcDbSymbolTableRecord
100
AcDbLinetypeTableRecord
2
BORDER
70
0
3
Border __ __ . __ __ . __ __ . __ __ . __ __ .
72
65
73
6
40
1.75
49
0.5
74
0
49
-0.25
74
0
49
0.5
74
0
49
-0.25
74
0
49
0.0
74
0
49
-0.25
74
0
0
LTYPE
5
79
330
5
100
AcDbSymbolTableRecord
100
AcDbLinetypeTableRecord
2
BORDER2
70
0
3
Border (.5x) __.__.__.__.__.__.__.__.__.__.__.
72
65
73
6
40
0.875
49
0.25
74
0
49
-0.125
74
0
49
0.25
74
0
49
-0.125
74
0
49
0.0
74
0
49
-0.125
74
0
0
LTYPE
5
7A
330
5
100
AcDbSymbolTableRecord
100
AcDbLinetypeTableRecord
2
BORDERX2
70
0
3
Border (2x) ____  ____  .  ____  ____  .  ___
72
65
73
6
40
3.5
49
1.0
74
0
49
-0.5
74
0
49
1.0
74
0
49
-0.5
74
0
49
0.0
74
0
49
-0.5
74
0
0
LTYPE
5
7B
330
5
100
AcDbSymbolTableRecord
100
AcDbLinetypeTableRecord
2
CENTER
70
0
3
Center ____ _ ____ _ ____ _ ____ _ ____ _ ____
72
65
73
4
40
2.0
49
1.25
74
0
49
-0.25
74
0
49
0.25
74
0
49
-0.25
74
0
0
LTYPE
5
7C
330
5
100
AcDbSymbolTableRecord
100
AcDbLinetypeTableRecord
2
CENTER2
70
0
3
Center (.5x) ___ _ ___ _ ___ _ ___ _ ___ _ ___
72
65
73
4
40
1.125
49
0.75
74
0
49
-0.125
74
0
49
0.125
74
0
49
-0.125
74
0
0
LTYPE
5
7D
330
5
100
AcDbSymbolTableRecord
100
AcDbLinetypeTableRecord
2
CENTERX2
70
0
3
Center (2x) ________  __  ________  __  _____
72
65
73
4
40
4.0
49
2.5
74
0
49
-0.5
74
0
49
0.5
74
0
49
-0.5
74
0
0
LTYPE
5
7E
330
5
100
AcDbSymbolTableRecord
100
AcDbLinetypeTableRecord
2
DASHDOT
70
0
3
Dash dot __ . __ . __ . __ . __ . __ . __ . __
72
65
73
4
40
1.0
49
0.5
74
0
49
-0.25
74
0
49
0.0
74
0
49
-0.25
74
0
0
LTYPE
5
7F
330
5
100
AcDbSymbolTableRecord
100
AcDbLinetypeTableRecord
2
DASHDOT2
70
0
3
Dash dot (.5x) _._._._._._._._._._._._._._._.
72
65
73
4
40
0.5
49
0.25
74
0
49
-0.125
74
0
49
0.0
74
0
49
-0.125
74
0
0
LTYPE
5
80
330
5
100
AcDbSymbolTableRecord
100
AcDbLinetypeTableRecord
2
DASHDOTX2
70
0
3
Dash dot (2x) ____  .  ____  .  ____  .  ___
72
65
73
4
40
2.0
49
1.0
74
0
49
-0.5
74
0
49
0.0
74
0
49
-0.5
74
0
0
LTYPE
5
81
330
5
100
AcDbSymbolTableRecord
100
AcDbLinetypeTableRecord
2
DASHED
70
0
3
Dashed __ __ __ __ __ __ __ __ __ __ __ __ __ _
72
65
73
2
40
0.75
49
0.5
74
0
49
-0.25
74
0
0
LTYPE
5
82
330
5
100
AcDbSymbolTableRecord
100
AcDbLinetypeTableRecord
2
DASHED2
70
0
3
Dashed (.5x) _ _ _ _ _ _ _ _ _ _ _ _ _ _ _ _ _
72
65
73
2
40
0.375
49
0.25
74
0
49
-0.125
74
0
0
LTYPE
5
83
330
5
100
AcDbSymbolTableRecord
100
AcDbLinetypeTableRecord
2
DASHEDX2
70
0
3
Dashed (2x) ____  ____  ____  ____  ____  ___
72
65
73
2
40
1.5
49
1.0
74
0
49
-0.5
74
0
0
LTYPE
5
84
330
5
100
AcDbSymbolTableRecord
100
AcDbLinetypeTableRecord
2
DIVIDE
70
0
3
Divide ____ . . ____ . . ____ . . ____ . . ____
72
65
73
6
40
1.25
49
0.5
74
0
49
-0.25
74
0
49
0.0
74
0
49
-0.25
74
0
49
0.0
74
0
49
-0.25
74
0
0
LTYPE
5
85
330
5
100
AcDbSymbolTableRecord
100
AcDbLinetypeTableRecord
2
DIVIDE2
70
0
3
Divide (.5x) __..__..__..__..__..__..__..__.._
72
65
73
6
40
0.625
49
0.25
74
0
49
-0.125
74
0
49
0.0
74
0
49
-0.125
74
0
49
0.0
74
0
49
-0.125
74
0
0
LTYPE
5
86
330
5
100
AcDbSymbolTableRecord
100
AcDbLinetypeTableRecord
2
DIVIDEX2
70
0
3
Divide (2x) ________  .  .  ________  .  .  _
72
65
73
6
40
2.5
49
1.0
74
0
49
-0.5
74
0
49
0.0
74
0
49
-0.5
74
0
49
0.0
74
0
49
-0.5
74
0
0
LTYPE
5
87
330
5
100
AcDbSymbolTableRecord
100
AcDbLinetypeTableRecord
2
DOT
70
0
3
Dot . . . . . . . . . . . . . . . . . . . . . .
72
65
73
2
40
0.25
49
0.0
74
0
49
-0.25
74
0
0
LTYPE
5
88
330
5
100
AcDbSymbolTableRecord
100
AcDbLinetypeTableRecord
2
DOT2
70
0
3
Dot (.5x) .....................................
72
65
73
2
40
0.125
49
0.0
74
0
49
-0.125
74
0
0
LTYPE
5
89
330
5
100
AcDbSymbolTableRecord
100
AcDbLinetypeTableRecord
2
DOTX2
70
0
3
Dot (2x) .  .  .  .  .  .  .  .  .  .  .  .  . 
72
65
73
2
40
0.5
49
0.0
74
0
49
-0.5
74
0
0
LTYPE
5
8A
330
5
100
AcDbSymbolTableRecord
100
AcDbLinetypeTableRecord
2
HIDDEN
70
0
3
Hidden __ __ __ __ __ __ __ __ __ __ __ __ __ _
72
65
73
2
40
0.375
49
0.25
74
0
49
-0.125
74
0
0
LTYPE
5
8B
330
5
100
AcDbSymbolTableRecord
100
AcDbLinetypeTableRecord
2
HIDDEN2
70
0
3
Hidden (.5x) _ _ _ _ _ _ _ _ _ _ _ _ _ _ _ _ _
72
65
73
2
40
0.1875
49
0.125
74
0
49
-0.0625
74
0
0
LTYPE
5
8C
330
5
100
AcDbSymbolTableRecord
100
AcDbLinetypeTableRecord
2
HIDDENX2
70
0
3
Hidden (2x) ____ ____ ____ ____ ____ ____ ____
72
65
73
2
40
0.75
49
0.5
74
0
49
-0.25
74
0
0
LTYPE
5
8D
330
5
100
AcDbSymbolTableRecord
100
AcDbLinetypeTableRecord
2
PHANTOM
70
0
3
Phantom ______  __  __  ______  __  __  ______
72
65
73
6
40
2.5
49
1.25
74
0
49
-0.25
74
0
49
0.25
74
0
49
-0.25
74
0
49
0.25
74
0
49
-0.25
74
0
0
LTYPE
5
8E
330
5
100
AcDbSymbolTableRecord
100
AcDbLinetypeTableRecord
2
PHANTOM2
70
0
3
Phantom (.5x) ___ _ _ ___ _ _ ___ _ _ ___ _ _
72
65
73
6
40
1.25
49
0.625
74
0
49
-0.125
74
0
49
0.125
74
0
49
-0.125
74
0
49
0.125
74
0
49
-0.125
74
0
0
LTYPE
5
8F
330
5
100
AcDbSymbolTableRecord
100
AcDbLinetypeTableRecord
2
PHANTOMX2
70
0
3
Phantom (2x) ____________    ____    ____   _
72
65
73
6
40
5.0
49
2.5
74
0
49
-0.5
74
0
49
0.5
74
0
49
-0.5
74
0
49
0.5
74
0
49
-0.5
74
0
0
LTYPE
5
90
330
5
100
AcDbSymbolTableRecord
100
AcDbLinetypeTableRecord
2
ACAD_ISO02W100
70
0
3
ISO dash __ __ __ __ __ __ __ __ __ __ __ __ __
72
65
73
2
40
15.0
49
12.0
74
0
49
-3.0
74
0
0
LTYPE
5
91
330
5
100
AcDbSymbolTableRecord
100
AcDbLinetypeTableRecord
2
ACAD_ISO03W100
70
0
3
ISO dash space __    __    __    __    __    __
72
65
73
2
40
30.0
49
12.0
74
0
49
-18.0
74
0
0
LTYPE
5
92
330
5
100
AcDbSymbolTableRecord
100
AcDbLinetypeTableRecord
2
ACAD_ISO04W100
70
0
3
ISO long-dash dot ____ . ____ . ____ . ____ . _
72
65
73
4
40
30.0
49
24.0
74
0
49
-3.0
74
0
49
0.0
74
0
49
-3.0
74
0
0
LTYPE
5
93
330
5
100
AcDbSymbolTableRecord
100
AcDbLinetypeTableRecord
2
ACAD_ISO05W100
70
0
3
ISO long-dash double-dot ____ .. ____ .. ____ .
72
65
73
6
40
33.0
49
24.0
74
0
49
-3.0
74
0
49
0.0
74
0
49
-3.0
74
0
49
0.0
74
0
49
-3.0
74
0
0
LTYPE
5
94
330
5
100
AcDbSymbolTableRecord
100
AcDbLinetypeTableRecord
2
ACAD_ISO06W100
70
0
3
ISO long-dash triple-dot ____ ... ____ ... ____
72
65
73
8
40
36.0
49
24.0
74
0
49
-3.0
74
0
49
0.0
74
0
49
-3.0
74
0
49
0.0
74
0
49
-3.0
74
0
49
0.0
74
0
49
-3.0
74
0
0
LTYPE
5
95
330
5
100
AcDbSymbolTableRecord
100
AcDbLinetypeTableRecord
2
ACAD_ISO07W100
70
0
3
ISO dot . . . . . . . . . . . . . . . . . . . .
72
65
73
2
40
3.0
49
0.0
74
0
49
-3.0
74
0
0
LTYPE
5
96
330
5
100
AcDbSymbolTableRecord
100
AcDbLinetypeTableRecord
2
ACAD_ISO08W100
70
0
3
ISO long-dash short-dash ____ __ ____ __ ____ _
72
65
73
4
40
36.0
49
24.0
74
0
49
-3.0
74
0
49
6.0
74
0
49
-3.0
74
0
0
LTYPE
5
97
330
5
100
AcDbSymbolTableRecord
100
AcDbLinetypeTableRecord
2
ACAD_ISO09W100
70
0
3
ISO long-dash double-short-dash ____ __ __ ____
72
65
73
6
40
45.0
49
24.0
74
0
49
-3.0
74
0
49
6.0
74
0
49
-3.0
74
0
49
6.0
74
0
49
-3.0
74
0
0
LTYPE
5
98
330
5
100
AcDbSymbolTableRecord
100
AcDbLinetypeTableRecord
2
ACAD_ISO10W100
70
0
3
ISO dash dot __ . __ . __ . __ . __ . __ . __ .
72
65
73
4
40
18.0
49
12.0
74
0
49
-3.0
74
0
49
0.0
74
0
49
-3.0
74
0
0
LTYPE
5
99
330
5
100
AcDbSymbolTableRecord
100
AcDbLinetypeTableRecord
2
ACAD_ISO11W100
70
0
3
ISO double-dash dot __ __ . __ __ . __ __ . __ 
72
65
73
6
40
33.0
49
12.0
74
0
49
-3.0
74
0
49
12.0
74
0
49
-3.0
74
0
49
0.0
74
0
49
-3.0
74
0
0
LTYPE
5
9A
330
5
100
AcDbSymbolTableRecord
100
AcDbLinetypeTableRecord
2
ACAD_ISO12W100
70
0
3
ISO dash double-dot __ . . __ . . __ . . __ . .
72
65
73
6
40
21.0
49
12.0
74
0
49
-3.0
74
0
49
0.0
74
0
49
-3.0
74
0
49
0.0
74
0
49
-3.0
74
0
0
LTYPE
5
9B
330
5
100
AcDbSymbolTableRecord
100
AcDbLinetypeTableRecord
2
ACAD_ISO13W100
70
0
3
ISO double-dash double-dot __ __ . . __ __ . . 
72
65
73
8
40
36.0
49
12.0
74
0
49
-3.0
74
0
49
12.0
74
0
49
-3.0
74
0
49
0.0
74
0
49
-3.0
74
0
49
0.0
74
0
49
-3.0
74
0
0
LTYPE
5
9C
330
5
100
AcDbSymbolTableRecord
100
AcDbLinetypeTableRecord
2
ACAD_ISO14W100
70
0
3
ISO dash triple-dot __ . . . __ . . . __ . . . 
72
65
73
8
40
24.0
49
12.0
74
0
49
-3.0
74
0
49
0.0
74
0
49
-3.0
74
0
49
0.0
74
0
49
-3.0
74
0
49
0.0
74
0
49
-3.0
74
0
0
LTYPE
5
9D
330
5
100
AcDbSymbolTableRecord
100
AcDbLinetypeTableRecord
2
ACAD_ISO15W100
70
0
3
ISO double-dash triple-dot __ __ . . . __ __ . 
72
65
73
10
40
39.0
49
12.0
74
0
49
-3.0
74
0
49
12.0
74
0
49
-3.0
74
0
49
0.0
74
0
49
-3.0
74
0
49
0.0
74
0
49
-3.0
74
0
49
0.0
74
0
49
-3.0
74
0
0
LTYPE
5
A0
330
5
100
AcDbSymbolTableRecord
100
AcDbLinetypeTableRecord
2
FENCELINE1
70
0
3
Fenceline circle ----0-----0----0-----0----0---
72
65
73
3
40
1.35
49
0.25
74
0
49
-0.1
74
0
49
1.0
74
0
0
LTYPE
5
A1
330
5
100
AcDbSymbolTableRecord
100
AcDbLinetypeTableRecord
2
FENCELINE2
70
0
3
Fenceline square ----[]-----[]----[]-----[]----
72
65
73
3
40
1.35
49
0.25
74
0
49
-0.1
74
0
49
1.0
74
0
0
LTYPE
5
A2
330
5
100
AcDbSymbolTableRecord
100
AcDbLinetypeTableRecord
2
TRACKS
70
0
3
Tracks -|-|-|-|-|-|-|-|-|-|-|-|-|-|-|-|-|-|-|-|
72
65
73
1
40
0.15
49
0.15
74
0
0
LTYPE
5
A3
330
5
100
AcDbSymbolTableRecord
100
AcDbLinetypeTableRecord
2
BATTING
70
0
3
Batting SSSSSSSSSSSSSSSSSSSSSSSSSSSSSSSSSSSSSSS
72
65
73
2
40
0.1001
49
0.0001
74
0
49
-0.1
74
0
0
LTYPE
5
A4
330
5
100
AcDbSymbolTableRecord
100
AcDbLinetypeTableRecord
2
HOT_WATER_SUPPLY
70
0
3
Hot water supply ---- HW ---- HW ---- HW ----
72
65
73
3
40
0.9
49
0.5
74
0
49
-0.2
74
2
75
0
340
55
46
0.1
50
0.0
44
-0.1
45
-0.05
9
HW
49
-0.2
74
0
0
LTYPE
5
A5
330
5
100
AcDbSymbolTableRecord
100
AcDbLinetypeTableRecord
2
GAS_LINE
70
0
3
Gas line ----GAS----GAS----GAS----GAS----GAS---
72
65
73
3
40
0.95
49
0.5
74
0
49
-0.2
74
2
75
0
340
55
46
0.1
50
0.0
44
-0.1
45
-0.05
9
GAS
49
-0.25
74
0
0
LTYPE
5
A6
330
5
100
AcDbSymbolTableRecord
100
AcDbLinetypeTableRecord
2
ZIGZAG
70
0
3
Zig zag /\/\/\/\/\/\/\/\/\/\/\/\/\/\/\/\/\/\/\/
72
65
73
2
40
0.2001
49
0.0001
74
0
49
-0.2
74
0
0
ENDTAB
0
TABLE
2
LAYER
5
2
102
{ACAD_XDICTIONARY
360
233
102
}
330
0
100
AcDbSymbolTable
70
3
0
LAYER
5
54
330
2
100
AcDbSymbolTableRecord
100
AcDbLayerTableRecord
2
0
70
0
62
7
6
Continuous
290
1
370
-3
390
0
0
LAYER
5
A7
330
2
100
AcDbSymbolTableRecord
100
AcDbLayerTableRecord
2
IV_OUTER_PROFILE
70
0
62
7
6
Continuous
290
1
370
50
390
0
0
LAYER
5
A8
330
2
100
AcDbSymbolTableRecord
100
AcDbLayerTableRecord
2
IV_BEND_DOWN
70
0
62
30
6
Continuous
290
1
370
50
390
0
0
ENDTAB
0
TABLE
2
STYLE
5
3
330
0
100
AcDbSymbolTable
70
2
0
STYLE
5
55
330
3
100
AcDbSymbolTableRecord
100
AcDbTextStyleTableRecord
2
Standard
3
txt.SHX
70
0
71
0
40
0.0
41
1.0
42
0.0
50
0.0
0
STYLE
5
5A
330
3
100
AcDbSymbolTableRecord
100
AcDbTextStyleTableRecord
2
Annotative
3
txt.SHX
70
0
71
0
40
0.0
41
1.0
42
0.0
50
0.0
1001
AcadAnnotative
1000
AnnotativeData
1002
{
1070
1
1070
1
1002
}
0
STYLE
5
9F
330
234
100
AcDbSymbolTableRecord
100
AcDbTextStyleTableRecord
2

3
ltypeshp.shx
70
1
40
0.0
41
1.0
42
0.0
50
0.0
0
ENDTAB
0
TABLE
2
DIMSTYLE
5
A
330
0
100
AcDbSymbolTable
70
2
100
AcDbDimStyleTable
0
DIMSTYLE
105
58
330
A
100
AcDbSymbolTableRecord
100
AcDbDimStyleTableRecord
2
Standard
3

4

40
1.0
41
0.18
42
0.0625
43
0.38
44
0.18
45
0.0
46
0.0
47
0.0
48
0.0
49
1.0
70
0
71
0
72
0
73
0
74
0
75
0
76
0
77
0
78
0
79
3
140
0.18
141
0.09
143
25.4
144
1.0
146
1.0
147
0.09
148
0.0
170
0
171
2
172
0
174
0
175
0
176
0
177
0
178
0
179
0
271
4
272
4
273
2
274
2
275
0
276
0
277
2
278
46
279
0
280
0
281
0
282
0
283
1
284
0
285
0
286
0
289
3
290
0
294
0
340
55
173
0
345
5B
346
5B
347
5B
371
-2
372
-2
0
DIMSTYLE
105
59
330
A
100
AcDbSymbolTableRecord
100
AcDbDimStyleTableRecord
2
Annotative
3

4

40
1.0
41
0.18
42
0.0625
43
0.38
44
0.18
45
0.0
46
0.0
47
0.0
48
0.0
49
1.0
70
0
71
0
72
0
73
0
74
0
75
0
76
0
77
0
78
0
79
3
140
0.18
141
0.09
143
25.4
144
1.0
146
1.0
147
0.09
148
0.0
170
0
171
2
172
0
174
0
175
0
176
0
177
0
178
0
179
0
271
4
272
4
273
2
274
2
275
0
276
0
277
2
278
46
279
0
280
0
281
0
282
0
283
1
284
0
285
0
286
0
289
3
290
0
294
0
340
55
173
0
345
5B
346
5B
347
5B
371
-2
372
-2
1001
AcadAnnotative
1000
AnnotativeData
1002
{
1070
1
1070
1
1002
}
0
ENDTAB
0
TABLE
2
VIEW
5
6
330
0
100
AcDbSymbolTable
70
0
0
ENDTAB
0
TABLE
2
UCS
5
7
330
0
100
AcDbSymbolTable
70
0
0
ENDTAB
0
TABLE
2
BLOCK_RECORD
5
1
330
0
100
AcDbSymbolTable
70
3
0
BLOCK_RECORD
5
70
330
1
100
AcDbSymbolTableRecord
100
AcDbBlockTableRecord
2
*Model_Space
340
73
0
BLOCK_RECORD
5
6C
330
1
100
AcDbSymbolTableRecord
100
AcDbBlockTableRecord
2
*Paper_Space
340
6F
0
BLOCK_RECORD
5
74
330
1
100
AcDbSymbolTableRecord
100
AcDbBlockTableRecord
2
*Paper_Space0
340
77
0
ENDTAB
0
ENDSEC
0
SECTION
2
BLOCKS
0
BLOCK
5
71
330
70
100
AcDbEntity
67
0
8
0
100
AcDbBlockBegin
2
*Model_Space
70
0
10
0.0
20
0.0
30
0.0
3
*Model_Space
4

0
ENDBLK
5
72
330
70
100
AcDbEntity
8
0
100
AcDbBlockEnd
0
BLOCK
5
6D
330
6C
100
AcDbEntity
67
1
8
0
100
AcDbBlockBegin
2
*Paper_Space
70
0
10
0.0
20
0.0
30
0.0
3
*Paper_Space
4

0
ENDBLK
5
6E
330
6C
100
AcDbEntity
8
0
100
AcDbBlockEnd
0
BLOCK
5
75
330
74
100
AcDbEntity
67
1
8
0
100
AcDbBlockBegin
2
*Paper_Space0
70
0
10
0.0
20
0.0
30
0.0
3
*Paper_Space0
4

0
VIEWPORT
5
23B
330
74
100
AcDbEntity
67
1
8
0
62
256
6
ByLayer
370
-1
48
1.0
60
0
100
AcDbViewport
10
0.0
20
0.0
30
0.0
40
297.0
41
210.0
68
1
69
1
12
50.0
22
100.0
13
0.0
23
0.0
14
10.0
24
10.0
15
10.0
25
10.0
16
0.0
26
0.0
36
1.0
17
0.0
27
0.0
37
0.0
42
50.0
43
0.0
44
0.0
45
250.0
50
0.0
51
0.0
72
1000
90
819232
110
0.0
120
0.0
130
0.0
111
1.0
121
0.0
131
0.0
112
0.0
122
1.0
132
0.0
0
ENDBLK
5
76
330
74
100
AcDbEntity
8
0
100
AcDbBlockEnd
0
ENDSEC
0
SECTION
2
ENTITIES
0
VIEWPORT
5
23A
330
6C
100
AcDbEntity
67
1
8
0
62
256
6
ByLayer
370
-1
48
1.0
60
0
100
AcDbViewport
10
0.0
20
0.0
30
0.0
40
297.0
41
210.0
68
1
69
1
12
50.0
22
100.0
13
0.0
23
0.0
14
10.0
24
10.0
15
10.0
25
10.0
16
0.0
26
0.0
36
1.0
17
0.0
27
0.0
37
0.0
42
50.0
43
0.0
44
0.0
45
250.0
50
0.0
51
0.0
72
1000
90
819232
110
0.0
120
0.0
130
0.0
111
1.0
121
0.0
131
0.0
112
0.0
122
1.0
132
0.0
0
LINE
5
A9
330
70
100
AcDbEntity
67
0
8
IV_BEND_DOWN
62
256
6
ByLayer
370
-1
48
1.0
60
0
100
AcDbLine
10
507.065578662848
20
233.368567881349
30
0.0
11
507.065578662848
21
0.0000001000000083
31
0.0
39
0.0
210
0.0
220
0.0
230
1.0
0
ARC
5
AB
330
70
100
AcDbEntity
67
0
8
IV_OUTER_PROFILE
62
256
6
ByLayer
370
-1
48
1.0
60
0
100
AcDbCircle
39
0.0
10
1.7006312567661
20
484.7866783849
30
0.0
40
384.786675471256
210
0.0
220
0.0
230
1.0
100
AcDbArc
50
270.040853022316
51
270.56667762354
0
ARC
5
AC
330
70
100
AcDbEntity
67
0
8
IV_OUTER_PROFILE
62
256
6
ByLayer
370
-1
48
1.0
60
0
100
AcDbCircle
39
0.0
10
1.68677687203499
20
486.818198009559
30
0.0
40
386.818232808628
210
0.0
220
0.0
230
1.0
100
AcDbArc
50
270.565753574554
51
271.088863722533
0
ARC
5
AD
330
70
100
AcDbEntity
67
0
8
IV_OUTER_PROFILE
62
256
6
ByLayer
370
-1
48
1.0
60
0
100
AcDbCircle
39
0.0
10
1.65250162039811
20
488.96691385719
30
0.0
40
388.967212042767
210
0.0
220
0.0
230
1.0
100
AcDbArc
50
271.087896943706
51
271.608206751521
0
ARC
5
AE
330
70
100
AcDbEntity
67
0
8
IV_OUTER_PROFILE
62
256
6
ByLayer
370
-1
48
1.0
60
0
100
AcDbCircle
39
0.0
10
1.59576676836313
20
491.232979918888
30
0.0
40
391.233977827192
210
0.0
220
0.0
230
1.0
100
AcDbArc
50
271.607198564332
51
272.124624922085
0
ARC
5
AF
330
70
100
AcDbEntity
67
0
8
IV_OUTER_PROFILE
62
256
6
ByLayer
370
-1
48
1.0
60
0
100
AcDbCircle
39
0.0
10
1.51454535572849
20
493.616561849078
30
0.0
40
393.618932373782
210
0.0
220
0.0
230
1.0
100
AcDbArc
50
272.123576669549
51
272.638039286485
0
ARC
5
B0
330
70
100
AcDbEntity
67
0
8
IV_OUTER_PROFILE
62
256
6
ByLayer
370
-1
48
1.0
60
0
100
AcDbCircle
39
0.0
10
1.40682180309433
20
496.11783732728
30
0.0
40
396.122515259553
210
0.0
220
0.0
230
1.0
100
AcDbArc
50
272.636952329984
51
273.148373770004
0
ARC
5
B1
330
70
100
AcDbEntity
67
0
8
IV_OUTER_PROFILE
62
256
6
ByLayer
370
-1
48
1.0
60
0
100
AcDbCircle
39
0.0
10
1.2705915163453
20
498.736996282902
30
0.0
40
398.7452030999
210
0.0
220
0.0
230
1.0
100
AcDbArc
50
273.147249486142
51
273.655555196998
0
ARC
5
B2
330
70
100
AcDbEntity
67
0
8
IV_OUTER_PROFILE
62
256
6
ByLayer
370
-1
48
1.0
60
0
100
AcDbCircle
39
0.0
10
1.10386047723257
20
501.474241271321
30
0.0
40
401.48750937757
210
0.0
220
0.0
230
1.0
100
AcDbArc
50
273.654394974486
51
274.159513310575
0
ARC
5
B3
330
70
100
AcDbEntity
67
0
8
IV_OUTER_PROFILE
62
256
6
ByLayer
370
-1
48
1.0
60
0
100
AcDbCircle
39
0.0
10
0.904644825729774
20
504.3297878094
30
0.0
40
404.349984236178
210
0.0
220
0.0
230
1.0
100
AcDbArc
50
274.15831854722
51
274.660180786195
0
ARC
5
B4
330
70
100
AcDbEntity
67
0
8
IV_OUTER_PROFILE
62
256
6
ByLayer
370
-1
48
1.0
60
0
100
AcDbCircle
39
0.0
10
0.670970437890452
20
507.303864660501
30
0.0
40
407.333214228887
210
0.0
220
0.0
230
1.0
100
AcDbArc
50
274.658952885929
51
275.157493239344
0
ARC
5
B5
330
70
100
AcDbEntity
67
0
8
IV_OUTER_PROFILE
62
256
6
ByLayer
370
-1
48
1.0
60
0
100
AcDbCircle
39
0.0
10
0.400872482609764
20
510.396714280277
30
0.0
40
410.437822234909
210
0.0
220
0.0
230
1.0
100
AcDbArc
50
275.156233609358
51
275.651389227347
0
ARC
5
B6
330
70
100
AcDbEntity
67
0
8
IV_OUTER_PROFILE
62
256
6
ByLayer
370
-1
48
1.0
60
0
100
AcDbCircle
39
0.0
10
0.0923949798179358
20
513.608593113659
30
0.0
40
413.664467234104
210
0.0
220
0.0
230
1.0
100
AcDbArc
50
275.65009927533
51
276.141810245698
0
ARC
5
B7
330
70
100
AcDbEntity
67
0
8
IV_OUTER_PROFILE
62
256
6
ByLayer
370
-1
48
1.0
60
0
100
AcDbCircle
39
0.0
10
-0.256409659485888
20
516.939772001796
30
0.0
40
417.013844199901
210
0.0
220
0.0
230
1.0
100
AcDbArc
50
276.140491377151
51
276.62870071897
0
ARC
5
B8
330
70
100
AcDbEntity
67
0
8
IV_OUTER_PROFILE
62
256
6
ByLayer
370
-1
48
1.0
60
0
100
AcDbCircle
39
0.0
10
-0.647481099217089
20
520.390536546098
30
0.0
40
420.486683957849
210
0.0
220
0.0
230
1.0
100
AcDbArc
50
276.627354334628
51
277.112007986609
0
ARC
5
B9
330
70
100
AcDbEntity
67
0
8
IV_OUTER_PROFILE
62
256
6
ByLayer
370
-1
48
1.0
60
0
100
AcDbCircle
39
0.0
10
-1.08275156449548
20
523.961187563051
30
0.0
40
424.083753144904
210
0.0
220
0.0
230
1.0
100
AcDbArc
50
277.11063547999
51
277.59168228378
0
ARC
5
BA
330
70
100
AcDbEntity
67
0
8
IV_OUTER_PROFILE
62
256
6
ByLayer
370
-1
48
1.0
60
0
100
AcDbCircle
39
0.0
10
-1.56414632503106
20
527.652041424283
30
0.0
40
427.805854063232
210
0.0
220
0.0
230
1.0
100
AcDbArc
50
277.590285038835
51
278.067676717615
0
ARC
5
BB
330
70
100
AcDbEntity
67
0
8
IV_OUTER_PROFILE
62
256
6
ByLayer
370
-1
48
1.0
60
0
100
AcDbCircle
39
0.0
10
-2.09358421031136
20
531.463430569255
30
0.0
40
431.653824718634
210
0.0
220
0.0
230
1.0
100
AcDbArc
50
278.066256106498
51
278.539947238951
0
ARC
5
BC
330
70
100
AcDbEntity
67
0
8
IV_OUTER_PROFILE
62
256
6
ByLayer
370
-1
48
1.0
60
0
100
AcDbCircle
39
0.0
10
-2.67297812421935
20
535.395703917049
30
0.0
40
435.628538768726
210
0.0
220
0.0
230
1.0
100
AcDbArc
50
278.538504619944
51
279.008452609971
0
ARC
5
BD
330
70
100
AcDbEntity
67
0
8
IV_OUTER_PROFILE
62
256
6
ByLayer
370
-1
48
1.0
60
0
100
AcDbCircle
39
0.0
10
-3.30423556897324
20
539.44922727779
30
0.0
40
439.730905482414
210
0.0
220
0.0
230
1.0
100
AcDbArc
50
279.006989325486
51
279.473154367938
0
ARC
5
BE
330
70
100
AcDbEntity
67
0
8
IV_OUTER_PROFILE
62
256
6
ByLayer
370
-1
48
1.0
60
0
100
AcDbCircle
39
0.0
10
-3.98925919886304
20
543.624383885545
30
0.0
40
443.961869834702
210
0.0
220
0.0
230
1.0
100
AcDbArc
50
279.471671742651
51
279.934016785227
0
ARC
5
BF
330
70
100
AcDbEntity
67
0
8
IV_OUTER_PROFILE
62
256
6
ByLayer
370
-1
48
1.0
60
0
100
AcDbCircle
39
0.0
10
-4.72994738246403
20
547.921574896968
30
0.0
40
448.322412580189
210
0.0
220
0.0
230
1.0
100
AcDbArc
50
279.932516124371
51
280.391006825988
0
ARC
5
C0
330
70
100
AcDbEntity
67
0
8
IV_OUTER_PROFILE
62
256
6
ByLayer
370
-1
48
1.0
60
0
100
AcDbCircle
39
0.0
10
-5.4902794732588
20
552.143380299132
30
0.0
40
452.612116820505
210
0.0
220
0.0
230
1.0
100
AcDbArc
50
280.389284905304
51
280.844091758701
0
ARC
5
C1
330
70
100
AcDbEntity
67
0
8
IV_OUTER_PROFILE
62
256
6
ByLayer
370
-1
48
1.0
60
0
100
AcDbCircle
39
0.0
10
-6.99454187752378
20
560.104506233571
30
0.0
40
460.714087158151
210
0.0
220
0.0
230
1.0
100
AcDbArc
50
280.841556829582
51
281.289036008624
0
ARC
5
C2
330
70
100
AcDbEntity
67
0
8
IV_OUTER_PROFILE
62
256
6
ByLayer
370
-1
48
1.0
60
0
100
AcDbCircle
39
0.0
10
-8.8812992532683
20
569.686089413396
30
0.0
40
470.47963663999
210
0.0
220
0.0
230
1.0
100
AcDbArc
50
281.28593987774
51
281.724803019334
0
ARC
5
C3
330
70
100
AcDbEntity
67
0
8
IV_OUTER_PROFILE
62
256
6
ByLayer
370
-1
48
1.0
60
0
100
AcDbCircle
39
0.0
10
-10.9182153089914
20
579.628093283048
30
0.0
40
480.628124743006
210
0.0
220
0.0
230
1.0
100
AcDbArc
50
281.721714207074
51
282.151982429939
0
ARC
5
C4
330
70
100
AcDbEntity
67
0
8
IV_OUTER_PROFILE
62
256
6
ByLayer
370
-1
48
1.0
60
0
100
AcDbCircle
39
0.0
10
-13.1125937750156
20
589.944245437048
30
0.0
40
491.175048946532
210
0.0
220
0.0
230
1.0
100
AcDbArc
50
282.148902932202
51
282.570601531081
0
ARC
5
C5
330
70
100
AcDbEntity
67
0
8
IV_OUTER_PROFILE
62
256
6
ByLayer
370
-1
48
1.0
60
0
100
AcDbCircle
39
0.0
10
-15.4721416136762
20
600.649310394185
30
0.0
40
502.137036650238
210
0.0
220
0.0
230
1.0
100
AcDbArc
50
282.567533199244
51
282.98069133729
0
ARC
5
C6
330
70
100
AcDbEntity
67
0
8
IV_OUTER_PROFILE
62
256
6
ByLayer
370
-1
48
1.0
60
0
100
AcDbCircle
39
0.0
10
-18.0050104984585
20
611.759181430107
30
0.0
40
513.531944543576
210
0.0
220
0.0
230
1.0
100
AcDbArc
50
282.977635882111
51
283.382286291516
0
ARC
5
C7
330
70
100
AcDbEntity
67
0
8
IV_OUTER_PROFILE
62
256
6
ByLayer
370
-1
48
1.0
60
0
100
AcDbCircle
39
0.0
10
-20.7198426565452
20
623.290982245051
30
0.0
40
525.378968796747
210
0.0
220
0.0
230
1.0
100
AcDbArc
50
283.37924528722
51
283.775423978658
0
ARC
5
C8
330
70
100
AcDbEntity
67
0
8
IV_OUTER_PROFILE
62
256
6
ByLayer
370
-1
48
1.0
60
0
100
AcDbCircle
39
0.0
10
-23.625821729236
20
635.263180127911
30
0.0
40
537.698767862468
210
0.0
220
0.0
230
1.0
100
AcDbArc
50
283.772398867236
51
284.160144848298
0
ARC
5
C9
330
70
100
AcDbEntity
67
0
8
IV_OUTER_PROFILE
62
256
6
ByLayer
370
-1
48
1.0
60
0
100
AcDbCircle
39
0.0
10
-26.7327291842451
20
647.695711581992
30
0.0
40
550.513598976421
210
0.0
220
0.0
230
1.0
100
AcDbArc
50
284.157136943993
51
284.536491947116
0
ARC
5
CA
330
70
100
AcDbEntity
67
0
8
IV_OUTER_PROFILE
62
256
6
ByLayer
370
-1
48
1.0
60
0
100
AcDbCircle
39
0.0
10
-30.0510070739534
20
660.610122324671
30
0.0
40
563.847470429685
210
0.0
220
0.0
230
1.0
100
AcDbArc
50
284.533502440983
51
284.904510661118
0
ARC
5
CB
330
70
100
AcDbEntity
67
0
8
IV_OUTER_PROFILE
62
256
6
ByLayer
370
-1
48
1.0
60
0
100
AcDbCircle
39
0.0
10
-33.5918280533877
20
674.029723802963
30
0.0
40
577.72631194239
210
0.0
220
0.0
230
1.0
100
AcDbArc
50
284.901540625668
51
285.264248467716
0
ARC
5
CC
330
70
100
AcDbEntity
67
0
8
IV_OUTER_PROFILE
62
256
6
ByLayer
370
-1
48
1.0
60
0
100
AcDbCircle
39
0.0
10
-37.367173552687
20
687.979768075233
30
0.0
40
592.178165185159
210
0.0
220
0.0
230
1.0
100
AcDbArc
50
285.261298861618
51
285.615754697894
0
ARC
5
CD
330
70
100
AcDbEntity
67
0
8
IV_OUTER_PROFILE
62
256
6
ByLayer
370
-1
48
1.0
60
0
100
AcDbCircle
39
0.0
10
-41.3899213803553
20
702.487644133221
30
0.0
40
607.233397780639
210
0.0
220
0.0
230
1.0
100
AcDbArc
50
285.612826370675
51
285.959080308324
0
ARC
5
CE
330
70
100
AcDbEntity
67
0
8
IV_OUTER_PROFILE
62
256
6
ByLayer
370
-1
48
1.0
60
0
100
AcDbCircle
39
0.0
10
-45.6739440733477
20
717.583098564547
30
0.0
40
622.92494396527
210
0.0
220
0.0
230
1.0
100
AcDbArc
50
285.956174005127
51
286.294277663437
0
ARC
5
CF
330
70
100
AcDbEntity
67
0
8
IV_OUTER_PROFILE
62
256
6
ByLayer
370
-1
48
1.0
60
0
100
AcDbCircle
39
0.0
10
-50.234219428662
20
733.2984836334
30
0.0
40
639.288575300205
210
0.0
220
0.0
230
1.0
100
AcDbArc
50
286.291394029674
51
286.621400327525
0
ARC
5
D0
330
70
100
AcDbEntity
67
0
8
IV_OUTER_PROFILE
62
256
6
ByLayer
370
-1
48
1.0
60
0
100
AcDbCircle
39
0.0
10
-55.0869554068738
20
749.669038158892
30
0.0
40
656.363207247457
210
0.0
220
0.0
230
1.0
100
AcDbArc
50
286.618539913487
51
286.940502866401
0
ARC
5
D1
330
70
100
AcDbEntity
67
0
8
IV_OUTER_PROFILE
62
256
6
ByLayer
370
-1
48
1.0
60
0
100
AcDbCircle
39
0.0
10
-60.2497312613543
20
766.733204964684
30
0.0
40
674.191245798428
210
0.0
220
0.0
230
1.0
100
AcDbArc
50
286.937666131854
51
287.251640658787
0
ARC
5
D2
330
70
100
AcDbEntity
67
0
8
IV_OUTER_PROFILE
62
256
6
ByLayer
370
-1
48
1.0
60
0
100
AcDbCircle
39
0.0
10
-65.741657565341
20
784.532991103586
30
0.0
40
692.818980912532
210
0.0
220
0.0
230
1.0
100
AcDbArc
50
287.248827977414
51
287.554869717136
0
ARC
5
D3
330
70
100
AcDbEntity
67
0
8
IV_OUTER_PROFILE
62
256
6
ByLayer
370
-1
48
1.0
60
0
100
AcDbCircle
39
0.0
10
-71.5835584649086
20
803.114378646057
30
0.0
40
712.297035239449
210
0.0
220
0.0
230
1.0
100
AcDbArc
50
287.55208138096
51
287.850246517455
0
ARC
5
D4
330
70
100
AcDbEntity
67
0
8
IV_OUTER_PROFILE
62
256
6
ByLayer
370
-1
48
1.0
60
0
100
AcDbCircle
39
0.0
10
-77.7981791229145
20
822.527792111504
30
0.0
40
732.680874867299
210
0.0
220
0.0
230
1.0
100
AcDbArc
50
287.847482741113
51
288.137827838398
0
ARC
5
D5
330
70
100
AcDbEntity
67
0
8
IV_OUTER_PROFILE
62
256
6
ByLayer
370
-1
48
1.0
60
0
100
AcDbCircle
39
0.0
10
-84.410423491385
20
842.828634957504
30
0.0
40
754.031395545799
210
0.0
220
0.0
230
1.0
100
AcDbArc
50
288.135088763243
51
288.417670608759
0
ARC
5
D6
330
70
100
AcDbEntity
67
0
8
IV_OUTER_PROFILE
62
256
6
ByLayer
370
-1
48
1.0
60
0
100
AcDbCircle
39
0.0
10
-91.4476269999994
20
864.077904942223
30
0.0
40
776.415595201542
210
0.0
220
0.0
230
1.0
100
AcDbArc
50
288.414956306918
51
288.689831763531
0
ARC
5
D7
330
70
100
AcDbEntity
67
0
8
IV_OUTER_PROFILE
62
256
6
ByLayer
370
-1
48
1.0
60
0
100
AcDbCircle
39
0.0
10
-98.9398706208957
20
886.342903214634
30
0.0
40
799.907348947575
210
0.0
220
0.0
230
1.0
100
AcDbArc
50
288.687142241811
51
288.954368108092
0
ARC
5
D8
330
70
100
AcDbEntity
67
0
8
IV_OUTER_PROFILE
62
256
6
ByLayer
370
-1
48
1.0
60
0
100
AcDbCircle
39
0.0
10
-111.239035076078
20
922.299984855894
30
0.0
40
837.909704746924
210
0.0
220
0.0
230
1.0
100
AcDbArc
50
288.951145647304
51
289.206646732212
0
ARC
5
D9
330
70
100
AcDbEntity
67
0
8
IV_OUTER_PROFILE
62
256
6
ByLayer
370
-1
48
1.0
60
0
100
AcDbCircle
39
0.0
10
-125.348448902191
20
963.011714655064
30
0.0
40
880.99701095572
210
0.0
220
0.0
230
1.0
100
AcDbArc
50
289.202150754755
51
289.445517978427
0
ARC
5
DA
330
70
100
AcDbEntity
67
0
8
IV_OUTER_PROFILE
62
256
6
ByLayer
370
-1
48
1.0
60
0
100
AcDbCircle
39
0.0
10
-137.918569392646
20
998.777342544742
30
0.0
40
918.907237917433
210
0.0
220
0.0
230
1.0
100
AcDbArc
50
289.442173017275
51
289.675838205617
0
ARC
5
DB
330
70
100
AcDbEntity
67
0
8
IV_OUTER_PROFILE
62
256
6
ByLayer
370
-1
48
1.0
60
0
100
AcDbCircle
39
0.0
10
-151.618386784672
20
1037.25516791959
30
0.0
40
959.751149258415
210
0.0
220
0.0
230
1.0
100
AcDbArc
50
289.672525295311
51
289.896561486194
0
ARC
5
DC
330
70
100
AcDbEntity
67
0
8
IV_OUTER_PROFILE
62
256
6
ByLayer
370
-1
48
1.0
60
0
100
AcDbCircle
39
0.0
10
-166.585343285996
20
1078.77763453571
30
0.0
40
1003.88868272048
210
0.0
220
0.0
230
1.0
100
AcDbArc
50
289.893279844859
51
290.107758268499
0
ARC
5
DD
330
70
100
AcDbEntity
67
0
8
IV_OUTER_PROFILE
62
256
6
ByLayer
370
-1
48
1.0
60
0
100
AcDbCircle
39
0.0
10
-182.980853896519
20
1123.73527971689
30
0.0
40
1051.74261911761
210
0.0
220
0.0
230
1.0
100
AcDbArc
50
290.104507047988
51
290.309496984015
0
ARC
5
DE
330
70
100
AcDbEntity
67
0
8
IV_OUTER_PROFILE
62
256
6
ByLayer
370
-1
48
1.0
60
0
100
AcDbCircle
39
0.0
10
-200.995766742518
20
1172.58993985624
30
0.0
40
1103.81287196528
210
0.0
220
0.0
230
1.0
100
AcDbArc
50
290.306275275123
51
290.501843920626
0
ARC
5
DF
330
70
100
AcDbEntity
67
0
8
IV_OUTER_PROFILE
62
256
6
ByLayer
370
-1
48
1.0
60
0
100
AcDbCircle
39
0.0
10
-220.857382503963
20
1225.89172740275
30
0.0
40
1160.69485819094
210
0.0
220
0.0
230
1.0
100
AcDbArc
50
290.498650757966
51
290.684863106209
0
ARC
5
E0
330
70
100
AcDbEntity
67
0
8
IV_OUTER_PROFILE
62
256
6
ByLayer
370
-1
48
1.0
60
0
100
AcDbCircle
39
0.0
10
-242.838580597502
20
1284.30110470278
30
0.0
40
1223.10338399087
210
0.0
220
0.0
230
1.0
100
AcDbArc
50
290.681697472833
51
290.858616201483
0
ARC
5
E1
330
70
100
AcDbEntity
67
0
8
IV_OUTER_PROFILE
62
256
6
ByLayer
370
-1
48
1.0
60
0
100
AcDbCircle
39
0.0
10
-267.269825495358
20
1348.61792495279
30
0.0
40
1291.90406967834
210
0.0
220
0.0
230
1.0
100
AcDbArc
50
290.855477033173
51
291.023162402136
0
LINE
5
E2
330
70
100
AcDbEntity
67
0
8
IV_OUTER_PROFILE
62
256
6
ByLayer
370
-1
48
1.0
60
0
100
AcDbLine
10
1.97499173220447
20
98.7574619313962
30
0.0
11
1.97499173220439
21
100.000100725866
31
0.0
39
0.0
210
0.0
220
0.0
230
1.0
0
LINE
5
E3
330
70
100
AcDbEntity
67
0
8
IV_OUTER_PROFILE
62
256
6
ByLayer
370
-1
48
1.0
60
0
100
AcDbLine
10
1012.15616898252
20
100.0000001
30
0.0
11
1012.15616898252
21
98.7573594128806
31
0.0
39
0.0
210
0.0
220
0.0
230
1.0
0
ARC
5
E4
330
70
100
AcDbEntity
67
0
8
IV_OUTER_PROFILE
62
256
6
ByLayer
370
-1
48
1.0
60
0
100
AcDbCircle
39
0.0
10
1285.26156412148
20
1359.58695008092
30
0.0
40
1303.62860704134
210
0.0
220
0.0
230
1.0
100
AcDbArc
50
248.979891572157
51
249.146306285662
0
ARC
5
E5
330
70
100
AcDbEntity
67
0
8
IV_OUTER_PROFILE
62
256
6
ByLayer
370
-1
48
1.0
60
0
100
AcDbCircle
39
0.0
10
1262.44649455253
20
1299.86894586522
30
0.0
40
1239.70080874911
210
0.0
220
0.0
230
1.0
100
AcDbArc
50
249.14916830001
51
249.323962875342
0
ARC
5
E6
330
70
100
AcDbEntity
67
0
8
IV_OUTER_PROFILE
62
256
6
ByLayer
370
-1
48
1.0
60
0
100
AcDbCircle
39
0.0
10
1241.74379615268
20
1245.17997634398
30
0.0
40
1181.22447684331
210
0.0
220
0.0
230
1.0
100
AcDbArc
50
249.326848816683
51
249.510076959981
0
ARC
5
E7
330
70
100
AcDbEntity
67
0
8
IV_OUTER_PROFILE
62
256
6
ByLayer
370
-1
48
1.0
60
0
100
AcDbCircle
39
0.0
10
1222.89101355941
20
1194.89250761125
30
0.0
40
1127.51923049072
210
0.0
220
0.0
230
1.0
100
AcDbArc
50
249.512987682391
51
249.704705079217
0
ARC
5
E8
330
70
100
AcDbEntity
67
0
8
IV_OUTER_PROFILE
62
256
6
ByLayer
370
-1
48
1.0
60
0
100
AcDbCircle
39
0.0
10
1205.66804017508
20
1148.48028438686
30
0.0
40
1078.01446219024
210
0.0
220
0.0
230
1.0
100
AcDbArc
50
249.707641397579
51
249.907905631158
0
ARC
5
E9
330
70
100
AcDbEntity
67
0
8
IV_OUTER_PROFILE
62
256
6
ByLayer
370
-1
48
1.0
60
0
100
AcDbCircle
39
0.0
10
1189.88891604601
20
1105.4987317976
30
0.0
40
1032.22809253732
210
0.0
220
0.0
230
1.0
100
AcDbArc
50
249.910868317874
51
250.119738780604
0
ARC
5
EA
330
70
100
AcDbEntity
67
0
8
IV_OUTER_PROFILE
62
256
6
ByLayer
370
-1
48
1.0
60
0
100
AcDbCircle
39
0.0
10
1175.39545957396
20
1065.56973981129
30
0.0
40
989.750075873493
210
0.0
220
0.0
230
1.0
100
AcDbArc
50
250.122728561988
51
250.340266359489
0
ARC
5
EB
330
70
100
AcDbEntity
67
0
8
IV_OUTER_PROFILE
62
256
6
ByLayer
370
-1
48
1.0
60
0
100
AcDbCircle
39
0.0
10
1162.05227140476
20
1028.36972690006
30
0.0
40
950.229460715715
210
0.0
220
0.0
230
1.0
100
AcDbArc
50
250.343283912005
51
250.569551759187
0
ARC
5
EC
330
70
100
AcDbEntity
67
0
8
IV_OUTER_PROFILE
62
256
6
ByLayer
370
-1
48
1.0
60
0
100
AcDbCircle
39
0.0
10
1149.74277706783
20
993.620185943172
30
0.0
40
913.364141041372
210
0.0
220
0.0
230
1.0
100
AcDbArc
50
250.572597705408
51
250.807659814339
0
ARC
5
ED
330
70
100
AcDbEntity
67
0
8
IV_OUTER_PROFILE
62
256
6
ByLayer
370
-1
48
1.0
60
0
100
AcDbCircle
39
0.0
10
1138.36606548873
20
961.080132289457
30
0.0
40
878.892669560046
210
0.0
220
0.0
230
1.0
100
AcDbArc
50
250.810734718679
51
251.054656677422
0
ARC
5
EE
330
70
100
AcDbEntity
67
0
8
IV_OUTER_PROFILE
62
256
6
ByLayer
370
-1
48
1.0
60
0
100
AcDbCircle
39
0.0
10
1127.83434201011
20
930.540020232321
30
0.0
40
846.587662833305
210
0.0
220
0.0
230
1.0
100
AcDbArc
50
251.057761041651
51
251.310609683779
0
ARC
5
EF
330
70
100
AcDbEntity
67
0
8
IV_OUTER_PROFILE
62
256
6
ByLayer
370
-1
48
1.0
60
0
100
AcDbCircle
39
0.0
10
1118.07086114177
20
901.816805943593
30
0.0
40
816.250449218846
210
0.0
220
0.0
230
1.0
100
AcDbArc
50
251.313743942246
51
251.575587206497
0
ARC
5
F0
330
70
100
AcDbEntity
67
0
8
IV_OUTER_PROFILE
62
256
6
ByLayer
370
-1
48
1.0
60
0
100
AcDbCircle
39
0.0
10
1109.00823690215
20
874.749912858565
30
0.0
40
787.706695120502
210
0.0
220
0.0
230
1.0
100
AcDbArc
50
251.578751721128
51
251.849658500501
0
ARC
5
F1
330
70
100
AcDbEntity
67
0
8
IV_OUTER_PROFILE
62
256
6
ByLayer
370
-1
48
1.0
60
0
100
AcDbCircle
39
0.0
10
1100.58705229377
20
849.19791180353
30
0.0
40
760.802806097821
210
0.0
220
0.0
230
1.0
100
AcDbArc
50
251.852853555527
51
252.132893535497
0
ARC
5
F2
330
70
100
AcDbEntity
67
0
8
IV_OUTER_PROFILE
62
256
6
ByLayer
370
-1
48
1.0
60
0
100
AcDbCircle
39
0.0
10
1092.75470816364
20
825.035773297258
30
0.0
40
735.402948257869
210
0.0
220
0.0
230
1.0
100
AcDbArc
50
252.136119331913
51
252.425362817044
0
ARC
5
F3
330
70
100
AcDbEntity
67
0
8
IV_OUTER_PROFILE
62
256
6
ByLayer
370
-1
48
1.0
60
0
100
AcDbCircle
39
0.0
10
1085.46446447116
20
802.152579614535
30
0.0
40
711.386568096474
210
0.0
220
0.0
230
1.0
100
AcDbArc
50
252.428619466806
51
252.727137195302
0
ARC
5
F4
330
70
100
AcDbEntity
67
0
8
IV_OUTER_PROFILE
62
256
6
ByLayer
370
-1
48
1.0
60
0
100
AcDbCircle
39
0.0
10
1078.67463753242
20
780.449609642038
30
0.0
40
688.646316500742
210
0.0
220
0.0
230
1.0
100
AcDbArc
50
252.730424715279
51
253.038287660847
0
ARC
5
F5
330
70
100
AcDbEntity
67
0
8
IV_OUTER_PROFILE
62
256
6
ByLayer
370
-1
48
1.0
60
0
100
AcDbCircle
39
0.0
10
1072.34792427109
20
759.838727202405
30
0.0
40
667.086301779916
210
0.0
220
0.0
230
1.0
100
AcDbArc
50
253.041605966527
51
253.358885127104
0
ARC
5
F6
330
70
100
AcDbEntity
67
0
8
IV_OUTER_PROFILE
62
256
6
ByLayer
370
-1
48
1.0
60
0
100
AcDbCircle
39
0.0
10
1066.45083070598
20
740.241018530755
30
0.0
40
646.62061283334
210
0.0
220
0.0
230
1.0
100
AcDbArc
50
253.362234026034
51
253.68900019875
0
ARC
5
F7
330
70
100
AcDbEntity
67
0
8
IV_OUTER_PROFILE
62
256
6
ByLayer
370
-1
48
1.0
60
0
100
AcDbCircle
39
0.0
10
1060.95318620074
20
721.585634602569
30
0.0
40
627.172064456194
210
0.0
220
0.0
230
1.0
100
AcDbArc
50
253.692379383704
51
254.028702925764
0
ARC
5
F8
330
70
100
AcDbEntity
67
0
8
IV_OUTER_PROFILE
62
256
6
ByLayer
370
-1
48
1.0
60
0
100
AcDbCircle
39
0.0
10
1055.82772910642
20
703.808804314431
30
0.0
40
608.671127882506
210
0.0
220
0.0
230
1.0
100
AcDbArc
50
254.032111967757
51
254.378062542318
0
ARC
5
F9
330
70
100
AcDbEntity
67
0
8
IV_OUTER_PROFILE
62
256
6
ByLayer
370
-1
48
1.0
60
0
100
AcDbCircle
39
0.0
10
1051.04975130054
20
686.852988060097
30
0.0
40
591.055013634831
210
0.0
220
0.0
230
1.0
100
AcDbArc
50
254.381500883377
51
254.737147190599
0
ARC
5
FA
330
70
100
AcDbEntity
67
0
8
IV_OUTER_PROFILE
62
256
6
ByLayer
370
-1
48
1.0
60
0
100
AcDbCircle
39
0.0
10
1046.5967926245
20
670.666150895719
30
0.0
40
574.266884031228
210
0.0
220
0.0
230
1.0
100
AcDbArc
50
254.740614136308
51
255.106023628548
0
ARC
5
FB
330
70
100
AcDbEntity
67
0
8
IV_OUTER_PROFILE
62
256
6
ByLayer
370
-1
48
1.0
60
0
100
AcDbCircle
39
0.0
10
1042.44897912466
20
655.203430168321
30
0.0
40
558.257546259407
210
0.0
220
0.0
230
1.0
100
AcDbArc
50
255.109519139459
51
255.484756125361
0
ARC
5
FC
330
70
100
AcDbEntity
67
0
8
IV_OUTER_PROFILE
62
256
6
ByLayer
370
-1
48
1.0
60
0
100
AcDbCircle
39
0.0
10
1038.48366690601
20
640.007909348015
30
0.0
40
542.553195998618
210
0.0
220
0.0
230
1.0
100
AcDbArc
50
255.487942711943
51
255.873372737893
0
ARC
5
FD
330
70
100
AcDbEntity
67
0
8
IV_OUTER_PROFILE
62
256
6
ByLayer
370
-1
48
1.0
60
0
100
AcDbCircle
39
0.0
10
1036.2410212317
20
631.180759918713
30
0.0
40
533.445638557238
210
0.0
220
0.0
230
1.0
100
AcDbArc
50
255.875566050892
51
256.266904725137
0
ARC
5
FE
330
70
100
AcDbEntity
67
0
8
IV_OUTER_PROFILE
62
256
6
ByLayer
370
-1
48
1.0
60
0
100
AcDbCircle
39
0.0
10
1034.12152709653
20
622.592840678118
30
0.0
40
524.600063394452
210
0.0
220
0.0
230
1.0
100
AcDbArc
50
256.269103982769
51
256.66636896246
0
ARC
5
FF
330
70
100
AcDbEntity
67
0
8
IV_OUTER_PROFILE
62
256
6
ByLayer
370
-1
48
1.0
60
0
100
AcDbCircle
39
0.0
10
1032.12116199163
20
614.238904230432
30
0.0
40
516.009992722956
210
0.0
220
0.0
230
1.0
100
AcDbArc
50
256.668573035482
51
257.071779691611
0
ARC
5
100
330
70
100
AcDbEntity
67
0
8
IV_OUTER_PROFILE
62
256
6
ByLayer
370
-1
48
1.0
60
0
100
AcDbCircle
39
0.0
10
1030.23602235104
20
606.113974178869
30
0.0
40
507.669258290223
210
0.0
220
0.0
230
1.0
100
AcDbArc
50
257.073987385318
51
257.483148665228
0
ARC
5
101
330
70
100
AcDbEntity
67
0
8
IV_OUTER_PROFILE
62
256
6
ByLayer
370
-1
48
1.0
60
0
100
AcDbCircle
39
0.0
10
1028.4623146613
20
598.21332991297
30
0.0
40
499.571984586098
210
0.0
220
0.0
230
1.0
100
AcDbArc
50
257.485358718315
51
257.900485005804
0
ARC
5
102
330
70
100
AcDbEntity
67
0
8
IV_OUTER_PROFILE
62
256
6
ByLayer
370
-1
48
1.0
60
0
100
AcDbCircle
39
0.0
10
1026.7963471941
20
590.532492669114
30
0.0
40
491.712573504951
210
0.0
220
0.0
230
1.0
100
AcDbArc
50
257.902696089408
51
258.32379506244
0
ARC
5
103
330
70
100
AcDbEntity
67
0
8
IV_OUTER_PROFILE
62
256
6
ByLayer
370
-1
48
1.0
60
0
100
AcDbCircle
39
0.0
10
1025.23452216807
20
583.06721211332
30
0.0
40
484.085689683847
210
0.0
220
0.0
230
1.0
100
AcDbArc
50
258.326005779325
51
258.753082265995
0
ARC
5
104
330
70
100
AcDbEntity
67
0
8
IV_OUTER_PROFILE
62
256
6
ByLayer
370
-1
48
1.0
60
0
100
AcDbCircle
39
0.0
10
1023.77332847128
20
575.813454142556
30
0.0
40
476.68624722184
210
0.0
220
0.0
230
1.0
100
AcDbArc
50
258.755291149864
51
259.188346982629
0
ARC
5
105
330
70
100
AcDbEntity
67
0
8
IV_OUTER_PROFILE
62
256
6
ByLayer
370
-1
48
1.0
60
0
100
AcDbCircle
39
0.0
10
1022.40933478223
20
568.767389269399
30
0.0
40
469.50939712224
210
0.0
220
0.0
230
1.0
100
AcDbArc
50
259.190552497661
51
259.629586366377
0
ARC
5
106
330
70
100
AcDbEntity
67
0
8
IV_OUTER_PROFILE
62
256
6
ByLayer
370
-1
48
1.0
60
0
100
AcDbCircle
39
0.0
10
1021.13918311679
20
561.925381805794
30
0.0
40
462.550515671821
210
0.0
220
0.0
230
1.0
100
AcDbArc
50
259.631786906938
51
260.076794211037
0
ARC
5
107
330
70
100
AcDbEntity
67
0
8
IV_OUTER_PROFILE
62
256
6
ByLayer
370
-1
48
1.0
60
0
100
AcDbCircle
39
0.0
10
1019.95958275918
20
555.283979743811
30
0.0
40
455.805193645747
210
0.0
220
0.0
230
1.0
100
AcDbArc
50
260.078988101616
51
260.529960801829
0
ARC
5
108
330
70
100
AcDbEntity
67
0
8
IV_OUTER_PROFILE
62
256
6
ByLayer
370
-1
48
1.0
60
0
100
AcDbCircle
39
0.0
10
1018.86730453284
20
548.839905189298
30
0.0
40
449.269226185616
210
0.0
220
0.0
230
1.0
100
AcDbArc
50
260.53214629719
51
260.989072767366
0
ARC
5
109
330
70
100
AcDbEntity
67
0
8
IV_OUTER_PROFILE
62
256
6
ByLayer
370
-1
48
1.0
60
0
100
AcDbCircle
39
0.0
10
1017.85917542092
20
542.590045501205
30
0.0
40
442.938603499924
210
0.0
220
0.0
230
1.0
100
AcDbArc
50
260.991248052953
51
261.454112932336
0
ARC
5
10A
330
70
100
AcDbEntity
67
0
8
IV_OUTER_PROFILE
62
256
6
ByLayer
370
-1
48
1.0
60
0
100
AcDbCircle
39
0.0
10
1016.93207347403
20
536.531444876064
30
0.0
40
436.809502116892
210
0.0
220
0.0
230
1.0
100
AcDbArc
50
261.456276124957
51
261.925060171559
0
ARC
5
10B
330
70
100
AcDbEntity
67
0
8
IV_OUTER_PROFILE
62
256
6
ByLayer
370
-1
48
1.0
60
0
100
AcDbCircle
39
0.0
10
1016.08292300643
20
530.661296462289
30
0.0
40
430.87827677078
210
0.0
220
0.0
230
1.0
100
AcDbArc
50
261.927209320339
51
262.401889265948
0
ARC
5
10C
330
70
100
AcDbEntity
67
0
8
IV_OUTER_PROFILE
62
256
6
ByLayer
370
-1
48
1.0
60
0
100
AcDbCircle
39
0.0
10
1015.30869005574
20
524.976934938953
30
0.0
40
425.141452850578
210
0.0
220
0.0
230
1.0
100
AcDbArc
50
262.404022353557
51
262.884570760989
0
ARC
5
10D
330
70
100
AcDbEntity
67
0
8
IV_OUTER_PROFILE
62
256
6
ByLayer
370
-1
48
1.0
60
0
100
AcDbCircle
39
0.0
10
1014.60637809907
20
519.475829617558
30
0.0
40
419.595719465393
210
0.0
220
0.0
230
1.0
100
AcDbArc
50
262.886685705218
51
263.373070828349
0
ARC
5
10E
330
70
100
AcDbEntity
67
0
8
IV_OUTER_PROFILE
62
256
6
ByLayer
370
-1
48
1.0
60
0
100
AcDbCircle
39
0.0
10
1013.97302397775
20
514.155577802427
30
0.0
40
414.237922855486
210
0.0
220
0.0
230
1.0
100
AcDbArc
50
263.375165484013
51
263.867351131416
0
ARC
5
10F
330
70
100
AcDbEntity
67
0
8
IV_OUTER_PROFILE
62
256
6
ByLayer
370
-1
48
1.0
60
0
100
AcDbCircle
39
0.0
10
1013.40569404868
20
509.013898623109
30
0.0
40
409.065060360353
210
0.0
220
0.0
230
1.0
100
AcDbArc
50
263.869423292554
51
264.367368695333
0
ARC
5
110
330
70
100
AcDbEntity
67
0
8
IV_OUTER_PROFILE
62
256
6
ByLayer
370
-1
48
1.0
60
0
100
AcDbCircle
39
0.0
10
1012.90148053507
20
504.048627231898
30
0.0
40
404.074274831862
210
0.0
220
0.0
230
1.0
100
AcDbArc
50
264.369416097795
51
264.873075782325
0
ARC
5
111
330
70
100
AcDbEntity
67
0
8
IV_OUTER_PROFILE
62
256
6
ByLayer
370
-1
48
1.0
60
0
100
AcDbCircle
39
0.0
10
1012.41787917315
20
498.740771146363
30
0.0
40
398.744438826395
210
0.0
220
0.0
230
1.0
100
AcDbArc
50
264.874131060366
51
265.384117387211
0
ARC
5
112
330
70
100
AcDbEntity
67
0
8
IV_OUTER_PROFILE
62
256
6
ByLayer
370
-1
48
1.0
60
0
100
AcDbCircle
39
0.0
10
1012.67116413838
20
501.772194623661
30
0.0
40
401.786413467673
210
0.0
220
0.0
230
1.0
100
AcDbArc
50
265.382903988314
51
265.888667765386
0
ARC
5
113
330
70
100
AcDbEntity
67
0
8
IV_OUTER_PROFILE
62
256
6
ByLayer
370
-1
48
1.0
60
0
100
AcDbCircle
39
0.0
10
1012.54283240025
20
500.05709683194
30
0.0
40
400.066528593829
210
0.0
220
0.0
230
1.0
100
AcDbArc
50
265.889389290517
51
266.397004186407
0
ARC
5
114
330
70
100
AcDbEntity
67
0
8
IV_OUTER_PROFILE
62
256
6
ByLayer
370
-1
48
1.0
60
0
100
AcDbCircle
39
0.0
10
1012.43635796404
20
498.441851492039
30
0.0
40
398.447784763903
210
0.0
220
0.0
230
1.0
100
AcDbArc
50
266.397688317237
51
266.907080404106
0
ARC
5
115
330
70
100
AcDbEntity
67
0
8
IV_OUTER_PROFILE
62
256
6
ByLayer
370
-1
48
1.0
60
0
100
AcDbCircle
39
0.0
10
1012.34999550424
20
496.926494770429
30
0.0
40
396.929975696072
210
0.0
220
0.0
230
1.0
100
AcDbArc
50
266.907726351976
51
267.418820050714
0
ARC
5
116
330
70
100
AcDbEntity
67
0
8
IV_OUTER_PROFILE
62
256
6
ByLayer
370
-1
48
1.0
60
0
100
AcDbCircle
39
0.0
10
1012.28199264461
20
495.511064069025
30
0.0
40
395.512918590974
210
0.0
220
0.0
230
1.0
100
AcDbArc
50
267.419427055103
51
267.93214519003
0
ARC
5
117
330
70
100
AcDbEntity
67
0
8
IV_OUTER_PROFILE
62
256
6
ByLayer
370
-1
48
1.0
60
0
100
AcDbCircle
39
0.0
10
1012.23058991481
20
494.195598175348
30
0.0
40
394.19645458773
210
0.0
220
0.0
230
1.0
100
AcDbArc
50
267.932712520318
51
268.446976377283
0
ARC
5
118
330
70
100
AcDbEntity
67
0
8
IV_OUTER_PROFILE
62
256
6
ByLayer
370
-1
48
1.0
60
0
100
AcDbCircle
39
0.0
10
1012.19402069207
20
492.980137123511
30
0.0
40
392.98044892449
210
0.0
220
0.0
230
1.0
100
AcDbArc
50
268.447503334495
51
268.96323272267
0
ARC
5
119
330
70
100
AcDbEntity
67
0
8
IV_OUTER_PROFILE
62
256
6
ByLayer
370
-1
48
1.0
60
0
100
AcDbCircle
39
0.0
10
1012.17051115268
20
491.86472225423
30
0.0
40
391.864791292011
210
0.0
220
0.0
230
1.0
100
AcDbArc
50
268.963718641136
51
269.480831958133
0
ARC
5
11A
330
70
100
AcDbEntity
67
0
8
IV_OUTER_PROFILE
62
256
6
ByLayer
370
-1
48
1.0
60
0
100
AcDbCircle
39
0.0
10
1012.1582802192
20
490.849396147172
30
0.0
40
390.849396052874
210
0.0
220
0.0
230
1.0
100
AcDbArc
50
269.481276207113
51
269.999690507514
0
ARC
5
11B
330
70
100
AcDbEntity
67
0
8
IV_OUTER_PROFILE
62
256
6
ByLayer
370
-1
48
1.0
60
0
100
AcDbCircle
39
0.0
10
812.861866895234
20
-1088.36272759511
30
0.0
40
1372.69894745759
210
0.0
220
0.0
230
1.0
100
AcDbArc
50
111.431015644246
51
111.552762502107
0
ARC
5
11C
330
70
100
AcDbEntity
67
0
8
IV_OUTER_PROFILE
62
256
6
ByLayer
370
-1
48
1.0
60
0
100
AcDbCircle
39
0.0
10
839.538539721563
20
-1156.04316201229
30
0.0
40
1445.44703029348
210
0.0
220
0.0
230
1.0
100
AcDbArc
50
111.55072073123
51
111.666433204055
0
ARC
5
11D
330
70
100
AcDbEntity
67
0
8
IV_OUTER_PROFILE
62
256
6
ByLayer
370
-1
48
1.0
60
0
100
AcDbCircle
39
0.0
10
869.140502869372
20
-1230.70304348448
30
0.0
40
1525.76123424364
210
0.0
220
0.0
230
1.0
100
AcDbArc
50
111.664403550401
51
111.774109205038
0
ARC
5
11E
330
70
100
AcDbEntity
67
0
8
IV_OUTER_PROFILE
62
256
6
ByLayer
370
-1
48
1.0
60
0
100
AcDbCircle
39
0.0
10
902.157480616068
20
-1313.51301971578
30
0.0
40
1614.91060286798
210
0.0
220
0.0
230
1.0
100
AcDbArc
50
111.772091112
51
111.875816257988
0
ARC
5
11F
330
70
100
AcDbEntity
67
0
8
IV_OUTER_PROFILE
62
256
6
ByLayer
370
-1
48
1.0
60
0
100
AcDbCircle
39
0.0
10
939.195676068448
20
-1405.92210547483
30
0.0
40
1714.4659324873
210
0.0
220
0.0
230
1.0
100
AcDbArc
50
111.873809159107
51
111.971578827012
0
ARC
5
120
330
70
100
AcDbEntity
67
0
8
IV_OUTER_PROFILE
62
256
6
ByLayer
370
-1
48
1.0
60
0
100
AcDbCircle
39
0.0
10
981.014555285584
20
-1509.74558150015
30
0.0
40
1826.39505751841
210
0.0
220
0.0
230
1.0
100
AcDbArc
50
111.9695821468
51
112.061420068671
0
ARC
5
121
330
70
100
AcDbEntity
67
0
8
IV_OUTER_PROFILE
62
256
6
ByLayer
370
-1
48
1.0
60
0
100
AcDbCircle
39
0.0
10
1028.57851283042
20
-1627.28845482926
30
0.0
40
1953.19668541854
210
0.0
220
0.0
230
1.0
100
AcDbArc
50
112.059433223218
51
112.145361814624
0
ARC
5
122
330
70
100
AcDbEntity
67
0
8
IV_OUTER_PROFILE
62
256
6
ByLayer
370
-1
48
1.0
60
0
100
AcDbCircle
39
0.0
10
1083.13095082256
20
-1761.52247943553
30
0.0
40
2098.09229256666
210
0.0
220
0.0
230
1.0
100
AcDbArc
50
112.143384212423
51
112.223424555502
0
ARC
5
123
330
70
100
AcDbEntity
67
0
8
IV_OUTER_PROFILE
62
256
6
ByLayer
370
-1
48
1.0
60
0
100
AcDbCircle
39
0.0
10
1146.30298040711
20
-1916.34591093171
30
0.0
40
2265.30770647724
210
0.0
220
0.0
230
1.0
100
AcDbArc
50
112.221455598143
51
112.295627426806
0
ARC
5
124
330
70
100
AcDbEntity
67
0
8
IV_OUTER_PROFILE
62
256
6
ByLayer
370
-1
48
1.0
60
0
100
AcDbCircle
39
0.0
10
1220.27725182338
20
-2096.97499909774
30
0.0
40
2460.4974956431
210
0.0
220
0.0
230
1.0
100
AcDbArc
50
112.293666509519
51
112.361988195509
0
ARC
5
125
330
70
100
AcDbEntity
67
0
8
IV_OUTER_PROFILE
62
256
6
ByLayer
370
-1
48
1.0
60
0
100
AcDbCircle
39
0.0
10
1308.04251218001
20
-2310.55228577153
30
0.0
40
2691.40438296005
210
0.0
220
0.0
230
1.0
100
AcDbArc
50
112.36003470781
51
112.422523248281
0
ARC
5
126
330
70
100
AcDbEntity
67
0
8
IV_OUTER_PROFILE
62
256
6
ByLayer
370
-1
48
1.0
60
0
100
AcDbCircle
39
0.0
10
1413.80349257325
20
-2567.1260829552
30
0.0
40
2968.92102957967
210
0.0
220
0.0
230
1.0
100
AcDbArc
50
112.420576574567
51
112.477247580689
0
ARC
5
127
330
70
100
AcDbEntity
67
0
8
IV_OUTER_PROFILE
62
256
6
ByLayer
370
-1
48
1.0
60
0
100
AcDbCircle
39
0.0
10
1543.66919492971
20
-2881.29522338387
30
0.0
40
3308.87299409539
210
0.0
220
0.0
230
1.0
100
AcDbArc
50
112.475307100671
51
112.526174787858
0
ARC
5
128
330
70
100
AcDbEntity
67
0
8
IV_OUTER_PROFILE
62
256
6
ByLayer
370
-1
48
1.0
60
0
100
AcDbCircle
39
0.0
10
1706.86841133138
20
-3275.11370350441
30
0.0
40
3735.16745268418
210
0.0
220
0.0
230
1.0
100
AcDbArc
50
112.524239877179
51
112.5693170555
0
ARC
5
129
330
70
100
AcDbEntity
67
0
8
IV_OUTER_PROFILE
62
256
6
ByLayer
370
-1
48
1.0
60
0
100
AcDbCircle
39
0.0
10
1918.03246981838
20
-3783.54560369645
30
0.0
40
4285.70649631921
210
0.0
220
0.0
230
1.0
100
AcDbArc
50
112.567387086279
51
112.606685152979
0
ARC
5
12A
330
70
100
AcDbEntity
67
0
8
IV_OUTER_PROFILE
62
256
6
ByLayer
370
-1
48
1.0
60
0
100
AcDbCircle
39
0.0
10
2201.82599145487
20
-4465.53089204169
30
0.0
40
5024.3827935693
210
0.0
220
0.0
230
1.0
100
AcDbArc
50
112.604759493998
51
112.638288426582
0
ARC
5
12B
330
70
100
AcDbEntity
67
0
8
IV_OUTER_PROFILE
62
256
6
ByLayer
370
-1
48
1.0
60
0
100
AcDbCircle
39
0.0
10
2603.32617562183
20
-5428.78809450417
30
0.0
40
6067.96642781966
210
0.0
220
0.0
230
1.0
100
AcDbArc
50
112.636366443847
51
112.664134793821
0
ARC
5
12C
330
70
100
AcDbEntity
67
0
8
IV_OUTER_PROFILE
62
256
6
ByLayer
370
-1
48
1.0
60
0
100
AcDbCircle
39
0.0
10
3214.64790230183
20
-6893.43848759355
30
0.0
40
7655.07542703297
210
0.0
220
0.0
230
1.0
100
AcDbArc
50
112.662215851246
51
112.684230738785
0
ARC
5
12D
330
70
100
AcDbEntity
67
0
8
IV_OUTER_PROFILE
62
256
6
ByLayer
370
-1
48
1.0
60
0
100
AcDbCircle
39
0.0
10
4257.95112390021
20
-9390.36320868719
30
0.0
40
10361.2008096159
210
0.0
220
0.0
230
1.0
100
AcDbArc
50
112.682314198335
51
112.698581308915
0
ARC
5
12E
330
70
100
AcDbEntity
67
0
8
IV_OUTER_PROFILE
62
256
6
ByLayer
370
-1
48
1.0
60
0
100
AcDbCircle
39
0.0
10
6440.10952678399
20
-14608.7308071323
30
0.0
40
16017.4518208801
210
0.0
220
0.0
230
1.0
100
AcDbArc
50
112.696666531502
51
112.707190110789
0
ARC
5
12F
330
70
100
AcDbEntity
67
0
8
IV_OUTER_PROFILE
62
256
6
ByLayer
370
-1
48
1.0
60
0
100
AcDbCircle
39
0.0
10
13860.9809617359
20
-32345.6930642593
30
0.0
40
35244.2342437165
210
0.0
220
0.0
230
1.0
100
AcDbArc
50
112.70527645681
51
112.710059309744
0
ARC
5
130
330
70
100
AcDbEntity
67
0
8
IV_OUTER_PROFILE
62
256
6
ByLayer
370
-1
48
1.0
60
0
100
AcDbCircle
39
0.0
10
-291.931008545204
20
1412.97459628699
30
0.0
40
1360.82395578296
210
0.0
220
0.0
230
1.0
100
AcDbArc
50
291.020297995129
51
291.145174170085
0
ARC
5
131
330
70
100
AcDbEntity
67
0
8
IV_OUTER_PROFILE
62
256
6
ByLayer
370
-1
48
1.0
60
0
100
AcDbCircle
39
0.0
10
-317.903173023679
20
1480.27057303138
30
0.0
40
1432.95785355234
210
0.0
220
0.0
230
1.0
100
AcDbArc
50
291.14307950248
51
291.261765352634
0
ARC
5
132
330
70
100
AcDbEntity
67
0
8
IV_OUTER_PROFILE
62
256
6
ByLayer
370
-1
48
1.0
60
0
100
AcDbCircle
39
0.0
10
-346.730436710191
20
1554.50630604783
30
0.0
40
1512.59422919538
210
0.0
220
0.0
230
1.0
100
AcDbArc
50
291.259683147149
51
291.37220702717
0
ARC
5
133
330
70
100
AcDbEntity
67
0
8
IV_OUTER_PROFILE
62
256
6
ByLayer
370
-1
48
1.0
60
0
100
AcDbCircle
39
0.0
10
-378.890676131873
20
1636.84562876748
30
0.0
40
1600.99129873827
210
0.0
220
0.0
230
1.0
100
AcDbArc
50
291.3701367164
51
291.476525698624
0
ARC
5
134
330
70
100
AcDbEntity
67
0
8
IV_OUTER_PROFILE
62
256
6
ByLayer
370
-1
48
1.0
60
0
100
AcDbCircle
39
0.0
10
-414.975430745143
20
1728.72912654226
30
0.0
40
1699.70646051505
210
0.0
220
0.0
230
1.0
100
AcDbArc
50
291.474466704165
51
291.574746554717
0
ARC
5
135
330
70
100
AcDbEntity
67
0
8
IV_OUTER_PROFILE
62
256
6
ByLayer
370
-1
48
1.0
60
0
100
AcDbCircle
39
0.0
10
-455.725800052668
20
1831.96153048001
30
0.0
40
1810.69077421869
210
0.0
220
0.0
230
1.0
100
AcDbArc
50
291.572698288013
51
291.666893444908
0
ARC
5
136
330
70
100
AcDbEntity
67
0
8
IV_OUTER_PROFILE
62
256
6
ByLayer
370
-1
48
1.0
60
0
100
AcDbCircle
39
0.0
10
-502.082863657554
20
1948.83446916795
30
0.0
40
1936.42166424522
210
0.0
220
0.0
230
1.0
100
AcDbArc
50
291.664855308158
51
291.752988860869
0
ARC
5
137
330
70
100
AcDbEntity
67
0
8
IV_OUTER_PROFILE
62
256
6
ByLayer
370
-1
48
1.0
60
0
100
AcDbCircle
39
0.0
10
-555.259963399144
20
2082.30244543447
30
0.0
40
2080.0931630759
210
0.0
220
0.0
230
1.0
100
AcDbArc
50
291.750960247802
51
291.833053919033
0
ARC
5
138
330
70
100
AcDbEntity
67
0
8
IV_OUTER_PROFILE
62
256
6
ByLayer
370
-1
48
1.0
60
0
100
AcDbCircle
39
0.0
10
-616.848786448703
20
2236.24110566938
30
0.0
40
2245.89511853647
210
0.0
220
0.0
230
1.0
100
AcDbArc
50
291.831034215543
51
291.907108344261
0
ARC
5
139
330
70
100
AcDbEntity
67
0
8
IV_OUTER_PROFILE
62
256
6
ByLayer
370
-1
48
1.0
60
0
100
AcDbCircle
39
0.0
10
-688.979234714104
20
2415.83645745465
30
0.0
40
2439.43396527732
210
0.0
220
0.0
230
1.0
100
AcDbArc
50
291.905096929193
51
291.97517045513
0
ARC
5
13A
330
70
100
AcDbEntity
67
0
8
IV_OUTER_PROFILE
62
256
6
ByLayer
370
-1
48
1.0
60
0
100
AcDbCircle
39
0.0
10
-774.567833187049
20
2628.18964448708
30
0.0
40
2668.38652863956
210
0.0
220
0.0
230
1.0
100
AcDbArc
50
291.973166700942
51
292.037257150734
0
ARC
5
13B
330
70
100
AcDbEntity
67
0
8
IV_OUTER_PROFILE
62
256
6
ByLayer
370
-1
48
1.0
60
0
100
AcDbCircle
39
0.0
10
-877.7177141452
20
2883.29074926084
30
0.0
40
2943.5527730433
210
0.0
220
0.0
230
1.0
100
AcDbArc
50
292.035260424094
51
292.093383898639
0
ARC
5
13C
330
70
100
AcDbEntity
67
0
8
IV_OUTER_PROFILE
62
256
6
ByLayer
370
-1
48
1.0
60
0
100
AcDbCircle
39
0.0
10
-1004.39028889667
20
3195.65404791606
30
0.0
40
3280.62362596294
210
0.0
220
0.0
230
1.0
100
AcDbArc
50
292.091393561111
51
292.143564724101
0
ARC
5
13D
330
70
100
AcDbEntity
67
0
8
IV_OUTER_PROFILE
62
256
6
ByLayer
370
-1
48
1.0
60
0
100
AcDbCircle
39
0.0
10
-1163.59137418524
20
3587.20575923802
30
0.0
40
3703.30283484371
210
0.0
220
0.0
230
1.0
100
AcDbArc
50
292.141580132605
51
292.187812200807
0
ARC
5
13E
330
70
100
AcDbEntity
67
0
8
IV_OUTER_PROFILE
62
256
6
ByLayer
370
-1
48
1.0
60
0
100
AcDbCircle
39
0.0
10
-1369.59883165641
20
4092.70746867315
30
0.0
40
4249.17006411559
210
0.0
220
0.0
230
1.0
100
AcDbArc
50
292.185832708159
51
292.226137442116
0
ARC
5
13F
330
70
100
AcDbEntity
67
0
8
IV_OUTER_PROFILE
62
256
6
ByLayer
370
-1
48
1.0
60
0
100
AcDbCircle
39
0.0
10
-1646.48144681132
20
4770.75781755023
30
0.0
40
4981.57448315944
210
0.0
220
0.0
230
1.0
100
AcDbArc
50
292.224162397653
51
292.258550094052
0
ARC
5
140
330
70
100
AcDbEntity
67
0
8
IV_OUTER_PROFILE
62
256
6
ByLayer
370
-1
48
1.0
60
0
100
AcDbCircle
39
0.0
10
-2038.22747419348
20
5728.45152131401
30
0.0
40
6016.2928722502
210
0.0
220
0.0
230
1.0
100
AcDbArc
50
292.256578844035
51
292.285058328997
0
ARC
5
141
330
70
100
AcDbEntity
67
0
8
IV_OUTER_PROFILE
62
256
6
ByLayer
370
-1
48
1.0
60
0
100
AcDbCircle
39
0.0
10
-2634.72656255215
20
7184.63512603869
30
0.0
40
7589.91347430224
210
0.0
220
0.0
230
1.0
100
AcDbArc
50
292.2830902172
51
292.30566884036
0
ARC
5
142
330
70
100
AcDbEntity
67
0
8
IV_OUTER_PROFILE
62
256
6
ByLayer
370
-1
48
1.0
60
0
100
AcDbCircle
39
0.0
10
-3652.77205710409
20
9667.11571940033
30
0.0
40
10273.0322628813
210
0.0
220
0.0
230
1.0
100
AcDbArc
50
292.3037032085
51
292.32038683862
0
ARC
5
143
330
70
100
AcDbEntity
67
0
8
IV_OUTER_PROFILE
62
256
6
ByLayer
370
-1
48
1.0
60
0
100
AcDbCircle
39
0.0
10
-5782.16115135165
20
14855.2785279082
30
0.0
40
15881.1808923866
210
0.0
220
0.0
230
1.0
100
AcDbArc
50
292.318423026468
51
292.329216048109
0
ARC
5
144
330
70
100
AcDbEntity
67
0
8
IV_OUTER_PROFILE
62
256
6
ByLayer
370
-1
48
1.0
60
0
100
AcDbCircle
39
0.0
10
-13023.7109462548
20
32489.5386002681
30
0.0
40
34944.422250574
210
0.0
220
0.0
230
1.0
100
AcDbArc
50
292.32725339503
51
292.332158703231
0
ARC
5
145
330
70
100
AcDbEntity
67
0
8
IV_OUTER_PROFILE
62
256
6
ByLayer
370
-1
48
1.0
60
0
100
AcDbCircle
39
0.0
10
67148.5733502045
20
161796.56592893
30
0.0
40
174733.859967925
210
0.0
220
0.0
230
1.0
100
AcDbArc
50
247.669803453032
51
247.670784448707
0
ARC
5
146
330
70
100
AcDbEntity
67
0
8
IV_OUTER_PROFILE
62
256
6
ByLayer
370
-1
48
1.0
60
0
100
AcDbCircle
39
0.0
10
10244.2980031285
20
23253.1234284739
30
0.0
40
24959.422871546
210
0.0
220
0.0
230
1.0
100
AcDbArc
50
247.672746770959
51
247.679614154463
0
ARC
5
147
330
70
100
AcDbEntity
67
0
8
IV_OUTER_PROFILE
62
256
6
ByLayer
370
-1
48
1.0
60
0
100
AcDbCircle
39
0.0
10
5867.7628050831
20
12594.0455171625
30
0.0
40
13436.8362754118
210
0.0
220
0.0
230
1.0
100
AcDbArc
50
247.681577304394
51
247.694332648488
0
ARC
5
148
330
70
100
AcDbEntity
67
0
8
IV_OUTER_PROFILE
62
256
6
ByLayer
370
-1
48
1.0
60
0
100
AcDbCircle
39
0.0
10
4255.79156669166
20
8665.59091046148
30
0.0
40
9190.51943312193
210
0.0
220
0.0
230
1.0
100
AcDbArc
50
247.696297287854
51
247.714943654585
0
ARC
5
149
330
70
100
AcDbEntity
67
0
8
IV_OUTER_PROFILE
62
256
6
ByLayer
370
-1
48
1.0
60
0
100
AcDbCircle
39
0.0
10
3417.89811047357
20
6621.70882657548
30
0.0
40
6981.556024372
210
0.0
220
0.0
230
1.0
100
AcDbArc
50
247.716910443994
51
247.741452382974
0
ARC
5
14A
330
70
100
AcDbEntity
67
0
8
IV_OUTER_PROFILE
62
256
6
ByLayer
370
-1
48
1.0
60
0
100
AcDbCircle
39
0.0
10
2904.61939447758
20
5368.13307237016
30
0.0
40
5626.96857226618
210
0.0
220
0.0
230
1.0
100
AcDbArc
50
247.743421981699
51
247.773865526596
0
ARC
5
14B
330
70
100
AcDbEntity
67
0
8
IV_OUTER_PROFILE
62
256
6
ByLayer
370
-1
48
1.0
60
0
100
AcDbCircle
39
0.0
10
2558.03645341461
20
4520.39249612845
30
0.0
40
4711.11717154342
210
0.0
220
0.0
230
1.0
100
AcDbArc
50
247.775838591937
51
247.812191257787
0
ARC
5
14C
330
70
100
AcDbEntity
67
0
8
IV_OUTER_PROFILE
62
256
6
ByLayer
370
-1
48
1.0
60
0
100
AcDbCircle
39
0.0
10
2308.37158406174
20
3908.60522363026
30
0.0
40
4050.34777829285
210
0.0
220
0.0
230
1.0
100
AcDbArc
50
247.8141684447
51
247.856439221889
0
ARC
5
14D
330
70
100
AcDbEntity
67
0
8
IV_OUTER_PROFILE
62
256
6
ByLayer
370
-1
48
1.0
60
0
100
AcDbCircle
39
0.0
10
2120.02419049477
20
3446.09718869622
30
0.0
40
3550.95974696657
210
0.0
220
0.0
230
1.0
100
AcDbArc
50
247.858421182767
51
247.906620532021
0
ARC
5
14E
330
70
100
AcDbEntity
67
0
8
IV_OUTER_PROFILE
62
256
6
ByLayer
370
-1
48
1.0
60
0
100
AcDbCircle
39
0.0
10
1972.9287452324
20
3084.01611046596
30
0.0
40
3160.14039774217
210
0.0
220
0.0
230
1.0
100
AcDbArc
50
247.908607915755
51
247.962747761513
0
ARC
5
14F
330
70
100
AcDbEntity
67
0
8
IV_OUTER_PROFILE
62
256
6
ByLayer
370
-1
48
1.0
60
0
100
AcDbCircle
39
0.0
10
1854.91460401145
20
2792.73065271161
30
0.0
40
2845.85621974263
210
0.0
220
0.0
230
1.0
100
AcDbArc
50
247.964741213296
51
248.024834935029
0
ARC
5
150
330
70
100
AcDbEntity
67
0
8
IV_OUTER_PROFILE
62
256
6
ByLayer
370
-1
48
1.0
60
0
100
AcDbCircle
39
0.0
10
1758.17094894641
20
2553.22395261093
30
0.0
40
2587.548679755
210
0.0
220
0.0
230
1.0
100
AcDbArc
50
248.026835095828
51
248.092897519847
0
ARC
5
151
330
70
100
AcDbEntity
67
0
8
IV_OUTER_PROFILE
62
256
6
ByLayer
370
-1
48
1.0
60
0
100
AcDbCircle
39
0.0
10
1677.45509414256
20
2352.73155255204
30
0.0
40
2371.41852414236
210
0.0
220
0.0
230
1.0
100
AcDbArc
50
248.094905025567
51
248.166952414631
0
ARC
5
152
330
70
100
AcDbEntity
67
0
8
IV_OUTER_PROFILE
62
256
6
ByLayer
370
-1
48
1.0
60
0
100
AcDbCircle
39
0.0
10
1609.11724128125
20
2182.3670654437
30
0.0
40
2187.85895838423
210
0.0
220
0.0
230
1.0
100
AcDbArc
50
248.168967895751
51
248.247017937414
0
ARC
5
153
330
70
100
AcDbEntity
67
0
8
IV_OUTER_PROFILE
62
256
6
ByLayer
370
-1
48
1.0
60
0
100
AcDbCircle
39
0.0
10
1550.53827468584
20
2035.75342811247
30
0.0
40
2029.97593701655
210
0.0
220
0.0
230
1.0
100
AcDbArc
50
248.249042018364
51
248.33311381261
0
ARC
5
154
330
70
100
AcDbEntity
67
0
8
IV_OUTER_PROFILE
62
256
6
ByLayer
370
-1
48
1.0
60
0
100
AcDbCircle
39
0.0
10
1499.7899785983
20
1908.19566602967
30
0.0
40
1892.69386468128
210
0.0
220
0.0
230
1.0
100
AcDbArc
50
248.33514711108
51
248.425261155997
0
ARC
5
155
330
70
100
AcDbEntity
67
0
8
IV_OUTER_PROFILE
62
256
6
ByLayer
370
-1
48
1.0
60
0
100
AcDbCircle
39
0.0
10
1455.42134943661
20
1796.1606488978
30
0.0
40
1772.19317566975
210
0.0
220
0.0
230
1.0
100
AcDbArc
50
248.427304282292
51
248.523482458825
0
ARC
5
156
330
70
100
AcDbEntity
67
0
8
IV_OUTER_PROFILE
62
256
6
ByLayer
370
-1
48
1.0
60
0
100
AcDbCircle
39
0.0
10
1416.31960148412
20
1696.93869592443
30
0.0
40
1665.54450548077
210
0.0
220
0.0
230
1.0
100
AcDbArc
50
248.525536015069
51
248.627801569908
0
ARC
5
157
330
70
100
AcDbEntity
67
0
8
IV_OUTER_PROFILE
62
256
6
ByLayer
370
-1
48
1.0
60
0
100
AcDbCircle
39
0.0
10
1381.61707570685
20
1608.41693685785
30
0.0
40
1570.46367814269
210
0.0
220
0.0
230
1.0
100
AcDbArc
50
248.62986614937
51
248.738243676311
0
ARC
5
158
330
70
100
AcDbEntity
67
0
8
IV_OUTER_PROFILE
62
256
6
ByLayer
370
-1
48
1.0
60
0
100
AcDbCircle
39
0.0
10
1350.62729013457
20
1528.9236212527
30
0.0
40
1485.14339349031
210
0.0
220
0.0
230
1.0
100
AcDbArc
50
248.740319862605
51
248.854835282281
0
ARC
5
159
330
70
100
AcDbEntity
67
0
8
IV_OUTER_PROFILE
62
256
6
ByLayer
370
-1
48
1.0
60
0
100
AcDbCircle
39
0.0
10
1322.80001589864
20
1457.1187476195
30
0.0
40
1408.1349894647
210
0.0
220
0.0
230
1.0
100
AcDbArc
50
248.856923648371
51
248.977604186413
0
ARC
5
15A
330
70
100
AcDbEntity
67
0
8
IV_OUTER_PROFILE
62
256
6
ByLayer
370
-1
48
1.0
60
0
100
AcDbCircle
39
0.0
10
-67272.8767004
20
-162405.733470929
30
0.0
40
176232.800995693
210
0.0
220
0.0
230
1.0
100
AcDbArc
50
67.2918538629922
51
67.2928103704538
0
ARC
5
15B
330
70
100
AcDbEntity
67
0
8
IV_OUTER_PROFILE
62
256
6
ByLayer
370
-1
48
1.0
60
0
100
AcDbCircle
39
0.0
10
-8959.94363620738
20
-23055.4772048055
30
0.0
40
25173.5673188464
210
0.0
220
0.0
230
1.0
100
AcDbArc
50
67.2947237043307
51
67.3014196533766
0
ARC
5
15C
330
70
100
AcDbEntity
67
0
8
IV_OUTER_PROFILE
62
256
6
ByLayer
370
-1
48
1.0
60
0
100
AcDbCircle
39
0.0
10
-4475.01243083216
20
-12334.3310872119
30
0.0
40
13552.1396263905
210
0.0
220
0.0
230
1.0
100
AcDbArc
50
67.3033337892269
51
67.315770703524
0
ARC
5
15D
330
70
100
AcDbEntity
67
0
8
IV_OUTER_PROFILE
62
256
6
ByLayer
370
-1
48
1.0
60
0
100
AcDbCircle
39
0.0
10
-2823.08095499819
20
-8383.0101421831
30
0.0
40
9269.40514115108
210
0.0
220
0.0
230
1.0
100
AcDbArc
50
67.3176862821497
51
67.3358671278168
0
ARC
5
15E
330
70
100
AcDbEntity
67
0
8
IV_OUTER_PROFILE
62
256
6
ByLayer
370
-1
48
1.0
60
0
100
AcDbCircle
39
0.0
10
-1964.38927240881
20
-6327.23830298624
30
0.0
40
7041.50272240234
210
0.0
220
0.0
230
1.0
100
AcDbArc
50
67.3377847891161
51
67.3617139732146
0
ARC
5
15F
330
70
100
AcDbEntity
67
0
8
IV_OUTER_PROFILE
62
256
6
ByLayer
370
-1
48
1.0
60
0
100
AcDbCircle
39
0.0
10
-1438.34797548734
20
-5066.3757943631
30
0.0
40
5675.3059332008
210
0.0
220
0.0
230
1.0
100
AcDbArc
50
67.3636343559823
51
67.3933177234381
0
ARC
5
160
330
70
100
AcDbEntity
67
0
8
IV_OUTER_PROFILE
62
256
6
ByLayer
370
-1
48
1.0
60
0
100
AcDbCircle
39
0.0
10
-1083.12883574684
20
-4213.71209301958
30
0.0
40
4751.60901622722
210
0.0
220
0.0
230
1.0
100
AcDbArc
50
67.3952414648114
51
67.430686295932
0
ARC
5
161
330
70
100
AcDbEntity
67
0
8
IV_OUTER_PROFILE
62
256
6
ByLayer
370
-1
48
1.0
60
0
100
AcDbCircle
39
0.0
10
-827.226772926527
20
-3598.37576039003
30
0.0
40
4085.18224152796
210
0.0
220
0.0
230
1.0
100
AcDbArc
50
67.4326140309023
51
67.4738290364173
0
ARC
5
162
330
70
100
AcDbEntity
67
0
8
IV_OUTER_PROFILE
62
256
6
ByLayer
370
-1
48
1.0
60
0
100
AcDbCircle
39
0.0
10
-634.159886265878
20
-3133.18787324476
30
0.0
40
3581.52106928085
210
0.0
220
0.0
230
1.0
100
AcDbArc
50
67.4757613975714
51
67.5227567139013
0
ARC
5
163
330
70
100
AcDbEntity
67
0
8
IV_OUTER_PROFILE
62
256
6
ByLayer
370
-1
48
1.0
60
0
100
AcDbCircle
39
0.0
10
-483.365915616358
20
-2769.01159936673
30
0.0
40
3187.35972289517
210
0.0
220
0.0
230
1.0
100
AcDbArc
50
67.5246943308783
51
67.5774815138647
0
ARC
5
164
330
70
100
AcDbEntity
67
0
8
IV_OUTER_PROFILE
62
256
6
ByLayer
370
-1
48
1.0
60
0
100
AcDbCircle
39
0.0
10
-362.372891492503
20
-2476.04293403606
30
0.0
40
2870.38978705663
210
0.0
220
0.0
230
1.0
100
AcDbArc
50
67.5794250128435
51
67.6380170310636
0
ARC
5
165
330
70
100
AcDbEntity
67
0
8
IV_OUTER_PROFILE
62
256
6
ByLayer
370
-1
48
1.0
60
0
100
AcDbCircle
39
0.0
10
-263.176630243184
20
-2235.15424889054
30
0.0
40
2609.87635515791
210
0.0
220
0.0
230
1.0
100
AcDbArc
50
67.6399670344047
51
67.7043782605675
0
ARC
5
166
330
70
100
AcDbEntity
67
0
8
IV_OUTER_PROFILE
62
256
6
ByLayer
370
-1
48
1.0
60
0
100
AcDbCircle
39
0.0
10
-180.404634878742
20
-2033.5066912566
30
0.0
40
2391.90173867107
210
0.0
220
0.0
230
1.0
100
AcDbArc
50
67.7063353862813
51
67.7765815887681
0
ARC
5
167
330
70
100
AcDbEntity
67
0
8
IV_OUTER_PROFILE
62
256
6
ByLayer
370
-1
48
1.0
60
0
100
AcDbCircle
39
0.0
10
-110.316733595894
20
-1862.1620802318
30
0.0
40
2206.77669059295
210
0.0
220
0.0
230
1.0
100
AcDbArc
50
67.7785464499595
51
67.8546447821161
0
ARC
5
168
330
70
100
AcDbEntity
67
0
8
IV_OUTER_PROFILE
62
256
6
ByLayer
370
-1
48
1.0
60
0
100
AcDbCircle
39
0.0
10
-50.2289508596715
20
-1714.70617133545
30
0.0
40
2047.54798293158
210
0.0
220
0.0
230
1.0
100
AcDbArc
50
67.8566179864787
51
67.9385869756797
0
ARC
5
169
330
70
100
AcDbEntity
67
0
8
IV_OUTER_PROFILE
62
256
6
ByLayer
370
-1
48
1.0
60
0
100
AcDbCircle
39
0.0
10
1.83468412928701
20
-1586.41660880351
30
0.0
40
1909.09644171739
210
0.0
220
0.0
230
1.0
100
AcDbArc
50
67.9405691249115
51
68.0284286596165
0
ARC
5
16A
330
70
100
AcDbEntity
67
0
8
IV_OUTER_PROFILE
62
256
6
ByLayer
370
-1
48
1.0
60
0
100
AcDbCircle
39
0.0
10
47.3611178097627
20
-1473.73964388605
30
0.0
40
1787.56969378526
210
0.0
220
0.0
230
1.0
100
AcDbArc
50
68.0304203487739
51
68.1241916651073
0
ARC
5
16B
330
70
100
AcDbEntity
67
0
8
IV_OUTER_PROFILE
62
256
6
ByLayer
370
-1
48
1.0
60
0
100
AcDbCircle
39
0.0
10
87.4907031289402
20
-1373.94977941827
30
0.0
40
1680.01321093788
210
0.0
220
0.0
230
1.0
100
AcDbArc
50
68.1261934819404
51
68.2258991480694
0
ARC
5
16C
330
70
100
AcDbEntity
67
0
8
IV_OUTER_PROFILE
62
256
6
ByLayer
370
-1
48
1.0
60
0
100
AcDbCircle
39
0.0
10
123.112599634436
20
-1284.92179962443
30
0.0
40
1584.12318323265
210
0.0
220
0.0
230
1.0
100
AcDbArc
50
68.2279116724231
51
68.3335755721396
0
ARC
5
16D
330
70
100
AcDbEntity
67
0
8
IV_OUTER_PROFILE
62
256
6
ByLayer
370
-1
48
1.0
60
0
100
AcDbCircle
39
0.0
10
154.930303875266
20
-1204.97417804131
30
0.0
40
1498.07676820495
210
0.0
220
0.0
230
1.0
100
AcDbArc
50
68.3355993750517
51
68.4472466896619
0
ARC
5
16E
330
70
100
AcDbEntity
67
0
8
IV_OUTER_PROFILE
62
256
6
ByLayer
370
-1
48
1.0
60
0
100
AcDbCircle
39
0.0
10
183.507682631737
20
-1132.75907666467
30
0.0
40
1420.412846353
210
0.0
220
0.0
230
1.0
100
AcDbArc
50
68.4492823327318
51
68.5669395209177
0
ARC
5
16F
330
70
100
AcDbEntity
67
0
8
IV_OUTER_PROFILE
62
256
6
ByLayer
370
-1
48
1.0
60
0
100
AcDbCircle
39
0.0
10
225.413568526385
20
-1026.24082444909
30
0.0
40
1305.94785809446
210
0.0
220
0.0
230
1.0
100
AcDbArc
50
68.5706526432131
51
68.8584905347358
0
ARC
5
170
330
70
100
AcDbEntity
67
0
8
IV_OUTER_PROFILE
62
256
6
ByLayer
370
-1
48
1.0
60
0
100
AcDbCircle
39
0.0
10
264.917004278865
20
-924.592525260865
30
0.0
40
1196.89346018301
210
0.0
220
0.0
230
1.0
100
AcDbArc
50
68.8672412179523
51
69.1806506611132
0
ARC
5
171
330
70
100
AcDbEntity
67
0
8
IV_OUTER_PROFILE
62
256
6
ByLayer
370
-1
48
1.0
60
0
100
AcDbCircle
39
0.0
10
298.384749882343
20
-837.058856069995
30
0.0
40
1103.18005934697
210
0.0
220
0.0
230
1.0
100
AcDbArc
50
69.1895341932167
51
69.5288121180838
0
ARC
5
172
330
70
100
AcDbEntity
67
0
8
IV_OUTER_PROFILE
62
256
6
ByLayer
370
-1
48
1.0
60
0
100
AcDbCircle
39
0.0
10
327.019828490783
20
-760.813425934821
30
0.0
40
1021.73495278974
210
0.0
220
0.0
230
1.0
100
AcDbArc
50
69.5378363222878
51
69.9032979938455
0
ARC
5
173
330
70
100
AcDbEntity
67
0
8
IV_OUTER_PROFILE
62
256
6
ByLayer
370
-1
48
1.0
60
0
100
AcDbCircle
39
0.0
10
351.720826024161
20
-693.745452768605
30
0.0
40
950.263088234927
210
0.0
220
0.0
230
1.0
100
AcDbArc
50
69.9124699925288
51
70.3044475738087
0
ARC
5
174
330
70
100
AcDbEntity
67
0
8
IV_OUTER_PROFILE
62
256
6
ByLayer
370
-1
48
1.0
60
0
100
AcDbCircle
39
0.0
10
373.172392699966
20
-634.247294821123
30
0.0
40
887.01612641214
210
0.0
220
0.0
230
1.0
100
AcDbArc
50
70.3137736825497
51
70.732614579853
0
ARC
5
175
330
70
100
AcDbEntity
67
0
8
IV_OUTER_PROFILE
62
256
6
ByLayer
370
-1
48
1.0
60
0
100
AcDbCircle
39
0.0
10
391.905314804648
20
-581.073438826343
30
0.0
40
830.639170680062
210
0.0
220
0.0
230
1.0
100
AcDbArc
50
70.7421001896582
51
71.1881651554299
0
ARC
5
176
330
70
100
AcDbEntity
67
0
8
IV_OUTER_PROFILE
62
256
6
ByLayer
370
-1
48
1.0
60
0
100
AcDbCircle
39
0.0
10
408.337462615702
20
-533.244395759325
30
0.0
40
780.066307757663
210
0.0
220
0.0
230
1.0
100
AcDbArc
50
71.1978146025553
51
71.6714755699046
0
ARC
5
177
330
70
100
AcDbEntity
67
0
8
IV_OUTER_PROFILE
62
256
6
ByLayer
370
-1
48
1.0
60
0
100
AcDbCircle
39
0.0
10
422.802361880436
20
-489.979659496573
30
0.0
40
734.447738102036
210
0.0
220
0.0
230
1.0
100
AcDbArc
50
71.6812919927275
51
72.1829296147436
0
ARC
5
178
330
70
100
AcDbEntity
67
0
8
IV_OUTER_PROFILE
62
256
6
ByLayer
370
-1
48
1.0
60
0
100
AcDbCircle
39
0.0
10
435.569545695457
20
-450.649967221935
30
0.0
40
693.097886632764
210
0.0
220
0.0
230
1.0
100
AcDbArc
50
72.1929147973139
51
72.7229156630287
0
ARC
5
179
330
70
100
AcDbEntity
67
0
8
IV_OUTER_PROFILE
62
256
6
ByLayer
370
-1
48
1.0
60
0
100
AcDbCircle
39
0.0
10
446.859321423639
20
-414.742674667726
30
0.0
40
655.457769392966
210
0.0
220
0.0
230
1.0
100
AcDbArc
50
72.7330698652357
51
73.291823364072
0
ARC
5
17A
330
70
100
AcDbEntity
67
0
8
IV_OUTER_PROFILE
62
256
6
ByLayer
370
-1
48
1.0
60
0
100
AcDbCircle
39
0.0
10
456.853664147272
20
-381.836227290732
30
0.0
40
621.067248110003
210
0.0
220
0.0
230
1.0
100
AcDbArc
50
73.3021451386371
51
73.8900399449829
0
ARC
5
17B
330
70
100
AcDbEntity
67
0
8
IV_OUTER_PROFILE
62
256
6
ByLayer
370
-1
48
1.0
60
0
100
AcDbCircle
39
0.0
10
464.98747229881
20
-353.990707849833
30
0.0
40
592.058220116554
210
0.0
220
0.0
230
1.0
100
AcDbArc
50
73.8985347516453
51
74.206172255304
0
ARC
5
17C
330
70
100
AcDbEntity
67
0
8
IV_OUTER_PROFILE
62
256
6
ByLayer
370
-1
48
1.0
60
0
100
AcDbCircle
39
0.0
10
469.066125287083
20
-339.669079263352
30
0.0
40
577.167158152198
210
0.0
220
0.0
230
1.0
100
AcDbArc
50
74.2088188993929
51
74.5239048320518
0
ARC
5
17D
330
70
100
AcDbEntity
67
0
8
IV_OUTER_PROFILE
62
256
6
ByLayer
370
-1
48
1.0
60
0
100
AcDbCircle
39
0.0
10
472.902933608976
20
-325.909708570042
30
0.0
40
562.88287740431
210
0.0
220
0.0
230
1.0
100
AcDbArc
50
74.5265710269479
51
74.8491514704738
0
ARC
5
17E
330
70
100
AcDbEntity
67
0
8
IV_OUTER_PROFILE
62
256
6
ByLayer
370
-1
48
1.0
60
0
100
AcDbCircle
39
0.0
10
476.500343599089
20
-312.72416417108
30
0.0
40
549.215425651592
210
0.0
220
0.0
230
1.0
100
AcDbArc
50
74.8518823975579
51
75.1819767809439
0
ARC
5
17F
330
70
100
AcDbEntity
67
0
8
IV_OUTER_PROFILE
62
256
6
ByLayer
370
-1
48
1.0
60
0
100
AcDbCircle
39
0.0
10
479.702685185311
20
-300.713932470953
30
0.0
40
536.78562047875
210
0.0
220
0.0
230
1.0
100
AcDbArc
50
75.1845626349678
51
75.5217768833384
0
ARC
5
180
330
70
100
AcDbEntity
67
0
8
IV_OUTER_PROFILE
62
256
6
ByLayer
370
-1
48
1.0
60
0
100
AcDbCircle
39
0.0
10
481.715951717094
20
-292.979694075614
30
0.0
40
528.793659757887
210
0.0
220
0.0
230
1.0
100
AcDbArc
50
75.5234756426883
51
75.8652605361668
0
ARC
5
181
330
70
100
AcDbEntity
67
0
8
IV_OUTER_PROFILE
62
256
6
ByLayer
370
-1
48
1.0
60
0
100
AcDbCircle
39
0.0
10
483.633378647848
20
-285.429066709333
30
0.0
40
521.003393000099
210
0.0
220
0.0
230
1.0
100
AcDbArc
50
75.8669639110593
51
76.2133326051566
0
ARC
5
182
330
70
100
AcDbEntity
67
0
8
IV_OUTER_PROFILE
62
256
6
ByLayer
370
-1
48
1.0
60
0
100
AcDbCircle
39
0.0
10
485.457707998369
20
-278.058458373437
30
0.0
40
513.410382575985
210
0.0
220
0.0
230
1.0
100
AcDbArc
50
76.2150399443507
51
76.5660042762764
0
ARC
5
183
330
70
100
AcDbEntity
67
0
8
IV_OUTER_PROFILE
62
256
6
ByLayer
370
-1
48
1.0
60
0
100
AcDbCircle
39
0.0
10
487.191608490926
20
-270.864440868315
30
0.0
40
506.010378034723
210
0.0
220
0.0
230
1.0
100
AcDbArc
50
76.5677148943148
51
76.9232853112192
0
ARC
5
184
330
70
100
AcDbEntity
67
0
8
IV_OUTER_PROFILE
62
256
6
ByLayer
370
-1
48
1.0
60
0
100
AcDbCircle
39
0.0
10
488.837680297378
20
-263.843741840825
30
0.0
40
498.799307270132
210
0.0
220
0.0
230
1.0
100
AcDbArc
50
76.9249984878648
51
77.2851839737076
0
ARC
5
185
330
70
100
AcDbEntity
67
0
8
IV_OUTER_PROFILE
62
256
6
ByLayer
370
-1
48
1.0
60
0
100
AcDbCircle
39
0.0
10
490.398459612427
20
-256.993236909633
30
0.0
40
491.77326783706
210
0.0
220
0.0
230
1.0
100
AcDbArc
50
77.2868989533924
51
77.6517069548212
0
ARC
5
186
330
70
100
AcDbEntity
67
0
8
IV_OUTER_PROFILE
62
256
6
ByLayer
370
-1
48
1.0
60
0
100
AcDbCircle
39
0.0
10
491.876422852483
20
-250.309942761782
30
0.0
40
484.928519332009
210
0.0
220
0.0
230
1.0
100
AcDbArc
50
77.6534229461914
51
78.0228592971526
0
ARC
5
187
330
70
100
AcDbEntity
67
0
8
IV_OUTER_PROFILE
62
256
6
ByLayer
370
-1
48
1.0
60
0
100
AcDbCircle
39
0.0
10
493.273990733234
20
-243.791010176247
30
0.0
40
478.261475762301
210
0.0
220
0.0
230
1.0
100
AcDbArc
50
78.0245754726983
51
78.3986443182585
0
ARC
5
188
330
70
100
AcDbEntity
67
0
8
IV_OUTER_PROFILE
62
256
6
ByLayer
370
-1
48
1.0
60
0
100
AcDbCircle
39
0.0
10
494.593532071878
20
-237.433717673329
30
0.0
40
471.768698618164
210
0.0
220
0.0
230
1.0
100
AcDbArc
50
78.4003598139421
51
78.7790635332756
0
ARC
5
189
330
70
100
AcDbEntity
67
0
8
IV_OUTER_PROFILE
62
256
6
ByLayer
370
-1
48
1.0
60
0
100
AcDbCircle
39
0.0
10
495.8373673886
20
-231.235465515429
30
0.0
40
465.446890362482
210
0.0
220
0.0
230
1.0
100
AcDbArc
50
78.780777448286
51
79.1641165769766
0
ARC
5
18A
330
70
100
AcDbEntity
67
0
8
IV_OUTER_PROFILE
62
256
6
ByLayer
370
-1
48
1.0
60
0
100
AcDbCircle
39
0.0
10
497.007772332968
20
-225.193769965131
30
0.0
40
459.292888239663
210
0.0
220
0.0
230
1.0
100
AcDbArc
50
79.1658279735214
51
79.5538011253985
0
ARC
5
18B
330
70
100
AcDbEntity
67
0
8
IV_OUTER_PROFILE
62
256
6
ByLayer
370
-1
48
1.0
60
0
100
AcDbCircle
39
0.0
10
498.106980907689
20
-219.306257980214
30
0.0
40
453.303658584006
210
0.0
220
0.0
230
1.0
100
AcDbArc
50
79.5555090286119
51
79.9481128171874
0
ARC
5
18C
330
70
100
AcDbEntity
67
0
8
IV_OUTER_PROFILE
62
256
6
ByLayer
370
-1
48
1.0
60
0
100
AcDbCircle
39
0.0
10
499.137188560198
20
-213.570662018489
30
0.0
40
447.476291291866
210
0.0
220
0.0
230
1.0
100
AcDbArc
50
79.9498162150981
51
80.3470451749432
0
ARC
5
18D
330
70
100
AcDbEntity
67
0
8
IV_OUTER_PROFILE
62
256
6
ByLayer
370
-1
48
1.0
60
0
100
AcDbCircle
39
0.0
10
500.100555064209
20
-207.984815409843
30
0.0
40
441.807994920399
210
0.0
220
0.0
230
1.0
100
AcDbArc
50
80.348743018562
51
80.7505895265634
0
ARC
5
18E
330
70
100
AcDbEntity
67
0
8
IV_OUTER_PROFILE
62
256
6
ByLayer
370
-1
48
1.0
60
0
100
AcDbCircle
39
0.0
10
500.999207317711
20
-202.54664763796
30
0.0
40
436.296091742269
210
0.0
220
0.0
230
1.0
100
AcDbArc
50
80.7522807300792
51
81.158734927087
0
ARC
5
18F
330
70
100
AcDbEntity
67
0
8
IV_OUTER_PROFILE
62
256
6
ByLayer
370
-1
48
1.0
60
0
100
AcDbCircle
39
0.0
10
501.835241950198
20
-197.254180163992
30
0.0
40
430.938013396519
210
0.0
220
0.0
230
1.0
100
AcDbArc
50
81.1604183681362
51
81.5714680809554
0
ARC
5
190
330
70
100
AcDbEntity
67
0
8
IV_OUTER_PROFILE
62
256
6
ByLayer
370
-1
48
1.0
60
0
100
AcDbCircle
39
0.0
10
502.610727836773
20
-192.105522267238
30
0.0
40
425.731296600686
210
0.0
220
0.0
230
1.0
100
AcDbArc
50
81.5731426010356
51
81.9887732651853
0
ARC
5
191
330
70
100
AcDbEntity
67
0
8
IV_OUTER_PROFILE
62
256
6
ByLayer
370
-1
48
1.0
60
0
100
AcDbCircle
39
0.0
10
503.327708463217
20
-187.098867273491
30
0.0
40
420.673579297979
210
0.0
220
0.0
230
1.0
100
AcDbArc
50
81.9904376701691
51
82.4106322534865
0
ARC
5
192
330
70
100
AcDbEntity
67
0
8
IV_OUTER_PROFILE
62
256
6
ByLayer
370
-1
48
1.0
60
0
100
AcDbCircle
39
0.0
10
503.988204199988
20
-182.23248883863
30
0.0
40
415.762596901103
210
0.0
220
0.0
230
1.0
100
AcDbArc
50
82.4122853142842
51
82.8370242417686
0
ARC
5
193
330
70
100
AcDbEntity
67
0
8
IV_OUTER_PROFILE
62
256
6
ByLayer
370
-1
48
1.0
60
0
100
AcDbCircle
39
0.0
10
504.594214458387
20
-177.504737487642
30
0.0
40
410.996178833683
210
0.0
220
0.0
230
1.0
100
AcDbArc
50
82.8386646950906
51
83.2679257751901
0
ARC
5
194
330
70
100
AcDbEntity
67
0
8
IV_OUTER_PROFILE
62
256
6
ByLayer
370
-1
48
1.0
60
0
100
AcDbCircle
39
0.0
10
505.147719741723
20
-172.914037372056
30
0.0
40
406.372245329828
210
0.0
220
0.0
230
1.0
100
AcDbArc
50
83.2695523244703
51
83.7033106770454
0
ARC
5
195
330
70
100
AcDbEntity
67
0
8
IV_OUTER_PROFILE
62
256
6
ByLayer
370
-1
48
1.0
60
0
100
AcDbCircle
39
0.0
10
505.650683613422
20
-168.45888310528
30
0.0
40
401.888804348666
210
0.0
220
0.0
230
1.0
100
AcDbArc
50
83.7049219934986
51
84.1431499798397
0
ARC
5
196
330
70
100
AcDbEntity
67
0
8
IV_OUTER_PROFILE
62
256
6
ByLayer
370
-1
48
1.0
60
0
100
AcDbCircle
39
0.0
10
506.105054567552
20
-164.137836822827
30
0.0
40
397.543948750529
210
0.0
220
0.0
230
1.0
100
AcDbArc
50
84.1447447036728
51
84.5874118588003
0
ARC
5
197
330
70
100
AcDbEntity
67
0
8
IV_OUTER_PROFILE
62
256
6
ByLayer
370
-1
48
1.0
60
0
100
AcDbCircle
39
0.0
10
506.515349781355
20
-159.921158793973
30
0.0
40
393.307369986282
210
0.0
220
0.0
230
1.0
100
AcDbArc
50
84.5889733772495
51
85.0360787217003
0
ARC
5
198
330
70
100
AcDbEntity
67
0
8
IV_OUTER_PROFILE
62
256
6
ByLayer
370
-1
48
1.0
60
0
100
AcDbCircle
39
0.0
10
506.781056005103
20
-156.955261544574
30
0.0
40
390.329605626145
210
0.0
220
0.0
230
1.0
100
AcDbArc
50
85.037264070313
51
85.4874733038801
0
ARC
5
199
330
70
100
AcDbEntity
67
0
8
IV_OUTER_PROFILE
62
256
6
ByLayer
370
-1
48
1.0
60
0
100
AcDbCircle
39
0.0
10
506.830041804086
20
-156.354438857062
30
0.0
40
389.72679133998
210
0.0
220
0.0
230
1.0
100
AcDbArc
50
85.4877030876557
51
85.9383288929128
0
ARC
5
19A
330
70
100
AcDbEntity
67
0
8
IV_OUTER_PROFILE
62
256
6
ByLayer
370
-1
48
1.0
60
0
100
AcDbCircle
39
0.0
10
506.868933455303
20
-155.826117701905
30
0.0
40
389.197042421975
210
0.0
220
0.0
230
1.0
100
AcDbArc
50
85.9385310034895
51
86.3895180334103
0
ARC
5
19B
330
70
100
AcDbEntity
67
0
8
IV_OUTER_PROFILE
62
256
6
ByLayer
370
-1
48
1.0
60
0
100
AcDbCircle
39
0.0
10
506.898880471183
20
-155.370288898402
30
0.0
40
388.740232481606
210
0.0
220
0.0
230
1.0
100
AcDbArc
50
86.3896923383897
51
86.8409849778711
0
ARC
5
19C
330
70
100
AcDbEntity
67
0
8
IV_OUTER_PROFILE
62
256
6
ByLayer
370
-1
48
1.0
60
0
100
AcDbCircle
39
0.0
10
506.92103149762
20
-154.986943219831
30
0.0
40
388.356248638506
210
0.0
220
0.0
230
1.0
100
AcDbArc
50
86.8411313652638
51
87.2926737719539
0
ARC
5
19D
330
70
100
AcDbEntity
67
0
8
IV_OUTER_PROFILE
62
256
6
ByLayer
370
-1
48
1.0
60
0
100
AcDbCircle
39
0.0
10
506.936534306257
20
-154.67607152844
30
0.0
40
388.044991667039
210
0.0
220
0.0
230
1.0
100
AcDbArc
50
87.2927921503785
51
87.7445282957694
0
ARC
5
19E
330
70
100
AcDbEntity
67
0
8
IV_OUTER_PROFILE
62
256
6
ByLayer
370
-1
48
1.0
60
0
100
AcDbCircle
39
0.0
10
506.94653580318
20
-154.437664630387
30
0.0
40
387.806375856164
210
0.0
220
0.0
230
1.0
100
AcDbArc
50
87.7446185946212
51
88.1964923056571
0
ARC
5
19F
330
70
100
AcDbEntity
67
0
8
IV_OUTER_PROFILE
62
256
6
ByLayer
370
-1
48
1.0
60
0
100
AcDbCircle
39
0.0
10
506.952182021886
20
-154.271713450188
30
0.0
40
387.640329185007
210
0.0
220
0.0
230
1.0
100
AcDbArc
50
88.1965544752478
51
88.6485094759984
0
ARC
5
1A0
330
70
100
AcDbEntity
67
0
8
IV_OUTER_PROFILE
62
256
6
ByLayer
370
-1
48
1.0
60
0
100
AcDbCircle
39
0.0
10
506.954618132574
20
-154.178208795361
30
0.0
40
387.546793084103
210
0.0
220
0.0
230
1.0
100
AcDbArc
50
88.648543487622
51
89.1005234414223
0
ARC
5
1A1
330
70
100
AcDbEntity
67
0
8
IV_OUTER_PROFILE
62
256
6
ByLayer
370
-1
48
1.0
60
0
100
AcDbCircle
39
0.0
10
506.954988434206
20
-154.1571416397
30
0.0
40
387.525722711362
210
0.0
220
0.0
230
1.0
100
AcDbArc
50
89.1005292874134
51
89.5524778387871
0
ARC
5
1A2
330
70
100
AcDbEntity
67
0
8
IV_OUTER_PROFILE
62
256
6
ByLayer
370
-1
48
1.0
60
0
100
AcDbCircle
39
0.0
10
506.954436361976
20
-154.208502883815
30
0.0
40
387.577086700848
210
0.0
220
0.0
230
1.0
100
AcDbArc
50
89.5524555325598
51
90.0043163494571
0
ARC
5
1A3
330
70
100
AcDbEntity
67
0
8
IV_OUTER_PROFILE
62
256
6
ByLayer
370
-1
48
1.0
60
0
100
AcDbCircle
39
0.0
10
506.954104484846
20
-154.33228345311
30
0.0
40
387.700867244939
210
0.0
220
0.0
230
1.0
100
AcDbArc
50
90.00426592543
51
90.4559827413066
0
ARC
5
1A4
330
70
100
AcDbEntity
67
0
8
IV_OUTER_PROFILE
62
256
6
ByLayer
370
-1
48
1.0
60
0
100
AcDbCircle
39
0.0
10
506.955134507148
20
-154.528474353041
30
0.0
40
387.897060129524
210
0.0
220
0.0
230
1.0
100
AcDbArc
50
90.4559042548694
51
90.9074209105801
0
ARC
5
1A5
330
70
100
AcDbEntity
67
0
8
IV_OUTER_PROFILE
62
256
6
ByLayer
370
-1
48
1.0
60
0
100
AcDbCircle
39
0.0
10
506.95866726893
20
-154.797066526946
30
0.0
40
388.165674567587
210
0.0
220
0.0
230
1.0
100
AcDbArc
50
90.9073144379744
51
91.3585749236309
0
ARC
5
1A6
330
70
100
AcDbEntity
67
0
8
IV_OUTER_PROFILE
62
256
6
ByLayer
370
-1
48
1.0
60
0
100
AcDbCircle
39
0.0
10
506.965842746976
20
-155.138050981046
30
0.0
40
388.506733295818
210
0.0
220
0.0
230
1.0
100
AcDbArc
50
91.3584405617847
51
91.8093890581908
0
ARC
5
1A7
330
70
100
AcDbEntity
67
0
8
IV_OUTER_PROFILE
62
256
6
ByLayer
370
-1
48
1.0
60
0
100
AcDbCircle
39
0.0
10
506.977800056688
20
-155.551418768542
30
0.0
40
388.920272526201
210
0.0
220
0.0
230
1.0
100
AcDbArc
50
91.8092269245717
51
92.2598078443222
0
ARC
5
1A8
330
70
100
AcDbEntity
67
0
8
IV_OUTER_PROFILE
62
256
6
ByLayer
370
-1
48
1.0
60
0
100
AcDbCircle
39
0.0
10
506.995677448667
20
-156.037160867249
30
0.0
40
389.406341786949
210
0.0
220
0.0
230
1.0
100
AcDbArc
50
92.2596180766847
51
92.7097761049775
0
ARC
5
1A9
330
70
100
AcDbEntity
67
0
8
IV_OUTER_PROFILE
62
256
6
ByLayer
370
-1
48
1.0
60
0
100
AcDbCircle
39
0.0
10
507.020612317721
20
-156.595268414619
30
0.0
40
389.965004116986
210
0.0
220
0.0
230
1.0
100
AcDbArc
50
92.7095588611196
51
93.1592389957913
0
ARC
5
1AA
330
70
100
AcDbEntity
67
0
8
IV_OUTER_PROFILE
62
256
6
ByLayer
370
-1
48
1.0
60
0
100
AcDbCircle
39
0.0
10
507.053741192763
20
-157.225732429713
30
0.0
40
390.596335742982
210
0.0
220
0.0
230
1.0
100
AcDbArc
50
93.1589944532723
51
93.6081420445808
0
ARC
5
1AB
330
70
100
AcDbEntity
67
0
8
IV_OUTER_PROFILE
62
256
6
ByLayer
370
-1
48
1.0
60
0
100
AcDbCircle
39
0.0
10
507.096199746837
20
-157.928544033114
30
0.0
40
391.300426250769
210
0.0
220
0.0
230
1.0
100
AcDbArc
50
93.6078704003538
51
94.0564311898612
0
ARC
5
1AC
330
70
100
AcDbEntity
67
0
8
IV_OUTER_PROFILE
62
256
6
ByLayer
370
-1
48
1.0
60
0
100
AcDbCircle
39
0.0
10
507.149122795435
20
-158.703694370881
30
0.0
40
392.077378456658
210
0.0
220
0.0
230
1.0
100
AcDbArc
50
94.0561326599637
51
94.5040528187941
0
ARC
5
1AD
330
70
100
AcDbEntity
67
0
8
IV_OUTER_PROFILE
62
256
6
ByLayer
370
-1
48
1.0
60
0
100
AcDbCircle
39
0.0
10
507.213644292101
20
-159.551174549546
30
0.0
40
392.927308285759
210
0.0
220
0.0
230
1.0
100
AcDbArc
50
94.5037276379213
51
94.9509538043136
0
ARC
5
1AE
330
70
100
AcDbEntity
67
0
8
IV_OUTER_PROFILE
62
256
6
ByLayer
370
-1
48
1.0
60
0
100
AcDbCircle
39
0.0
10
507.290897335048
20
-160.47097572626
30
0.0
40
393.850344802018
210
0.0
220
0.0
230
1.0
100
AcDbArc
50
94.9506022253782
51
95.397081541295
0
ARC
5
1AF
330
70
100
AcDbEntity
67
0
8
IV_OUTER_PROFILE
62
256
6
ByLayer
370
-1
48
1.0
60
0
100
AcDbCircle
39
0.0
10
507.382014167667
20
-161.463089094101
30
0.0
40
394.846630129502
210
0.0
220
0.0
230
1.0
100
AcDbArc
50
95.3967038349942
51
95.842383981845
0
ARC
5
1B0
330
70
100
AcDbEntity
67
0
8
IV_OUTER_PROFILE
62
256
6
ByLayer
370
-1
48
1.0
60
0
100
AcDbCircle
39
0.0
10
507.470634879626
20
-162.370348816758
30
0.0
40
395.758198177393
210
0.0
220
0.0
230
1.0
100
AcDbArc
50
95.8417771447562
51
96.2867840116429
0
ARC
5
1B1
330
70
100
AcDbEntity
67
0
8
IV_OUTER_PROFILE
62
256
6
ByLayer
370
-1
48
1.0
60
0
100
AcDbCircle
39
0.0
10
507.891974727863
20
-166.281875745623
30
0.0
40
399.69234107432
210
0.0
220
0.0
230
1.0
100
AcDbArc
50
96.2854184772911
51
96.7264193832158
0
ARC
5
1B2
330
70
100
AcDbEntity
67
0
8
IV_OUTER_PROFILE
62
256
6
ByLayer
370
-1
48
1.0
60
0
100
AcDbCircle
39
0.0
10
508.445851849227
20
-171.084087139438
30
0.0
40
404.526372716611
210
0.0
220
0.0
230
1.0
100
AcDbArc
50
96.7246613827143
51
97.1607842052565
0
ARC
5
1B3
330
70
100
AcDbEntity
67
0
8
IV_OUTER_PROFILE
62
256
6
ByLayer
370
-1
48
1.0
60
0
100
AcDbCircle
39
0.0
10
509.055114800583
20
-176.035200667615
30
0.0
40
409.514816165102
210
0.0
220
0.0
230
1.0
100
AcDbArc
50
97.1590120840874
51
97.590230384719
0
ARC
5
1B4
330
70
100
AcDbEntity
67
0
8
IV_OUTER_PROFILE
62
256
6
ByLayer
370
-1
48
1.0
60
0
100
AcDbCircle
39
0.0
10
509.721957062693
20
-181.137250445592
30
0.0
40
414.6602438211
210
0.0
220
0.0
230
1.0
100
AcDbArc
50
97.5884455866212
51
98.0147359580678
0
ARC
5
1B5
330
70
100
AcDbEntity
67
0
8
IV_OUTER_PROFILE
62
256
6
ByLayer
370
-1
48
1.0
60
0
100
AcDbCircle
39
0.0
10
510.448599734279
20
-186.392370971643
30
0.0
40
419.965347985261
210
0.0
220
0.0
230
1.0
100
AcDbArc
50
98.0129398859771
51
98.4342818652116
0
ARC
5
1B6
330
70
100
AcDbEntity
67
0
8
IV_OUTER_PROFILE
62
256
6
ByLayer
370
-1
48
1.0
60
0
100
AcDbCircle
39
0.0
10
511.237294382574
20
-191.802802107014
30
0.0
40
425.432945886252
210
0.0
220
0.0
230
1.0
100
AcDbArc
50
98.4324758803402
51
98.8488518595942
0
ARC
5
1B7
330
70
100
AcDbEntity
67
0
8
IV_OUTER_PROFILE
62
256
6
ByLayer
370
-1
48
1.0
60
0
100
AcDbCircle
39
0.0
10
512.090326024823
20
-197.370894183833
30
0.0
40
431.065984889883
210
0.0
220
0.0
230
1.0
100
AcDbArc
50
98.8470372806506
51
99.258432416954
0
ARC
5
1B8
330
70
100
AcDbEntity
67
0
8
IV_OUTER_PROFILE
62
256
6
ByLayer
370
-1
48
1.0
60
0
100
AcDbCircle
39
0.0
10
513.010016293582
20
-203.09911356385
30
0.0
40
436.867548217406
210
0.0
220
0.0
230
1.0
100
AcDbArc
50
99.2566105194999
51
99.6630126429329
0
ARC
5
1B9
330
70
100
AcDbEntity
67
0
8
IV_OUTER_PROFILE
62
256
6
ByLayer
370
-1
48
1.0
60
0
100
AcDbCircle
39
0.0
10
513.99872678256
20
-208.9900485433
30
0.0
40
442.840861070411
210
0.0
220
0.0
230
1.0
100
AcDbArc
50
99.6611846589363
51
100.062584179903
0
ARC
5
1BA
330
70
100
AcDbEntity
67
0
8
IV_OUTER_PROFILE
62
256
6
ByLayer
370
-1
48
1.0
60
0
100
AcDbCircle
39
0.0
10
515.058862561184
20
-215.046415489607
30
0.0
40
448.9892970491
210
0.0
220
0.0
230
1.0
100
AcDbArc
50
100.060751297428
51
100.457141113368
0
ARC
5
1BB
330
70
100
AcDbEntity
67
0
8
IV_OUTER_PROFILE
62
256
6
ByLayer
370
-1
48
1.0
60
0
100
AcDbCircle
39
0.0
10
516.192875892105
20
-221.271065378798
30
0.0
40
455.316385037597
210
0.0
220
0.0
230
1.0
100
AcDbArc
50
100.455304476347
51
100.84667987814
0
ARC
5
1BC
330
70
100
AcDbEntity
67
0
8
IV_OUTER_PROFILE
62
256
6
ByLayer
370
-1
48
1.0
60
0
100
AcDbCircle
39
0.0
10
517.403270214823
20
-227.666991004914
30
0.0
40
461.825816835916
210
0.0
220
0.0
230
1.0
100
AcDbArc
50
100.844840586337
51
101.231199164441
0
ARC
5
1BD
330
70
100
AcDbEntity
67
0
8
IV_OUTER_PROFILE
62
256
6
ByLayer
370
-1
48
1.0
60
0
100
AcDbCircle
39
0.0
10
518.692604273927
20
-234.23733414774
30
0.0
40
468.521454816249
210
0.0
220
0.0
230
1.0
100
AcDbArc
50
101.229358273511
51
101.610699824503
0
ARC
5
1BE
330
70
100
AcDbEntity
67
0
8
IV_OUTER_PROFILE
62
256
6
ByLayer
370
-1
48
1.0
60
0
100
AcDbCircle
39
0.0
10
520.063496595437
20
-240.985393735815
30
0.0
40
475.407340661877
210
0.0
220
0.0
230
1.0
100
AcDbArc
50
101.608858346142
51
101.985184779435
0
ARC
5
1BF
330
70
100
AcDbEntity
67
0
8
IV_OUTER_PROFILE
62
256
6
ByLayer
370
-1
48
1.0
60
0
100
AcDbCircle
39
0.0
10
521.518630149685
20
-247.914634086211
30
0.0
40
482.487704257855
210
0.0
220
0.0
230
1.0
100
AcDbArc
50
101.983343681673
51
102.354658927009
0
ARC
5
1C0
330
70
100
AcDbEntity
67
0
8
IV_OUTER_PROFILE
62
256
6
ByLayer
370
-1
48
1.0
60
0
100
AcDbCircle
39
0.0
10
523.060757376542
20
-255.028694052738
30
0.0
40
489.766973585211
210
0.0
220
0.0
230
1.0
100
AcDbArc
50
102.352819134572
51
102.719129050166
0
ARC
5
1C1
330
70
100
AcDbEntity
67
0
8
IV_OUTER_PROFILE
62
256
6
ByLayer
370
-1
48
1.0
60
0
100
AcDbCircle
39
0.0
10
524.692705450394
20
-262.331396416564
30
0.0
40
497.249784943345
210
0.0
220
0.0
230
1.0
100
AcDbArc
50
102.717291444944
51
103.078603726767
0
ARC
5
1C2
330
70
100
AcDbEntity
67
0
8
IV_OUTER_PROFILE
62
256
6
ByLayer
370
-1
48
1.0
60
0
100
AcDbCircle
39
0.0
10
526.417381939225
20
-269.826758187427
30
0.0
40
504.940994188131
210
0.0
220
0.0
230
1.0
100
AcDbArc
50
103.076769148318
51
103.433093240446
0
ARC
5
1C3
330
70
100
AcDbEntity
67
0
8
IV_OUTER_PROFILE
62
256
6
ByLayer
370
-1
48
1.0
60
0
100
AcDbCircle
39
0.0
10
528.23778079867
20
-277.519001458719
30
0.0
40
512.845688626506
210
0.0
220
0.0
230
1.0
100
AcDbArc
50
103.43126248661
51
103.782609492901
0
ARC
5
1C4
330
70
100
AcDbEntity
67
0
8
IV_OUTER_PROFILE
62
256
6
ByLayer
370
-1
48
1.0
60
0
100
AcDbCircle
39
0.0
10
530.156988806099
20
-285.412565202851
30
0.0
40
520.969199969604
210
0.0
220
0.0
230
1.0
100
AcDbArc
50
103.780783320515
51
104.127165917621
0
ARC
5
1C5
330
70
100
AcDbEntity
67
0
8
IV_OUTER_PROFILE
62
256
6
ByLayer
370
-1
48
1.0
60
0
100
AcDbCircle
39
0.0
10
532.178192289309
20
-293.512117336614
30
0.0
40
529.317117660674
210
0.0
220
0.0
230
1.0
100
AcDbArc
50
104.125345043233
51
104.466777395415
0
ARC
5
1C6
330
70
100
AcDbEntity
67
0
8
IV_OUTER_PROFILE
62
256
6
ByLayer
370
-1
48
1.0
60
0
100
AcDbCircle
39
0.0
10
534.304684482497
20
-301.822568354972
30
0.0
40
537.895303920039
210
0.0
220
0.0
230
1.0
100
AcDbArc
50
104.464962496031
51
104.80146017142
0
ARC
5
1C7
330
70
100
AcDbEntity
67
0
8
IV_OUTER_PROFILE
62
256
6
ByLayer
370
-1
48
1.0
60
0
100
AcDbCircle
39
0.0
10
536.539873270556
20
-310.349085452852
30
0.0
40
546.709909403117
210
0.0
220
0.0
230
1.0
100
AcDbArc
50
104.799651885379
51
105.131231774068
0
ARC
5
1C8
330
70
100
AcDbEntity
67
0
8
IV_OUTER_PROFILE
62
256
6
ByLayer
370
-1
48
1.0
60
0
100
AcDbCircle
39
0.0
10
538.887289486819
20
-319.097107738417
30
0.0
40
555.767390099326
210
0.0
220
0.0
230
1.0
100
AcDbArc
50
105.129430701912
51
105.456110935927
0
ARC
5
1C9
330
70
100
AcDbEntity
67
0
8
IV_OUTER_PROFILE
62
256
6
ByLayer
370
-1
48
1.0
60
0
100
AcDbCircle
39
0.0
10
541.350595797506
20
-328.072362568661
30
0.0
40
565.074525512447
210
0.0
220
0.0
230
1.0
100
AcDbArc
50
105.454317641283
51
105.776117516469
0
ARC
5
1CA
330
70
100
AcDbEntity
67
0
8
IV_OUTER_PROFILE
62
256
6
ByLayer
370
-1
48
1.0
60
0
100
AcDbCircle
39
0.0
10
543.728452592991
20
-336.56453565344
30
0.0
40
573.893300398179
210
0.0
220
0.0
230
1.0
100
AcDbArc
50
105.774065019634
51
106.091416334719
0
ARC
5
1CB
330
70
100
AcDbEntity
67
0
8
IV_OUTER_PROFILE
62
256
6
ByLayer
370
-1
48
1.0
60
0
100
AcDbCircle
39
0.0
10
549.518149357594
20
-356.814823680907
30
0.0
40
594.954932562451
210
0.0
220
0.0
230
1.0
100
AcDbArc
50
106.086608292922
51
106.700272797589
0
ARC
5
1CC
330
70
100
AcDbEntity
67
0
8
IV_OUTER_PROFILE
62
256
6
ByLayer
370
-1
48
1.0
60
0
100
AcDbCircle
39
0.0
10
558.799269218171
20
-388.155615576132
30
0.0
40
627.640885749148
210
0.0
220
0.0
230
1.0
100
AcDbArc
50
106.689628992593
51
107.273127304438
0
ARC
5
1CD
330
70
100
AcDbEntity
67
0
8
IV_OUTER_PROFILE
62
256
6
ByLayer
370
-1
48
1.0
60
0
100
AcDbCircle
39
0.0
10
569.298219772599
20
-422.327975906639
30
0.0
40
663.389511798008
210
0.0
220
0.0
230
1.0
100
AcDbArc
50
107.262655309062
51
107.816383389609
0
ARC
5
1CE
330
70
100
AcDbEntity
67
0
8
IV_OUTER_PROFILE
62
256
6
ByLayer
370
-1
48
1.0
60
0
100
AcDbCircle
39
0.0
10
581.182993794183
20
-459.721115205779
30
0.0
40
702.625715273086
210
0.0
220
0.0
230
1.0
100
AcDbArc
50
107.80608554636
51
108.330443686664
0
ARC
5
1CF
330
70
100
AcDbEntity
67
0
8
IV_OUTER_PROFILE
62
256
6
ByLayer
370
-1
48
1.0
60
0
100
AcDbCircle
39
0.0
10
594.656335372899
20
-500.807266229283
30
0.0
40
745.864429169488
210
0.0
220
0.0
230
1.0
100
AcDbArc
50
108.320320441243
51
108.815709157718
0
ARC
5
1D0
330
70
100
AcDbEntity
67
0
8
IV_OUTER_PROFILE
62
256
6
ByLayer
370
-1
48
1.0
60
0
100
AcDbCircle
39
0.0
10
609.965485806278
20
-546.164590647527
30
0.0
40
793.735496754207
210
0.0
220
0.0
230
1.0
100
AcDbArc
50
108.805759261024
51
109.272575623767
0
ARC
5
1D1
330
70
100
AcDbEntity
67
0
8
IV_OUTER_PROFILE
62
256
6
ByLayer
370
-1
48
1.0
60
0
100
AcDbCircle
39
0.0
10
627.41533673515
20
-596.508113189332
30
0.0
40
847.017275756745
210
0.0
220
0.0
230
1.0
100
AcDbArc
50
109.262796319815
51
109.701430683713
0
ARC
5
1D2
330
70
100
AcDbEntity
67
0
8
IV_OUTER_PROFILE
62
256
6
ByLayer
370
-1
48
1.0
60
0
100
AcDbCircle
39
0.0
10
647.386469787312
20
-652.732168272286
30
0.0
40
906.682750765491
210
0.0
220
0.0
230
1.0
100
AcDbArc
50
109.691817883046
51
110.102650991309
0
ARC
5
1D3
330
70
100
AcDbEntity
67
0
8
IV_OUTER_PROFILE
62
256
6
ByLayer
370
-1
48
1.0
60
0
100
AcDbCircle
39
0.0
10
670.36034501504
20
-715.969689139788
30
0.0
40
973.963943963127
210
0.0
220
0.0
230
1.0
100
AcDbArc
50
110.093199429943
51
110.476599859216
0
ARC
5
1D4
330
70
100
AcDbEntity
67
0
8
IV_OUTER_PROFILE
62
256
6
ByLayer
370
-1
48
1.0
60
0
100
AcDbCircle
39
0.0
10
696.955181354352
20
-787.676687137173
30
0.0
40
1050.44369256702
210
0.0
220
0.0
230
1.0
100
AcDbArc
50
110.467303243381
51
110.823625160557
0
ARC
5
1D5
330
70
100
AcDbEntity
67
0
8
IV_OUTER_PROFILE
62
256
6
ByLayer
370
-1
48
1.0
60
0
100
AcDbCircle
39
0.0
10
727.97823345794
20
-869.755360643
30
0.0
40
1138.1893928719
210
0.0
220
0.0
230
1.0
100
AcDbArc
50
110.814476297737
51
111.144057499101
0
ARC
5
1D6
330
70
100
AcDbEntity
67
0
8
IV_OUTER_PROFILE
62
256
6
ByLayer
370
-1
48
1.0
60
0
100
AcDbCircle
39
0.0
10
764.503932696002
20
-964.738139399238
30
0.0
40
1239.95294269353
210
0.0
220
0.0
230
1.0
100
AcDbArc
50
111.135048416014
51
111.438208621333
0
LINE
5
1D7
330
70
100
AcDbEntity
67
0
8
IV_OUTER_PROFILE
62
256
6
ByLayer
370
-1
48
1.0
60
0
100
AcDbLine
10
1.97499173220447
20
0.0000001000000083
30
0.0
11
1.97499173220447
21
98.7574619313962
31
0.0
39
0.0
210
0.0
220
0.0
230
1.0
0
LINE
5
1D8
330
70
100
AcDbEntity
67
0
8
IV_OUTER_PROFILE
62
256
6
ByLayer
370
-1
48
1.0
60
0
100
AcDbLine
10
1012.15616898252
20
0.0000001000000083
30
0.0
11
1.97499173220447
21
0.0000001000000083
31
0.0
39
0.0
210
0.0
220
0.0
230
1.0
0
LINE
5
1D9
330
70
100
AcDbEntity
67
0
8
IV_OUTER_PROFILE
62
256
6
ByLayer
370
-1
48
1.0
60
0
100
AcDbLine
10
1012.15616898252
20
98.7573594128806
30
0.0
11
1012.15616898252
21
0.0000001000000083
31
0.0
39
0.0
210
0.0
220
0.0
230
1.0
0
ENDSEC
0
SECTION
2
OBJECTS
0
DICTIONARY
5
240
330
0
100
AcDbDictionary
280
1
281
1
3
ACAD_GROUP
350
D
3
ACAD_LAYOUT
350
62
3
ACAD_DGNDEFINITIONS
350
236
3
ACAD_DWFDEFINITIONS
350
237
3
ACAD_PDFDEFINITIONS
350
238
3
ACAD_MLINESTYLE
350
5F
3
ACAD_IMAGE_DICT
350
235
3
ACAD_IMAGE_VARS
350
239
0
DICTIONARY
5
D
330
240
100
AcDbDictionary
280
1
281
1
0
DICTIONARY
5
62
330
240
100
AcDbDictionary
280
1
281
1
3
Layout1
350
6F
3
Layout2
350
77
3
Model
350
73
0
DICTIONARY
5
236
330
240
100
AcDbDictionary
280
1
281
1
0
DICTIONARY
5
237
330
240
100
AcDbDictionary
280
1
281
1
0
DICTIONARY
5
238
330
240
100
AcDbDictionary
280
1
281
1
0
DICTIONARY
5
5F
330
240
100
AcDbDictionary
280
1
281
1
3
STANDARD
350
60
0
DICTIONARY
5
235
330
240
100
AcDbDictionary
280
1
281
1
0
DICTIONARY
5
233
330
2
100
AcDbDictionary
280
1
281
1
3
ACAD_LAYERSTATES
360
241
0
DICTIONARY
5
241
330
233
100
AcDbDictionary
280
1
281
1
0
LAYOUT
5
6F
330
62
100
AcDbPlotSettings
1

2

4

6

40
0.0
41
0.0
42
0.0
43
0.0
44
0.0
45
0.0
46
0.0
47
0.0
48
0.0
49
0.0
140
0.0
141
0.0
142
1.0
143
1.0
70
688
72
0
73
0
74
5
7

75
16
76
0
77
2
78
300
147
1.0
148
0.0
149
0.0
100
AcDbLayout
1
Layout1
71
1
10
0.0
20
0.0
11
12.0
21
9.0
12
0.0
22
0.0
32
0.0
14
0.0
24
0.0
34
0.0
15
0.0
25
0.0
35
0.0
146
0.0
13
0.0
23
0.0
33
0.0
16
1.0
26
0.0
36
0.0
17
0.0
27
1.0
37
0.0
76
0
330
6C
0
LAYOUT
5
77
330
62
100
AcDbPlotSettings
1

2

4

6

40
0.0
41
0.0
42
0.0
43
0.0
44
0.0
45
0.0
46
0.0
47
0.0
48
0.0
49
0.0
140
0.0
141
0.0
142
1.0
143
1.0
70
688
72
0
73
0
74
5
7

75
16
76
0
77
2
78
300
147
1.0
148
0.0
149
0.0
100
AcDbLayout
1
Layout2
71
2
10
0.0
20
0.0
11
12.0
21
9.0
12
0.0
22
0.0
32
0.0
14
0.0
24
0.0
34
0.0
15
0.0
25
0.0
35
0.0
146
0.0
13
0.0
23
0.0
33
0.0
16
1.0
26
0.0
36
0.0
17
0.0
27
1.0
37
0.0
76
0
330
74
0
LAYOUT
5
73
330
62
100
AcDbPlotSettings
1

2

4

6

40
0.0
41
0.0
42
0.0
43
0.0
44
0.0
45
0.0
46
0.0
47
0.0
48
0.0
49
0.0
140
0.0
141
0.0
142
1.0
143
1.0
70
1712
72
0
73
0
74
0
7

75
0
76
0
77
2
78
300
147
1.0
148
0.0
149
0.0
100
AcDbLayout
1
Model
71
3
10
0.0
20
0.0
11
12.0
21
9.0
12
0.0
22
0.0
32
0.0
14
0.0
24
0.0
34
0.0
15
0.0
25
0.0
35
0.0
146
0.0
13
0.0
23
0.0
33
0.0
16
1.0
26
0.0
36
0.0
17
0.0
27
1.0
37
0.0
76
0
330
70
0
MLINESTYLE
5
60
330
5F
100
AcDbMlineStyle
2
STANDARD
70
0
3

62
256
51
90.0
52
90.0
71
2
49
0.5
62
256
6
ByLayer
49
-0.5
62
256
6
ByLayer
0
RASTERVARIABLES
5
239
330
235
100
AcDbRasterVariables
90
0
70
1
71
1
72
0
0
ENDSEC
0
EOF
